<svg viewBox="0 0 70 70" fill="none" xmlns="http://www.w3.org/2000/svg">
    <g clip-path="url(#clip0)">
        <path d="M69.718 27.956l-12.441-21.2a2.05 2.05 0 00-2.794-.738l-7.457 4.305-6.716-2.47a7.5 7.5 0 00-6.355.545l-10.2 5.888-9.04-5.22a2.051 2.051 0 00-2.834.806L.244 31.57a2.05 2.05 0 00.782 2.745l4.618 2.666-2.316 4.012a6.16 6.16 0 002.252 8.404 6.127 6.127 0 004.337.69 6.127 6.127 0 002.767 3.411 6.127 6.127 0 004.338.69 6.126 6.126 0 002.766 3.412 6.127 6.127 0 004.337.69 6.127 6.127 0 002.767 3.412 6.16 6.16 0 008.404-2.252l.265-.46 7.696 4.444a6.16 6.16 0 008.404-2.252 6.12 6.12 0 00.758-2.181c2.616.69 5.48-.418 6.896-2.872.488-.845.75-1.759.81-2.672a6.158 6.158 0 005.66-3.065 6.158 6.158 0 00-.176-6.434 6.113 6.113 0 001.909-2.037 6.16 6.16 0 00-2.013-8.259l3.747-3.085a2.05 2.05 0 00.466-2.621zM36.005 11.95a3.408 3.408 0 012.89-.248l7.617 2.802a2.05 2.05 0 001.733-.149l6.525-3.767 10.525 17.935-3.577 2.945-24.632-14.222a2.05 2.05 0 00-2.051 0l-11.337 6.545c-.944.571-2.27.216-2.801-.75-.571-.943-.216-2.27.75-2.802l14.358-8.29zM7.631 45.845a2.053 2.053 0 01-.751-2.802l3.418-5.92a2.053 2.053 0 012.801-.75 2.053 2.053 0 01.75 2.801l-3.417 5.92a2.053 2.053 0 01-2.801.75zm7.104 4.101a2.053 2.053 0 01-.751-2.801l4.785-8.288a2.053 2.053 0 012.802-.75 2.053 2.053 0 01.75 2.8l-4.785 8.289a2.053 2.053 0 01-2.801.75zm7.104 4.102a2.053 2.053 0 01-.75-2.801l3.417-5.92a2.053 2.053 0 012.801-.751 2.053 2.053 0 01.751 2.801l-3.418 5.92a2.053 2.053 0 01-2.801.75zm7.104 4.102a2.053 2.053 0 01-.75-2.802l2.05-3.552a2.053 2.053 0 012.801-.75 2.053 2.053 0 01.751 2.8l-2.05 3.553a2.053 2.053 0 01-2.802.75zm33.29-9.809a2.053 2.053 0 01-2.802.75L48.775 42.94a2.05 2.05 0 00-2.05 3.552l8.288 4.785a2.053 2.053 0 01.75 2.802 2.053 2.053 0 01-2.801.75l-8.288-4.785a2.05 2.05 0 00-2.051 3.552l4.736 2.735a2.053 2.053 0 01.75 2.801 2.053 2.053 0 01-2.8.75l-7.718-4.455a6.16 6.16 0 00-2.496-7.933 6.115 6.115 0 00-2.672-.81 6.158 6.158 0 00-3.065-5.66 6.114 6.114 0 00-2.672-.809 6.157 6.157 0 00-3.065-5.66 6.157 6.157 0 00-6.434.176 6.113 6.113 0 00-2.037-1.91 6.162 6.162 0 00-7.195.76l-3.157-1.823 9.698-18.081 5.158 2.978-.058.034a6.113 6.113 0 00-2.866 3.735 6.112 6.112 0 00.615 4.669 6.113 6.113 0 003.735 2.866 6.113 6.113 0 004.669-.614L36.06 21.39 63.215 37.07a2.053 2.053 0 01.751 2.8 2.053 2.053 0 01-2.801.752l-8.288-4.786a2.05 2.05 0 00-2.051 3.552l10.656 6.153a2.053 2.053 0 01.75 2.801z" fill="url(#paint0_linear)"></path>
    </g>
    <defs>
        <linearGradient id="paint0_linear" x1="1.13" y1="34.842" x2="70" y2="34.842" gradientUnits="userSpaceOnUse">
            <stop stop-color="#F5AF6D"></stop>
            <stop offset="1" stop-color="#7F4D19"></stop>
        </linearGradient>
        <clipPath id="clip0">
            <path fill="#fff" d="M0 0h70v70H0z"></path>
        </clipPath>
    </defs>
</svg>
