<svg viewBox="0 0 70 70" fill="none" xmlns="http://www.w3.org/2000/svg">
    <g clip-path="url(#clip0)">
        <path
            d="M55.588 39.378v-18.79C55.588 9.236 46.352 0 35 0S14.412 9.236 14.412 20.588v18.79c-3.548.917-6.177 4.145-6.177 7.975V70h53.53V47.353c0-3.83-2.629-7.058-6.177-7.975zm2.06 7.975v10.294h-8.236v8.235H37.059v-17.5l6.863-5.147h9.608a4.122 4.122 0 014.117 4.118zM35 32.94c-4.5 0-8.235-3.621-8.235-8.235v-3.129c0-1.026.61-1.951 1.553-2.356l10.33-4.427 3.836 3.837c.484.485.751 1.128.751 1.813v4.262c0 4.604-3.725 8.235-8.235 8.235zm-3.607 3.583a12.42 12.42 0 007.214 0l2.019 4.036L35 44.78l-5.625-4.22 2.018-4.036zM35 4.118c9.082 0 16.47 7.388 16.47 16.47v18.53h-6.962l-2.219-4.436a12.277 12.277 0 005.064-9.976v-4.262a6.638 6.638 0 00-1.957-4.724l-5.808-5.808-12.892 5.524a6.674 6.674 0 00-4.049 6.141v3.129c0 4.01 1.9 7.675 5.064 9.976l-2.219 4.436H18.53v-18.53c0-9.082 7.39-16.47 16.471-16.47zM16.47 43.235h9.608l6.863 5.147v17.5H20.588v-8.235h-8.235V47.353a4.122 4.122 0 014.118-4.118zm-4.117 18.53h4.118v4.117h-4.118v-4.117zm41.176 4.117v-4.117h4.118v4.117H53.53z"
            fill="url(#paint0_linear)"/>
    </g>
    <defs>
        <linearGradient id="paint0_linear" x1="9.1" y1="34.811" x2="61.765" y2="34.811" gradientUnits="userSpaceOnUse">
            <stop stop-color="#F5AF6D"/>
            <stop offset="1" stop-color="#7F4D19"/>
        </linearGradient>
        <clipPath id="clip0">
            <path fill="#fff" d="M0 0h70v70H0z"/>
        </clipPath>
    </defs>
</svg>
