<svg viewBox="0 0 70 70" fill="none" xmlns="http://www.w3.org/2000/svg">
    <g clip-path="url(#clip0)">
        <path d="M54.985 3.963C52.711 1.408 49.56 0 46.11 0c-3.851 0-7.19 1.82-9.653 5.265-.185.259-.358.517-.52.773a16.38 16.38 0 00-.52-.773C32.952 1.821 29.614 0 25.763 0c-3.45 0-6.602 1.408-8.876 3.963-2.158 2.426-3.347 5.668-3.347 9.13 0 3.762 1.46 7.234 4.594 10.926 2.735 3.221 6.658 6.532 11.2 10.366 1.679 1.417 3.414 2.882 5.259 4.48a2.047 2.047 0 002.686 0 513.887 513.887 0 015.258-4.48c2.917-2.462 5.436-4.588 7.623-6.65 4.244-4.005 8.172-8.55 8.172-14.642 0-3.462-1.189-6.704-3.347-9.13zm-7.64 20.789c-2.103 1.984-4.582 4.077-7.453 6.5a648.702 648.702 0 00-3.956 3.357c-1.37-1.174-2.68-2.28-3.957-3.358-8.941-7.546-14.338-12.102-14.338-18.158 0-5.126 3.491-8.992 8.122-8.992 2.474 0 4.578 1.164 6.253 3.461 1.375 1.885 1.94 3.839 1.944 3.852a2.05 2.05 0 003.952 0c.02-.073 2.096-7.313 8.197-7.313 4.63 0 8.122 3.866 8.122 8.992 0 3.715-1.93 6.983-6.886 11.659z" fill="url(#paint0_linear)"></path>
        <path d="M63.841 41.295a6.173 6.173 0 00-4.501 1.96l-6.026 6.469a6.162 6.162 0 00-5.875-4.328h-9.472a5.447 5.447 0 01-3.6-1.358c-5.355-4.712-13.403-4.754-18.808-.13a6.147 6.147 0 00-5.026-2.613H2.058a2.05 2.05 0 00-2.05 2.05V67.95A2.05 2.05 0 002.058 70h8.475a6.137 6.137 0 004.623-2.1l1.214.34A47.151 47.151 0 0029.13 70H47.44c4.493 0 8.785-2.146 11.481-5.74l9.844-13.126a6.1 6.1 0 001.228-3.688c0-3.391-2.76-6.15-6.15-6.15zM12.583 63.85c0 1.13-.92 2.05-2.05 2.05H4.108V45.396h6.425c1.13 0 2.05.92 2.05 2.05V63.85zm52.9-15.175L55.64 61.799a10.3 10.3 0 01-8.201 4.1H29.13c-3.939 0-7.859-.54-11.65-1.606l-.803-.225c.003-.073.006-.146.006-.219V48.373l1.429-1.257c3.86-3.398 9.684-3.398 13.545 0a9.545 9.545 0 006.31 2.38h9.471c1.13 0 2.05.92 2.05 2.05 0 1.131-.92 2.051-2.05 2.051H32.867a2.05 2.05 0 000 4.1h15.946c1.7 0 3.341-.713 4.5-1.958l9.027-9.69a2.053 2.053 0 013.143 2.624z" fill="url(#paint1_linear)"></path>
    </g>
    <defs>
        <linearGradient id="paint0_linear" x1="14.263" y1="19.577" x2="58.332" y2="19.577" gradientUnits="userSpaceOnUse">
            <stop stop-color="#F5AF6D"></stop>
            <stop offset="1" stop-color="#7F4D19"></stop>
        </linearGradient>
        <linearGradient id="paint1_linear" x1="1.138" y1="55.156" x2="69.992" y2="55.156" gradientUnits="userSpaceOnUse">
            <stop stop-color="#F5AF6D"></stop>
            <stop offset="1" stop-color="#7F4D19"></stop>
        </linearGradient>
        <clipPath id="clip0">
            <path fill="#fff" d="M0 0h70v70H0z"></path>
        </clipPath>
    </defs>
</svg>
