<svg viewBox="0 0 70 70" fill="none" xmlns="http://www.w3.org/2000/svg">
    <g clip-path="url(#clip0)">
        <path d="M37.31 53.256a1.801 1.801 0 01-1.798-1.799h-4.106a5.911 5.911 0 005.905 5.905 5.911 5.911 0 005.905-5.905H39.11c0 .992-.807 1.8-1.8 1.8z" fill="url(#paint0_linear)"></path>
        <path d="M46.178 32.284c-3.317.091-6.016 2.905-6.016 6.273v2.888c0 .767-.624 1.39-1.391 1.39h-1.46v4.106h1.46a5.503 5.503 0 005.496-5.496v-2.889c0-1.164.908-2.137 2.024-2.168a2.072 2.072 0 011.512.59c.407.395.63.925.63 1.493h4.106a6.14 6.14 0 00-1.873-4.436 6.138 6.138 0 00-4.488-1.75z" fill="url(#paint1_linear)"></path>
        <path d="M28.237 32.282a6.162 6.162 0 00-6.155 6.155h4.105c0-1.13.92-2.05 2.05-2.05s2.05.92 2.05 2.05h4.105a6.162 6.162 0 00-6.155-6.155z" fill="url(#paint2_linear)"></path>
        <path d="M60.31 32.967v-.948c0-12.76-10.382-23.143-23.143-23.143-.199 0-.413 0-.637-.002-.45-.002-.921-.004-1.39 0-.006-.104-.01-.21-.017-.312l-.128-1.95-1.953.03A8.669 8.669 0 0124.75 1.27L24.224 0H13.966l-.539 1.229c-1.442 3.29-4.555 5.416-7.93 5.416-.08 0-.16 0-.239-.003l-2.007-.06-.103 2.006a41.68 41.68 0 00-.05 2.125c0 9.599 6.454 17.802 10.84 22.268-3.675.543-6.506 3.717-6.506 7.541 0 3.866 2.891 7.068 6.625 7.56C14.695 60.275 24.817 70 37.167 70s22.473-9.724 23.111-21.919c3.733-.49 6.625-3.693 6.625-7.559 0-3.854-2.875-7.05-6.593-7.555zM7.203 10.63c3.89-.551 7.363-2.961 9.37-6.524h4.989a12.747 12.747 0 009.52 6.532v.075c0 9.922-8.64 18.595-11.939 21.544-3.3-2.95-11.94-11.622-11.94-21.544v-.082zm52.075 33.41h-3.073v2.817c0 10.498-8.54 19.037-19.038 19.037-10.496 0-19.036-8.54-19.036-19.037v-2.816h-3.074a3.523 3.523 0 01-3.519-3.519 3.525 3.525 0 012.487-3.364v3.822h4.106v-4.216l1.012.785 1.258-.976C20.972 36.13 33.7 26.11 35.066 12.98c.487-.006.99-.004 1.444-.001l.657.002c10.498 0 19.038 8.54 19.038 19.037v8.85h4.105v-3.71a3.525 3.525 0 012.487 3.363 3.523 3.523 0 01-3.519 3.519z" fill="url(#paint3_linear)"></path>
        <path d="M26.647 15.09l-2.966-2.839L18.37 17.8l-2.847-2.348-2.613 3.166 5.788 4.775 7.95-8.301z" fill="url(#paint4_linear)"></path>
    </g>
    <defs>
        <linearGradient id="paint0_linear" x1="31.597" y1="54.394" x2="43.216" y2="54.394" gradientUnits="userSpaceOnUse">
            <stop stop-color="#F5AF6D"></stop>
            <stop offset="1" stop-color="#7F4D19"></stop>
        </linearGradient>
        <linearGradient id="paint1_linear" x1="37.556" y1="39.572" x2="52.539" y2="39.572" gradientUnits="userSpaceOnUse">
            <stop stop-color="#F5AF6D"></stop>
            <stop offset="1" stop-color="#7F4D19"></stop>
        </linearGradient>
        <linearGradient id="paint2_linear" x1="22.28" y1="35.343" x2="34.392" y2="35.343" gradientUnits="userSpaceOnUse">
            <stop stop-color="#F5AF6D"></stop>
            <stop offset="1" stop-color="#7F4D19"></stop>
        </linearGradient>
        <linearGradient id="paint3_linear" x1="4.128" y1="34.811" x2="66.903" y2="34.811" gradientUnits="userSpaceOnUse">
            <stop stop-color="#F5AF6D"></stop>
            <stop offset="1" stop-color="#7F4D19"></stop>
        </linearGradient>
        <linearGradient id="paint4_linear" x1="13.131" y1="17.792" x2="26.647" y2="17.792" gradientUnits="userSpaceOnUse">
            <stop stop-color="#F5AF6D"></stop>
            <stop offset="1" stop-color="#7F4D19"></stop>
        </linearGradient>
        <clipPath id="clip0">
            <path fill="#fff" d="M0 0h70v70H0z"></path>
        </clipPath>
    </defs>
</svg>
