<svg viewBox="0 0 70 70" fill="none" xmlns="http://www.w3.org/2000/svg">
    <g clip-path="url(#clip0)">
        <path d="M63.96 41.668a6.722 6.722 0 001.333-4.024 6.766 6.766 0 00-6.758-6.758c-3.011 0-5.568 1.98-6.439 4.707H37.051v-7.375h12.053v-2.051c0-5.612-3.295-10.468-8.05-12.737a8.047 8.047 0 002.028-5.348C43.082 3.626 39.457 0 35 0c-4.457 0-8.082 3.626-8.082 8.082 0 2.05.768 3.922 2.029 5.348-4.756 2.27-8.05 7.125-8.05 12.737v2.05h12.052v7.376H17.904c-.87-2.726-3.428-4.707-6.44-4.707a6.766 6.766 0 00-6.757 6.758c0 1.507.496 2.9 1.332 4.024C2.447 43.606 0 47.405 0 51.765v2.05h22.93v-2.05c0-4.36-2.447-8.159-6.04-10.097a6.74 6.74 0 001.014-1.973h15.045v7.694c-2.726.87-4.707 3.427-4.707 6.439 0 1.506.496 2.9 1.333 4.024-3.593 1.938-6.04 5.737-6.04 10.097V70h22.93v-2.05c0-4.361-2.447-8.16-6.04-10.098a6.722 6.722 0 001.333-4.024c0-3.012-1.98-5.568-4.707-6.439v-7.694h15.045a6.748 6.748 0 001.014 1.973c-3.593 1.938-6.04 5.737-6.04 10.097v2.051H70v-2.05c0-4.361-2.447-8.16-6.04-10.098zM31.02 8.082A3.985 3.985 0 0135 4.102a3.985 3.985 0 013.98 3.98A3.985 3.985 0 0135 12.063a3.985 3.985 0 01-3.98-3.98zM35 16.165c4.813 0 8.842 3.416 9.79 7.951H25.21c.948-4.535 4.977-7.951 9.79-7.951zM4.392 49.715c.89-3.066 3.724-5.313 7.073-5.313 3.348 0 6.182 2.247 7.072 5.312H4.392zm4.417-12.07a2.66 2.66 0 012.656-2.657 2.66 2.66 0 012.656 2.656 2.66 2.66 0 01-2.656 2.656 2.66 2.66 0 01-2.656-2.656zm19.118 28.253c.89-3.065 3.724-5.312 7.073-5.312s6.183 2.247 7.073 5.312H27.927zM35 56.484a2.66 2.66 0 01-2.656-2.656A2.66 2.66 0 0135 51.172a2.66 2.66 0 012.656 2.656A2.66 2.66 0 0135 56.484zm20.879-18.84a2.66 2.66 0 012.656-2.656 2.66 2.66 0 012.657 2.656 2.66 2.66 0 01-2.657 2.656 2.66 2.66 0 01-2.656-2.656zm-4.417 12.07c.89-3.065 3.724-5.312 7.073-5.312s6.183 2.247 7.073 5.313H51.462z" fill="url(#paint0_linear)"></path>
    </g>
    <defs>
        <linearGradient id="paint0_linear" x1="1.13" y1="34.811" x2="70" y2="34.811" gradientUnits="userSpaceOnUse">
            <stop stop-color="#F5AF6D"></stop>
            <stop offset="1" stop-color="#7F4D19"></stop>
        </linearGradient>
        <clipPath id="clip0">
            <path fill="#fff" d="M0 0h70v70H0z"></path>
        </clipPath>
    </defs>
</svg>
