<svg viewBox="0 0 70 70" fill="none" xmlns="http://www.w3.org/2000/svg">
    <path d="M63.444 36.319c.5-.95.785-2.03.785-3.175a6.844 6.844 0 00-6.836-6.836 6.844 6.844 0 00-6.836 6.836c0 1.146.284 2.225.784 3.175a2.045 2.045 0 00-.784 1.61v9.012c0 .584-.437 1.638-.849 2.05l-2.052 2.052H42.6l-.43-2.579a10.818 10.818 0 003.674-8.124V24.71a2.05 2.05 0 00-2.05-2.05H32.36c-4.523 0-8.203 3.68-8.203 8.203v9.477c0 3.232 1.423 6.136 3.674 8.124l-.43 2.58h-5.057l-2.052-2.052c-.412-.413-.849-1.467-.849-2.05V37.93c0-.654-.307-1.236-.784-1.611.5-.95.784-2.03.784-3.175a6.844 6.844 0 00-6.836-6.836 6.844 6.844 0 00-6.836 6.836c0 1.146.285 2.225.785 3.175a2.045 2.045 0 00-.785 1.61v11.063c0 2.823 1.505 6.456 3.501 8.452l7.437 7.437v3.068a2.05 2.05 0 002.051 2.05h32.48a2.05 2.05 0 002.05-2.05v-3.068l7.438-7.437c1.996-1.996 3.5-5.63 3.5-8.452V37.93c0-.655-.306-1.236-.784-1.611zm-6.051-5.91a2.738 2.738 0 012.734 2.735 2.738 2.738 0 01-2.734 2.735 2.738 2.738 0 01-2.735-2.735 2.737 2.737 0 012.735-2.734zm-29.134 9.93v-5.374H41.74v5.374A6.75 6.75 0 0135 47.081a6.75 6.75 0 01-6.741-6.742zm4.101-13.578h9.381v4.103H28.26v-.001a4.106 4.106 0 014.101-4.102zM35 51.182c1.178 0 2.311-.191 3.374-.54l.434 2.604A3.816 3.816 0 0135 56.906a3.816 3.816 0 01-3.808-3.66l.434-2.604c1.063.35 2.196.54 3.374.54zM12.607 30.41a2.738 2.738 0 012.735 2.734 2.738 2.738 0 01-2.735 2.735 2.738 2.738 0 01-2.734-2.735 2.738 2.738 0 012.734-2.734zm47.52 18.582c0 1.702-1.096 4.348-2.3 5.552l-8.037 8.038a2.05 2.05 0 00-.6 1.45v1.866H20.81v-1.866a2.05 2.05 0 00-.6-1.45l-8.038-8.038c-1.203-1.204-2.3-3.85-2.3-5.552V39.98h5.47v6.961c0 1.68.862 3.761 2.05 4.95l2.652 2.653c.385.385.906.6 1.45.6h5.864c.906 3.373 3.988 5.863 7.642 5.863 3.654 0 6.736-2.49 7.642-5.862h5.864a2.05 2.05 0 001.45-.6l2.653-2.654c1.188-1.189 2.05-3.27 2.05-4.95v-6.96h5.468v9.011z" fill="url(#paint0_linear)"></path>
    <path d="M29.005 11.972l-.713 4.156a2.05 2.05 0 002.976 2.162L35 16.328l3.732 1.962a2.05 2.05 0 002.976-2.162l-.713-4.156 3.02-2.943a2.05 2.05 0 00-1.137-3.498l-4.173-.607-1.866-3.78a2.05 2.05 0 00-3.678 0l-1.866 3.78-4.173.607a2.05 2.05 0 00-1.137 3.497l3.02 2.944zm3.947-3.144a2.05 2.05 0 001.544-1.122L35 6.684l.504 1.022a2.05 2.05 0 001.544 1.122l1.128.164-.816.795a2.05 2.05 0 00-.59 1.815l.193 1.124-1.009-.53a2.052 2.052 0 00-1.908 0l-1.009.53.193-1.124a2.05 2.05 0 00-.59-1.815l-.816-.795 1.128-.164z" fill="url(#paint1_linear)"></path>
    <path d="M49.946 6.534c.309 0 .622-.07.916-.217l2.734-1.367a2.05 2.05 0 10-1.834-3.669L49.028 2.65a2.05 2.05 0 00.918 3.885z" fill="url(#paint2_linear)"></path>
    <path d="M49.028 14.521l2.734 1.367a2.05 2.05 0 101.834-3.668l-2.734-1.367a2.05 2.05 0 10-1.834 3.668z" fill="url(#paint3_linear)"></path>
    <path d="M16.404 4.95l2.734 1.367a2.05 2.05 0 101.834-3.668L18.239 1.28a2.051 2.051 0 00-1.834 3.669z" fill="url(#paint4_linear)"></path>
    <path d="M17.322 16.105c.308 0 .622-.07.916-.216l2.734-1.368a2.05 2.05 0 10-1.834-3.668l-2.735 1.367a2.05 2.05 0 00.92 3.885z" fill="url(#paint5_linear)"></path>
    <defs>
        <linearGradient id="paint0_linear" x1="6.715" y1="46.202" x2="64.229" y2="46.202" gradientUnits="userSpaceOnUse">
            <stop stop-color="#F5AF6D"></stop>
            <stop offset="1" stop-color="#7F4D19"></stop>
        </linearGradient>
        <linearGradient id="paint1_linear" x1="25.677" y1="9.213" x2="44.634" y2="9.213" gradientUnits="userSpaceOnUse">
            <stop stop-color="#F5AF6D"></stop>
            <stop offset="1" stop-color="#7F4D19"></stop>
        </linearGradient>
        <linearGradient id="paint2_linear" x1="48.004" y1="3.785" x2="54.73" y2="3.785" gradientUnits="userSpaceOnUse">
            <stop stop-color="#F5AF6D"></stop>
            <stop offset="1" stop-color="#7F4D19"></stop>
        </linearGradient>
        <linearGradient id="paint3_linear" x1="48.004" y1="13.356" x2="54.731" y2="13.356" gradientUnits="userSpaceOnUse">
            <stop stop-color="#F5AF6D"></stop>
            <stop offset="1" stop-color="#7F4D19"></stop>
        </linearGradient>
        <linearGradient id="paint4_linear" x1="15.38" y1="3.785" x2="22.107" y2="3.785" gradientUnits="userSpaceOnUse">
            <stop stop-color="#F5AF6D"></stop>
            <stop offset="1" stop-color="#7F4D19"></stop>
        </linearGradient>
        <linearGradient id="paint5_linear" x1="15.38" y1="13.356" x2="22.107" y2="13.356" gradientUnits="userSpaceOnUse">
            <stop stop-color="#F5AF6D"></stop>
            <stop offset="1" stop-color="#7F4D19"></stop>
        </linearGradient>
    </defs>
</svg>
