<?xml version="1.0" standalone="no"?>
<!DOCTYPE svg PUBLIC "-//W3C//DTD SVG 1.1//EN" "http://www.w3.org/Graphics/SVG/1.1/DTD/svg11.dtd" >
<svg xmlns="http://www.w3.org/2000/svg" xmlns:xlink="http://www.w3.org/1999/xlink" version="1.1">
<metadata>
Created by FontForge 20201107 at Wed Apr  8 15:30:26 2020
 By Jimmy Wärting
Copyright (c) 2020 by Alfredo Marco Pradil. All rights reserved.
</metadata>
<defs>
<font id="OpenSauceSans-ExtraBold" horiz-adv-x="0" >
  <font-face 
    font-family="Open Sauce Sans ExtraBold"
    font-weight="800"
    font-stretch="normal"
    units-per-em="1000"
    panose-1="0 0 9 0 0 0 0 0 0 0"
    ascent="763"
    descent="-237"
    x-height="564"
    cap-height="763"
    bbox="-703 -237 1265 1030"
    underline-thickness="50"
    underline-position="-100"
    unicode-range="U+0020-FB02"
  />
<missing-glyph horiz-adv-x="588" 
d="M64 0v564h460v-564h-460zM104 40h380v484h-380v-484z" />
    <glyph glyph-name="fi" unicode="fi" horiz-adv-x="641" 
d="M105 445h-83v119h83v56q0 68 41 105.5t117 37.5h89v-118h-52q-42 0 -42 -51q0 -18 -10 -30l10 -10q13 10 42 10h52v-119h-94v-445h-153v445zM431 0v564h152v-564h-152zM444 636.5q-26 22.5 -26 59.5q0 36 26 59t63 23t63 -23t26 -59q0 -37 -25.5 -59.5t-63.5 -22.5
q-37 0 -63 22.5z" />
    <glyph glyph-name="fl" unicode="fl" horiz-adv-x="683" 
d="M105 445h-83v119h83v56q0 68 41 105.5t117 37.5h89v-118h-52q-42 0 -42 -51q0 -18 -10 -30l10 -10q13 10 42 10h52v-119h-94v-445h-153v445zM462 29.5q-34 29.5 -34 88.5v645h152v-596q0 -43 39 -43h39v-124h-99q-63 0 -97 29.5z" />
    <glyph glyph-name="s_a_u_c_e_l_o_g_o.liga" unicode="saucelogo" horiz-adv-x="891" 
d="M64 10v743q0 10 9 10h744q10 0 10 -10v-743q0 -10 -10 -10h-744q-9 0 -9 10zM240 94q11 11 17 22.5t14 31.5q13 36 33 69t67 82l25 26q4 4 8 4t9 -3q7 -4 17 -6q10 -3 10 -13v-36q0 -43 -5.5 -67t-15.5 -47q-10 -20 -10 -37q0 -14 11 -25t25 -11q15 0 26 11t11 25
q0 17 -10 37q-10 23 -15.5 47t-5.5 67v36q0 10 10 13q13 4 15 6q5 3 8 3q5 0 9 -4l26 -26q48 -48 68 -81.5t33 -69.5q6 -19 12 -30.5t18 -23.5q17 -15 40 -15q26 0 41 15q17 17 17 42t-16 40q-12 12 -23.5 18t-30.5 12q-37 13 -70 32.5t-81 67.5l-26 26q-4 4 -4 9q0 3 3 7
q6 12 7 18q3 11 12 11h36q44 0 68.5 -6t46.5 -16q2 -1 13 -5.5t24 -4.5q14 0 25 11t11 26q0 14 -11 25.5t-25 11.5q-13 0 -24 -4.5t-13 -5.5q-22 -10 -46.5 -16t-68.5 -6h-36q-9 0 -12 11q-4 10 -7 15t-3 8q0 4 4 8l26 26q48 48 82 68.5t69 31.5q4 2 16 6.5t21 10t16 13.5
q17 19 17 41q0 24 -17 41q-16 16 -41 16t-40 -15q-11 -11 -17 -22.5t-14 -32.5q-13 -37 -32.5 -70t-67.5 -81l-25 -24q-3 -4 -9 -4q-4 0 -7 2q-5 3 -17 7q-10 3 -10 13v36q0 43 5.5 67t15.5 47q10 20 10 37q0 14 -11 25t-25 11q-15 0 -26 -11t-11 -25q0 -17 10 -37
q10 -23 15.5 -47t5.5 -67v-36q0 -10 -10 -13q-2 -1 -7.5 -2.5t-9.5 -4.5q-3 -2 -7 -2q-6 0 -10 4l-25 24q-49 49 -69.5 83t-31.5 69q-7 19 -13 31t-17 23q-16 16 -40 16q-22 0 -40 -16q-17 -17 -17 -42t16 -41q11 -11 22.5 -17t30.5 -13q36 -13 69 -33t82 -67l26 -25
q4 -4 4 -8q0 -3 -3 -8q-2 -3 -7 -16q-3 -11 -12 -11h-36q-44 0 -68.5 6t-46.5 16q-2 1 -13 5.5t-24 4.5q-14 0 -25 -11.5t-11 -25.5q0 -15 11 -26t25 -11q13 0 24 4.5t13 5.5q22 10 46.5 16t68.5 6h36q9 0 12 -11q5 -12 8 -17q2 -6 2 -7q0 -5 -4 -9l-26 -27
q-48 -49 -81.5 -68.5t-69.5 -31.5q-20 -7 -31.5 -13t-22.5 -17q-16 -15 -16 -40q0 -24 16 -41q16 -16 42 -16q25 0 40 15zM407 343.5q-16 16.5 -16 38.5t16 38t38 16t38 -16t16 -38q0 -23 -16 -39t-38 -16t-38 16.5zM477 354l-6 6q-10 -13 -26 -13q-14 0 -24 10.5t-10 24.5
t10.5 24t23.5 10q16 0 27 -13l5 6q-10 15 -32 15q-17 0 -30 -12.5t-13 -29.5t13 -30t30 -13q22 0 32 15z" />
    <glyph glyph-name=".notdef" horiz-adv-x="588" 
d="M64 0v564h460v-564h-460zM104 40h380v484h-380v-484z" />
    <glyph glyph-name="space" unicode=" " horiz-adv-x="264" 
 />
    <glyph glyph-name="A" unicode="A" horiz-adv-x="715" 
d="M4 0l265 763h176l265 -763h-170l-46 147h-273l-46 -147h-171zM450 287l-66 210q-19 65 -19 102h-16q0 -40 -18 -102l-66 -210h185z" />
    <glyph glyph-name="Aacute" unicode="&#xc1;" horiz-adv-x="715" 
d="M4 0l265 763h176l265 -763h-170l-46 147h-273l-46 -147h-171zM450 287l-66 210q-19 65 -19 102h-16q0 -40 -18 -102l-66 -210h185zM293 816l115 146h150l-152 -146h-113z" />
    <glyph glyph-name="Abreve" unicode="&#x102;" horiz-adv-x="715" 
d="M4 0l265 763h176l265 -763h-170l-46 147h-273l-46 -147h-171zM450 287l-66 210q-19 65 -19 102h-16q0 -40 -18 -102l-66 -210h185zM234 846q-42 41 -47 115h86q4 -36 27.5 -54t57.5 -18q35 0 57 18.5t26 53.5h87q-4 -73 -47.5 -114.5t-122.5 -41.5q-82 0 -124 41z" />
    <glyph glyph-name="Acircumflex" unicode="&#xc2;" horiz-adv-x="715" 
d="M4 0l265 763h176l265 -763h-170l-46 147h-273l-46 -147h-171zM450 287l-66 210q-19 65 -19 102h-16q0 -40 -18 -102l-66 -210h185zM350 993h14l168 -176h-125l-19 25q-24 34 -24 53h-14q0 -19 -24 -53l-19 -25h-125z" />
    <glyph glyph-name="Adieresis" unicode="&#xc4;" horiz-adv-x="715" 
d="M4 0l265 763h176l265 -763h-170l-46 147h-273l-46 -147h-171zM450 287l-66 210q-19 65 -19 102h-16q0 -40 -18 -102l-66 -210h185zM186.5 826q-25.5 22 -25.5 58t25.5 58.5t62.5 22.5t62.5 -22.5t25.5 -58.5t-25.5 -58t-62.5 -22t-62.5 22zM401.5 826q-25.5 22 -25.5 58
t25.5 58.5t62.5 22.5t62.5 -22.5t25.5 -58.5t-25.5 -58t-62.5 -22t-62.5 22z" />
    <glyph glyph-name="Agrave" unicode="&#xc0;" horiz-adv-x="715" 
d="M4 0l265 763h176l265 -763h-170l-46 147h-273l-46 -147h-171zM450 287l-66 210q-19 65 -19 102h-16q0 -40 -18 -102l-66 -210h185zM422 816h-113l-152 146h150z" />
    <glyph glyph-name="Amacron" unicode="&#x100;" horiz-adv-x="715" 
d="M4 0l265 763h176l265 -763h-170l-46 147h-273l-46 -147h-171zM450 287l-66 210q-19 65 -19 102h-16q0 -40 -18 -102l-66 -210h185zM207 826v71h301v-71h-301z" />
    <glyph glyph-name="Aogonek" unicode="&#x104;" horiz-adv-x="715" 
d="M4 0l265 763h176l265 -763h-170l-46 147h-273l-46 -147h-171zM450 287l-66 210q-19 65 -19 102h-16q0 -40 -18 -102l-66 -210h185zM547 -188.5q-30 21.5 -30 62.5q0 39 23.5 63t79.5 44v19h91q-54 -36 -70.5 -51.5t-16.5 -34.5q0 -32 38 -32q23 0 49 13v-94
q-36 -11 -75 -11q-59 0 -89 21.5z" />
    <glyph glyph-name="Aring" unicode="&#xc5;" horiz-adv-x="715" 
d="M235 771q-8 22 -8 46q0 35 17.5 65t47.5 47.5t65 17.5t65 -17.5t48 -47t18 -65.5q0 -50 -32 -84l254 -733h-170l-46 147h-273l-46 -147h-171l255 733q-16 16 -24 38zM394 780.5q14 14.5 14 38.5q0 22 -13.5 35.5t-37.5 13.5q-23 0 -36.5 -14t-13.5 -35q0 -24 14.5 -38.5
t35.5 -14.5q23 0 37 14.5zM450 287l-66 210q-19 65 -19 103h-16q0 -41 -18 -103l-66 -210h185z" />
    <glyph glyph-name="Atilde" unicode="&#xc3;" horiz-adv-x="715" 
d="M4 0l265 763h176l265 -763h-170l-46 147h-273l-46 -147h-171zM450 287l-66 210q-19 65 -19 102h-16q0 -40 -18 -102l-66 -210h185zM368.5 815q-21.5 13 -44.5 35q-2 2 -10 9.5t-14.5 11t-12.5 3.5q-28 0 -31 -70h-85q3 75 35.5 118.5t85.5 43.5q30 0 51 -12.5t45 -34.5
q14 -13 21.5 -18.5t15.5 -5.5q12 0 19.5 17t8.5 50h88q-5 -82 -32.5 -121t-84.5 -39q-34 0 -55.5 13z" />
    <glyph glyph-name="AE" unicode="&#xc6;" horiz-adv-x="1037" 
d="M4 0l265 763h498l51 -145h-321l58 -164h321l49 -144h-320l57 -165h321l49 -145h-493l-45 147h-273l-46 -147h-171zM450 287l-66 210q-19 65 -19 103h-16q0 -41 -18 -103l-66 -210h185z" />
    <glyph glyph-name="B" unicode="B" horiz-adv-x="700" 
d="M64 763h307q146 0 208 -64q46 -47 46 -127q0 -72 -35 -117.5t-89 -45.5v-16q43 0 80.5 -21t60 -59.5t22.5 -88.5q0 -108 -72 -166q-45 -36 -102 -47t-106 -11h-320v763zM437 472q26 22 26 63q0 42 -25 61q-17 13 -42.5 17.5t-59.5 4.5h-111v-168h134q52 0 78 22zM430 150
q28 5 46 21q26 21 26 66q0 52 -32 68.5t-92 16.5h-153v-177h139q38 0 66 5z" />
    <glyph glyph-name="C" unicode="C" horiz-adv-x="773" 
d="M203.5 38q-84.5 54 -126 144t-41.5 200t41.5 199.5t125.5 143t208 53.5q143 0 229.5 -71.5t101.5 -192.5h-177q-9 58 -51.5 88.5t-106.5 30.5q-97 0 -149.5 -68t-52.5 -183q0 -116 52.5 -184.5t149.5 -68.5q65 0 107 31t51 93h177q-16 -124 -102 -196.5t-229 -72.5
q-123 0 -207.5 54z" />
    <glyph glyph-name="Cacute" unicode="&#x106;" horiz-adv-x="773" 
d="M203.5 38q-84.5 54 -126 144t-41.5 200t41.5 199.5t125.5 143t208 53.5q143 0 229.5 -71.5t101.5 -192.5h-177q-9 58 -51.5 88.5t-106.5 30.5q-97 0 -149.5 -68t-52.5 -183q0 -116 52.5 -184.5t149.5 -68.5q65 0 107 31t51 93h177q-16 -124 -102 -196.5t-229 -72.5
q-123 0 -207.5 54zM321 816l115 146h150l-152 -146h-113z" />
    <glyph glyph-name="Ccaron" unicode="&#x10c;" horiz-adv-x="773" 
d="M203.5 38q-84.5 54 -126 144t-41.5 200t41.5 199.5t125.5 143t208 53.5q143 0 229.5 -71.5t101.5 -192.5h-177q-9 58 -51.5 88.5t-106.5 30.5q-97 0 -149.5 -68t-52.5 -183q0 -116 52.5 -184.5t149.5 -68.5q65 0 107 31t51 93h177q-16 -124 -102 -196.5t-229 -72.5
q-123 0 -207.5 54zM211 962h125l19 -25q24 -33 24 -53h14q0 20 24 53l19 25h125l-168 -175h-14z" />
    <glyph glyph-name="Ccedilla" unicode="&#xc7;" horiz-adv-x="773" 
d="M514 160q42 31 51 93h177q-16 -124 -102 -196.5t-229 -72.5h-1q-19 -14 -28 -20l5 -9q18 2 25 2q33 0 51 -11q19 -10 28 -25.5t9 -38.5q0 -45 -37 -68.5t-96 -23.5q-50 0 -96 14v56q53 -19 88 -19q24 0 37 9.5t13 27.5q0 31 -34 42.5t-95 10.5l52 59q-98 17 -164.5 73
t-99 139t-32.5 180q0 110 41.5 199.5t125.5 143t208 53.5q143 0 229.5 -71.5t101.5 -192.5h-177q-9 58 -51.5 88.5t-106.5 30.5q-97 0 -149.5 -68t-52.5 -183q0 -116 52.5 -184.5t149.5 -68.5q65 0 107 31z" />
    <glyph glyph-name="Cdotaccent" unicode="&#x10a;" horiz-adv-x="773" 
d="M203.5 38q-84.5 54 -126 144t-41.5 200t41.5 199.5t125.5 143t208 53.5q143 0 229.5 -71.5t101.5 -192.5h-177q-9 58 -51.5 88.5t-106.5 30.5q-97 0 -149.5 -68t-52.5 -183q0 -116 52.5 -184.5t149.5 -68.5q65 0 107 31t51 93h177q-16 -124 -102 -196.5t-229 -72.5
q-123 0 -207.5 54zM323.5 826q-25.5 22 -25.5 58t25.5 58.5t62.5 22.5t62.5 -22.5t25.5 -58.5t-25.5 -58t-62.5 -22t-62.5 22z" />
    <glyph glyph-name="D" unicode="D" horiz-adv-x="727" 
d="M64 763h227q193 0 296.5 -98.5t103.5 -282.5q0 -185 -103.5 -283.5t-297.5 -98.5h-226v763zM468 201.5q62 56.5 62 180.5q0 118 -64 177t-177 59h-64v-473h64q117 0 179 56.5z" />
    <glyph glyph-name="Eth" unicode="&#xd0;" horiz-adv-x="727" 
d="M587.5 664.5q103.5 -98.5 103.5 -282.5q0 -185 -103.5 -283.5t-297.5 -98.5h-226v326h-62v111h62v326h227q193 0 296.5 -98.5zM468 201.5q62 56.5 62 180.5q0 118 -64 177t-177 59h-64v-181h195v-111h-195v-181h64q117 0 179 56.5z" />
    <glyph glyph-name="Dcaron" unicode="&#x10e;" horiz-adv-x="727" 
d="M64 763h227q193 0 296.5 -98.5t103.5 -282.5q0 -185 -103.5 -283.5t-297.5 -98.5h-226v763zM468 201.5q62 56.5 62 180.5q0 118 -64 177t-177 59h-64v-473h64q117 0 179 56.5zM175 962h125l19 -25q24 -33 24 -53h14q0 20 24 53l19 25h125l-168 -175h-14z" />
    <glyph glyph-name="Dcroat" unicode="&#x110;" horiz-adv-x="727" 
d="M587.5 664.5q103.5 -98.5 103.5 -282.5q0 -185 -103.5 -283.5t-297.5 -98.5h-226v326h-62v111h62v326h227q193 0 296.5 -98.5zM468 201.5q62 56.5 62 180.5q0 118 -64 177t-177 59h-64v-181h195v-111h-195v-181h64q117 0 179 56.5z" />
    <glyph glyph-name="E" unicode="E" horiz-adv-x="622" 
d="M64 0v763h515v-145h-354v-164h318v-144h-318v-165h354v-145h-515z" />
    <glyph glyph-name="Eacute" unicode="&#xc9;" horiz-adv-x="622" 
d="M64 0v763h515v-145h-354v-164h318v-144h-318v-165h354v-145h-515zM257 816l115 146h150l-152 -146h-113z" />
    <glyph glyph-name="Ecaron" unicode="&#x11a;" horiz-adv-x="622" 
d="M64 0v763h515v-145h-354v-164h318v-144h-318v-165h354v-145h-515zM147 962h125l19 -25q24 -33 24 -53h14q0 20 24 53l19 25h125l-168 -175h-14z" />
    <glyph glyph-name="Ecircumflex" unicode="&#xca;" horiz-adv-x="622" 
d="M64 0v763h515v-145h-354v-164h318v-144h-318v-165h354v-145h-515zM315 993h14l168 -176h-125l-19 25q-24 34 -24 53h-14q0 -19 -24 -53l-19 -25h-125z" />
    <glyph glyph-name="Edieresis" unicode="&#xcb;" horiz-adv-x="622" 
d="M64 0v763h515v-145h-354v-164h318v-144h-318v-165h354v-145h-515zM151.5 826q-25.5 22 -25.5 58t25.5 58.5t62.5 22.5t62.5 -22.5t25.5 -58.5t-25.5 -58t-62.5 -22t-62.5 22zM366.5 826q-25.5 22 -25.5 58t25.5 58.5t62.5 22.5t62.5 -22.5t25.5 -58.5t-25.5 -58
t-62.5 -22t-62.5 22z" />
    <glyph glyph-name="Edotaccent" unicode="&#x116;" horiz-adv-x="622" 
d="M64 0v763h515v-145h-354v-164h318v-144h-318v-165h354v-145h-515zM259.5 826q-25.5 22 -25.5 58t25.5 58.5t62.5 22.5t62.5 -22.5t25.5 -58.5t-25.5 -58t-62.5 -22t-62.5 22z" />
    <glyph glyph-name="Egrave" unicode="&#xc8;" horiz-adv-x="622" 
d="M64 0v763h515v-145h-354v-164h318v-144h-318v-165h354v-145h-515zM387 816h-113l-152 146h150z" />
    <glyph glyph-name="Emacron" unicode="&#x112;" horiz-adv-x="622" 
d="M64 0v763h515v-145h-354v-164h318v-144h-318v-165h354v-145h-515zM171 826v71h301v-71h-301z" />
    <glyph glyph-name="Eogonek" unicode="&#x118;" horiz-adv-x="622" 
d="M64 0v763h515v-145h-354v-164h318v-144h-318v-165h354v-145h-515zM416 -188.5q-30 21.5 -30 62.5q0 39 23.5 63t79.5 44v19h91q-54 -36 -70.5 -51.5t-16.5 -34.5q0 -32 38 -32q23 0 49 13v-94q-36 -11 -75 -11q-59 0 -89 21.5z" />
    <glyph glyph-name="F" unicode="F" horiz-adv-x="605" 
d="M64 0v763h515v-145h-354v-164h318v-144h-318v-310h-161z" />
    <glyph glyph-name="G" unicode="G" horiz-adv-x="823" 
d="M203 38q-85 54 -126.5 144.5t-41.5 199.5t41.5 199t126 143.5t208.5 53.5q151 0 242 -70.5t113 -192.5h-177q-16 58 -61 88t-117 30q-98 0 -152.5 -69t-54.5 -182q0 -115 58 -184t165 -69q66 0 112 26t63 71q4 9 5.5 19.5t2.5 14.5q2 14 4.5 22t8.5 14l-12 12
q-13 -11 -25.5 -15t-36.5 -4h-103v132h325v-421h-147v104h-16q0 -50 -42 -80q-26 -20 -66 -30t-88 -10q-124 0 -209 54z" />
    <glyph glyph-name="Gbreve" unicode="&#x11e;" horiz-adv-x="823" 
d="M203 38q-85 54 -126.5 144.5t-41.5 199.5t41.5 199t126 143.5t208.5 53.5q151 0 242 -70.5t113 -192.5h-177q-16 58 -61 88t-117 30q-98 0 -152.5 -69t-54.5 -182q0 -115 58 -184t165 -69q66 0 112 26t63 71q4 9 5.5 19.5t2.5 14.5q2 14 4.5 22t8.5 14l-12 12
q-13 -11 -25.5 -15t-36.5 -4h-103v132h325v-421h-147v104h-16q0 -50 -42 -80q-26 -20 -66 -30t-88 -10q-124 0 -209 54zM288 846q-42 41 -47 115h86q4 -36 27.5 -54t57.5 -18q35 0 57 18.5t26 53.5h87q-4 -73 -47.5 -114.5t-122.5 -41.5q-82 0 -124 41z" />
    <glyph glyph-name="uni0122" unicode="&#x122;" horiz-adv-x="823" 
d="M203 38q-85 54 -126.5 144.5t-41.5 199.5t41.5 199t126 143.5t208.5 53.5q151 0 242 -70.5t113 -192.5h-177q-16 58 -61 88t-117 30q-98 0 -152.5 -69t-54.5 -182q0 -115 58 -184t165 -69q66 0 112 26t63 71q4 9 5.5 19.5t2.5 14.5q2 14 4.5 22t8.5 14l-12 12
q-13 -11 -25.5 -15t-36.5 -4h-103v132h325v-421h-147v104h-16q0 -50 -42 -80q-26 -20 -66 -30t-88 -10q-124 0 -209 54zM426 -133q4 7 2 14h-8q-8 -15 -31 -15q-19 0 -31 11.5t-12 32.5q0 24 17 38.5t46 14.5q34 0 53 -20.5t19 -51.5q0 -90 -123 -90v36q59 0 68 30z" />
    <glyph glyph-name="Gdotaccent" unicode="&#x120;" horiz-adv-x="823" 
d="M203 38q-85 54 -126.5 144.5t-41.5 199.5t41.5 199t126 143.5t208.5 53.5q151 0 242 -70.5t113 -192.5h-177q-16 58 -61 88t-117 30q-98 0 -152.5 -69t-54.5 -182q0 -115 58 -184t165 -69q66 0 112 26t63 71q4 9 5.5 19.5t2.5 14.5q2 14 4.5 22t8.5 14l-12 12
q-13 -11 -25.5 -15t-36.5 -4h-103v132h325v-421h-147v104h-16q0 -50 -42 -80q-26 -20 -66 -30t-88 -10q-124 0 -209 54zM349.5 826q-25.5 22 -25.5 58t25.5 58.5t62.5 22.5t62.5 -22.5t25.5 -58.5t-25.5 -58t-62.5 -22t-62.5 22z" />
    <glyph glyph-name="H" unicode="H" horiz-adv-x="761" 
d="M64 0v763h161v-309h309v309h161v-763h-161v309h-309v-309h-161z" />
    <glyph glyph-name="I" unicode="I" horiz-adv-x="290" 
d="M64 0v763h161v-763h-161z" />
    <glyph glyph-name="Iacute" unicode="&#xcd;" horiz-adv-x="290" 
d="M64 0v763h161v-763h-161zM80 816l115 146h150l-152 -146h-113z" />
    <glyph glyph-name="Icircumflex" unicode="&#xce;" horiz-adv-x="290" 
d="M64 0v763h161v-763h-161zM138 993h14l168 -176h-125l-19 25q-24 34 -24 53h-14q0 -19 -24 -53l-19 -25h-125z" />
    <glyph glyph-name="Idieresis" unicode="&#xcf;" horiz-adv-x="290" 
d="M64 0v763h161v-763h-161zM-25.5 826q-25.5 22 -25.5 58t25.5 58.5t62.5 22.5t62.5 -22.5t25.5 -58.5t-25.5 -58t-62.5 -22t-62.5 22zM189.5 826q-25.5 22 -25.5 58t25.5 58.5t62.5 22.5t62.5 -22.5t25.5 -58.5t-25.5 -58t-62.5 -22t-62.5 22z" />
    <glyph glyph-name="Idotaccent" unicode="&#x130;" horiz-adv-x="290" 
d="M64 0v763h161v-763h-161zM82.5 826q-25.5 22 -25.5 58t25.5 58.5t62.5 22.5t62.5 -22.5t25.5 -58.5t-25.5 -58t-62.5 -22t-62.5 22z" />
    <glyph glyph-name="Igrave" unicode="&#xcc;" horiz-adv-x="290" 
d="M64 0v763h161v-763h-161zM210 816h-113l-152 146h150z" />
    <glyph glyph-name="Imacron" unicode="&#x12a;" horiz-adv-x="290" 
d="M64 0v763h161v-763h-161zM-6 826v71h301v-71h-301z" />
    <glyph glyph-name="Iogonek" unicode="&#x12e;" horiz-adv-x="290" 
d="M64 0v763h161v-763h-161zM62 -188.5q-30 21.5 -30 62.5q0 39 23.5 63t79.5 44v19h91q-54 -36 -70.5 -51.5t-16.5 -34.5q0 -32 38 -32q23 0 49 13v-94q-36 -11 -75 -11q-59 0 -89 21.5z" />
    <glyph glyph-name="J" unicode="J" horiz-adv-x="398" 
d="M10 145h97q34 0 51.5 16t17.5 52v550h162v-552q0 -81 -23 -126.5t-72.5 -65t-135.5 -19.5h-97v145z" />
    <glyph glyph-name="K" unicode="K" horiz-adv-x="682" 
d="M64 763h161v-351h16q0 23 10 42.5t28 46.5l199 262h196l-292 -369l299 -394h-198l-204 273q-43 64 -58 93l-13 -9q11 -15 14 -30.5t3 -56.5v-270h-161v763z" />
    <glyph glyph-name="uni0136" unicode="&#x136;" horiz-adv-x="682" 
d="M64 763h161v-351h16q0 23 10 42.5t28 46.5l199 262h196l-292 -369l299 -394h-198l-204 273q-43 64 -58 93l-13 -9q11 -15 14 -30.5t3 -56.5v-270h-161v763zM356 -133q4 7 2 14h-8q-8 -15 -31 -15q-19 0 -31 11.5t-12 32.5q0 24 17 38.5t46 14.5q34 0 53 -20.5t19 -51.5
q0 -90 -123 -90v36q59 0 68 30z" />
    <glyph glyph-name="L" unicode="L" horiz-adv-x="552" 
d="M64 0v763h161v-618h318v-145h-479z" />
    <glyph glyph-name="Lacute" unicode="&#x139;" horiz-adv-x="552" 
d="M64 0v763h161v-618h318v-145h-479zM80 816l115 146h150l-152 -146h-113z" />
    <glyph glyph-name="Lcaron" unicode="&#x13d;" horiz-adv-x="552" 
d="M64 0v763h161v-618h318v-145h-479zM447.5 548.5q30.5 26.5 27.5 75.5h-12q-9 -23 -39 -23q-29 0 -50.5 23.5t-21.5 60.5q0 40 26 65t69 25q52 0 80 -38.5t28 -100.5q0 -77 -47.5 -132.5t-148.5 -61.5v78q58 2 88.5 28.5z" />
    <glyph glyph-name="uni013B" unicode="&#x13b;" horiz-adv-x="552" 
d="M64 0v763h161v-618h318v-145h-479zM317 -133q4 7 2 14h-8q-8 -15 -31 -15q-19 0 -31 11.5t-12 32.5q0 24 17 38.5t46 14.5q34 0 53 -20.5t19 -51.5q0 -90 -123 -90v36q59 0 68 30z" />
    <glyph glyph-name="Lslash" unicode="&#x141;" horiz-adv-x="590" 
d="M107 0v291l-75 -36v126l75 38v344h161v-261l153 79v-126l-153 -79v-231h318v-145h-479z" />
    <glyph glyph-name="M" unicode="M" horiz-adv-x="939" 
d="M64 763h263l117 -466q17 -62 17 -133h16q0 71 17 133l116 466h264v-763h-161v502q0 28 1 55t6 69l-16 2q-9 -64 -25 -126l-131 -502h-158l-131 502q-16 62 -25 126l-16 -2q5 -42 6 -69t1 -55v-502h-161v763z" />
    <glyph glyph-name="N" unicode="N" horiz-adv-x="765" 
d="M64 763h172l252 -420q14 -23 23 -43t20 -58l16 4q-5 29 -6.5 48t-1.5 48v421h162v-763h-173l-254 425q-13 21 -21.5 40.5t-19.5 56.5l-16 -4q5 -27 6.5 -45t1.5 -50v-423h-161v763z" />
    <glyph glyph-name="Nacute" unicode="&#x143;" horiz-adv-x="765" 
d="M64 763h172l252 -420q14 -23 23 -43t20 -58l16 4q-5 29 -6.5 48t-1.5 48v421h162v-763h-173l-254 425q-13 21 -21.5 40.5t-19.5 56.5l-16 -4q5 -27 6.5 -45t1.5 -50v-423h-161v763zM317 816l115 146h150l-152 -146h-113z" />
    <glyph glyph-name="Ncaron" unicode="&#x147;" horiz-adv-x="765" 
d="M64 763h172l252 -420q14 -23 23 -43t20 -58l16 4q-5 29 -6.5 48t-1.5 48v421h162v-763h-173l-254 425q-13 21 -21.5 40.5t-19.5 56.5l-16 -4q5 -27 6.5 -45t1.5 -50v-423h-161v763zM207 962h125l19 -25q24 -33 24 -53h14q0 20 24 53l19 25h125l-168 -175h-14z" />
    <glyph glyph-name="uni0145" unicode="&#x145;" horiz-adv-x="765" 
d="M64 763h172l252 -420q14 -23 23 -43t20 -58l16 4q-5 29 -6.5 48t-1.5 48v421h162v-763h-173l-254 425q-13 21 -21.5 40.5t-19.5 56.5l-16 -4q5 -27 6.5 -45t1.5 -50v-423h-161v763zM396 -133q4 7 2 14h-8q-8 -15 -31 -15q-19 0 -31 11.5t-12 32.5q0 24 17 38.5t46 14.5
q34 0 53 -20.5t19 -51.5q0 -90 -123 -90v36q59 0 68 30z" />
    <glyph glyph-name="Ntilde" unicode="&#xd1;" horiz-adv-x="765" 
d="M64 763h172l252 -420q14 -23 23 -43t20 -58l16 4q-5 29 -6.5 48t-1.5 48v421h162v-763h-173l-254 425q-13 21 -21.5 40.5t-19.5 56.5l-16 -4q5 -27 6.5 -45t1.5 -50v-423h-161v763zM393.5 815q-21.5 13 -44.5 35q-2 2 -10 9.5t-14.5 11t-12.5 3.5q-28 0 -31 -70h-85
q3 75 35.5 118.5t85.5 43.5q30 0 51 -12.5t45 -34.5q14 -13 21.5 -18.5t15.5 -5.5q12 0 19.5 17t8.5 50h88q-5 -82 -32.5 -121t-84.5 -39q-34 0 -55.5 13z" />
    <glyph glyph-name="O" unicode="O" horiz-adv-x="823" 
d="M203.5 38q-84.5 54 -126 144t-41.5 200t41.5 199.5t125.5 143t208 53.5q123 0 207.5 -53.5t126 -143t41.5 -199.5t-41.5 -200t-126 -144t-207.5 -54t-207.5 54zM562.5 197.5q54.5 68.5 54.5 184.5q0 115 -54.5 183t-151.5 68q-96 0 -151 -68t-55 -183t55 -184t151 -69
q97 0 151.5 68.5z" />
    <glyph glyph-name="Oacute" unicode="&#xd3;" horiz-adv-x="823" 
d="M203.5 38q-84.5 54 -126 144t-41.5 200t41.5 199.5t125.5 143t208 53.5q123 0 207.5 -53.5t126 -143t41.5 -199.5t-41.5 -200t-126 -144t-207.5 -54t-207.5 54zM562.5 197.5q54.5 68.5 54.5 184.5q0 115 -54.5 183t-151.5 68q-96 0 -151 -68t-55 -183t55 -184t151 -69
q97 0 151.5 68.5zM346 816l115 146h150l-152 -146h-113z" />
    <glyph glyph-name="Ocircumflex" unicode="&#xd4;" horiz-adv-x="823" 
d="M203.5 38q-84.5 54 -126 144t-41.5 200t41.5 199.5t125.5 143t208 53.5q123 0 207.5 -53.5t126 -143t41.5 -199.5t-41.5 -200t-126 -144t-207.5 -54t-207.5 54zM562.5 197.5q54.5 68.5 54.5 184.5q0 115 -54.5 183t-151.5 68q-96 0 -151 -68t-55 -183t55 -184t151 -69
q97 0 151.5 68.5zM404 993h14l168 -176h-125l-19 25q-24 34 -24 53h-14q0 -19 -24 -53l-19 -25h-125z" />
    <glyph glyph-name="Odieresis" unicode="&#xd6;" horiz-adv-x="823" 
d="M203.5 38q-84.5 54 -126 144t-41.5 200t41.5 199.5t125.5 143t208 53.5q123 0 207.5 -53.5t126 -143t41.5 -199.5t-41.5 -200t-126 -144t-207.5 -54t-207.5 54zM562.5 197.5q54.5 68.5 54.5 184.5q0 115 -54.5 183t-151.5 68q-96 0 -151 -68t-55 -183t55 -184t151 -69
q97 0 151.5 68.5zM240.5 826q-25.5 22 -25.5 58t25.5 58.5t62.5 22.5t62.5 -22.5t25.5 -58.5t-25.5 -58t-62.5 -22t-62.5 22zM455.5 826q-25.5 22 -25.5 58t25.5 58.5t62.5 22.5t62.5 -22.5t25.5 -58.5t-25.5 -58t-62.5 -22t-62.5 22z" />
    <glyph glyph-name="Ograve" unicode="&#xd2;" horiz-adv-x="823" 
d="M203.5 38q-84.5 54 -126 144t-41.5 200t41.5 199.5t125.5 143t208 53.5q123 0 207.5 -53.5t126 -143t41.5 -199.5t-41.5 -200t-126 -144t-207.5 -54t-207.5 54zM562.5 197.5q54.5 68.5 54.5 184.5q0 115 -54.5 183t-151.5 68q-96 0 -151 -68t-55 -183t55 -184t151 -69
q97 0 151.5 68.5zM476 816h-113l-152 146h150z" />
    <glyph glyph-name="Ohungarumlaut" unicode="&#x150;" horiz-adv-x="823" 
d="M203.5 38q-84.5 54 -126 144t-41.5 200t41.5 199.5t125.5 143t208 53.5q123 0 207.5 -53.5t126 -143t41.5 -199.5t-41.5 -200t-126 -144t-207.5 -54t-207.5 54zM562.5 197.5q54.5 68.5 54.5 184.5q0 115 -54.5 183t-151.5 68q-96 0 -151 -68t-55 -183t55 -184t151 -69
q97 0 151.5 68.5zM251 816l117 146h134l-138 -146h-113zM456 816l117 146h144l-149 -146h-112z" />
    <glyph glyph-name="Omacron" unicode="&#x14c;" horiz-adv-x="823" 
d="M203.5 38q-84.5 54 -126 144t-41.5 200t41.5 199.5t125.5 143t208 53.5q123 0 207.5 -53.5t126 -143t41.5 -199.5t-41.5 -200t-126 -144t-207.5 -54t-207.5 54zM562.5 197.5q54.5 68.5 54.5 184.5q0 115 -54.5 183t-151.5 68q-96 0 -151 -68t-55 -183t55 -184t151 -69
q97 0 151.5 68.5zM260 826v71h301v-71h-301z" />
    <glyph glyph-name="Oslash" unicode="&#xd8;" horiz-adv-x="823" 
d="M786 382q0 -110 -41.5 -200t-126 -144t-207.5 -54q-154 0 -250 85l-53 -53l-65 62l59 59q-66 104 -66 245q0 110 41.5 199.5t125.5 143t208 53.5q152 0 249 -84l54 54l64 -63l-59 -59q67 -101 67 -244zM225 260l322 322q-53 51 -136 51q-96 0 -151 -68t-55 -183
q0 -68 20 -122zM562.5 197.5q54.5 68.5 54.5 184.5q0 68 -20 122l-323 -322q53 -53 137 -53q97 0 151.5 68.5z" />
    <glyph glyph-name="Oslashacute" unicode="&#x1fe;" horiz-adv-x="823" 
d="M786 382q0 -110 -41.5 -200t-126 -144t-207.5 -54q-154 0 -250 85l-53 -53l-65 62l59 59q-66 104 -66 245q0 110 41.5 199.5t125.5 143t208 53.5q152 0 249 -84l54 54l64 -63l-59 -59q67 -101 67 -244zM225 260l322 322q-53 51 -136 51q-96 0 -151 -68t-55 -183
q0 -68 20 -122zM562.5 197.5q54.5 68.5 54.5 184.5q0 68 -20 122l-323 -322q53 -53 137 -53q97 0 151.5 68.5zM346 816l115 146h150l-152 -146h-113z" />
    <glyph glyph-name="Otilde" unicode="&#xd5;" horiz-adv-x="823" 
d="M203.5 38q-84.5 54 -126 144t-41.5 200t41.5 199.5t125.5 143t208 53.5q123 0 207.5 -53.5t126 -143t41.5 -199.5t-41.5 -200t-126 -144t-207.5 -54t-207.5 54zM562.5 197.5q54.5 68.5 54.5 184.5q0 115 -54.5 183t-151.5 68q-96 0 -151 -68t-55 -183t55 -184t151 -69
q97 0 151.5 68.5zM421.5 815q-21.5 13 -44.5 35q-2 2 -10 9.5t-14.5 11t-12.5 3.5q-28 0 -31 -70h-85q3 75 35.5 118.5t85.5 43.5q30 0 51 -12.5t45 -34.5q14 -13 21.5 -18.5t15.5 -5.5q12 0 19.5 17t8.5 50h88q-5 -82 -32.5 -121t-84.5 -39q-34 0 -55.5 13z" />
    <glyph glyph-name="OE" unicode="&#x152;" horiz-adv-x="1178" 
d="M199 38q-82 54 -122.5 144.5t-40.5 199.5t40.5 199t122.5 143.5t199 53.5q73 0 132 -27.5t88 -70.5l12 5q-6 17 -8 27.5t-2 24.5v26h515v-145h-354v-164h318v-144h-318v-165h354v-145h-515v22q0 32 10 56l-11 7q-30 -48 -88 -74.5t-133 -26.5q-117 0 -199 54z
M562.5 197.5q54.5 68.5 54.5 184.5q0 115 -54.5 183t-151.5 68q-96 0 -151 -68t-55 -183t55 -184t151 -69q97 0 151.5 68.5z" />
    <glyph glyph-name="P" unicode="P" horiz-adv-x="674" 
d="M64 763h345q112 0 176.5 -55.5t64.5 -172.5q0 -73 -30.5 -126t-85 -81t-125.5 -28h-184v-300h-161v763zM463.5 463q26.5 23 26.5 67q0 43 -26.5 65.5t-77.5 22.5h-161v-178h161q51 0 77.5 23z" />
    <glyph glyph-name="Thorn" unicode="&#xde;" horiz-adv-x="666" 
d="M64 763h160v-102h184q111 0 176 -55t65 -168q0 -71 -30.5 -123t-85 -80t-125.5 -28h-184v-207h-160v763zM463 369.5q26 21.5 26 64.5q0 40 -26 61t-73 21h-166v-168h166q47 0 73 21.5z" />
    <glyph glyph-name="Q" unicode="Q" horiz-adv-x="825" 
d="M559 -18q-5 15 -4 43l-13 4q-20 -22 -54 -33q-36 -12 -77 -12q-123 0 -207.5 54t-126 144t-41.5 200t41.5 199.5t125.5 143t208 53.5q123 0 207.5 -53.5t126 -143t41.5 -199.5q0 -91 -28.5 -169.5t-84.5 -132.5l106 -167h-182l-24 38q-9 16 -14 31zM563 195.5
q54 66.5 54 186.5q0 119 -54 185t-152 66t-152 -66t-54 -185q0 -120 54 -186.5t152 -66.5t152 66.5z" />
    <glyph glyph-name="R" unicode="R" horiz-adv-x="698" 
d="M64 763h345q112 0 176.5 -55.5t64.5 -172.5q0 -43 -11.5 -82t-33.5 -67q-35 -41 -81 -41l-5 -14q17 -15 25.5 -29.5t20.5 -44.5l105 -257h-171l-116 300h-158v-300h-161v763zM463.5 463q26.5 23 26.5 67q0 43 -26.5 65.5t-77.5 22.5h-161v-178h161q51 0 77.5 23z" />
    <glyph glyph-name="Racute" unicode="&#x154;" horiz-adv-x="698" 
d="M64 763h345q112 0 176.5 -55.5t64.5 -172.5q0 -43 -11.5 -82t-33.5 -67q-35 -41 -81 -41l-5 -14q17 -15 25.5 -29.5t20.5 -44.5l105 -257h-171l-116 300h-158v-300h-161v763zM463.5 463q26.5 23 26.5 67q0 43 -26.5 65.5t-77.5 22.5h-161v-178h161q51 0 77.5 23zM273 816
l115 146h150l-152 -146h-113z" />
    <glyph glyph-name="Rcaron" unicode="&#x158;" horiz-adv-x="698" 
d="M64 763h345q112 0 176.5 -55.5t64.5 -172.5q0 -43 -11.5 -82t-33.5 -67q-35 -41 -81 -41l-5 -14q17 -15 25.5 -29.5t20.5 -44.5l105 -257h-171l-116 300h-158v-300h-161v763zM463.5 463q26.5 23 26.5 67q0 43 -26.5 65.5t-77.5 22.5h-161v-178h161q51 0 77.5 23zM163 962
h125l19 -25q24 -33 24 -53h14q0 20 24 53l19 25h125l-168 -175h-14z" />
    <glyph glyph-name="uni0156" unicode="&#x156;" horiz-adv-x="698" 
d="M64 763h345q112 0 176.5 -55.5t64.5 -172.5q0 -43 -11.5 -82t-33.5 -67q-35 -41 -81 -41l-5 -14q17 -15 25.5 -29.5t20.5 -44.5l105 -257h-171l-116 300h-158v-300h-161v763zM463.5 463q26.5 23 26.5 67q0 43 -26.5 65.5t-77.5 22.5h-161v-178h161q51 0 77.5 23z
M377 -133q4 7 2 14h-8q-8 -15 -31 -15q-19 0 -31 11.5t-12 32.5q0 24 17 38.5t46 14.5q34 0 53 -20.5t19 -51.5q0 -90 -123 -90v36q59 0 68 30z" />
    <glyph glyph-name="S" unicode="S" horiz-adv-x="704" 
d="M220.5 10q-74.5 26 -127 86.5t-60.5 156.5h167q17 -72 64.5 -102t111.5 -30q56 0 92.5 24t36.5 71q0 33 -23 53t-57.5 31t-95.5 24q-86 19 -141 39.5t-94 65t-39 120.5q0 74 36 125.5t99 77.5t142 26t146.5 -27.5t112.5 -83t57 -136.5h-166q-14 53 -54.5 81.5t-99.5 28.5
q-49 0 -80.5 -20t-31.5 -58q0 -30 21.5 -48t54 -28.5t92.5 -24.5q88 -19 145 -40.5t98 -69t41 -128.5q0 -73 -35 -127t-100.5 -83.5t-156.5 -29.5q-81 0 -155.5 26z" />
    <glyph glyph-name="Sacute" unicode="&#x15a;" horiz-adv-x="704" 
d="M220.5 10q-74.5 26 -127 86.5t-60.5 156.5h167q17 -72 64.5 -102t111.5 -30q56 0 92.5 24t36.5 71q0 33 -23 53t-57.5 31t-95.5 24q-86 19 -141 39.5t-94 65t-39 120.5q0 74 36 125.5t99 77.5t142 26t146.5 -27.5t112.5 -83t57 -136.5h-166q-14 53 -54.5 81.5t-99.5 28.5
q-49 0 -80.5 -20t-31.5 -58q0 -30 21.5 -48t54 -28.5t92.5 -24.5q88 -19 145 -40.5t98 -69t41 -128.5q0 -73 -35 -127t-100.5 -83.5t-156.5 -29.5q-81 0 -155.5 26zM287 816l115 146h150l-152 -146h-113z" />
    <glyph glyph-name="Scaron" unicode="&#x160;" horiz-adv-x="704" 
d="M220.5 10q-74.5 26 -127 86.5t-60.5 156.5h167q17 -72 64.5 -102t111.5 -30q56 0 92.5 24t36.5 71q0 33 -23 53t-57.5 31t-95.5 24q-86 19 -141 39.5t-94 65t-39 120.5q0 74 36 125.5t99 77.5t142 26t146.5 -27.5t112.5 -83t57 -136.5h-166q-14 53 -54.5 81.5t-99.5 28.5
q-49 0 -80.5 -20t-31.5 -58q0 -30 21.5 -48t54 -28.5t92.5 -24.5q88 -19 145 -40.5t98 -69t41 -128.5q0 -73 -35 -127t-100.5 -83.5t-156.5 -29.5q-81 0 -155.5 26zM177 962h125l19 -25q24 -33 24 -53h14q0 20 24 53l19 25h125l-168 -175h-14z" />
    <glyph glyph-name="Scedilla" unicode="&#x15e;" horiz-adv-x="704" 
d="M633 97q-35 -54 -100.5 -83.5t-155.5 -29.5q-19 -14 -28 -20l5 -9q18 2 25 2q33 0 51 -11q19 -10 28 -25.5t9 -38.5q0 -45 -37 -68.5t-96 -23.5q-50 0 -96 14v56q53 -19 88 -19q24 0 37 9.5t13 27.5q0 31 -34 42.5t-95 10.5l52 59q-107 17 -181.5 81t-84.5 182h167
q17 -72 64.5 -102t111.5 -30q56 0 92.5 24t36.5 71q0 33 -23 53t-57.5 31t-95.5 24q-86 19 -141 39.5t-94 65t-39 120.5q0 74 36 125.5t99 77.5t142 26t146.5 -27.5t112.5 -83t57 -136.5h-166q-14 53 -54.5 81.5t-99.5 28.5q-49 0 -80.5 -20t-31.5 -58q0 -30 21.5 -48
t54 -28.5t92.5 -24.5q88 -19 145 -40.5t98 -69t41 -128.5q0 -73 -35 -127z" />
    <glyph glyph-name="uni0218" unicode="&#x218;" horiz-adv-x="704" 
d="M220.5 10q-74.5 26 -127 86.5t-60.5 156.5h167q17 -72 64.5 -102t111.5 -30q56 0 92.5 24t36.5 71q0 33 -23 53t-57.5 31t-95.5 24q-86 19 -141 39.5t-94 65t-39 120.5q0 74 36 125.5t99 77.5t142 26t146.5 -27.5t112.5 -83t57 -136.5h-166q-14 53 -54.5 81.5t-99.5 28.5
q-49 0 -80.5 -20t-31.5 -58q0 -30 21.5 -48t54 -28.5t92.5 -24.5q88 -19 145 -40.5t98 -69t41 -128.5q0 -73 -35 -127t-100.5 -83.5t-156.5 -29.5q-81 0 -155.5 26zM366 -133q4 7 2 14h-8q-8 -15 -31 -15q-19 0 -31 11.5t-12 32.5q0 24 17 38.5t46 14.5q34 0 53 -20.5
t19 -51.5q0 -90 -123 -90v36q59 0 68 30z" />
    <glyph glyph-name="uni1E9E" unicode="&#x1e9e;" horiz-adv-x="700" 
d="M81.5 608q17.5 59 56.5 97q70 73 217 73q139 0 240 -94v-136l-62 -60q-22 -22 -57 -44l3 -14q45 3 80 -15q48 -21 76.5 -70.5t28.5 -112.5q0 -140 -92 -186t-188 -46h-91v145h96q47 0 80 22t33 69q0 88 -115 88h-61v134l95 94q16 15 30 22.5t32 7.5v16q-23 0 -38.5 9
t-17.5 10q-29 16 -72 16q-65 0 -96 -36q-17 -18 -25.5 -50t-8.5 -86v-461h-161v461q0 88 17.5 147z" />
    <glyph glyph-name="T" unicode="T" horiz-adv-x="627" 
d="M233 0v618h-224v145h609v-145h-224v-618h-161z" />
    <glyph glyph-name="Tcaron" unicode="&#x164;" horiz-adv-x="627" 
d="M233 0v618h-224v145h609v-145h-224v-618h-161zM139 962h125l19 -25q24 -33 24 -53h14q0 20 24 53l19 25h125l-168 -175h-14z" />
    <glyph glyph-name="uni0162" unicode="&#x162;" horiz-adv-x="627" 
d="M358 0q-28 -23 -47 -36l5 -9q18 2 25 2q33 0 51 -11q19 -10 28 -25.5t9 -38.5q0 -45 -37 -68.5t-96 -23.5q-50 0 -96 14v56q53 -19 88 -19q24 0 37 9.5t13 27.5q0 31 -34 42.5t-95 10.5l61 69h-37v618h-224v145h609v-145h-224v-618h-36z" />
    <glyph glyph-name="uni021A" unicode="&#x21a;" horiz-adv-x="627" 
d="M233 0v618h-224v145h609v-145h-224v-618h-161zM328 -133q4 7 2 14h-8q-8 -15 -31 -15q-19 0 -31 11.5t-12 32.5q0 24 17 38.5t46 14.5q34 0 53 -20.5t19 -51.5q0 -90 -123 -90v36q59 0 68 30z" />
    <glyph glyph-name="U" unicode="U" horiz-adv-x="745" 
d="M132.5 63.5q-76.5 79.5 -76.5 217.5v482h162v-482q0 -71 35 -111.5t120 -40.5q84 0 118.5 40.5t34.5 111.5v482h162v-482q0 -138 -76.5 -217.5t-238.5 -79.5q-164 0 -240.5 79.5z" />
    <glyph glyph-name="Uacute" unicode="&#xda;" horiz-adv-x="745" 
d="M132.5 63.5q-76.5 79.5 -76.5 217.5v482h162v-482q0 -71 35 -111.5t120 -40.5q84 0 118.5 40.5t34.5 111.5v482h162v-482q0 -138 -76.5 -217.5t-238.5 -79.5q-164 0 -240.5 79.5zM308 816l115 146h150l-152 -146h-113z" />
    <glyph glyph-name="Ucircumflex" unicode="&#xdb;" horiz-adv-x="745" 
d="M132.5 63.5q-76.5 79.5 -76.5 217.5v482h162v-482q0 -71 35 -111.5t120 -40.5q84 0 118.5 40.5t34.5 111.5v482h162v-482q0 -138 -76.5 -217.5t-238.5 -79.5q-164 0 -240.5 79.5zM366 993h14l168 -176h-125l-19 25q-24 34 -24 53h-14q0 -19 -24 -53l-19 -25h-125z" />
    <glyph glyph-name="Udieresis" unicode="&#xdc;" horiz-adv-x="745" 
d="M132.5 63.5q-76.5 79.5 -76.5 217.5v482h162v-482q0 -71 35 -111.5t120 -40.5q84 0 118.5 40.5t34.5 111.5v482h162v-482q0 -138 -76.5 -217.5t-238.5 -79.5q-164 0 -240.5 79.5zM202.5 826q-25.5 22 -25.5 58t25.5 58.5t62.5 22.5t62.5 -22.5t25.5 -58.5t-25.5 -58
t-62.5 -22t-62.5 22zM417.5 826q-25.5 22 -25.5 58t25.5 58.5t62.5 22.5t62.5 -22.5t25.5 -58.5t-25.5 -58t-62.5 -22t-62.5 22z" />
    <glyph glyph-name="Ugrave" unicode="&#xd9;" horiz-adv-x="745" 
d="M132.5 63.5q-76.5 79.5 -76.5 217.5v482h162v-482q0 -71 35 -111.5t120 -40.5q84 0 118.5 40.5t34.5 111.5v482h162v-482q0 -138 -76.5 -217.5t-238.5 -79.5q-164 0 -240.5 79.5zM438 816h-113l-152 146h150z" />
    <glyph glyph-name="Uhungarumlaut" unicode="&#x170;" horiz-adv-x="745" 
d="M132.5 63.5q-76.5 79.5 -76.5 217.5v482h162v-482q0 -71 35 -111.5t120 -40.5q84 0 118.5 40.5t34.5 111.5v482h162v-482q0 -138 -76.5 -217.5t-238.5 -79.5q-164 0 -240.5 79.5zM213 816l117 146h134l-138 -146h-113zM418 816l117 146h144l-149 -146h-112z" />
    <glyph glyph-name="Umacron" unicode="&#x16a;" horiz-adv-x="745" 
d="M132.5 63.5q-76.5 79.5 -76.5 217.5v482h162v-482q0 -71 35 -111.5t120 -40.5q84 0 118.5 40.5t34.5 111.5v482h162v-482q0 -138 -76.5 -217.5t-238.5 -79.5q-164 0 -240.5 79.5zM222 826v71h301v-71h-301z" />
    <glyph glyph-name="Uogonek" unicode="&#x172;" horiz-adv-x="745" 
d="M688 763v-482q0 -115 -52.5 -190t-163.5 -98q-47 -31 -62 -46t-15 -33q0 -32 38 -32q23 0 49 13v-94q-36 -11 -75 -11q-59 0 -89 21.5t-30 62.5q0 39 23.5 63t79.5 44v3h-18q-164 0 -240.5 79.5t-76.5 217.5v482h162v-482q0 -71 35 -111.5t120 -40.5q84 0 118.5 40.5
t34.5 111.5v482h162z" />
    <glyph glyph-name="Uring" unicode="&#x16e;" horiz-adv-x="745" 
d="M132.5 63.5q-76.5 79.5 -76.5 217.5v482h162v-482q0 -71 35 -111.5t120 -40.5q84 0 118.5 40.5t34.5 111.5v482h162v-482q0 -138 -76.5 -217.5t-238.5 -79.5q-164 0 -240.5 79.5zM306 787q-30 18 -47 48t-17 65t17.5 65t47.5 47.5t65 17.5q36 0 66 -17.5t47.5 -47
t17.5 -65.5t-17.5 -66t-47.5 -47.5t-66 -17.5t-66 18zM409 863.5q14 14.5 14 38.5q0 22 -13.5 35.5t-37.5 13.5q-23 0 -36.5 -14t-13.5 -35q0 -24 14.5 -38.5t35.5 -14.5q23 0 37 14.5z" />
    <glyph glyph-name="V" unicode="V" horiz-adv-x="705" 
d="M0 763h170l156 -497q19 -63 19 -102h16q0 42 18 102l156 497h171l-265 -763h-176z" />
    <glyph glyph-name="W" unicode="W" horiz-adv-x="1125" 
d="M13 763h169l125 -538q7 -30 10 -47t3 -43h16q0 23 2.5 40.5t5.5 31.5t4 18l107 538h215l107 -538q1 -4 4.5 -21t5.5 -34t2 -35h16q0 26 3 43t10 47l125 538h169l-190 -763h-237l-108 538q-6 42 -6 81h-16q0 -44 -7 -81l-108 -538h-236z" />
    <glyph glyph-name="Wacute" unicode="&#x1e82;" horiz-adv-x="1125" 
d="M13 763h169l125 -538q7 -30 10 -47t3 -43h16q0 23 2.5 40.5t5.5 31.5t4 18l107 538h215l107 -538q1 -4 4.5 -21t5.5 -34t2 -35h16q0 26 3 43t10 47l125 538h169l-190 -763h-237l-108 538q-6 42 -6 81h-16q0 -44 -7 -81l-108 -538h-236zM498 816l115 146h150l-152 -146
h-113z" />
    <glyph glyph-name="Wcircumflex" unicode="&#x174;" horiz-adv-x="1125" 
d="M13 763h169l125 -538q7 -30 10 -47t3 -43h16q0 23 2.5 40.5t5.5 31.5t4 18l107 538h215l107 -538q1 -4 4.5 -21t5.5 -34t2 -35h16q0 26 3 43t10 47l125 538h169l-190 -763h-237l-108 538q-6 42 -6 81h-16q0 -44 -7 -81l-108 -538h-236zM555 993h14l168 -176h-125l-19 25
q-24 34 -24 53h-14q0 -19 -24 -53l-19 -25h-125z" />
    <glyph glyph-name="Wdieresis" unicode="&#x1e84;" horiz-adv-x="1125" 
d="M13 763h169l125 -538q7 -30 10 -47t3 -43h16q0 23 2.5 40.5t5.5 31.5t4 18l107 538h215l107 -538q1 -4 4.5 -21t5.5 -34t2 -35h16q0 26 3 43t10 47l125 538h169l-190 -763h-237l-108 538q-6 42 -6 81h-16q0 -44 -7 -81l-108 -538h-236zM391.5 826q-25.5 22 -25.5 58
t25.5 58.5t62.5 22.5t62.5 -22.5t25.5 -58.5t-25.5 -58t-62.5 -22t-62.5 22zM606.5 826q-25.5 22 -25.5 58t25.5 58.5t62.5 22.5t62.5 -22.5t25.5 -58.5t-25.5 -58t-62.5 -22t-62.5 22z" />
    <glyph glyph-name="Wgrave" unicode="&#x1e80;" horiz-adv-x="1125" 
d="M13 763h169l125 -538q7 -30 10 -47t3 -43h16q0 23 2.5 40.5t5.5 31.5t4 18l107 538h215l107 -538q1 -4 4.5 -21t5.5 -34t2 -35h16q0 26 3 43t10 47l125 538h169l-190 -763h-237l-108 538q-6 42 -6 81h-16q0 -44 -7 -81l-108 -538h-236zM627 816h-113l-152 146h150z" />
    <glyph glyph-name="X" unicode="X" horiz-adv-x="736" 
d="M257 380l-251 383h192l132 -212q18 -30 24.5 -46t6.5 -33h14q0 17 6.5 33t24.5 46l132 212h192l-251 -383l251 -380h-192l-132 201q-18 29 -24.5 46t-6.5 36h-14q0 -19 -6.5 -36t-24.5 -46l-132 -201h-192z" />
    <glyph glyph-name="Y" unicode="Y" horiz-adv-x="709" 
d="M270 301l-276 462h189l137 -245q16 -28 21.5 -43t5.5 -37h16q0 22 5 37.5t21 43.5l137 244h189l-275 -462v-301h-170v301z" />
    <glyph glyph-name="Yacute" unicode="&#xdd;" horiz-adv-x="709" 
d="M270 301l-276 462h189l137 -245q16 -28 21.5 -43t5.5 -37h16q0 22 5 37.5t21 43.5l137 244h189l-275 -462v-301h-170v301zM288 816l115 146h150l-152 -146h-113z" />
    <glyph glyph-name="Ycircumflex" unicode="&#x176;" horiz-adv-x="709" 
d="M270 301l-276 462h189l137 -245q16 -28 21.5 -43t5.5 -37h16q0 22 5 37.5t21 43.5l137 244h189l-275 -462v-301h-170v301zM346 993h14l168 -176h-125l-19 25q-24 34 -24 53h-14q0 -19 -24 -53l-19 -25h-125z" />
    <glyph glyph-name="Ydieresis" unicode="&#x178;" horiz-adv-x="709" 
d="M270 301l-276 462h189l137 -245q16 -28 21.5 -43t5.5 -37h16q0 22 5 37.5t21 43.5l137 244h189l-275 -462v-301h-170v301zM182.5 826q-25.5 22 -25.5 58t25.5 58.5t62.5 22.5t62.5 -22.5t25.5 -58.5t-25.5 -58t-62.5 -22t-62.5 22zM397.5 826q-25.5 22 -25.5 58
t25.5 58.5t62.5 22.5t62.5 -22.5t25.5 -58.5t-25.5 -58t-62.5 -22t-62.5 22z" />
    <glyph glyph-name="Ygrave" unicode="&#x1ef2;" horiz-adv-x="709" 
d="M270 301l-276 462h189l137 -245q16 -28 21.5 -43t5.5 -37h16q0 22 5 37.5t21 43.5l137 244h189l-275 -462v-301h-170v301zM418 816h-113l-152 146h150z" />
    <glyph glyph-name="Z" unicode="Z" horiz-adv-x="626" 
d="M27 110l317 445q17 24 28.5 37t25.5 24l-6 14q-17 -7 -33.5 -9.5t-50.5 -2.5h-260v145h545v-115l-313 -442q-21 -28 -31 -39.5t-23 -21.5l8 -14q16 8 31.5 11t45.5 3h284v-145h-568v110z" />
    <glyph glyph-name="Zacute" unicode="&#x179;" horiz-adv-x="626" 
d="M27 110l317 445q17 24 28.5 37t25.5 24l-6 14q-17 -7 -33.5 -9.5t-50.5 -2.5h-260v145h545v-115l-313 -442q-21 -28 -31 -39.5t-23 -21.5l8 -14q16 8 31.5 11t45.5 3h284v-145h-568v110zM250 816l115 146h150l-152 -146h-113z" />
    <glyph glyph-name="Zcaron" unicode="&#x17d;" horiz-adv-x="626" 
d="M27 110l317 445q17 24 28.5 37t25.5 24l-6 14q-17 -7 -33.5 -9.5t-50.5 -2.5h-260v145h545v-115l-313 -442q-21 -28 -31 -39.5t-23 -21.5l8 -14q16 8 31.5 11t45.5 3h284v-145h-568v110zM140 962h125l19 -25q24 -33 24 -53h14q0 20 24 53l19 25h125l-168 -175h-14z" />
    <glyph glyph-name="Zdotaccent" unicode="&#x17b;" horiz-adv-x="626" 
d="M27 110l317 445q17 24 28.5 37t25.5 24l-6 14q-17 -7 -33.5 -9.5t-50.5 -2.5h-260v145h545v-115l-313 -442q-21 -28 -31 -39.5t-23 -21.5l8 -14q16 8 31.5 11t45.5 3h284v-145h-568v110zM252.5 826q-25.5 22 -25.5 58t25.5 58.5t62.5 22.5t62.5 -22.5t25.5 -58.5
t-25.5 -58t-62.5 -22t-62.5 22z" />
    <glyph glyph-name="a" unicode="a" horiz-adv-x="596" 
d="M88 32.5q-52 44.5 -52 124.5q0 86 68 132q44 30 132 46l157 29q-1 47 -25 72q-22 24 -66 24q-35 0 -61 -21.5t-33 -58.5h-151q10 65 46.5 109t89 65.5t110.5 21.5q51 0 96 -14t77 -42t46.5 -65t18 -75.5t3.5 -99.5v-280h-152v12q0 24 14 53l-14 8q-15 -32 -46 -55
q-45 -30 -125 -30q-81 0 -133 44.5zM328 120q29 14 44 36q13 19 24 63q2 11 6.5 16.5t13.5 6.5l-3 16l-95 -19l-41 -7q-29 -6 -45.5 -13t-27.5 -17q-17 -17 -17 -40q0 -28 21 -42.5t54 -14.5q35 0 66 15z" />
    <glyph glyph-name="aacute" unicode="&#xe1;" horiz-adv-x="596" 
d="M88 32.5q-52 44.5 -52 124.5q0 86 68 132q44 30 132 46l157 29q-1 47 -25 72q-22 24 -66 24q-35 0 -61 -21.5t-33 -58.5h-151q10 65 46.5 109t89 65.5t110.5 21.5q51 0 96 -14t77 -42t46.5 -65t18 -75.5t3.5 -99.5v-280h-152v12q0 24 14 53l-14 8q-15 -32 -46 -55
q-45 -30 -125 -30q-81 0 -133 44.5zM328 120q29 14 44 36q13 19 24 63q2 11 6.5 16.5t13.5 6.5l-3 16l-95 -19l-41 -7q-29 -6 -45.5 -13t-27.5 -17q-17 -17 -17 -40q0 -28 21 -42.5t54 -14.5q35 0 66 15zM240 617l115 146h150l-152 -146h-113z" />
    <glyph glyph-name="abreve" unicode="&#x103;" horiz-adv-x="596" 
d="M88 32.5q-52 44.5 -52 124.5q0 86 68 132q44 30 132 46l157 29q-1 47 -25 72q-22 24 -66 24q-35 0 -61 -21.5t-33 -58.5h-151q10 65 46.5 109t89 65.5t110.5 21.5q51 0 96 -14t77 -42t46.5 -65t18 -75.5t3.5 -99.5v-280h-152v12q0 24 14 53l-14 8q-15 -32 -46 -55
q-45 -30 -125 -30q-81 0 -133 44.5zM328 120q29 14 44 36q13 19 24 63q2 11 6.5 16.5t13.5 6.5l-3 16l-95 -19l-41 -7q-29 -6 -45.5 -13t-27.5 -17q-17 -17 -17 -40q0 -28 21 -42.5t54 -14.5q35 0 66 15zM181 647q-42 41 -47 115h86q4 -36 27.5 -54t57.5 -18q35 0 57 18.5
t26 53.5h87q-4 -73 -47.5 -114.5t-122.5 -41.5q-82 0 -124 41z" />
    <glyph glyph-name="acircumflex" unicode="&#xe2;" horiz-adv-x="596" 
d="M88 32.5q-52 44.5 -52 124.5q0 86 68 132q44 30 132 46l157 29q-1 47 -25 72q-22 24 -66 24q-35 0 -61 -21.5t-33 -58.5h-151q10 65 46.5 109t89 65.5t110.5 21.5q51 0 96 -14t77 -42t46.5 -65t18 -75.5t3.5 -99.5v-280h-152v12q0 24 14 53l-14 8q-15 -32 -46 -55
q-45 -30 -125 -30q-81 0 -133 44.5zM328 120q29 14 44 36q13 19 24 63q2 11 6.5 16.5t13.5 6.5l-3 16l-95 -19l-41 -7q-29 -6 -45.5 -13t-27.5 -17q-17 -17 -17 -40q0 -28 21 -42.5t54 -14.5q35 0 66 15zM298 794h14l168 -176h-125l-19 25q-24 34 -24 53h-14q0 -19 -24 -53
l-19 -25h-125z" />
    <glyph glyph-name="adieresis" unicode="&#xe4;" horiz-adv-x="596" 
d="M88 32.5q-52 44.5 -52 124.5q0 86 68 132q44 30 132 46l157 29q-1 47 -25 72q-22 24 -66 24q-35 0 -61 -21.5t-33 -58.5h-151q10 65 46.5 109t89 65.5t110.5 21.5q51 0 96 -14t77 -42t46.5 -65t18 -75.5t3.5 -99.5v-280h-152v12q0 24 14 53l-14 8q-15 -32 -46 -55
q-45 -30 -125 -30q-81 0 -133 44.5zM328 120q29 14 44 36q13 19 24 63q2 11 6.5 16.5t13.5 6.5l-3 16l-95 -19l-41 -7q-29 -6 -45.5 -13t-27.5 -17q-17 -17 -17 -40q0 -28 21 -42.5t54 -14.5q35 0 66 15zM133 636.5q-26 22.5 -26 59.5q0 36 26 59t63 23t63 -23t26 -59
q0 -37 -25.5 -59.5t-63.5 -22.5q-37 0 -63 22.5zM348.5 636.5q-25.5 22.5 -25.5 59.5q0 36 26 59t63 23t63 -23t26 -59q0 -37 -26 -59.5t-63 -22.5q-38 0 -63.5 22.5z" />
    <glyph glyph-name="agrave" unicode="&#xe0;" horiz-adv-x="596" 
d="M88 32.5q-52 44.5 -52 124.5q0 86 68 132q44 30 132 46l157 29q-1 47 -25 72q-22 24 -66 24q-35 0 -61 -21.5t-33 -58.5h-151q10 65 46.5 109t89 65.5t110.5 21.5q51 0 96 -14t77 -42t46.5 -65t18 -75.5t3.5 -99.5v-280h-152v12q0 24 14 53l-14 8q-15 -32 -46 -55
q-45 -30 -125 -30q-81 0 -133 44.5zM328 120q29 14 44 36q13 19 24 63q2 11 6.5 16.5t13.5 6.5l-3 16l-95 -19l-41 -7q-29 -6 -45.5 -13t-27.5 -17q-17 -17 -17 -40q0 -28 21 -42.5t54 -14.5q35 0 66 15zM370 617h-113l-152 146h150z" />
    <glyph glyph-name="amacron" unicode="&#x101;" horiz-adv-x="596" 
d="M88 32.5q-52 44.5 -52 124.5q0 86 68 132q44 30 132 46l157 29q-1 47 -25 72q-22 24 -66 24q-35 0 -61 -21.5t-33 -58.5h-151q10 65 46.5 109t89 65.5t110.5 21.5q51 0 96 -14t77 -42t46.5 -65t18 -75.5t3.5 -99.5v-280h-152v12q0 24 14 53l-14 8q-15 -32 -46 -55
q-45 -30 -125 -30q-81 0 -133 44.5zM328 120q29 14 44 36q13 19 24 63q2 11 6.5 16.5t13.5 6.5l-3 16l-95 -19l-41 -7q-29 -6 -45.5 -13t-27.5 -17q-17 -17 -17 -40q0 -28 21 -42.5t54 -14.5q35 0 66 15zM154 627v71h301v-71h-301z" />
    <glyph glyph-name="aogonek" unicode="&#x105;" horiz-adv-x="596" 
d="M473.5 -51.5q-16.5 -15.5 -16.5 -34.5q0 -32 38 -32q23 0 49 13v-94q-36 -11 -75 -11q-59 0 -89 21.5t-30 62.5q0 39 23.5 63t79.5 44v19h-61v12q0 24 14 53l-14 8q-15 -32 -46 -55q-45 -30 -125 -30q-81 0 -133 44.5t-52 124.5q0 86 68 132q44 30 132 46l157 29
q-1 47 -25 72q-22 24 -66 24q-35 0 -61 -21.5t-33 -58.5h-151q10 65 46.5 109t89 65.5t110.5 21.5q51 0 96 -14t77 -42t46.5 -65t18 -75.5t3.5 -99.5v-280q-54 -36 -70.5 -51.5zM402.5 235.5q4.5 5.5 13.5 6.5l-3 16l-95 -19l-41 -7q-29 -6 -45.5 -13t-27.5 -17
q-17 -17 -17 -40q0 -28 21 -42.5t54 -14.5q35 0 66 15q29 14 44 36q13 19 24 63q2 11 6.5 16.5z" />
    <glyph glyph-name="aring" unicode="&#xe5;" horiz-adv-x="596" 
d="M522.5 455q14.5 -37 18 -75.5t3.5 -99.5v-280h-152v12q0 24 14 53l-14 8q-15 -32 -46 -55q-45 -30 -125 -30q-81 0 -133 44.5t-52 124.5q0 86 68 132q44 30 132 46l157 29q-1 47 -25 72q-22 24 -66 24q-35 0 -61 -21.5t-33 -58.5h-151q14 87 73 136.5t141 57.5
q-43 11 -70 47t-27 80q0 35 17.5 65t47.5 47.5t65 17.5q36 0 66 -17.5t47.5 -47t17.5 -65.5q0 -46 -27 -81t-70 -46q85 -8 138 -54q32 -28 46.5 -65zM268.5 664.5q14.5 -14.5 35.5 -14.5q23 0 37 14.5t14 38.5q0 22 -13.5 35.5t-37.5 13.5q-23 0 -36.5 -14t-13.5 -35
q0 -24 14.5 -38.5zM402.5 235.5q4.5 5.5 13.5 6.5l-3 16l-95 -19l-41 -7q-29 -6 -45.5 -13t-27.5 -17q-17 -17 -17 -40q0 -28 21 -42.5t54 -14.5q35 0 66 15q29 14 44 36q13 19 24 63q2 11 6.5 16.5z" />
    <glyph glyph-name="atilde" unicode="&#xe3;" horiz-adv-x="596" 
d="M88 32.5q-52 44.5 -52 124.5q0 86 68 132q44 30 132 46l157 29q-1 47 -25 72q-22 24 -66 24q-35 0 -61 -21.5t-33 -58.5h-151q10 65 46.5 109t89 65.5t110.5 21.5q51 0 96 -14t77 -42t46.5 -65t18 -75.5t3.5 -99.5v-280h-152v12q0 24 14 53l-14 8q-15 -32 -46 -55
q-45 -30 -125 -30q-81 0 -133 44.5zM328 120q29 14 44 36q13 19 24 63q2 11 6.5 16.5t13.5 6.5l-3 16l-95 -19l-41 -7q-29 -6 -45.5 -13t-27.5 -17q-17 -17 -17 -40q0 -28 21 -42.5t54 -14.5q35 0 66 15zM315.5 616q-21.5 13 -44.5 35q-2 2 -10 9.5t-14.5 11t-12.5 3.5
q-28 0 -31 -70h-85q3 75 35.5 118.5t85.5 43.5q30 0 51 -12.5t45 -34.5q14 -13 21.5 -18.5t15.5 -5.5q12 0 19.5 17t8.5 50h88q-5 -82 -32.5 -121t-84.5 -39q-34 0 -55.5 13z" />
    <glyph glyph-name="ae" unicode="&#xe6;" horiz-adv-x="1240" 
d="M88 32.5q-52 44.5 -52 124.5q0 86 68 132q44 30 132 46l157 29q-1 47 -25 72q-22 24 -66 24q-35 0 -61 -21.5t-33 -58.5h-151q10 65 46.5 109t89 65.5t110.5 21.5q51 0 96 -14t77 -42t46.5 -65t18 -75.5t3.5 -99.5v-280h-152v12q0 24 14 53l-14 8q-15 -32 -46 -55
q-45 -30 -125 -30q-81 0 -133 44.5zM328 120q29 14 44 36q13 19 24 63q2 11 6.5 16.5t13.5 6.5l-3 16l-95 -19l-41 -7q-29 -6 -45.5 -13t-27.5 -17q-17 -17 -17 -40q0 -28 21 -42.5t54 -14.5q35 0 66 15zM769.5 25.5q-66.5 37.5 -102.5 103.5t-36 149q0 76 31.5 144.5
t96 111t158.5 42.5q77 0 142.5 -31.5t105.5 -98t40 -166.5v-30h-344q-61 0 -79 4l-5 -15q9 -3 13.5 -9t7.5 -17q8 -20 16 -32q38 -62 115 -62q41 0 71 20.5t43 52.5h153q-26 -90 -95 -147t-179 -57q-86 0 -152.5 37.5zM848 361h148q15 0 27.5 -3t29.5 -11l8 15
q-8 3 -10.5 6.5t-4.5 11.5q-1 2 -4.5 11t-14.5 21q-36 46 -104 46t-105 -46q-11 -12 -14.5 -21t-4.5 -11q-2 -8 -4.5 -11.5t-10.5 -6.5l8 -15q28 14 56 14z" />
    <glyph glyph-name="b" unicode="b" horiz-adv-x="646" 
d="M274.5 6.5q-36.5 18.5 -66.5 63.5l-14 -10q9 -11 12.5 -21.5t3.5 -26.5v-12h-152v763h152v-211q0 -15 -3.5 -26t-12.5 -22l14 -10q30 45 66.5 63.5t87.5 18.5q72 0 128 -37.5t87.5 -104t31.5 -152.5t-31.5 -152.5t-87.5 -104t-128 -37.5q-51 0 -87.5 18.5zM419.5 163.5
q36.5 45.5 36.5 118.5t-36.5 118.5t-96.5 45.5t-97.5 -45.5t-37.5 -118.5t37.5 -118.5t97.5 -45.5t96.5 45.5z" />
    <glyph glyph-name="c" unicode="c" horiz-adv-x="627" 
d="M173.5 25q-65.5 37 -102 104.5t-36.5 155.5q0 85 36 151t102 103t152 37q104 0 176.5 -53t93.5 -143h-165q-24 74 -105 74q-61 0 -97.5 -45.5t-36.5 -123.5q0 -80 36.5 -127t97.5 -47q88 0 107 81h165q-20 -95 -93.5 -149.5t-178.5 -54.5q-86 0 -151.5 37z" />
    <glyph glyph-name="cacute" unicode="&#x107;" horiz-adv-x="627" 
d="M173.5 25q-65.5 37 -102 104.5t-36.5 155.5q0 85 36 151t102 103t152 37q104 0 176.5 -53t93.5 -143h-165q-24 74 -105 74q-61 0 -97.5 -45.5t-36.5 -123.5q0 -80 36.5 -127t97.5 -47q88 0 107 81h165q-20 -95 -93.5 -149.5t-178.5 -54.5q-86 0 -151.5 37zM249 617
l115 146h150l-152 -146h-113z" />
    <glyph glyph-name="ccaron" unicode="&#x10d;" horiz-adv-x="627" 
d="M173.5 25q-65.5 37 -102 104.5t-36.5 155.5q0 85 36 151t102 103t152 37q104 0 176.5 -53t93.5 -143h-165q-24 74 -105 74q-61 0 -97.5 -45.5t-36.5 -123.5q0 -80 36.5 -127t97.5 -47q88 0 107 81h165q-20 -95 -93.5 -149.5t-178.5 -54.5q-86 0 -151.5 37zM139 763h125
l19 -25q24 -33 24 -53h14q0 20 24 53l19 25h125l-168 -175h-14z" />
    <glyph glyph-name="ccedilla" unicode="&#xe7;" horiz-adv-x="627" 
d="M510 47.5q-68 -53.5 -166 -58.5q-15 -14 -33 -25l5 -9q18 2 25 2q33 0 51 -11q19 -10 28 -25.5t9 -38.5q0 -45 -37 -68.5t-96 -23.5q-50 0 -96 14v56q53 -19 88 -19q24 0 37 9.5t13 27.5q0 31 -34 42.5t-95 10.5l55 62q-105 19 -167 97.5t-62 194.5q0 85 36 151t102 103
t152 37q104 0 176.5 -53t93.5 -143h-165q-24 74 -105 74q-61 0 -97.5 -45.5t-36.5 -123.5q0 -80 36.5 -127t97.5 -47q88 0 107 81h165q-19 -91 -87 -144.5z" />
    <glyph glyph-name="cdotaccent" unicode="&#x10b;" horiz-adv-x="627" 
d="M173.5 25q-65.5 37 -102 104.5t-36.5 155.5q0 85 36 151t102 103t152 37q104 0 176.5 -53t93.5 -143h-165q-24 74 -105 74q-61 0 -97.5 -45.5t-36.5 -123.5q0 -80 36.5 -127t97.5 -47q88 0 107 81h165q-20 -95 -93.5 -149.5t-178.5 -54.5q-86 0 -151.5 37zM251 636.5
q-26 22.5 -26 59.5q0 36 26 59t63 23t63 -23t26 -59q0 -37 -25.5 -59.5t-63.5 -22.5q-37 0 -63 22.5z" />
    <glyph glyph-name="d" unicode="d" horiz-adv-x="646" 
d="M156 25.5q-56 37.5 -87.5 104t-31.5 152.5t31.5 152.5t87.5 104t128 37.5q51 0 87.5 -18.5t66.5 -63.5l14 10q-9 11 -12.5 22t-3.5 26v211h152v-763h-152v12q0 16 3.5 26.5t12.5 21.5l-14 10q-30 -45 -66.5 -63.5t-87.5 -18.5q-72 0 -128 37.5zM420.5 163.5
q37.5 45.5 37.5 118.5t-37.5 118.5t-97.5 45.5t-96.5 -45.5t-36.5 -118.5t36.5 -118.5t96.5 -45.5t97.5 45.5z" />
    <glyph glyph-name="eth" unicode="&#xf0;" horiz-adv-x="617" 
d="M148 19q-61 34 -95.5 96t-34.5 142q0 77 31 133.5t86.5 86.5t127.5 30q47 0 91 -17t78 -54q1 52 -16.5 96t-51.5 74l-105 -61l-32 55l69 39q-24 8 -54 8q-42 0 -82 -15l-64 120q73 26 154 26q110 0 187 -56l73 41l32 -55l-55 -32q91 -110 91 -310q0 -186 -76.5 -283.5
t-214.5 -97.5q-78 0 -139 34zM382 162q37 38 37 96q0 53 -37 90t-92 37q-54 0 -90.5 -36.5t-36.5 -90.5q0 -57 36 -95.5t90 -38.5q56 0 93 38z" />
    <glyph glyph-name="dcaron" unicode="&#x10f;" horiz-adv-x="646" 
d="M156 25.5q-56 37.5 -87.5 104t-31.5 152.5t31.5 152.5t87.5 104t128 37.5q51 0 87.5 -18.5t66.5 -63.5l14 10q-9 11 -12.5 22t-3.5 26v211h152v-763h-152v12q0 16 3.5 26.5t12.5 21.5l-14 10q-30 -45 -66.5 -63.5t-87.5 -18.5q-72 0 -128 37.5zM420.5 163.5
q37.5 45.5 37.5 118.5t-37.5 118.5t-97.5 45.5t-96.5 -45.5t-36.5 -118.5t36.5 -118.5t96.5 -45.5t97.5 45.5zM768.5 548.5q30.5 26.5 27.5 75.5h-12q-9 -23 -39 -23q-29 0 -50.5 23.5t-21.5 60.5q0 40 26 65t69 25q52 0 80 -38.5t28 -100.5q0 -77 -47.5 -132.5
t-148.5 -61.5v78q58 2 88.5 28.5z" />
    <glyph glyph-name="e" unicode="e" horiz-adv-x="644" 
d="M173.5 25.5q-66.5 37.5 -102.5 103.5t-36 149q0 76 31.5 144.5t96 111t158.5 42.5q77 0 142.5 -31.5t105.5 -98t40 -166.5v-30h-344q-61 0 -79 4l-5 -15q9 -3 13.5 -9t7.5 -17q8 -20 16 -32q38 -62 115 -62q41 0 71 20.5t43 52.5h153q-26 -90 -95 -147t-179 -57
q-86 0 -152.5 37.5zM252 361h148q15 0 27.5 -3t29.5 -11l8 15q-8 3 -10.5 6.5t-4.5 11.5q-1 2 -4.5 11t-14.5 21q-36 46 -104 46t-105 -46q-11 -12 -14.5 -21t-4.5 -11q-2 -8 -4.5 -11.5t-10.5 -6.5l8 -15q28 14 56 14z" />
    <glyph glyph-name="eacute" unicode="&#xe9;" horiz-adv-x="644" 
d="M173.5 25.5q-66.5 37.5 -102.5 103.5t-36 149q0 76 31.5 144.5t96 111t158.5 42.5q77 0 142.5 -31.5t105.5 -98t40 -166.5v-30h-344q-61 0 -79 4l-5 -15q9 -3 13.5 -9t7.5 -17q8 -20 16 -32q38 -62 115 -62q41 0 71 20.5t43 52.5h153q-26 -90 -95 -147t-179 -57
q-86 0 -152.5 37.5zM252 361h148q15 0 27.5 -3t29.5 -11l8 15q-8 3 -10.5 6.5t-4.5 11.5q-1 2 -4.5 11t-14.5 21q-36 46 -104 46t-105 -46q-11 -12 -14.5 -21t-4.5 -11q-2 -8 -4.5 -11.5t-10.5 -6.5l8 -15q28 14 56 14zM258 617l115 146h150l-152 -146h-113z" />
    <glyph glyph-name="ecaron" unicode="&#x11b;" horiz-adv-x="644" 
d="M173.5 25.5q-66.5 37.5 -102.5 103.5t-36 149q0 76 31.5 144.5t96 111t158.5 42.5q77 0 142.5 -31.5t105.5 -98t40 -166.5v-30h-344q-61 0 -79 4l-5 -15q9 -3 13.5 -9t7.5 -17q8 -20 16 -32q38 -62 115 -62q41 0 71 20.5t43 52.5h153q-26 -90 -95 -147t-179 -57
q-86 0 -152.5 37.5zM252 361h148q15 0 27.5 -3t29.5 -11l8 15q-8 3 -10.5 6.5t-4.5 11.5q-1 2 -4.5 11t-14.5 21q-36 46 -104 46t-105 -46q-11 -12 -14.5 -21t-4.5 -11q-2 -8 -4.5 -11.5t-10.5 -6.5l8 -15q28 14 56 14zM148 763h125l19 -25q24 -33 24 -53h14q0 20 24 53
l19 25h125l-168 -175h-14z" />
    <glyph glyph-name="ecircumflex" unicode="&#xea;" horiz-adv-x="644" 
d="M173.5 25.5q-66.5 37.5 -102.5 103.5t-36 149q0 76 31.5 144.5t96 111t158.5 42.5q77 0 142.5 -31.5t105.5 -98t40 -166.5v-30h-344q-61 0 -79 4l-5 -15q9 -3 13.5 -9t7.5 -17q8 -20 16 -32q38 -62 115 -62q41 0 71 20.5t43 52.5h153q-26 -90 -95 -147t-179 -57
q-86 0 -152.5 37.5zM252 361h148q15 0 27.5 -3t29.5 -11l8 15q-8 3 -10.5 6.5t-4.5 11.5q-1 2 -4.5 11t-14.5 21q-36 46 -104 46t-105 -46q-11 -12 -14.5 -21t-4.5 -11q-2 -8 -4.5 -11.5t-10.5 -6.5l8 -15q28 14 56 14zM316 794h14l168 -176h-125l-19 25q-24 34 -24 53h-14
q0 -19 -24 -53l-19 -25h-125z" />
    <glyph glyph-name="edieresis" unicode="&#xeb;" horiz-adv-x="644" 
d="M173.5 25.5q-66.5 37.5 -102.5 103.5t-36 149q0 76 31.5 144.5t96 111t158.5 42.5q77 0 142.5 -31.5t105.5 -98t40 -166.5v-30h-344q-61 0 -79 4l-5 -15q9 -3 13.5 -9t7.5 -17q8 -20 16 -32q38 -62 115 -62q41 0 71 20.5t43 52.5h153q-26 -90 -95 -147t-179 -57
q-86 0 -152.5 37.5zM252 361h148q15 0 27.5 -3t29.5 -11l8 15q-8 3 -10.5 6.5t-4.5 11.5q-1 2 -4.5 11t-14.5 21q-36 46 -104 46t-105 -46q-11 -12 -14.5 -21t-4.5 -11q-2 -8 -4.5 -11.5t-10.5 -6.5l8 -15q28 14 56 14zM151 636.5q-26 22.5 -26 59.5q0 36 26 59t63 23
t63 -23t26 -59q0 -37 -25.5 -59.5t-63.5 -22.5q-37 0 -63 22.5zM366.5 636.5q-25.5 22.5 -25.5 59.5q0 36 26 59t63 23t63 -23t26 -59q0 -37 -26 -59.5t-63 -22.5q-38 0 -63.5 22.5z" />
    <glyph glyph-name="edotaccent" unicode="&#x117;" horiz-adv-x="644" 
d="M173.5 25.5q-66.5 37.5 -102.5 103.5t-36 149q0 76 31.5 144.5t96 111t158.5 42.5q77 0 142.5 -31.5t105.5 -98t40 -166.5v-30h-344q-61 0 -79 4l-5 -15q9 -3 13.5 -9t7.5 -17q8 -20 16 -32q38 -62 115 -62q41 0 71 20.5t43 52.5h153q-26 -90 -95 -147t-179 -57
q-86 0 -152.5 37.5zM252 361h148q15 0 27.5 -3t29.5 -11l8 15q-8 3 -10.5 6.5t-4.5 11.5q-1 2 -4.5 11t-14.5 21q-36 46 -104 46t-105 -46q-11 -12 -14.5 -21t-4.5 -11q-2 -8 -4.5 -11.5t-10.5 -6.5l8 -15q28 14 56 14zM259 636.5q-26 22.5 -26 59.5q0 36 26 59t63 23
t63 -23t26 -59q0 -37 -25.5 -59.5t-63.5 -22.5q-37 0 -63 22.5z" />
    <glyph glyph-name="egrave" unicode="&#xe8;" horiz-adv-x="644" 
d="M173.5 25.5q-66.5 37.5 -102.5 103.5t-36 149q0 76 31.5 144.5t96 111t158.5 42.5q77 0 142.5 -31.5t105.5 -98t40 -166.5v-30h-344q-61 0 -79 4l-5 -15q9 -3 13.5 -9t7.5 -17q8 -20 16 -32q38 -62 115 -62q41 0 71 20.5t43 52.5h153q-26 -90 -95 -147t-179 -57
q-86 0 -152.5 37.5zM252 361h148q15 0 27.5 -3t29.5 -11l8 15q-8 3 -10.5 6.5t-4.5 11.5q-1 2 -4.5 11t-14.5 21q-36 46 -104 46t-105 -46q-11 -12 -14.5 -21t-4.5 -11q-2 -8 -4.5 -11.5t-10.5 -6.5l8 -15q28 14 56 14zM388 617h-113l-152 146h150z" />
    <glyph glyph-name="emacron" unicode="&#x113;" horiz-adv-x="644" 
d="M173.5 25.5q-66.5 37.5 -102.5 103.5t-36 149q0 76 31.5 144.5t96 111t158.5 42.5q77 0 142.5 -31.5t105.5 -98t40 -166.5v-30h-344q-61 0 -79 4l-5 -15q9 -3 13.5 -9t7.5 -17q8 -20 16 -32q38 -62 115 -62q41 0 71 20.5t43 52.5h153q-26 -90 -95 -147t-179 -57
q-86 0 -152.5 37.5zM252 361h148q15 0 27.5 -3t29.5 -11l8 15q-8 3 -10.5 6.5t-4.5 11.5q-1 2 -4.5 11t-14.5 21q-36 46 -104 46t-105 -46q-11 -12 -14.5 -21t-4.5 -11q-2 -8 -4.5 -11.5t-10.5 -6.5l8 -15q28 14 56 14zM172 627v71h301v-71h-301z" />
    <glyph glyph-name="eogonek" unicode="&#x119;" horiz-adv-x="644" 
d="M186 254l-5 -15q9 -3 13.5 -9t7.5 -17q8 -20 16 -32q38 -62 115 -62q41 0 71 20.5t43 52.5h153q-16 -54 -48 -97.5t-79 -70.5q-33 -23 -45 -36.5t-12 -29.5q0 -32 38 -32q23 0 49 13v-94q-36 -11 -75 -11q-59 0 -89 21.5t-30 62.5q0 45 31 70h-14q-86 0 -152.5 37.5
t-102.5 103.5t-36 149q0 76 31.5 144.5t96 111t158.5 42.5q77 0 142.5 -31.5t105.5 -98t40 -166.5v-30h-344q-61 0 -79 4zM207.5 391q-3.5 -9 -4.5 -11q-2 -8 -4.5 -11.5t-10.5 -6.5l8 -15q28 14 56 14h148q15 0 27.5 -3t29.5 -11l8 15q-8 3 -10.5 6.5t-4.5 11.5
q-1 2 -4.5 11t-14.5 21q-36 46 -104 46t-105 -46q-11 -12 -14.5 -21z" />
    <glyph glyph-name="f" unicode="f" horiz-adv-x="373" 
d="M105 445h-83v119h83v56q0 68 41 105.5t117 37.5h89v-118h-52q-42 0 -42 -51q0 -18 -10 -30l10 -10q13 10 42 10h52v-119h-94v-445h-153v445z" />
    <glyph glyph-name="g" unicode="g" horiz-adv-x="647" 
d="M145.5 -168.5q-73.5 41.5 -89.5 143.5h152q13 -38 40 -54t72 -16q60 0 88.5 27.5t28.5 72.5v23q0 16 3.5 26.5t12.5 21.5l-14 10q-30 -45 -66 -63.5t-88 -18.5q-72 0 -128 37t-87.5 102t-31.5 146q0 82 31.5 147.5t87.5 102.5t128 37q52 0 88 -18.5t66 -63.5l14 10
q-9 11 -12.5 22t-3.5 26v12h152v-522q0 -138 -72 -195t-196 -57q-102 0 -175.5 41.5zM421.5 178q37.5 44 37.5 112t-37.5 112t-97.5 44q-59 0 -96 -44.5t-37 -111.5t36.5 -111.5t96.5 -44.5t97.5 44z" />
    <glyph glyph-name="gbreve" unicode="&#x11f;" horiz-adv-x="647" 
d="M145.5 -168.5q-73.5 41.5 -89.5 143.5h152q13 -38 40 -54t72 -16q60 0 88.5 27.5t28.5 72.5v23q0 16 3.5 26.5t12.5 21.5l-14 10q-30 -45 -66 -63.5t-88 -18.5q-72 0 -128 37t-87.5 102t-31.5 146q0 82 31.5 147.5t87.5 102.5t128 37q52 0 88 -18.5t66 -63.5l14 10
q-9 11 -12.5 22t-3.5 26v12h152v-522q0 -138 -72 -195t-196 -57q-102 0 -175.5 41.5zM421.5 178q37.5 44 37.5 112t-37.5 112t-97.5 44q-59 0 -96 -44.5t-37 -111.5t36.5 -111.5t96.5 -44.5t97.5 44zM200 647q-42 41 -47 115h86q4 -36 27.5 -54t57.5 -18q35 0 57 18.5
t26 53.5h87q-4 -73 -47.5 -114.5t-122.5 -41.5q-82 0 -124 41z" />
    <glyph glyph-name="uni0123" unicode="&#x123;" horiz-adv-x="647" 
d="M145.5 -168.5q-73.5 41.5 -89.5 143.5h152q13 -38 40 -54t72 -16q60 0 88.5 27.5t28.5 72.5v23q0 16 3.5 26.5t12.5 21.5l-14 10q-30 -45 -66 -63.5t-88 -18.5q-72 0 -128 37t-87.5 102t-31.5 146q0 82 31.5 147.5t87.5 102.5t128 37q52 0 88 -18.5t66 -63.5l14 10
q-9 11 -12.5 22t-3.5 26v12h152v-522q0 -138 -72 -195t-196 -57q-102 0 -175.5 41.5zM421.5 178q37.5 44 37.5 112t-37.5 112t-97.5 44q-59 0 -96 -44.5t-37 -111.5t36.5 -111.5t96.5 -44.5t97.5 44zM275.5 620q-22.5 27 -22.5 72q0 55 38 95t119 44v-56q-46 -1 -70.5 -20.5
t-21.5 -54.5h9q7 17 31 17q23 0 40.5 -16.5t17.5 -43.5q0 -29 -21 -46.5t-55 -17.5q-42 0 -64.5 27z" />
    <glyph glyph-name="gdotaccent" unicode="&#x121;" horiz-adv-x="647" 
d="M145.5 -168.5q-73.5 41.5 -89.5 143.5h152q13 -38 40 -54t72 -16q60 0 88.5 27.5t28.5 72.5v23q0 16 3.5 26.5t12.5 21.5l-14 10q-30 -45 -66 -63.5t-88 -18.5q-72 0 -128 37t-87.5 102t-31.5 146q0 82 31.5 147.5t87.5 102.5t128 37q52 0 88 -18.5t66 -63.5l14 10
q-9 11 -12.5 22t-3.5 26v12h152v-522q0 -138 -72 -195t-196 -57q-102 0 -175.5 41.5zM421.5 178q37.5 44 37.5 112t-37.5 112t-97.5 44q-59 0 -96 -44.5t-37 -111.5t36.5 -111.5t96.5 -44.5t97.5 44zM260 636.5q-26 22.5 -26 59.5q0 36 26 59t63 23t63 -23t26 -59
q0 -37 -25.5 -59.5t-63.5 -22.5q-37 0 -63 22.5z" />
    <glyph glyph-name="h" unicode="h" horiz-adv-x="615" 
d="M58 763h152v-211q0 -15 -3.5 -26t-12.5 -22l14 -10q30 45 66 63.5t85 18.5q135 0 179 -96q15 -33 18.5 -67t3.5 -93v-320h-151v322q0 42 -6 67.5t-20 40.5q-22 23 -66 23q-54 0 -80 -32q-14 -17 -20.5 -45t-6.5 -74v-302h-152v763z" />
    <glyph glyph-name="i" unicode="i" horiz-adv-x="268" 
d="M58 0v564h152v-564h-152zM71 636.5q-26 22.5 -26 59.5q0 36 26 59t63 23t63 -23t26 -59q0 -37 -25.5 -59.5t-63.5 -22.5q-37 0 -63 22.5z" />
    <glyph glyph-name="dotlessi" unicode="&#x131;" horiz-adv-x="268" 
d="M58 0v564h152v-564h-152z" />
    <glyph glyph-name="iacute" unicode="&#xed;" horiz-adv-x="268" 
d="M58 0v564h152v-564h-152zM69 617l115 146h150l-152 -146h-113z" />
    <glyph glyph-name="icircumflex" unicode="&#xee;" horiz-adv-x="268" 
d="M58 0v564h152v-564h-152zM127 794h14l168 -176h-125l-19 25q-24 34 -24 53h-14q0 -19 -24 -53l-19 -25h-125z" />
    <glyph glyph-name="idieresis" unicode="&#xef;" horiz-adv-x="268" 
d="M58 0v564h152v-564h-152zM-37 636.5q-26 22.5 -26 59.5q0 36 26 59t63 23t63 -23t26 -59q0 -37 -25.5 -59.5t-63.5 -22.5q-37 0 -63 22.5zM178.5 636.5q-25.5 22.5 -25.5 59.5q0 36 26 59t63 23t63 -23t26 -59q0 -37 -26 -59.5t-63 -22.5q-38 0 -63.5 22.5z" />
    <glyph glyph-name="i.loclTRK" horiz-adv-x="268" 
d="M58 0v564h152v-564h-152zM71 636.5q-26 22.5 -26 59.5q0 36 26 59t63 23t63 -23t26 -59q0 -37 -25.5 -59.5t-63.5 -22.5q-37 0 -63 22.5z" />
    <glyph glyph-name="igrave" unicode="&#xec;" horiz-adv-x="268" 
d="M58 0v564h152v-564h-152zM199 617h-113l-152 146h150z" />
    <glyph glyph-name="imacron" unicode="&#x12b;" horiz-adv-x="268" 
d="M58 0v564h152v-564h-152zM-17 627v71h301v-71h-301z" />
    <glyph glyph-name="iogonek" unicode="&#x12f;" horiz-adv-x="268" 
d="M58 0v564h152v-564h-152zM71 636.5q-26 22.5 -26 59.5q0 36 26 59t63 23t63 -23t26 -59q0 -37 -25.5 -59.5t-63.5 -22.5q-37 0 -63 22.5zM46 -188.5q-30 21.5 -30 62.5q0 39 23.5 63t79.5 44v19h91q-54 -36 -70.5 -51.5t-16.5 -34.5q0 -32 38 -32q23 0 49 13v-94
q-36 -11 -75 -11q-59 0 -89 21.5z" />
    <glyph glyph-name="j" unicode="j" horiz-adv-x="268" 
d="M-38 -74h52q20 0 32 9.5t12 35.5v593h152v-641q0 -58 -34.5 -90t-98.5 -32h-115v125zM71 636.5q-26 22.5 -26 59.5q0 36 26 59t63 23t63 -23t26 -59q0 -37 -25.5 -59.5t-63.5 -22.5q-37 0 -63 22.5z" />
    <glyph glyph-name="uni0237" unicode="&#x237;" horiz-adv-x="268" 
d="M-38 -74h52q20 0 32 9.5t12 35.5v593h152v-641q0 -58 -34.5 -90t-98.5 -32h-115v125z" />
    <glyph glyph-name="k" unicode="k" horiz-adv-x="610" 
d="M58 763h152v-311q0 -24 -1.5 -43t-8.5 -47l12 -5q20 27 50 60l140 147h190l-201 -203q-16 -16 -46 -34v-14q27 -18 46 -42l216 -271h-183l-162 207q-28 37 -50 70l-12 -4q7 -28 8.5 -47.5t1.5 -43.5v-182h-152v763z" />
    <glyph glyph-name="uni0137" unicode="&#x137;" horiz-adv-x="610" 
d="M58 763h152v-311q0 -24 -1.5 -43t-8.5 -47l12 -5q20 27 50 60l140 147h190l-201 -203q-16 -16 -46 -34v-14q27 -18 46 -42l216 -271h-183l-162 207q-28 37 -50 70l-12 -4q7 -28 8.5 -47.5t1.5 -43.5v-182h-152v763zM315 -133q4 7 2 14h-8q-8 -15 -31 -15q-19 0 -31 11.5
t-12 32.5q0 24 17 38.5t46 14.5q34 0 53 -20.5t19 -51.5q0 -90 -123 -90v36q59 0 68 30z" />
    <glyph glyph-name="kgreenlandic" unicode="&#x138;" horiz-adv-x="610" 
d="M58 564h152v-112q0 -24 -1.5 -43t-8.5 -47l12 -5q20 27 50 60l141 147h189l-241 -244l256 -320h-183l-162 207q-28 37 -50 70l-12 -4q7 -28 8.5 -47.5t1.5 -43.5v-182h-152v564z" />
    <glyph glyph-name="l" unicode="l" horiz-adv-x="310" 
d="M89 29.5q-34 29.5 -34 88.5v645h152v-596q0 -43 39 -43h39v-124h-99q-63 0 -97 29.5z" />
    <glyph glyph-name="lacute" unicode="&#x13a;" horiz-adv-x="310" 
d="M89 29.5q-34 29.5 -34 88.5v645h152v-596q0 -43 39 -43h39v-124h-99q-63 0 -97 29.5zM66 816l115 146h150l-152 -146h-113z" />
    <glyph glyph-name="lcaron" unicode="&#x13e;" horiz-adv-x="310" 
d="M89 29.5q-34 29.5 -34 88.5v645h152v-596q0 -43 39 -43h39v-124h-99q-63 0 -97 29.5zM374.5 548.5q30.5 26.5 27.5 75.5h-12q-9 -23 -39 -23q-29 0 -50.5 23.5t-21.5 60.5q0 40 26 65t69 25q52 0 80 -38.5t28 -100.5q0 -77 -47.5 -132.5t-148.5 -61.5v78q58 2 88.5 28.5z
" />
    <glyph glyph-name="uni013C" unicode="&#x13c;" horiz-adv-x="310" 
d="M89 29.5q-34 29.5 -34 88.5v645h152v-596q0 -43 39 -43h39v-124h-99q-63 0 -97 29.5zM162 -133q4 7 2 14h-8q-8 -15 -31 -15q-19 0 -31 11.5t-12 32.5q0 24 17 38.5t46 14.5q34 0 53 -20.5t19 -51.5q0 -90 -123 -90v36q59 0 68 30z" />
    <glyph glyph-name="lslash" unicode="&#x142;" horiz-adv-x="310" 
d="M285 124v-124h-99q-63 0 -97 29.5t-34 88.5v256l-38 -20v102l38 20v287h152v-209l54 28v-102l-54 -28v-285q0 -43 39 -43h39z" />
    <glyph glyph-name="m" unicode="m" horiz-adv-x="904" 
d="M58 564h152v-12q0 -15 -3.5 -26t-12.5 -22l14 -10q30 45 65.5 63.5t84.5 18.5q48 0 89 -21.5t53 -64.5h13q16 48 58.5 67t93.5 19q93 0 139 -54.5t46 -150.5v-371h-152v355q0 51 -20 74.5t-60 23.5q-36 0 -60 -24q-16 -17 -22 -45t-6 -72v-312h-151v355q0 51 -20.5 74.5
t-61.5 23.5q-37 0 -60 -25q-14 -17 -20.5 -44t-6.5 -72v-312h-152v564z" />
    <glyph glyph-name="n" unicode="n" horiz-adv-x="614" 
d="M58 564h152v-12q0 -15 -3.5 -26t-12.5 -22l14 -10q30 45 65.5 63.5t84.5 18.5q137 0 179 -96q16 -33 19.5 -67t3.5 -93v-320h-151v322q0 42 -6 67.5t-20 40.5q-22 23 -66 23q-54 0 -81 -32q-14 -17 -20 -45t-6 -74v-302h-152v564z" />
    <glyph glyph-name="nacute" unicode="&#x144;" horiz-adv-x="614" 
d="M58 564h152v-12q0 -15 -3.5 -26t-12.5 -22l14 -10q30 45 65.5 63.5t84.5 18.5q137 0 179 -96q16 -33 19.5 -67t3.5 -93v-320h-151v322q0 42 -6 67.5t-20 40.5q-22 23 -66 23q-54 0 -81 -32q-14 -17 -20 -45t-6 -74v-302h-152v564zM243 617l115 146h150l-152 -146h-113z
" />
    <glyph glyph-name="ncaron" unicode="&#x148;" horiz-adv-x="614" 
d="M58 564h152v-12q0 -15 -3.5 -26t-12.5 -22l14 -10q30 45 65.5 63.5t84.5 18.5q137 0 179 -96q16 -33 19.5 -67t3.5 -93v-320h-151v322q0 42 -6 67.5t-20 40.5q-22 23 -66 23q-54 0 -81 -32q-14 -17 -20 -45t-6 -74v-302h-152v564zM132 763h125l19 -25q24 -33 24 -53h14
q0 20 24 53l19 25h125l-168 -175h-14z" />
    <glyph glyph-name="uni0146" unicode="&#x146;" horiz-adv-x="614" 
d="M58 564h152v-12q0 -15 -3.5 -26t-12.5 -22l14 -10q30 45 65.5 63.5t84.5 18.5q137 0 179 -96q16 -33 19.5 -67t3.5 -93v-320h-151v322q0 42 -6 67.5t-20 40.5q-22 23 -66 23q-54 0 -81 -32q-14 -17 -20 -45t-6 -74v-302h-152v564zM322 -133q4 7 2 14h-8q-8 -15 -31 -15
q-19 0 -31 11.5t-12 32.5q0 24 17 38.5t46 14.5q34 0 53 -20.5t19 -51.5q0 -90 -123 -90v36q59 0 68 30z" />
    <glyph glyph-name="ntilde" unicode="&#xf1;" horiz-adv-x="614" 
d="M58 564h152v-12q0 -15 -3.5 -26t-12.5 -22l14 -10q30 45 65.5 63.5t84.5 18.5q137 0 179 -96q16 -33 19.5 -67t3.5 -93v-320h-151v322q0 42 -6 67.5t-20 40.5q-22 23 -66 23q-54 0 -81 -32q-14 -17 -20 -45t-6 -74v-302h-152v564zM318.5 616q-21.5 13 -44.5 35
q-2 2 -10 9.5t-14.5 11t-12.5 3.5q-28 0 -31 -70h-85q3 75 35.5 118.5t85.5 43.5q30 0 51 -12.5t45 -34.5q14 -13 21.5 -18.5t15.5 -5.5q12 0 19.5 17t8.5 50h88q-5 -82 -32.5 -121t-84.5 -39q-34 0 -55.5 13z" />
    <glyph glyph-name="o" unicode="o" horiz-adv-x="656" 
d="M175.5 25q-66.5 37 -103.5 104.5t-37 155.5q0 85 37 151t103.5 103t152.5 37t152.5 -37t103 -103t36.5 -151q0 -88 -36.5 -155.5t-102.5 -104.5t-153 -37q-86 0 -152.5 37zM426 164.5q37 45.5 37 120.5q0 71 -37 116t-98 45t-99 -44.5t-38 -116.5q0 -75 38 -120.5
t99 -45.5t98 45.5z" />
    <glyph glyph-name="oacute" unicode="&#xf3;" horiz-adv-x="656" 
d="M175.5 25q-66.5 37 -103.5 104.5t-37 155.5q0 85 37 151t103.5 103t152.5 37t152.5 -37t103 -103t36.5 -151q0 -88 -36.5 -155.5t-102.5 -104.5t-153 -37q-86 0 -152.5 37zM426 164.5q37 45.5 37 120.5q0 71 -37 116t-98 45t-99 -44.5t-38 -116.5q0 -75 38 -120.5
t99 -45.5t98 45.5zM263 617l115 146h150l-152 -146h-113z" />
    <glyph glyph-name="ocircumflex" unicode="&#xf4;" horiz-adv-x="656" 
d="M175.5 25q-66.5 37 -103.5 104.5t-37 155.5q0 85 37 151t103.5 103t152.5 37t152.5 -37t103 -103t36.5 -151q0 -88 -36.5 -155.5t-102.5 -104.5t-153 -37q-86 0 -152.5 37zM426 164.5q37 45.5 37 120.5q0 71 -37 116t-98 45t-99 -44.5t-38 -116.5q0 -75 38 -120.5
t99 -45.5t98 45.5zM321 794h14l168 -176h-125l-19 25q-24 34 -24 53h-14q0 -19 -24 -53l-19 -25h-125z" />
    <glyph glyph-name="odieresis" unicode="&#xf6;" horiz-adv-x="656" 
d="M175.5 25q-66.5 37 -103.5 104.5t-37 155.5q0 85 37 151t103.5 103t152.5 37t152.5 -37t103 -103t36.5 -151q0 -88 -36.5 -155.5t-102.5 -104.5t-153 -37q-86 0 -152.5 37zM426 164.5q37 45.5 37 120.5q0 71 -37 116t-98 45t-99 -44.5t-38 -116.5q0 -75 38 -120.5
t99 -45.5t98 45.5zM156 636.5q-26 22.5 -26 59.5q0 36 26 59t63 23t63 -23t26 -59q0 -37 -25.5 -59.5t-63.5 -22.5q-37 0 -63 22.5zM371.5 636.5q-25.5 22.5 -25.5 59.5q0 36 26 59t63 23t63 -23t26 -59q0 -37 -26 -59.5t-63 -22.5q-38 0 -63.5 22.5z" />
    <glyph glyph-name="ograve" unicode="&#xf2;" horiz-adv-x="656" 
d="M175.5 25q-66.5 37 -103.5 104.5t-37 155.5q0 85 37 151t103.5 103t152.5 37t152.5 -37t103 -103t36.5 -151q0 -88 -36.5 -155.5t-102.5 -104.5t-153 -37q-86 0 -152.5 37zM426 164.5q37 45.5 37 120.5q0 71 -37 116t-98 45t-99 -44.5t-38 -116.5q0 -75 38 -120.5
t99 -45.5t98 45.5zM393 617h-113l-152 146h150z" />
    <glyph glyph-name="ohungarumlaut" unicode="&#x151;" horiz-adv-x="656" 
d="M175.5 25q-66.5 37 -103.5 104.5t-37 155.5q0 85 37 151t103.5 103t152.5 37t152.5 -37t103 -103t36.5 -151q0 -88 -36.5 -155.5t-102.5 -104.5t-153 -37q-86 0 -152.5 37zM426 164.5q37 45.5 37 120.5q0 71 -37 116t-98 45t-99 -44.5t-38 -116.5q0 -75 38 -120.5
t99 -45.5t98 45.5zM169 617l117 146h134l-138 -146h-113zM374 617l117 146h144l-149 -146h-112z" />
    <glyph glyph-name="omacron" unicode="&#x14d;" horiz-adv-x="656" 
d="M175.5 25q-66.5 37 -103.5 104.5t-37 155.5q0 85 37 151t103.5 103t152.5 37t152.5 -37t103 -103t36.5 -151q0 -88 -36.5 -155.5t-102.5 -104.5t-153 -37q-86 0 -152.5 37zM426 164.5q37 45.5 37 120.5q0 71 -37 116t-98 45t-99 -44.5t-38 -116.5q0 -75 38 -120.5
t99 -45.5t98 45.5zM177 627v71h301v-71h-301z" />
    <glyph glyph-name="oslash" unicode="&#xf8;" horiz-adv-x="656" 
d="M569 459q51 -73 51 -174q0 -88 -36.5 -155.5t-102.5 -104.5t-153 -37q-103 0 -178 53l-56 -56l-65 62l58 58q-52 76 -52 180q0 85 37 151t103.5 103t152.5 37q103 0 178 -53l57 57l64 -63zM200 218l204 204q-34 24 -76 24q-61 0 -99 -44.5t-38 -116.5q0 -37 9 -67z
M455 345l-203 -202q32 -24 76 -24q61 0 98 45.5t37 120.5q0 31 -8 60z" />
    <glyph glyph-name="oslashacute" unicode="&#x1ff;" horiz-adv-x="656" 
d="M569 459q51 -73 51 -174q0 -88 -36.5 -155.5t-102.5 -104.5t-153 -37q-103 0 -178 53l-56 -56l-65 62l58 58q-52 76 -52 180q0 85 37 151t103.5 103t152.5 37q103 0 178 -53l57 57l64 -63zM200 218l204 204q-34 24 -76 24q-61 0 -99 -44.5t-38 -116.5q0 -37 9 -67z
M455 345l-203 -202q32 -24 76 -24q61 0 98 45.5t37 120.5q0 31 -8 60zM263 617l115 146h150l-152 -146h-113z" />
    <glyph glyph-name="otilde" unicode="&#xf5;" horiz-adv-x="656" 
d="M175.5 25q-66.5 37 -103.5 104.5t-37 155.5q0 85 37 151t103.5 103t152.5 37t152.5 -37t103 -103t36.5 -151q0 -88 -36.5 -155.5t-102.5 -104.5t-153 -37q-86 0 -152.5 37zM426 164.5q37 45.5 37 120.5q0 71 -37 116t-98 45t-99 -44.5t-38 -116.5q0 -75 38 -120.5
t99 -45.5t98 45.5zM339.5 616q-21.5 13 -44.5 35q-2 2 -10 9.5t-14.5 11t-12.5 3.5q-28 0 -31 -70h-85q3 75 35.5 118.5t85.5 43.5q30 0 51 -12.5t45 -34.5q14 -13 21.5 -18.5t15.5 -5.5q12 0 19.5 17t8.5 50h88q-5 -82 -32.5 -121t-84.5 -39q-34 0 -55.5 13z" />
    <glyph glyph-name="oe" unicode="&#x153;" horiz-adv-x="1300" 
d="M175.5 25q-66.5 37 -103.5 104.5t-37 155.5q0 85 37 151t103.5 103t152.5 37t152.5 -37t103 -103t36.5 -151q0 -88 -36.5 -155.5t-102.5 -104.5t-153 -37q-86 0 -152.5 37zM426 164.5q37 45.5 37 120.5q0 71 -37 116t-98 45t-99 -44.5t-38 -116.5q0 -75 38 -120.5
t99 -45.5t98 45.5zM829.5 25.5q-66.5 37.5 -102.5 103.5t-36 149q0 76 31.5 144.5t96 111t158.5 42.5q77 0 142.5 -31.5t105.5 -98t40 -166.5v-30h-344q-61 0 -79 4l-5 -15q9 -3 13.5 -9t7.5 -17q8 -20 16 -32q38 -62 115 -62q41 0 71 20.5t43 52.5h153q-26 -90 -95 -147
t-179 -57q-86 0 -152.5 37.5zM908 361h148q15 0 27.5 -3t29.5 -11l8 15q-8 3 -10.5 6.5t-4.5 11.5q-1 2 -4.5 11t-14.5 21q-36 46 -104 46t-105 -46q-11 -12 -14.5 -21t-4.5 -11q-2 -8 -4.5 -11.5t-10.5 -6.5l8 -15q28 14 56 14z" />
    <glyph glyph-name="p" unicode="p" horiz-adv-x="646" 
d="M490 538.5q56 -37.5 87.5 -104t31.5 -152.5t-31.5 -152.5t-87.5 -104t-128 -37.5q-51 0 -87.5 18.5t-66.5 63.5l-14 -10q9 -11 12.5 -22t3.5 -26v-211h-152v763h152v-12q0 -16 -3.5 -26.5t-12.5 -21.5l14 -10q30 45 66.5 63.5t87.5 18.5q72 0 128 -37.5zM225.5 400.5
q-37.5 -45.5 -37.5 -118.5t37.5 -118.5t97.5 -45.5t96.5 45.5t36.5 118.5t-36.5 118.5t-96.5 45.5t-97.5 -45.5z" />
    <glyph glyph-name="thorn" unicode="&#xfe;" horiz-adv-x="646" 
d="M58 763h152v-211q0 -15 -3.5 -26t-12.5 -22l14 -10q30 45 66.5 63.5t87.5 18.5q72 0 128 -37.5t87.5 -104t31.5 -152.5t-31.5 -152.5t-87.5 -104t-128 -37.5q-51 0 -87.5 18.5t-66.5 63.5l-14 -10q9 -11 12.5 -21.5t3.5 -26.5v-211h-152v962zM419.5 163.5
q36.5 45.5 36.5 118.5t-36.5 118.5t-96.5 45.5t-97.5 -45.5t-37.5 -118.5t37.5 -118.5t97.5 -45.5t96.5 45.5z" />
    <glyph glyph-name="q" unicode="q" horiz-adv-x="653" 
d="M470 -169q-34 30 -34 87v94q0 16 3.5 26.5t12.5 21.5l-14 10q-30 -45 -66.5 -63.5t-87.5 -18.5q-72 0 -128 37.5t-87.5 104t-31.5 152.5t31.5 152.5t87.5 104t128 37.5q51 0 87.5 -18.5t66.5 -63.5l14 10q-9 11 -12.5 22t-3.5 26v12h152v-600q0 -38 38 -38h43v-125h-100
q-65 0 -99 30zM420.5 163.5q37.5 45.5 37.5 118.5t-37.5 118.5t-97.5 45.5t-96.5 -45.5t-36.5 -118.5t36.5 -118.5t96.5 -45.5t97.5 45.5z" />
    <glyph glyph-name="r" unicode="r" horiz-adv-x="401" 
d="M58 564h152v-12q0 -15 -3.5 -26t-12.5 -22l14 -10q29 45 65.5 63.5t88.5 18.5h21v-145h-32q-64 0 -98 -32q-23 -22 -33 -57.5t-10 -92.5v-249h-152v564z" />
    <glyph glyph-name="racute" unicode="&#x155;" horiz-adv-x="401" 
d="M58 564h152v-12q0 -15 -3.5 -26t-12.5 -22l14 -10q29 45 65.5 63.5t88.5 18.5h21v-145h-32q-64 0 -98 -32q-23 -22 -33 -57.5t-10 -92.5v-249h-152v564zM118 617l115 146h150l-152 -146h-113z" />
    <glyph glyph-name="rcaron" unicode="&#x159;" horiz-adv-x="401" 
d="M58 564h152v-12q0 -15 -3.5 -26t-12.5 -22l14 -10q29 45 65.5 63.5t88.5 18.5h21v-145h-32q-64 0 -98 -32q-23 -22 -33 -57.5t-10 -92.5v-249h-152v564zM8 763h125l19 -25q24 -33 24 -53h14q0 20 24 53l19 25h125l-168 -175h-14z" />
    <glyph glyph-name="uni0157" unicode="&#x157;" horiz-adv-x="401" 
d="M58 564h152v-12q0 -15 -3.5 -26t-12.5 -22l14 -10q29 45 65.5 63.5t88.5 18.5h21v-145h-32q-64 0 -98 -32q-23 -22 -33 -57.5t-10 -92.5v-249h-152v564zM148 -133q4 7 2 14h-8q-8 -15 -31 -15q-19 0 -31 11.5t-12 32.5q0 24 17 38.5t46 14.5q34 0 53 -20.5t19 -51.5
q0 -90 -123 -90v36q59 0 68 30z" />
    <glyph glyph-name="s" unicode="s" horiz-adv-x="582" 
d="M124 38q-79 50 -92 154h148q13 -43 46.5 -65t78.5 -22q39 0 64.5 15.5t25.5 42.5q0 30 -30 43t-95 27q-66 13 -109.5 28t-74.5 50t-31 95q0 85 63.5 127.5t158.5 42.5q103 0 170.5 -51t82.5 -144h-143q-11 41 -40.5 60t-69.5 19q-36 0 -57 -13.5t-21 -36.5q0 -28 30 -41
t94 -24q68 -12 112.5 -27t76.5 -49.5t32 -95.5q0 -55 -28.5 -97t-82 -65t-126.5 -23q-104 0 -183 50z" />
    <glyph glyph-name="sacute" unicode="&#x15b;" horiz-adv-x="582" 
d="M124 38q-79 50 -92 154h148q13 -43 46.5 -65t78.5 -22q39 0 64.5 15.5t25.5 42.5q0 30 -30 43t-95 27q-66 13 -109.5 28t-74.5 50t-31 95q0 85 63.5 127.5t158.5 42.5q103 0 170.5 -51t82.5 -144h-143q-11 41 -40.5 60t-69.5 19q-36 0 -57 -13.5t-21 -36.5q0 -28 30 -41
t94 -24q68 -12 112.5 -27t76.5 -49.5t32 -95.5q0 -55 -28.5 -97t-82 -65t-126.5 -23q-104 0 -183 50zM225 617l115 146h150l-152 -146h-113z" />
    <glyph glyph-name="scaron" unicode="&#x161;" horiz-adv-x="582" 
d="M124 38q-79 50 -92 154h148q13 -43 46.5 -65t78.5 -22q39 0 64.5 15.5t25.5 42.5q0 30 -30 43t-95 27q-66 13 -109.5 28t-74.5 50t-31 95q0 85 63.5 127.5t158.5 42.5q103 0 170.5 -51t82.5 -144h-143q-11 41 -40.5 60t-69.5 19q-36 0 -57 -13.5t-21 -36.5q0 -28 30 -41
t94 -24q68 -12 112.5 -27t76.5 -49.5t32 -95.5q0 -55 -28.5 -97t-82 -65t-126.5 -23q-104 0 -183 50zM115 763h125l19 -25q24 -33 24 -53h14q0 20 24 53l19 25h125l-168 -175h-14z" />
    <glyph glyph-name="scedilla" unicode="&#x15f;" horiz-adv-x="582" 
d="M484 41.5q-60 -50.5 -164 -53.5l-33 -24l5 -9q18 2 25 2q33 0 51 -11q19 -10 28 -25.5t9 -38.5q0 -45 -37 -68.5t-96 -23.5q-50 0 -96 14v56q53 -19 88 -19q24 0 37 9.5t13 27.5q0 31 -34 42.5t-95 10.5l55 63q-83 14 -140 63t-68 135h148q13 -43 46.5 -65t78.5 -22
q39 0 64.5 15.5t25.5 42.5q0 30 -30 43t-95 27q-66 13 -109.5 28t-74.5 50t-31 95q0 85 63.5 127.5t158.5 42.5q103 0 170.5 -51t82.5 -144h-143q-11 41 -40.5 60t-69.5 19q-36 0 -57 -13.5t-21 -36.5q0 -28 30 -41t94 -24q68 -12 112.5 -27t76.5 -49.5t32 -95.5
q0 -81 -60 -131.5z" />
    <glyph glyph-name="uni0219" unicode="&#x219;" horiz-adv-x="582" 
d="M124 38q-79 50 -92 154h148q13 -43 46.5 -65t78.5 -22q39 0 64.5 15.5t25.5 42.5q0 30 -30 43t-95 27q-66 13 -109.5 28t-74.5 50t-31 95q0 85 63.5 127.5t158.5 42.5q103 0 170.5 -51t82.5 -144h-143q-11 41 -40.5 60t-69.5 19q-36 0 -57 -13.5t-21 -36.5q0 -28 30 -41
t94 -24q68 -12 112.5 -27t76.5 -49.5t32 -95.5q0 -55 -28.5 -97t-82 -65t-126.5 -23q-104 0 -183 50zM304 -133q4 7 2 14h-8q-8 -15 -31 -15q-19 0 -31 11.5t-12 32.5q0 24 17 38.5t46 14.5q34 0 53 -20.5t19 -51.5q0 -90 -123 -90v36q59 0 68 30z" />
    <glyph glyph-name="germandbls" unicode="&#xdf;" horiz-adv-x="693" 
d="M146 699q75 76 216 76q87 0 147 -29t89.5 -75t29.5 -96q0 -72 -36 -113q-26 -30 -72 -42v-12q46 -10 80 -32q67 -48 67 -153q0 -138 -92 -180.5t-186 -42.5h-73v135h63q66 0 101 26t35 74q0 94 -125 94h-74v124h45q54 0 84.5 24t30.5 69q0 43 -30 68.5t-83 25.5
q-66 0 -103 -40.5t-37 -115.5v-484h-152v476q0 147 75 223z" />
    <glyph glyph-name="t" unicode="t" horiz-adv-x="391" 
d="M136 29.5q-34 29.5 -34 88.5v326h-80v120h80v199h152v-199h103v-120h-103v-277q0 -20 8 -31.5t32 -11.5h62v-124h-123q-63 0 -97 29.5z" />
    <glyph glyph-name="tcaron" unicode="&#x165;" horiz-adv-x="391" 
d="M136 29.5q-34 29.5 -34 88.5v326h-80v120h80v199h152v-199h103v-120h-103v-277q0 -20 8 -31.5t32 -11.5h62v-124h-123q-63 0 -97 29.5zM404.5 727.5q30.5 26.5 27.5 75.5h-12q-9 -23 -39 -23q-29 0 -50.5 23.5t-21.5 60.5q0 40 26 65t69 25q52 0 80 -38.5t28 -100.5
q0 -77 -47.5 -132.5t-148.5 -61.5v78q58 2 88.5 28.5z" />
    <glyph glyph-name="uni0163" unicode="&#x163;" horiz-adv-x="391" 
d="M254 444v-277q0 -20 8 -31.5t32 -11.5h62v-124h-90q-28 -23 -47 -36l5 -9q18 2 25 2q33 0 51 -11q19 -10 28 -25.5t9 -38.5q0 -45 -37 -68.5t-96 -23.5q-50 0 -96 14v56q53 -19 88 -19q24 0 37 9.5t13 27.5q0 31 -34 42.5t-95 10.5l66 75q-81 20 -81 112v326h-80v120h80
v199h152v-199h103v-120h-103z" />
    <glyph glyph-name="uni021B" unicode="&#x21b;" horiz-adv-x="391" 
d="M136 29.5q-34 29.5 -34 88.5v326h-80v120h80v199h152v-199h103v-120h-103v-277q0 -20 8 -31.5t32 -11.5h62v-124h-123q-63 0 -97 29.5zM237 -133q4 7 2 14h-8q-8 -15 -31 -15q-19 0 -31 11.5t-12 32.5q0 24 17 38.5t46 14.5q34 0 53 -20.5t19 -51.5q0 -90 -123 -90v36
q59 0 68 30z" />
    <glyph glyph-name="u" unicode="u" horiz-adv-x="615" 
d="M77 84q-15 33 -18.5 67t-3.5 93v320h151v-322q0 -42 6 -67.5t20 -40.5q22 -23 66 -23q54 0 80 32q14 17 20.5 45t6.5 74v302h152v-564h-152v12q0 16 3.5 26.5t12.5 21.5l-14 10q-30 -45 -66 -63.5t-85 -18.5q-135 0 -179 96z" />
    <glyph glyph-name="uacute" unicode="&#xfa;" horiz-adv-x="615" 
d="M77 84q-15 33 -18.5 67t-3.5 93v320h151v-322q0 -42 6 -67.5t20 -40.5q22 -23 66 -23q54 0 80 32q14 17 20.5 45t6.5 74v302h152v-564h-152v12q0 16 3.5 26.5t12.5 21.5l-14 10q-30 -45 -66 -63.5t-85 -18.5q-135 0 -179 96zM243 617l115 146h150l-152 -146h-113z" />
    <glyph glyph-name="ucircumflex" unicode="&#xfb;" horiz-adv-x="615" 
d="M77 84q-15 33 -18.5 67t-3.5 93v320h151v-322q0 -42 6 -67.5t20 -40.5q22 -23 66 -23q54 0 80 32q14 17 20.5 45t6.5 74v302h152v-564h-152v12q0 16 3.5 26.5t12.5 21.5l-14 10q-30 -45 -66 -63.5t-85 -18.5q-135 0 -179 96zM300 794h14l168 -176h-125l-19 25
q-24 34 -24 53h-14q0 -19 -24 -53l-19 -25h-125z" />
    <glyph glyph-name="udieresis" unicode="&#xfc;" horiz-adv-x="615" 
d="M77 84q-15 33 -18.5 67t-3.5 93v320h151v-322q0 -42 6 -67.5t20 -40.5q22 -23 66 -23q54 0 80 32q14 17 20.5 45t6.5 74v302h152v-564h-152v12q0 16 3.5 26.5t12.5 21.5l-14 10q-30 -45 -66 -63.5t-85 -18.5q-135 0 -179 96zM136 636.5q-26 22.5 -26 59.5q0 36 26 59
t63 23t63 -23t26 -59q0 -37 -25.5 -59.5t-63.5 -22.5q-37 0 -63 22.5zM351.5 636.5q-25.5 22.5 -25.5 59.5q0 36 26 59t63 23t63 -23t26 -59q0 -37 -26 -59.5t-63 -22.5q-38 0 -63.5 22.5z" />
    <glyph glyph-name="ugrave" unicode="&#xf9;" horiz-adv-x="615" 
d="M77 84q-15 33 -18.5 67t-3.5 93v320h151v-322q0 -42 6 -67.5t20 -40.5q22 -23 66 -23q54 0 80 32q14 17 20.5 45t6.5 74v302h152v-564h-152v12q0 16 3.5 26.5t12.5 21.5l-14 10q-30 -45 -66 -63.5t-85 -18.5q-135 0 -179 96zM372 617h-113l-152 146h150z" />
    <glyph glyph-name="uhungarumlaut" unicode="&#x171;" horiz-adv-x="615" 
d="M77 84q-15 33 -18.5 67t-3.5 93v320h151v-322q0 -42 6 -67.5t20 -40.5q22 -23 66 -23q54 0 80 32q14 17 20.5 45t6.5 74v302h152v-564h-152v12q0 16 3.5 26.5t12.5 21.5l-14 10q-30 -45 -66 -63.5t-85 -18.5q-135 0 -179 96zM148 617l117 146h134l-138 -146h-113z
M353 617l117 146h144l-149 -146h-112z" />
    <glyph glyph-name="umacron" unicode="&#x16b;" horiz-adv-x="615" 
d="M77 84q-15 33 -18.5 67t-3.5 93v320h151v-322q0 -42 6 -67.5t20 -40.5q22 -23 66 -23q54 0 80 32q14 17 20.5 45t6.5 74v302h152v-564h-152v12q0 16 3.5 26.5t12.5 21.5l-14 10q-30 -45 -66 -63.5t-85 -18.5q-135 0 -179 96zM157 627v71h301v-71h-301z" />
    <glyph glyph-name="uogonek" unicode="&#x173;" horiz-adv-x="615" 
d="M486.5 -51.5q-16.5 -15.5 -16.5 -34.5q0 -32 38 -32q23 0 49 13v-94q-36 -11 -75 -11q-59 0 -89 21.5t-30 62.5q0 39 23.5 63t79.5 44v19h-61v12q0 16 3.5 26.5t12.5 21.5l-14 10q-30 -45 -66 -63.5t-85 -18.5q-135 0 -179 96q-15 33 -18.5 67t-3.5 93v320h151v-322
q0 -42 6 -67.5t20 -40.5q22 -23 66 -23q54 0 80 32q14 17 20.5 45t6.5 74v302h152v-564q-54 -36 -70.5 -51.5z" />
    <glyph glyph-name="uring" unicode="&#x16f;" horiz-adv-x="615" 
d="M77 84q-15 33 -18.5 67t-3.5 93v320h151v-322q0 -42 6 -67.5t20 -40.5q22 -23 66 -23q54 0 80 32q14 17 20.5 45t6.5 74v302h152v-564h-152v12q0 16 3.5 26.5t12.5 21.5l-14 10q-30 -45 -66 -63.5t-85 -18.5q-135 0 -179 96zM241 588q-30 18 -47 48t-17 65t17.5 65
t47.5 47.5t65 17.5q36 0 66 -17.5t47.5 -47t17.5 -65.5t-17.5 -66t-47.5 -47.5t-66 -17.5t-66 18zM344 664.5q14 14.5 14 38.5q0 22 -13.5 35.5t-37.5 13.5q-23 0 -36.5 -14t-13.5 -35q0 -24 14.5 -38.5t35.5 -14.5q23 0 37 14.5z" />
    <glyph glyph-name="v" unicode="v" horiz-adv-x="555" 
d="M9 564h161l84 -266q9 -28 12 -50.5t5 -54.5h12q1 32 3.5 54.5t11.5 50.5l87 266h161l-209 -564h-120z" />
    <glyph glyph-name="w" unicode="w" horiz-adv-x="852" 
d="M12 564h162l74 -287q9 -37 9 -79h12q2 49 10 79l80 287h131l80 -287q10 -34 10 -79h12q2 49 10 79l76 287h161l-178 -564h-143l-73 282q-11 47 -14 88h-12q-2 -26 -4.5 -44t-9.5 -44l-75 -282h-144z" />
    <glyph glyph-name="wacute" unicode="&#x1e83;" horiz-adv-x="852" 
d="M12 564h162l74 -287q9 -37 9 -79h12q2 49 10 79l80 287h131l80 -287q10 -34 10 -79h12q2 49 10 79l76 287h161l-178 -564h-143l-73 282q-11 47 -14 88h-12q-2 -26 -4.5 -44t-9.5 -44l-75 -282h-144zM360 617l115 146h150l-152 -146h-113z" />
    <glyph glyph-name="wcircumflex" unicode="&#x175;" horiz-adv-x="852" 
d="M12 564h162l74 -287q9 -37 9 -79h12q2 49 10 79l80 287h131l80 -287q10 -34 10 -79h12q2 49 10 79l76 287h161l-178 -564h-143l-73 282q-11 47 -14 88h-12q-2 -26 -4.5 -44t-9.5 -44l-75 -282h-144zM418 794h14l168 -176h-125l-19 25q-24 34 -24 53h-14q0 -19 -24 -53
l-19 -25h-125z" />
    <glyph glyph-name="wdieresis" unicode="&#x1e85;" horiz-adv-x="852" 
d="M12 564h162l74 -287q9 -37 9 -79h12q2 49 10 79l80 287h131l80 -287q10 -34 10 -79h12q2 49 10 79l76 287h161l-178 -564h-143l-73 282q-11 47 -14 88h-12q-2 -26 -4.5 -44t-9.5 -44l-75 -282h-144zM254 636.5q-26 22.5 -26 59.5q0 36 26 59t63 23t63 -23t26 -59
q0 -37 -25.5 -59.5t-63.5 -22.5q-37 0 -63 22.5zM469.5 636.5q-25.5 22.5 -25.5 59.5q0 36 26 59t63 23t63 -23t26 -59q0 -37 -26 -59.5t-63 -22.5q-38 0 -63.5 22.5z" />
    <glyph glyph-name="wgrave" unicode="&#x1e81;" horiz-adv-x="852" 
d="M12 564h162l74 -287q9 -37 9 -79h12q2 49 10 79l80 287h131l80 -287q10 -34 10 -79h12q2 49 10 79l76 287h161l-178 -564h-143l-73 282q-11 47 -14 88h-12q-2 -26 -4.5 -44t-9.5 -44l-75 -282h-144zM490 617h-113l-152 146h150z" />
    <glyph glyph-name="x" unicode="x" horiz-adv-x="593" 
d="M200 285l-190 279h172l80 -125q18 -31 26 -61h14q6 31 26 61l81 125h175l-194 -279l194 -285h-174l-83 130q-19 30 -25 61h-14q-9 -35 -25 -61l-81 -130h-172z" />
    <glyph glyph-name="y" unicode="y" horiz-adv-x="571" 
d="M69 -74h65q27 0 43 8.5t26 34.5l10 26l-204 569h163l97 -330q13 -40 14 -74h12q0 17 3.5 36.5t8.5 37.5l89 330h163l-210 -615q-27 -81 -67.5 -114.5t-114.5 -33.5h-98v125z" />
    <glyph glyph-name="yacute" unicode="&#xfd;" horiz-adv-x="571" 
d="M69 -74h65q27 0 43 8.5t26 34.5l10 26l-204 569h163l97 -330q13 -40 14 -74h12q0 17 3.5 36.5t8.5 37.5l89 330h163l-210 -615q-27 -81 -67.5 -114.5t-114.5 -33.5h-98v125zM216 617l115 146h150l-152 -146h-113z" />
    <glyph glyph-name="ycircumflex" unicode="&#x177;" horiz-adv-x="571" 
d="M69 -74h65q27 0 43 8.5t26 34.5l10 26l-204 569h163l97 -330q13 -40 14 -74h12q0 17 3.5 36.5t8.5 37.5l89 330h163l-210 -615q-27 -81 -67.5 -114.5t-114.5 -33.5h-98v125zM273 794h14l168 -176h-125l-19 25q-24 34 -24 53h-14q0 -19 -24 -53l-19 -25h-125z" />
    <glyph glyph-name="ydieresis" unicode="&#xff;" horiz-adv-x="571" 
d="M69 -74h65q27 0 43 8.5t26 34.5l10 26l-204 569h163l97 -330q13 -40 14 -74h12q0 17 3.5 36.5t8.5 37.5l89 330h163l-210 -615q-27 -81 -67.5 -114.5t-114.5 -33.5h-98v125zM109 636.5q-26 22.5 -26 59.5q0 36 26 59t63 23t63 -23t26 -59q0 -37 -25.5 -59.5t-63.5 -22.5
q-37 0 -63 22.5zM324.5 636.5q-25.5 22.5 -25.5 59.5q0 36 26 59t63 23t63 -23t26 -59q0 -37 -26 -59.5t-63 -22.5q-38 0 -63.5 22.5z" />
    <glyph glyph-name="ygrave" unicode="&#x1ef3;" horiz-adv-x="571" 
d="M69 -74h65q27 0 43 8.5t26 34.5l10 26l-204 569h163l97 -330q13 -40 14 -74h12q0 17 3.5 36.5t8.5 37.5l89 330h163l-210 -615q-27 -81 -67.5 -114.5t-114.5 -33.5h-98v125zM345 617h-113l-152 146h150z" />
    <glyph glyph-name="z" unicode="z" horiz-adv-x="563" 
d="M30 95l239 274q37 43 75 74l-5 12q-24 -7 -38 -9t-32 -2h-222v120h481v-103l-228 -264q-21 -25 -35.5 -40t-40.5 -36l6 -12q23 8 38 10t32 2h228v-121h-498v95z" />
    <glyph glyph-name="zacute" unicode="&#x17a;" horiz-adv-x="563" 
d="M30 95l239 274q37 43 75 74l-5 12q-24 -7 -38 -9t-32 -2h-222v120h481v-103l-228 -264q-21 -25 -35.5 -40t-40.5 -36l6 -12q23 8 38 10t32 2h228v-121h-498v95zM218 617l115 146h150l-152 -146h-113z" />
    <glyph glyph-name="zcaron" unicode="&#x17e;" horiz-adv-x="563" 
d="M30 95l239 274q37 43 75 74l-5 12q-24 -7 -38 -9t-32 -2h-222v120h481v-103l-228 -264q-21 -25 -35.5 -40t-40.5 -36l6 -12q23 8 38 10t32 2h228v-121h-498v95zM108 763h125l19 -25q24 -33 24 -53h14q0 20 24 53l19 25h125l-168 -175h-14z" />
    <glyph glyph-name="zdotaccent" unicode="&#x17c;" horiz-adv-x="563" 
d="M30 95l239 274q37 43 75 74l-5 12q-24 -7 -38 -9t-32 -2h-222v120h481v-103l-228 -264q-21 -25 -35.5 -40t-40.5 -36l6 -12q23 8 38 10t32 2h228v-121h-498v95zM220 636.5q-26 22.5 -26 59.5q0 36 26 59t63 23t63 -23t26 -59q0 -37 -25.5 -59.5t-63.5 -22.5
q-37 0 -63 22.5z" />
    <glyph glyph-name="ordfeminine" unicode="&#xaa;" horiz-adv-x="443" 
d="M72.5 394.5q-36.5 30.5 -36.5 86.5q0 61 47 93q32 22 93 33l110 19q-1 35 -18 51q-15 17 -46 17q-24 0 -43 -15t-23 -41h-105q10 67 59 102t113 35q76 0 121 -39q31 -28 39 -66t8 -102v-196h-106v8q0 16 10 37l-10 6q-11 -24 -32 -39q-31 -20 -88 -20q-56 0 -92.5 30.5z
M241 456q20 9 30 25q10 13 17 44q2 8 5 12t9 4l-2 12q-28 -6 -35 -8l-32 -6l-28 -5q-37 -7 -51 -21q-12 -10 -12 -28q0 -19 14.5 -29.5t37.5 -10.5t47 11z" />
    <glyph glyph-name="ordmasculine" unicode="&#xba;" horiz-adv-x="481" 
d="M133.5 390q-46.5 26 -72.5 73t-26 109q0 59 26 105.5t72.5 72t106.5 25.5t106.5 -26t72.5 -72t26 -105q0 -62 -25.5 -109t-72 -73t-107.5 -26q-60 0 -106.5 26zM309 487q26 32 26 85q0 49 -26 80.5t-69 31.5t-69.5 -31t-26.5 -81q0 -53 26.5 -85t69.5 -32t69 32z" />
    <glyph glyph-name="uni0394" unicode="&#x394;" horiz-adv-x="715" 
d="M4 0l265 763h176l265 -763h-706zM282 141h151q32 0 62 -11l9 11q-10 19 -16.5 34.5t-10.5 29.5l-93 292q-19 65 -19 103h-16q0 -41 -18 -103l-93 -292q-11 -33 -27 -64l9 -11q30 11 62 11z" />
    <glyph glyph-name="pi" unicode="&#x3c0;" horiz-adv-x="634" 
d="M90 433h-62v131h567v-131h-86v-270q0 -25 8.5 -34t30.5 -9h47v-120h-82q-149 0 -149 135v298h-128v-433h-146v433z" />
    <glyph glyph-name="zero" unicode="0" horiz-adv-x="674" 
d="M127 80q-74 95 -74 304q0 206 73 300t209 94q137 0 211 -95t74 -304q0 -207 -72.5 -300.5t-208.5 -93.5q-138 0 -212 95zM426.5 183q31.5 54 31.5 198t-32 198t-93 54q-39 0 -65 -21.5t-40 -76.5t-14 -153q0 -99 14.5 -154.5t41 -77t65.5 -21.5q60 0 91.5 54z" />
    <glyph glyph-name="one" unicode="1" horiz-adv-x="458" 
d="M246 574l-12 5q-20 -31 -46 -53q-34 -30 -75.5 -48.5t-81.5 -23.5v146q75 15 128.5 57.5t81.5 105.5h157v-763h-162v489q0 46 10 85z" />
    <glyph glyph-name="two" unicode="2" horiz-adv-x="648" 
d="M55 118l238 213q68 60 100 109t32 94q0 49 -26.5 78t-80.5 29q-59 0 -90.5 -36t-35.5 -114h-146q4 140 74.5 213t199.5 73q73 0 130 -27.5t89.5 -79.5t32.5 -122q0 -88 -51.5 -165t-125.5 -145l-65 -61q-21 -20 -55 -41l6 -12q28 13 41.5 17t36.5 4h245v-145h-549v118z
" />
    <glyph glyph-name="three" unicode="3" horiz-adv-x="663" 
d="M186 16.5q-65 31.5 -102.5 90t-41.5 137.5h161q14 -123 135 -123q57 0 86.5 30t29.5 81q0 104 -136 104h-47v128h41q46 0 75 24.5t29 66.5q0 40 -24 63t-70 23q-91 0 -106 -100h-145q4 71 37 125t89.5 83t127.5 29q72 0 127.5 -27.5t86.5 -75.5t31 -108
q0 -59 -30.5 -100.5t-85.5 -41.5v-16q81 -4 121.5 -54.5t40.5 -124.5q0 -72 -35 -127.5t-99 -86.5t-147 -31q-84 0 -149 31.5z" />
    <glyph glyph-name="four" unicode="4" horiz-adv-x="645" 
d="M357 0v168h-321v155l326 440h156v-450h92v-145h-92v-168h-161zM215 311q15 2 36 2h106v165q0 27 1.5 42t8.5 38l-12 4q-19 -33 -37 -57l-96 -137q-9 -14 -19.5 -25.5t-31.5 -28.5l6 -12q23 7 38 9z" />
    <glyph glyph-name="five" unicode="5" horiz-adv-x="657" 
d="M492 494q55 -33 85 -93.5t30 -138.5q0 -82 -34.5 -145t-98 -97.5t-147.5 -34.5q-76 0 -136.5 29.5t-98 84t-45.5 126.5h161q26 -96 121 -96q54 0 85.5 36t31.5 97q0 58 -33 94.5t-84 36.5q-80 0 -117 -74h-154l83 444h432v-145h-314l-14 -68q-7 -35 -21 -69l11 -7
q48 53 130 53q72 0 127 -33z" />
    <glyph glyph-name="six" unicode="6" horiz-adv-x="664" 
d="M127.5 81q-76.5 97 -76.5 282q0 200 77.5 307.5t218.5 107.5q114 0 183.5 -62t81.5 -172h-144q-10 48 -41 72.5t-80 24.5q-60 0 -93.5 -33.5t-46.5 -96.5q-2 -7 -6 -31t-14 -45l13 -7q35 46 77 63t89 17q72 0 127.5 -30t86.5 -87t31 -134q0 -80 -34.5 -142t-95.5 -96.5
t-139 -34.5q-138 0 -214.5 97zM421.5 158.5q28.5 37.5 28.5 98.5q0 58 -28.5 92.5t-81.5 34.5q-55 0 -87 -34.5t-32 -92.5q0 -61 32 -98.5t87 -37.5q53 0 81.5 37.5z" />
    <glyph glyph-name="seven" unicode="7" horiz-adv-x="586" 
d="M379.5 593.5q12.5 17.5 39.5 43.5l-9 11q-29 -19 -51 -24.5t-50 -5.5h-279v145h524v-141l-296 -622h-176l274 553q11 23 23.5 40.5z" />
    <glyph glyph-name="eight" unicode="8" horiz-adv-x="673" 
d="M185.5 14.5q-65.5 30.5 -101 85.5t-35.5 125q0 64 33 114.5t104 73.5v12q-54 17 -78.5 56.5t-24.5 88.5q0 60 32 107.5t89.5 74t131.5 26.5t132 -26.5t90 -74t32 -107.5q0 -49 -25 -88.5t-79 -56.5v-12q72 -23 105 -73.5t33 -114.5q0 -70 -36 -125t-101 -85.5t-151 -30.5
q-85 0 -150.5 30.5zM409 492q26 26 26 67q0 40 -26 65t-73 25t-73 -25t-26 -65q0 -41 26 -67t73 -26t73 26zM427.5 154.5q34.5 33.5 34.5 84.5q0 53 -33.5 86.5t-92.5 33.5q-58 0 -92 -34t-34 -86q0 -51 34.5 -84.5t91.5 -33.5t91.5 33.5z" />
    <glyph glyph-name="nine" unicode="9" horiz-adv-x="664" 
d="M536.5 681q76.5 -97 76.5 -282q0 -200 -77.5 -307.5t-218.5 -107.5q-114 0 -183.5 62t-81.5 172h144q10 -48 41 -72.5t80 -24.5q60 0 93.5 33.5t46.5 96.5q2 7 6 31t14 45l-13 7q-35 -46 -77 -63t-89 -17q-72 0 -127.5 30t-86.5 87t-31 134q0 80 34.5 142t95.5 96.5
t139 34.5q138 0 214.5 -97zM242.5 603.5q-28.5 -37.5 -28.5 -98.5q0 -58 28.5 -92.5t81.5 -34.5q55 0 87 34.5t32 92.5q0 61 -32 98.5t-87 37.5q-53 0 -81.5 -37.5z" />
    <glyph glyph-name="fraction" unicode="&#x2044;" horiz-adv-x="172" 
d="M-182 0l453 763h83l-452 -763h-84z" />
    <glyph glyph-name="period" unicode="." horiz-adv-x="246" 
d="M62.5 14q-26.5 26 -26.5 62t26.5 61t62.5 25q35 0 60 -25.5t25 -60.5q0 -36 -25 -62t-60 -26q-36 0 -62.5 26z" />
    <glyph glyph-name="comma" unicode="," horiz-adv-x="275" 
d="M131 -63.5q31 26.5 28 75.5h-12q-9 -23 -39 -23q-29 0 -50.5 23.5t-21.5 60.5q0 40 25.5 64.5t68.5 24.5q53 0 81 -38t28 -100q0 -77 -47.5 -132.5t-148.5 -61.5v78q57 2 88 28.5z" />
    <glyph glyph-name="colon" unicode=":" horiz-adv-x="253" 
d="M65 378q-26 26 -26 62q0 35 26 61t62 26q35 0 60.5 -26t25.5 -61t-25.5 -61.5t-60.5 -26.5q-36 0 -62 26zM64.5 14q-25.5 26 -25.5 62t26 61t62 25q35 0 60.5 -25t25.5 -61t-25.5 -62t-60.5 -26q-37 0 -62.5 26z" />
    <glyph glyph-name="semicolon" unicode=";" horiz-adv-x="275" 
d="M62 378q-26 26 -26 62q0 35 25.5 61t61.5 26q35 0 61 -25.5t26 -61.5t-26 -62t-61 -26t-61 26zM131 -63.5q31 26.5 28 75.5h-12q-9 -23 -39 -23q-29 0 -50.5 23.5t-21.5 60.5q0 40 25.5 64.5t68.5 24.5q53 0 81 -38t28 -100q0 -77 -47.5 -132.5t-148.5 -61.5v78
q57 2 88 28.5z" />
    <glyph glyph-name="ellipsis" unicode="&#x2026;" horiz-adv-x="691" 
d="M62.5 13.5q-26.5 25.5 -26.5 61.5t26 61.5t63 25.5q35 0 60 -25.5t25 -61.5t-25.5 -61.5t-59.5 -25.5q-36 0 -62.5 25.5zM284.5 13.5q-25.5 25.5 -25.5 61.5t25.5 61.5t61.5 25.5t61.5 -25.5t25.5 -61.5t-26 -61.5t-61 -25.5q-36 0 -61.5 25.5zM506.5 13.5
q-25.5 25.5 -25.5 61.5t25.5 61.5t61.5 25.5q35 0 61 -25.5t26 -61.5t-26 -61.5t-61 -25.5q-36 0 -61.5 25.5z" />
    <glyph glyph-name="exclam" unicode="!" horiz-adv-x="284" 
d="M75 283q-9 115 -9 200v280h151v-280q0 -90 -12 -248h-127zM79.5 14q-25.5 26 -25.5 62t26 61t62 25q35 0 60.5 -25t25.5 -61t-25.5 -62t-60.5 -26q-37 0 -62.5 26z" />
    <glyph glyph-name="exclamdown" unicode="&#xa1;" horiz-adv-x="364" 
d="M255.5 550q25.5 -26 25.5 -62q0 -35 -26 -60.5t-62 -25.5q-35 0 -60.5 25.5t-25.5 60.5q0 36 25 62t61 26q37 0 62.5 -26zM260 281q9 -115 9 -199v-281h-151v281q0 66 4 134t5 83l2 30h128z" />
    <glyph glyph-name="question" unicode="?" horiz-adv-x="558" 
d="M219.5 370q14.5 36 35.5 56t54 43q37 26 53.5 46t16.5 56q0 43 -27.5 64.5t-71.5 21.5q-51 0 -81.5 -32.5t-34.5 -94.5h-137q4 78 37.5 134t90.5 85t128 29q67 0 121 -23.5t86 -72t32 -119.5q0 -45 -12.5 -75.5t-30.5 -49t-48 -41.5q-38 -28 -57.5 -52t-25.5 -66l-8 -46
h-135v47q0 54 14.5 90zM209.5 14q-25.5 26 -25.5 62q0 35 25.5 60.5t61.5 25.5t61.5 -25t25.5 -61q0 -37 -25.5 -62.5t-61.5 -25.5t-61.5 26z" />
    <glyph glyph-name="questiondown" unicode="&#xbf;" horiz-adv-x="513" 
d="M317.5 550q25.5 -26 25.5 -61t-25.5 -61t-61.5 -26q-35 0 -61 25.5t-26 60.5q0 37 26 62.5t61 25.5q36 0 61.5 -26zM308.5 194q-14.5 -36 -35.5 -56t-54 -43q-37 -26 -53.5 -46t-16.5 -56q0 -43 27.5 -64.5t71.5 -21.5q51 0 81.5 32.5t34.5 94.5h136q-3 -78 -36.5 -133.5
t-90 -84.5t-128.5 -29q-104 0 -171.5 54.5t-67.5 159.5q0 45 12.5 75.5t30.5 49t48 41.5q37 28 57 52.5t26 65.5l8 46h135v-47q0 -54 -14.5 -90z" />
    <glyph glyph-name="periodcentered" unicode="&#xb7;" horiz-adv-x="315" 
d="M98.5 341.5q-23.5 24.5 -23.5 57.5q0 34 24 58.5t57 24.5q34 0 58.5 -24t24.5 -59q0 -33 -24.5 -57.5t-58.5 -24.5t-57.5 24.5z" />
    <glyph glyph-name="bullet" unicode="&#x2022;" horiz-adv-x="390" 
d="M104.5 169.5q-37.5 37.5 -37.5 90.5t37.5 90.5t90.5 37.5t90.5 -37.5t37.5 -90.5t-37.5 -90.5t-90.5 -37.5t-90.5 37.5z" />
    <glyph glyph-name="asterisk" unicode="*" horiz-adv-x="429" 
d="M110.5 529q23.5 20 65.5 46l-4 13q-36 -2 -47 -2q-38 0 -65 4t-32 5l35 99q37 -17 60.5 -30t56.5 -42l11 9q-15 42 -21.5 69.5t-11.5 62.5h112q-4 -32 -10 -60t-22 -71l11 -9q34 29 58.5 43t57.5 28l35 -99q-52 -8 -96 -8q-30 0 -48 1l-4 -13q41 -24 63.5 -44t48.5 -48
l-91 -61q-13 28 -27 61t-26 71h-14q-19 -65 -52 -132l-90 61q23 26 46.5 46z" />
    <glyph glyph-name="numbersign" unicode="#" horiz-adv-x="746" 
d="M116 0l48 221h-123v103h145l26 126h-128v107h151l48 206h114l-47 -211h123l44 211h115l-50 -211h124v-102h-145l-29 -126h130v-103h-151l-48 -221h-112l47 221h-123l-46 -221h-113zM300 324h122l26 126h-123z" />
    <glyph glyph-name="slash" unicode="/" horiz-adv-x="480" 
d="M113 -111h-135l353 874h135z" />
    <glyph glyph-name="backslash" unicode="\" horiz-adv-x="480" 
d="M367 -111l-353 874h135l353 -874h-135z" />
    <glyph glyph-name="uni2023" unicode="&#x2023;" horiz-adv-x="451" 
d="M100 84v401l345 -200z" />
    <glyph glyph-name="parenleft" unicode="(" horiz-adv-x="299" 
d="M52 381q0 297 107 491h128q-60 -105 -89 -224t-29 -267t29 -267.5t89 -223.5h-128q-107 194 -107 491z" />
    <glyph glyph-name="parenright" unicode=")" horiz-adv-x="300" 
d="M101 113.5q29 119.5 29 267.5t-29 267t-89 224h129q53 -97 80 -221t27 -270t-27 -270t-80 -221h-129q60 104 89 223.5z" />
    <glyph glyph-name="braceleft" unicode="{" horiz-adv-x="331" 
d="M123.5 -68.5q-31.5 41.5 -31.5 115.5v184q0 45 -18.5 65t-53.5 31v108q35 11 53.5 31t18.5 65v184q0 74 31.5 115.5t92.5 41.5h92v-96h-40q-29 0 -39 -17t-10 -47v-184q0 -64 -27.5 -97t-85.5 -41v-18q58 -8 85.5 -41t27.5 -97v-184q0 -30 10 -47t39 -17h40v-96h-92
q-61 0 -92.5 41.5z" />
    <glyph glyph-name="braceright" unicode="}" horiz-adv-x="331" 
d="M23 -110v96h40q29 0 39 17t10 47v184q0 64 27.5 97t85.5 41v18q-58 8 -85.5 41t-27.5 97v184q0 30 -10 47t-39 17h-40v96h92q61 0 92.5 -41.5t31.5 -115.5v-184q0 -45 18.5 -65t53.5 -31v-108q-35 -11 -53.5 -31t-18.5 -65v-184q0 -74 -31.5 -115.5t-92.5 -41.5h-92z" />
    <glyph glyph-name="bracketleft" unicode="[" horiz-adv-x="342" 
d="M87 -110v982h243v-100h-124v-782h124v-100h-243z" />
    <glyph glyph-name="bracketright" unicode="]" horiz-adv-x="342" 
d="M255 -110h-243v100h124v782h-124v100h243v-982z" />
    <glyph glyph-name="hyphen" unicode="-" horiz-adv-x="372" 
d="M26 257v129h320v-129h-320z" />
    <glyph glyph-name="uni00AD" unicode="&#xad;" horiz-adv-x="398" 
d="M0 267v109h398v-109h-398z" />
    <glyph glyph-name="endash" unicode="&#x2013;" horiz-adv-x="547" 
d="M23 267v109h501v-109h-501z" />
    <glyph glyph-name="emdash" unicode="&#x2014;" horiz-adv-x="1106" 
d="M0 267v109h1106v-109h-1106z" />
    <glyph glyph-name="uni2015" unicode="&#x2015;" horiz-adv-x="804" 
d="M64 281v91h675v-91h-675z" />
    <glyph glyph-name="underscore" unicode="_" horiz-adv-x="437" 
d="M-14 -110v110h464v-110h-464z" />
    <glyph glyph-name="quotesinglbase" unicode="&#x201a;" horiz-adv-x="275" 
d="M131 -63.5q31 26.5 28 75.5h-12q-9 -23 -39 -23q-29 0 -50.5 23.5t-21.5 60.5q0 40 25.5 64.5t68.5 24.5q53 0 81 -38t28 -100q0 -77 -47.5 -132.5t-148.5 -61.5v78q57 2 88 28.5z" />
    <glyph glyph-name="quotedblbase" unicode="&#x201e;" horiz-adv-x="510" 
d="M149.5 -64.5q30.5 26.5 27.5 75.5h-12q-9 -23 -39 -23q-29 0 -50.5 23.5t-21.5 60.5q0 40 26 65t69 25q52 0 80 -38.5t28 -100.5q0 -77 -47.5 -132.5t-148.5 -61.5v78q58 2 88.5 28.5zM384.5 -64.5q30.5 26.5 27.5 75.5h-12q-9 -23 -39 -23q-29 0 -50.5 23.5t-21.5 60.5
q0 40 26 65t69 25q52 0 80 -38.5t28 -100.5q0 -77 -47.5 -132.5t-148.5 -61.5v78q58 2 88.5 28.5z" />
    <glyph glyph-name="quotedblleft" unicode="&#x201c;" horiz-adv-x="554" 
d="M158.5 670q-30.5 -27 -27.5 -76h12q9 23 38 23t50.5 -23t21.5 -60q0 -41 -25.5 -65.5t-68.5 -24.5q-52 0 -80 38t-28 100q0 78 47 133.5t148 61.5v-78q-57 -2 -87.5 -29zM393.5 670q-30.5 -27 -27.5 -76h12q9 23 39 23q29 0 50.5 -23t21.5 -60q0 -41 -26 -65.5t-69 -24.5
q-52 0 -80 38t-28 100q0 77 47.5 133t148.5 62v-78q-58 -2 -88.5 -29z" />
    <glyph glyph-name="quotedblright" unicode="&#x201d;" horiz-adv-x="553" 
d="M159.5 548.5q30.5 26.5 27.5 75.5h-12q-9 -23 -39 -23q-29 0 -50.5 23.5t-21.5 60.5q0 40 26 65t69 25q52 0 80 -38.5t28 -100.5q0 -77 -47.5 -132.5t-148.5 -61.5v78q58 2 88.5 28.5zM394.5 548.5q30.5 26.5 27.5 75.5h-12q-9 -23 -39 -23q-29 0 -50.5 23.5t-21.5 60.5
q0 40 26 65t69 25q52 0 80 -38.5t28 -100.5q0 -77 -47.5 -132.5t-148.5 -61.5v78q58 2 88.5 28.5z" />
    <glyph glyph-name="quoteleft" unicode="&#x2018;" horiz-adv-x="318" 
d="M79 481.5q-28 38.5 -28 100.5q0 77 47 132.5t148 61.5v-78q-57 -2 -87.5 -28.5t-27.5 -75.5h12q9 23 38 23t50.5 -23.5t21.5 -60.5q0 -40 -26 -65t-68 -25q-52 0 -80 38.5z" />
    <glyph glyph-name="quoteright" unicode="&#x2019;" horiz-adv-x="318" 
d="M159.5 548.5q30.5 26.5 27.5 75.5h-12q-9 -23 -39 -23q-29 0 -50.5 23.5t-21.5 60.5q0 40 26 65t69 25q52 0 80 -38.5t28 -100.5q0 -77 -47.5 -132.5t-148.5 -61.5v78q58 2 88.5 28.5z" />
    <glyph glyph-name="guillemotleft" unicode="&#xab;" horiz-adv-x="575" 
d="M-2 275l235 195v-127l-40 -33q-17 -12 -29 -18.5t-27 -9.5v-14q15 -2 26.5 -8t29.5 -18l40 -32v-128zM266 275l235 195v-127l-40 -33q-17 -12 -29 -18.5t-27 -9.5v-14q15 -2 26.5 -8t29.5 -18l40 -32v-128z" />
    <glyph glyph-name="guillemotright" unicode="&#xbb;" horiz-adv-x="575" 
d="M74 210l40 32q18 12 29.5 18t26.5 8v14q-15 3 -27 9.5t-29 18.5l-40 33v127l235 -195l-235 -193v128zM342 210l40 32q18 12 29.5 18t26.5 8v14q-15 3 -27 9.5t-29 18.5l-40 33v127l235 -195l-235 -193v128z" />
    <glyph glyph-name="guilsinglleft" unicode="&#x2039;" horiz-adv-x="308" 
d="M-2 275l235 195v-127l-40 -33q-17 -12 -29 -18.5t-27 -9.5v-14q15 -2 26.5 -8t29.5 -18l40 -32v-128z" />
    <glyph glyph-name="guilsinglright" unicode="&#x203a;" horiz-adv-x="308" 
d="M75 210l40 32q18 12 29.5 18t26.5 8v14q-15 3 -27 9.5t-29 18.5l-40 33v127l235 -195l-235 -193v128z" />
    <glyph glyph-name="quotedbl" unicode="&#x22;" horiz-adv-x="369" 
d="M39 476v287h105v-287h-105zM225 476v287h105v-287h-105z" />
    <glyph glyph-name="quotesingle" unicode="'" horiz-adv-x="183" 
d="M39 476v287h105v-287h-105z" />
    <glyph glyph-name="uni00A0" unicode="&#xa0;" horiz-adv-x="240" 
 />
    <glyph glyph-name="cent" unicode="&#xa2;" horiz-adv-x="627" 
d="M155.5 39.5q-57.5 39.5 -89 102.5t-31.5 143t31.5 143t89 101.5t134.5 45.5v90h60v-88q95 -10 160 -63t85 -134h-164q-11 26 -31 45q-5 5 -18 14.5t-20 21.5l-12 -4v-350l12 -4q8 14 28 30q15 13 20 20q14 16 22 39h166q-20 -89 -86 -142t-162 -60v-90h-60v90
q-77 10 -134.5 49.5zM290 111v345l-12 3q-4 -12 -14.5 -21t-12.5 -11q-14 -12 -16 -14q-44 -49 -44 -128q0 -81 43 -127q8 -9 17 -17q2 -2 12.5 -12t14.5 -22z" />
    <glyph glyph-name="currency" unicode="&#xa4;" horiz-adv-x="721" 
d="M75 137l66 65q-40 62 -40 138t40 137l-63 66l77 82l69 -68q59 41 137 41q75 0 137 -39l67 65l81 -79l-67 -66q40 -65 40 -139q0 -76 -40 -139l66 -65l-79 -80l-68 66q-61 -40 -138 -40q-74 0 -138 40l-68 -67zM415 204.5q27 11.5 48 32.5q21 22 32 48.5t11 54.5t-11 55
t-32 47q-22 21 -49 32t-55 11t-54.5 -11.5t-47.5 -32.5t-31.5 -48t-10.5 -55q0 -29 11 -55.5t31 -46.5t47.5 -31.5t55.5 -11.5t55 11.5z" />
    <glyph glyph-name="dollar" unicode="$" horiz-adv-x="704" 
d="M129 63.5q-85 64.5 -96 189.5h166q15 -54 53 -87q13 -12 36 -26q31 -21 45 -33l11 8q-7 26 -8.5 42.5t-1.5 35.5v130q-94 20 -154 46t-92.5 70.5t-32.5 113.5q0 72 37 122.5t100 76.5t142 27v117h60v-120q102 -19 169.5 -80.5t79.5 -164.5h-160q-10 38 -32 66l-18 18
l-37 37l-12 -7q10 -33 10 -59v-126q138 -28 206 -80.5t68 -155.5q0 -107 -73 -171t-201 -68v-127h-60v128q-120 13 -205 77.5zM336 506q-2 15 -2 32v59q0 26 10 59l-11 9q-25 -16 -45 -24t-27 -11q-45 -22 -45 -63q0 -45 53 -71q3 -1 20.5 -8.5t44.5 -30.5l11 9q-7 25 -9 40
zM442 131q19 9 29 16q35 24 35 66q0 22 -9 38.5t-27 29.5q-6 4 -20 11q-4 2 -20 11t-35 23l-11 -8q7 -25 8.5 -40t1.5 -33v-60q0 -18 -1.5 -33t-8.5 -38l11 -10q16 11 47 27z" />
    <glyph glyph-name="Euro" unicode="&#x20ac;" horiz-adv-x="593" 
d="M233 54.5q-88 70.5 -124 189.5h-66v98h58q-1 15 -1 46q0 27 1 40h-58v100h69q85 250 355 250q32 0 70 -5v-150q-31 9 -70 9q-82 0 -133 -49l-15 -15q-21 -21 -40 -38l7 -12q36 10 66 10h154v-100h-244l-1 -42l1 -44h244v-98h-154q-17 0 -31.5 1.5t-39.5 8.5l-6 -12
q21 -20 41 -44l16 -18q56 -54 135 -54q35 0 70 10v-147q-55 -5 -70 -5q-146 0 -234 70.5z" />
    <glyph glyph-name="florin" unicode="&#x192;" horiz-adv-x="447" 
d="M57 -79h53q21 0 31.5 10.5t10.5 33.5v476h-95v123h95v62q0 67 38 102t112 35h93v-119h-57q-21 0 -31 -9.5t-10 -33.5v-37h98v-123h-98v-502q0 -68 -38.5 -103t-113.5 -35h-88v120z" />
    <glyph glyph-name="sterling" unicode="&#xa3;" horiz-adv-x="627" 
d="M152 175.5q35 30.5 35 75.5q0 50 -38 115h-97v96h23q12 0 23 -2.5t25 -7.5l9 11q-26 32 -26 90q0 69 31.5 120t85 78t119.5 27q60 0 112 -24.5t87 -74t44 -119.5h-145q-7 45 -33.5 66.5t-61.5 21.5q-50 0 -76 -28.5t-26 -75.5q0 -39 16 -82h197v-96h-91q-20 0 -34.5 1.5
t-34.5 8.5l-8 -12q36 -73 36 -122q0 -29 -13 -52.5t-48 -52.5l8 -18q29 12 47 15t47 3h216v-137h-534v141q70 4 105 34.5z" />
    <glyph glyph-name="yen" unicode="&#xa5;" horiz-adv-x="712" 
d="M274 134h-161v109h161v49h-161v108h31q25 0 38 -1.5t36 -8.5l7 12q-18 15 -26 24t-15 20l-190 317h190l137 -245q3 -5 11.5 -20t12.5 -29t4 -31h16q0 24 5.5 39t20.5 42l138 244h188l-189 -317q-14 -22 -40 -44l7 -12q22 7 35.5 8.5t37.5 1.5h31v-108h-158v-49h158v-109
h-158v-134h-167v134z" />
    <glyph glyph-name="plus" unicode="+" horiz-adv-x="626" 
d="M256 57v225h-225v111h225v225h112v-225h225v-111h-225v-225h-112z" />
    <glyph glyph-name="minus" unicode="&#x2212;" horiz-adv-x="670" 
d="M102 284v111h466v-111h-466z" />
    <glyph glyph-name="multiply" unicode="&#xd7;" horiz-adv-x="567" 
d="M125 99l-80 80l159 160l-158 158l78 79l159 -159l159 159l80 -80l-159 -159l159 -159l-78 -79l-160 160z" />
    <glyph glyph-name="divide" unicode="&#xf7;" horiz-adv-x="529" 
d="M182 443v150h163v-150h-163zM25 284v111h479v-111h-479zM182 77v150h163v-150h-163z" />
    <glyph glyph-name="equal" unicode="=" horiz-adv-x="527" 
d="M36 414v125h455v-125h-455zM36 163v126h455v-126h-455z" />
    <glyph glyph-name="greater" unicode="&#x3e;" horiz-adv-x="563" 
d="M45 242l255 85q27 9 48 12l28 4v12q-18 2 -36 5t-40 10l-255 86v142l481 -170v-157l-481 -171v142z" />
    <glyph glyph-name="less" unicode="&#x3c;" horiz-adv-x="563" 
d="M37 271v157l481 170v-142l-255 -86q-22 -7 -40 -10t-36 -5v-12l28 -4t48 -12l255 -85v-142z" />
    <glyph glyph-name="plusminus" unicode="&#xb1;" horiz-adv-x="695" 
d="M291 163v145h-224v111h224v145h113v-145h225v-111h-225v-145h-113zM67 0v111h562v-111h-562z" />
    <glyph glyph-name="asciitilde" unicode="~" horiz-adv-x="527" 
d="M237.5 216q-21.5 13 -44.5 35q-2 2 -10 9.5t-14.5 11t-12.5 3.5q-28 0 -31 -70h-85q3 75 35.5 118.5t85.5 43.5q30 0 51 -12.5t45 -34.5q14 -13 21.5 -18.5t15.5 -5.5q12 0 19.5 17t8.5 50h88q-5 -82 -32.5 -121t-84.5 -39q-34 0 -55.5 13z" />
    <glyph glyph-name="asciicircum" unicode="^" horiz-adv-x="562" 
d="M204 763h156l170 -481h-142l-77 230q-16 51 -24 101h-12q-5 -31 -11.5 -55t-13.5 -46l-76 -230h-142z" />
    <glyph glyph-name="percent" unicode="%" horiz-adv-x="775" 
d="M121.5 441q-38.5 22 -60.5 63t-22 95t21.5 94.5t59 62.5t83.5 22t83.5 -24t59 -65t21.5 -91q0 -49 -21 -90t-58 -65t-82 -24q-46 0 -84.5 22zM86 0l478 763h119l-478 -763h-119zM242 551q14 19 14 47q0 32 -15.5 50.5t-37.5 18.5q-23 0 -37.5 -16.5t-14.5 -51.5t15.5 -51
t39.5 -16q22 0 36 19zM490.5 6q-38.5 22 -60.5 63t-22 95t21.5 94.5t59 62t83.5 21.5t83.5 -23.5t59 -65t21.5 -91.5q0 -49 -21 -90t-58 -64.5t-82 -23.5q-46 0 -84.5 22zM611 114.5q15 19.5 15 47.5q0 33 -16 51t-38 18q-23 0 -37.5 -16t-14.5 -51q0 -36 15 -52.5t40 -16.5
q21 0 36 19.5z" />
    <glyph glyph-name="perthousand" unicode="&#x2030;" horiz-adv-x="1142" 
d="M121.5 441q-38.5 22 -60.5 63t-22 95t21.5 94.5t59 62.5t83.5 22t83.5 -24t59 -65t21.5 -91q0 -49 -21 -90t-58 -65t-82 -24q-46 0 -84.5 22zM86 0l478 763h119l-478 -763h-119zM242 551q14 19 14 47q0 32 -15.5 50.5t-37.5 18.5q-23 0 -37.5 -16.5t-14.5 -51.5t15.5 -51
t39.5 -16q22 0 36 19zM490.5 6q-38.5 22 -60.5 63t-22 95t21.5 94.5t59 62t83.5 21.5t83.5 -23.5t59 -65t21.5 -91.5q0 -49 -21 -90t-58 -64.5t-82 -23.5q-46 0 -84.5 22zM857 6q-38 22 -60 62.5t-22 95.5q0 54 21.5 94.5t59 62t82.5 21.5q46 0 83.5 -23.5t59 -65
t21.5 -91.5q0 -49 -21 -90t-58 -64.5t-82 -23.5q-46 0 -84 22zM611 114.5q15 19.5 15 47.5q0 33 -16 51t-38 18q-23 0 -37.5 -16t-14.5 -51q0 -36 15 -52.5t40 -16.5q21 0 36 19.5zM977 114.5q15 19.5 15 47.5q0 33 -16 51t-38 18t-37 -16.5t-15 -50.5q0 -36 15.5 -52.5
t39.5 -16.5q21 0 36 19.5z" />
    <glyph glyph-name="lozenge" unicode="&#x25ca;" horiz-adv-x="685" 
d="M229 0l-209 382l209 381h226l210 -382l-209 -381h-227zM342 81l150 301l-150 300l-149 -300z" />
    <glyph glyph-name="uniF8FF" unicode="&#xf8ff;" horiz-adv-x="891" 
d="M64 10v743q0 10 9 10h744q10 0 10 -10v-743q0 -10 -10 -10h-744q-9 0 -9 10zM240 94q11 11 17 22.5t14 31.5q13 36 33 69t67 82l25 26q4 4 8 4t9 -3q7 -4 17 -6q10 -3 10 -13v-36q0 -43 -5.5 -67t-15.5 -47q-10 -20 -10 -37q0 -14 11 -25t25 -11q15 0 26 11t11 25
q0 17 -10 37q-10 23 -15.5 47t-5.5 67v36q0 10 10 13q13 4 15 6q5 3 8 3q5 0 9 -4l26 -26q48 -48 68 -81.5t33 -69.5q6 -19 12 -30.5t18 -23.5q17 -15 40 -15q26 0 41 15q17 17 17 42t-16 40q-12 12 -23.5 18t-30.5 12q-37 13 -70 32.5t-81 67.5l-26 26q-4 4 -4 9q0 3 3 7
q6 12 7 18q3 11 12 11h36q44 0 68.5 -6t46.5 -16q2 -1 13 -5.5t24 -4.5q14 0 25 11t11 26q0 14 -11 25.5t-25 11.5q-13 0 -24 -4.5t-13 -5.5q-22 -10 -46.5 -16t-68.5 -6h-36q-9 0 -12 11q-4 10 -7 15t-3 8q0 4 4 8l26 26q48 48 82 68.5t69 31.5q4 2 16 6.5t21 10t16 13.5
q17 19 17 41q0 24 -17 41q-16 16 -41 16t-40 -15q-11 -11 -17 -22.5t-14 -32.5q-13 -37 -32.5 -70t-67.5 -81l-25 -24q-3 -4 -9 -4q-4 0 -7 2q-5 3 -17 7q-10 3 -10 13v36q0 43 5.5 67t15.5 47q10 20 10 37q0 14 -11 25t-25 11q-15 0 -26 -11t-11 -25q0 -17 10 -37
q10 -23 15.5 -47t5.5 -67v-36q0 -10 -10 -13q-2 -1 -7.5 -2.5t-9.5 -4.5q-3 -2 -7 -2q-6 0 -10 4l-25 24q-49 49 -69.5 83t-31.5 69q-7 19 -13 31t-17 23q-16 16 -40 16q-22 0 -40 -16q-17 -17 -17 -42t16 -41q11 -11 22.5 -17t30.5 -13q36 -13 69 -33t82 -67l26 -25
q4 -4 4 -8q0 -3 -3 -8q-2 -3 -7 -16q-3 -11 -12 -11h-36q-44 0 -68.5 6t-46.5 16q-2 1 -13 5.5t-24 4.5q-14 0 -25 -11.5t-11 -25.5q0 -15 11 -26t25 -11q13 0 24 4.5t13 5.5q22 10 46.5 16t68.5 6h36q9 0 12 -11q5 -12 8 -17q2 -6 2 -7q0 -5 -4 -9l-26 -27
q-48 -49 -81.5 -68.5t-69.5 -31.5q-20 -7 -31.5 -13t-22.5 -17q-16 -15 -16 -40q0 -24 16 -41q16 -16 42 -16q25 0 40 15zM407 343.5q-16 16.5 -16 38.5t16 38t38 16t38 -16t16 -38q0 -23 -16 -39t-38 -16t-38 16.5zM477 354l-6 6q-10 -13 -26 -13q-14 0 -24 10.5t-10 24.5
t10.5 24t23.5 10q16 0 27 -13l5 6q-10 15 -32 15q-17 0 -30 -12.5t-13 -29.5t13 -30t30 -13q22 0 32 15z" />
    <glyph glyph-name="at" unicode="@" horiz-adv-x="1022" 
d="M262.5 -127q-106.5 60 -166.5 166.5t-60 241.5q0 138 61 250t170.5 176.5t248.5 64.5q134 0 241 -60.5t167.5 -168.5t60.5 -245q0 -97 -31 -174t-88.5 -121t-132.5 -44q-130 0 -127 149l-11 3q-62 -92 -166 -92q-50 0 -91 25.5t-65 74.5t-24 118q0 87 36.5 165t101 126
t143.5 48q43 0 73.5 -19t54.5 -65l12 2q-5 21 -5 37q0 12 2 18h94l-13 -62q-33 -154 -47.5 -234t-14.5 -124q0 -81 60 -81q41 0 74 32t51.5 88.5t18.5 127.5q0 113 -47 199.5t-131.5 134.5t-193.5 48q-114 0 -202.5 -52t-137.5 -142.5t-49 -202.5q0 -110 47 -194.5
t132.5 -131.5t197.5 -47q37 0 67.5 4.5t62.5 15.5v-98q-58 -17 -131 -17q-136 0 -242.5 60zM533 150q43 37 67 95.5t24 120.5q0 116 -92 116q-53 0 -96.5 -35t-68 -92t-24.5 -120q0 -64 25 -93t69 -29q53 0 96 37z" />
    <glyph glyph-name="ampersand" unicode="&#x26;" horiz-adv-x="753" 
d="M172.5 7q-59.5 23 -95.5 68.5t-36 109.5q0 53 26.5 100t71.5 80q46 35 94 41l1 14q-52 23 -78 67q-29 43 -29 97q0 62 30 106t79.5 66t108.5 22q90 0 149 -44.5t59 -130.5q0 -52 -26.5 -99.5t-67.5 -78.5q-21 -14 -30 -19t-25 -7l-2 -13q19 -6 27.5 -12.5t23.5 -27.5
l26 -32q13 -17 20 -28.5t12 -30.5l14 -3q16 32 23.5 62t11.5 69h140q-10 -138 -84 -241l113 -142h-184q-2 3 -8.5 11.5t-9.5 21t-2 30.5l-14 5q-22 -33 -75 -59q-54 -25 -135 -25q-69 0 -128.5 23zM388 537.5q21 26.5 21 57.5q0 26 -17 44t-47 18q-29 0 -49 -18.5t-20 -48.5
q0 -31 14 -55t39 -49q38 25 59 51.5zM370.5 123q33.5 10 57.5 27l-134 170q-52 -34 -78 -62t-26 -64q0 -38 33 -59.5t82 -21.5q32 0 65.5 10z" />
    <glyph glyph-name="paragraph" unicode="&#xb6;" horiz-adv-x="645" 
d="M149 365.5q-56 26.5 -90 74t-34 110.5q0 65 34 113.5t90.5 74t120.5 25.5h107v-873h-107v445q-65 4 -121 30.5zM473 -110v873h107v-873h-107z" />
    <glyph glyph-name="section" unicode="&#xa7;" horiz-adv-x="728" 
d="M231.5 -213.5q-71.5 23.5 -120.5 78t-57 141.5h165q13 -57 56 -83t99 -26q55 0 90.5 21.5t35.5 59.5q0 33 -23.5 53.5t-58 31.5t-95.5 25l-40 9q-95 24 -152.5 66t-57.5 127q0 44 19.5 78.5t63.5 52.5v21q-43 10 -63 44t-20 80q0 66 37.5 114t101 73t139.5 25
q74 0 137 -26t104.5 -77.5t51.5 -124.5h-156q-12 45 -48.5 68.5t-88.5 23.5q-49 0 -79 -19t-30 -51q0 -26 21.5 -43t52.5 -26.5t85 -21.5q14 -2 21 -4q71 -16 123 -37.5t87.5 -65t35.5 -113.5q0 -44 -18 -80.5t-62 -50.5v-20q80 -20 80 -124q0 -67 -34.5 -117.5t-99.5 -78
t-153 -27.5q-78 0 -149.5 23.5zM500 254q0 38 -29 58t-84 35l-49 14q-37 1 -66.5 -16.5t-29.5 -47.5q0 -23 13 -37.5t40 -24.5t79 -23l84 -19q42 19 42 61z" />
    <glyph glyph-name="copyright" unicode="&#xa9;" horiz-adv-x="866" 
d="M238 45q-89 52 -141 140.5t-52 194.5q0 108 51.5 197.5t140.5 141.5t196 52q106 0 195 -52t140.5 -141.5t51.5 -197.5q0 -106 -52 -194.5t-140.5 -140.5t-194.5 -52t-195 52zM581 127q67 39 106 106t39 147q0 82 -39 150t-106 107.5t-148 39.5t-148.5 -39.5
t-106.5 -107.5t-39 -150q0 -80 39 -147t106.5 -106t148.5 -39t148 39zM326.5 195.5q-48.5 28.5 -77 77.5t-28.5 107q0 59 28.5 108t77 77.5t106.5 28.5q45 0 89 -20.5t73 -55.5l-75 -60q-18 19 -42 30t-50 11q-49 0 -83.5 -34.5t-34.5 -84.5q0 -49 34.5 -83.5t83.5 -34.5
q26 0 50 10.5t42 30.5l75 -60q-28 -35 -72.5 -55.5t-89.5 -20.5q-58 0 -106.5 28.5z" />
    <glyph glyph-name="registered" unicode="&#xae;" horiz-adv-x="482" 
d="M138.5 399q-46.5 27 -73.5 73.5t-27 102.5t27 102.5t73.5 73.5t102.5 27t102.5 -27t73.5 -73.5t27 -102.5t-27 -102.5t-73.5 -73.5t-102.5 -27t-102.5 27zM324.5 430.5q38.5 22.5 61 60.5t22.5 84q0 45 -22.5 83.5t-61 61t-83.5 22.5q-46 0 -84.5 -22.5t-61 -61
t-22.5 -83.5q0 -46 22.5 -84t61 -60.5t84.5 -22.5q45 0 83.5 22.5zM155 693h108q35 0 55 -17.5t20 -53.5q0 -30 -14 -47q-3 -4 -10.5 -8t-14.5 -4l-1 -4q6 -5 9 -10.5t6 -13.5l32 -78h-56l-35 92h-47v-92h-52v236zM287 620q0 13 -8 20t-23 7h-49v-53h49q31 0 31 26z" />
    <glyph glyph-name="trademark" unicode="&#x2122;" horiz-adv-x="665" 
d="M81 458v228h-79v77h244v-77h-78v-228h-87zM296 763h138l26 -154q6 -33 6 -58h6q0 25 6 58l25 154h140v-305h-87v173q0 30 4 56h-7q-4 -28 -10 -55l-32 -174h-84l-31 174q0 2 -4 22l-6 33h-7q3 -17 4 -29.5t1 -26.5v-173h-88v305z" />
    <glyph glyph-name="degree" unicode="&#xb0;" horiz-adv-x="452" 
d="M147.5 482.5q-36.5 21.5 -58 58t-21.5 78.5q0 44 21.5 80.5t58 57.5t78.5 21q43 0 79.5 -21.5t57.5 -58t21 -79.5q0 -42 -21 -78.5t-57.5 -58t-79.5 -21.5q-42 0 -78.5 21.5zM275 571q20 20 20 48q0 29 -20 49t-49 20t-49 -20t-20 -49q0 -28 20 -48t49 -20t49 20z" />
    <glyph glyph-name="bar" unicode="|" horiz-adv-x="338" 
d="M109 -110v982h120v-982h-120z" />
    <glyph glyph-name="brokenbar" unicode="&#xa6;" horiz-adv-x="338" 
d="M109 441v431h120v-431h-120zM109 -110v430h120v-430h-120z" />
    <glyph glyph-name="dagger" unicode="&#x2020;" horiz-adv-x="594" 
d="M240 -199v626h-224v111h224v225h113v-225h225v-111h-225v-626h-113z" />
    <glyph glyph-name="uni2116" unicode="&#x2116;" horiz-adv-x="1296" 
d="M890.5 318.5q-55.5 30.5 -86 86.5t-30.5 130q0 71 30.5 126.5t85.5 86t127 30.5t127 -31t86 -86t31 -126q0 -73 -30.5 -129t-85.5 -87t-128 -31q-71 0 -126.5 30.5zM64 763h172l252 -420q14 -23 23 -43t20 -58l16 4q-5 29 -6.5 48t-1.5 48v421h162v-763h-173l-254 425
q-13 21 -21.5 40.5t-19.5 56.5l-16 -4q5 -27 6.5 -45t1.5 -50v-423h-161v763zM1099 434.5q31 38.5 31 100.5q0 60 -31 97t-82 37q-50 0 -82 -37t-32 -97q0 -63 31.5 -101t82.5 -38t82 38.5zM808 127v111h418v-111h-418z" />
    <glyph glyph-name="uni0308" unicode="&#x308;" 
d="M-372 636.5q-26 22.5 -26 59.5q0 36 26 59t63 23t63 -23t26 -59q0 -37 -25.5 -59.5t-63.5 -22.5q-37 0 -63 22.5zM-156.5 636.5q-25.5 22.5 -25.5 59.5q0 36 26 59t63 23t63 -23t26 -59q0 -37 -26 -59.5t-63 -22.5q-38 0 -63.5 22.5z" />
    <glyph glyph-name="uni0307" unicode="&#x307;" 
d="M-157 636.5q-26 22.5 -26 59.5q0 36 26 59t63 23t63 -23t26 -59q0 -37 -25.5 -59.5t-63.5 -22.5q-37 0 -63 22.5z" />
    <glyph glyph-name="gravecomb" unicode="&#x300;" 
d="M-4 617h-113l-152 146h150z" />
    <glyph glyph-name="acutecomb" unicode="&#x301;" 
d="M-270 617l115 146h150l-152 -146h-113z" />
    <glyph glyph-name="uni030B" unicode="&#x30b;" 
d="M-471 617l117 146h134l-138 -146h-113zM-266 617l117 146h144l-149 -146h-112z" />
    <glyph glyph-name="uni030C.alt" 
d="M-93.5 548.5q30.5 26.5 27.5 75.5h-12q-9 -23 -39 -23q-29 0 -50.5 23.5t-21.5 60.5q0 40 26 65t69 25q52 0 80 -38.5t28 -100.5q0 -77 -47.5 -132.5t-148.5 -61.5v78q58 2 88.5 28.5z" />
    <glyph glyph-name="uni0302" unicode="&#x302;" 
d="M-186 794h14l168 -176h-125l-19 25q-24 34 -24 53h-14q0 -19 -24 -53l-19 -25h-125z" />
    <glyph glyph-name="uni030C" unicode="&#x30c;" 
d="M-354 763h125l19 -25q24 -33 24 -53h14q0 20 24 53l19 25h125l-168 -175h-14z" />
    <glyph glyph-name="uni0306" unicode="&#x306;" 
d="M-298 648q-42 41 -47 115h86q4 -36 27.5 -54t57.5 -18q35 0 57 18.5t26 53.5h87q-4 -73 -47.5 -114.5t-122.5 -41.5q-82 0 -124 41z" />
    <glyph glyph-name="uni030A" unicode="&#x30a;" 
d="M-201 591q-30 18 -47 48t-17 65t17.5 65t47.5 47.5t65 17.5q36 0 66 -17.5t47.5 -47t17.5 -65.5t-17.5 -66t-47.5 -47.5t-66 -17.5t-66 18zM-98 667.5q14 14.5 14 38.5q0 22 -13.5 35.5t-37.5 13.5q-23 0 -36.5 -14t-13.5 -35q0 -24 14.5 -38.5t35.5 -14.5q23 0 37 14.5z
" />
    <glyph glyph-name="tildecomb" unicode="&#x303;" 
d="M-176.5 616q-21.5 13 -44.5 35q-2 2 -10 9.5t-14.5 11t-12.5 3.5q-28 0 -31 -70h-85q3 75 35.5 118.5t85.5 43.5q30 0 51 -12.5t45 -34.5q14 -13 21.5 -18.5t15.5 -5.5q12 0 19.5 17t8.5 50h88q-5 -82 -32.5 -121t-84.5 -39q-34 0 -55.5 13z" />
    <glyph glyph-name="uni0304" unicode="&#x304;" 
d="M-306 627v71h301v-71h-301z" />
    <glyph glyph-name="uni030F" unicode="&#x30f;" 
d="M-305 597l-135 146q-5 5 -5 10q0 4 4 7t10 3h99q12 0 19 -10l100 -146q3 -6 3 -10q0 -9 -13 -9h-62q-13 0 -20 9zM-100 597l-126 146q-5 7 -5 11t3.5 6.5t10.5 2.5h90q12 0 19 -10l100 -146q3 -6 3 -10q0 -9 -13 -9h-62q-13 0 -20 9z" />
    <glyph glyph-name="uni0312" unicode="&#x312;" 
d="M-126.5 620q-22.5 27 -22.5 72q0 55 38 95t119 44v-56q-46 -1 -70.5 -20.5t-21.5 -54.5h9q7 17 31 17q23 0 40.5 -16.5t17.5 -43.5q0 -29 -21 -46.5t-55 -17.5q-42 0 -64.5 27z" />
    <glyph glyph-name="uni031B" unicode="&#x31b;" 
d="M-112 645q17 26 17 64v38q0 16 16 16h59q16 0 16 -16v-29q0 -80 -41 -128.5t-126 -48.5v78q42 0 59 26z" />
    <glyph glyph-name="uni0326" unicode="&#x326;" 
d="M-59 -133q4 7 2 14h-8q-8 -15 -31 -15q-19 0 -31 11.5t-12 32.5q0 24 17 38.5t46 14.5q34 0 53 -20.5t19 -51.5q0 -90 -123 -90v36q59 0 68 30z" />
    <glyph glyph-name="uni0327" unicode="&#x327;" 
d="M-233 -196v56q53 -19 88 -19q24 0 37 9.5t13 27.5q0 31 -34 42.5t-95 10.5l79 90h91q-18 -18 -31 -29.5t-37 -27.5l5 -9q18 2 25 2q33 0 51 -11q19 -10 28 -25.5t9 -38.5q0 -45 -37 -68.5t-96 -23.5q-50 0 -96 14z" />
    <glyph glyph-name="uni0328" unicode="&#x328;" 
d="M-168 -188.5q-30 21.5 -30 62.5q0 39 23.5 63t79.5 44v19h91q-54 -36 -70.5 -51.5t-16.5 -34.5q0 -32 38 -32q23 0 49 13v-94q-36 -11 -75 -11q-59 0 -89 21.5z" />
    <glyph glyph-name="uni0337" unicode="&#x337;" 
d="M-248 277v102l244 126v-102z" />
    <glyph glyph-name="uni0338" unicode="&#x338;" 
d="M-537 6l-65 62l534 533l64 -63z" />
    <glyph glyph-name="dieresis" unicode="&#xa8;" horiz-adv-x="402" 
d="M30 636.5q-26 22.5 -26 59.5q0 36 26 59t63 23t63 -23t26 -59q0 -37 -25.5 -59.5t-63.5 -22.5q-37 0 -63 22.5zM245.5 636.5q-25.5 22.5 -25.5 59.5q0 36 26 59t63 23t63 -23t26 -59q0 -37 -26 -59.5t-63 -22.5q-38 0 -63.5 22.5z" />
    <glyph glyph-name="dotaccent" unicode="&#x2d9;" horiz-adv-x="187" 
d="M30 636.5q-26 22.5 -26 59.5q0 36 26 59t63 23t63 -23t26 -59q0 -37 -25.5 -59.5t-63.5 -22.5q-37 0 -63 22.5z" />
    <glyph glyph-name="grave" unicode="`" horiz-adv-x="274" 
d="M270 617h-113l-152 146h150z" />
    <glyph glyph-name="acute" unicode="&#xb4;" horiz-adv-x="274" 
d="M4 617l115 146h150l-152 -146h-113z" />
    <glyph glyph-name="hungarumlaut" unicode="&#x2dd;" horiz-adv-x="475" 
d="M4 617l117 146h134l-138 -146h-113zM209 617l117 146h144l-149 -146h-112z" />
    <glyph glyph-name="circumflex" unicode="&#x2c6;" horiz-adv-x="358" 
d="M172 794h14l168 -176h-125l-19 25q-24 34 -24 53h-14q0 -19 -24 -53l-19 -25h-125z" />
    <glyph glyph-name="caron" unicode="&#x2c7;" horiz-adv-x="358" 
d="M4 763h125l19 -25q24 -33 24 -53h14q0 20 24 53l19 25h125l-168 -175h-14z" />
    <glyph glyph-name="breve" unicode="&#x2d8;" horiz-adv-x="349" 
d="M51 648q-42 41 -47 115h86q4 -36 27.5 -54t57.5 -18q35 0 57 18.5t26 53.5h87q-4 -73 -47.5 -114.5t-122.5 -41.5q-82 0 -124 41z" />
    <glyph glyph-name="ring" unicode="&#x2da;" horiz-adv-x="269" 
d="M68 591q-30 18 -47 48t-17 65t17.5 65t47.5 47.5t65 17.5q36 0 66 -17.5t47.5 -47t17.5 -65.5t-17.5 -66t-47.5 -47.5t-66 -17.5t-66 18zM171 667.5q14 14.5 14 38.5q0 22 -13.5 35.5t-37.5 13.5q-23 0 -36.5 -14t-13.5 -35q0 -24 14.5 -38.5t35.5 -14.5q23 0 37 14.5z
" />
    <glyph glyph-name="tilde" unicode="&#x2dc;" horiz-adv-x="378" 
d="M201.5 616q-21.5 13 -44.5 35q-2 2 -10 9.5t-14.5 11t-12.5 3.5q-28 0 -31 -70h-85q3 75 35.5 118.5t85.5 43.5q30 0 51 -12.5t45 -34.5q14 -13 21.5 -18.5t15.5 -5.5q12 0 19.5 17t8.5 50h88q-5 -82 -32.5 -121t-84.5 -39q-34 0 -55.5 13z" />
    <glyph glyph-name="macron" unicode="&#xaf;" horiz-adv-x="310" 
d="M4 627v71h301v-71h-301z" />
    <glyph glyph-name="cedilla" unicode="&#xb8;" horiz-adv-x="237" 
d="M4 -196v56q53 -19 88 -19q24 0 37 9.5t13 27.5q0 31 -34 42.5t-95 10.5l79 90h91q-18 -18 -31 -29.5t-37 -27.5l5 -9q18 2 25 2q33 0 51 -11q19 -10 28 -25.5t9 -38.5q0 -45 -37 -68.5t-96 -23.5q-50 0 -96 14z" />
    <glyph glyph-name="ogonek" unicode="&#x2db;" horiz-adv-x="202" 
d="M34 -188.5q-30 21.5 -30 62.5q0 39 23.5 63t79.5 44v19h91q-54 -36 -70.5 -51.5t-16.5 -34.5q0 -32 38 -32q23 0 49 13v-94q-36 -11 -75 -11q-59 0 -89 21.5z" />
    <glyph glyph-name="uni0308.case" 
d="M-411.5 826q-25.5 22 -25.5 58t25.5 58.5t62.5 22.5t62.5 -22.5t25.5 -58.5t-25.5 -58t-62.5 -22t-62.5 22zM-196.5 826q-25.5 22 -25.5 58t25.5 58.5t62.5 22.5t62.5 -22.5t25.5 -58.5t-25.5 -58t-62.5 -22t-62.5 22z" />
    <glyph glyph-name="uni0307.case" 
d="M-196.5 826q-25.5 22 -25.5 58t25.5 58.5t62.5 22.5t62.5 -22.5t25.5 -58.5t-25.5 -58t-62.5 -22t-62.5 22z" />
    <glyph glyph-name="uni0328.case" 
d="M-168 -188.5q-30 21.5 -30 62.5q0 39 23.5 63t79.5 44v19h91q-54 -36 -70.5 -51.5t-16.5 -34.5q0 -32 38 -32q23 0 49 13v-94q-36 -11 -75 -11q-59 0 -89 21.5z" />
    <glyph glyph-name="uni0335.case" 
d="M-487 284v111h418v-111h-418z" />
    <glyph glyph-name="uni0337.case" 
d="M-406 223v117l389 200v-116z" />
    <glyph glyph-name="uni0338.case" 
d="M-638 6l-65 62l671 670l64 -63z" />
    <glyph glyph-name="base_No" horiz-adv-x="501" 
d="M0 0v134h501v-134h-501z" />
    </font>
</defs>
</svg>
