<?xml version="1.0" standalone="no"?>
<!DOCTYPE svg PUBLIC "-//W3C//DTD SVG 1.1//EN" "http://www.w3.org/Graphics/SVG/1.1/DTD/svg11.dtd" >
<svg xmlns="http://www.w3.org/2000/svg" xmlns:xlink="http://www.w3.org/1999/xlink" version="1.1">
<metadata>
Created by FontForge 20201107 at Wed Apr  8 15:30:25 2020
 By Jimmy Wärting
Copyright (c) 2020 by Alfredo Marco Pradil. All rights reserved.
</metadata>
<defs>
<font id="OpenSauceSans-Bold" horiz-adv-x="0" >
  <font-face 
    font-family="Open Sauce Sans"
    font-weight="700"
    font-stretch="normal"
    units-per-em="1000"
    panose-1="0 0 8 0 0 0 0 0 0 0"
    ascent="763"
    descent="-237"
    x-height="561"
    cap-height="763"
    bbox="-702 -237 1254 1029"
    underline-thickness="50"
    underline-position="-100"
    unicode-range="U+0020-FB02"
  />
<missing-glyph horiz-adv-x="596" 
d="M68 0v561h460v-561h-460zM108 40h380v481h-380v-481z" />
    <glyph glyph-name="fi" unicode="fi" horiz-adv-x="626" 
d="M108 453h-85v108h85v57q0 70 40 107.5t115 37.5h84v-107h-52q-51 0 -51 -61q0 -18 -10 -34l10 -10q15 10 43 10h60v-108h-103v-453h-136v453zM429 0v561h135v-561h-135zM438 644q-24 21 -24 56q0 33 24 55t59 22q34 0 58.5 -22t24.5 -55q0 -34 -24 -55.5t-59 -21.5
t-59 21z" />
    <glyph glyph-name="fl" unicode="fl" horiz-adv-x="670" 
d="M108 453h-85v108h85v57q0 70 40 107.5t115 37.5h84v-107h-52q-51 0 -51 -61q0 -18 -10 -34l10 -10q15 10 43 10h60v-108h-103v-453h-136v453zM460 29.5q-33 29.5 -33 93.5v640h135v-600q0 -28 10.5 -39.5t35.5 -11.5h36v-112h-87q-64 0 -97 29.5z" />
    <glyph glyph-name="s_a_u_c_e_l_o_g_o.liga" unicode="saucelogo" horiz-adv-x="899" 
d="M68 10v743q0 10 9 10h744q10 0 10 -10v-743q0 -10 -10 -10h-744q-9 0 -9 10zM244 94q11 11 17 22.5t14 31.5q13 36 33 69t67 82l25 26q4 4 8 4q5 0 9 -3q7 -4 17 -6q10 -3 10 -13v-36q0 -43 -5.5 -67t-15.5 -47q-10 -20 -10 -37q0 -14 11 -25t25 -11q15 0 26 11t11 25
q0 17 -10 37q-10 23 -15.5 47t-5.5 67v36q0 10 10 13q13 4 15 6q5 3 8 3q5 0 9 -4l26 -26q48 -48 68 -81.5t33 -69.5q6 -19 12 -30.5t18 -23.5q17 -15 40 -15q26 0 41 15q17 17 17 42t-16 40q-12 12 -23.5 18t-30.5 12q-37 13 -70 32.5t-81 67.5l-26 26q-4 4 -4 9q0 3 3 7
q6 12 7 18q3 11 12 11h36q44 0 68.5 -6t46.5 -16q2 -1 13 -5.5t24 -4.5q14 0 25 11t11 26q0 14 -11 25.5t-25 11.5q-13 0 -24 -4.5t-13 -5.5q-22 -10 -46.5 -16t-68.5 -6h-36q-9 0 -12 11q-4 10 -7 15t-3 8q0 4 4 8l26 26q48 48 82 68.5t69 31.5q4 2 16 6.5t21 10t16 13.5
q17 19 17 41q0 24 -17 41q-16 16 -41 16t-40 -15q-11 -11 -17 -22.5t-14 -32.5q-13 -37 -32.5 -70t-67.5 -81l-25 -24q-3 -4 -9 -4q-4 0 -7 2q-5 3 -17 7q-10 3 -10 13v36q0 43 5.5 67t15.5 47q10 20 10 37q0 14 -11 25t-25 11q-15 0 -26 -11t-11 -25q0 -17 10 -37
q10 -23 15.5 -47t5.5 -67v-36q0 -10 -10 -13q-2 -1 -7.5 -2.5t-9.5 -4.5q-3 -2 -7 -2q-6 0 -10 4l-25 24q-49 49 -69.5 83t-31.5 69q-7 19 -13 31t-17 23q-16 16 -40 16q-22 0 -40 -16q-17 -17 -17 -42t16 -41q11 -11 22.5 -17t30.5 -13q36 -13 69 -33t82 -67l26 -25
q4 -4 4 -8q0 -3 -3 -8q-2 -3 -7 -16q-3 -11 -12 -11h-36q-44 0 -68.5 6t-46.5 16q-2 1 -13 5.5t-24 4.5q-14 0 -25 -11.5t-11 -25.5q0 -15 11 -26t25 -11q13 0 24 4.5t13 5.5q22 10 46.5 16t68.5 6h36q9 0 12 -11q5 -12 8 -17q2 -6 2 -7q0 -5 -4 -9l-26 -27
q-48 -49 -81.5 -68.5t-69.5 -31.5q-20 -7 -31.5 -13t-22.5 -17q-16 -15 -16 -40q0 -24 16 -41q16 -16 42 -16q25 0 40 15zM411 343.5q-16 16.5 -16 38.5t16 38t38 16t38 -16t16 -38q0 -23 -16 -39t-38 -16t-38 16.5zM481 354l-6 6q-10 -13 -26 -13q-14 0 -24 10.5t-10 24.5
t10.5 24t23.5 10q16 0 27 -13l5 6q-11 15 -32 15q-17 0 -30 -12.5t-13 -29.5t13 -30t30 -13q21 0 32 15z" />
    <glyph glyph-name=".notdef" horiz-adv-x="596" 
d="M68 0v561h460v-561h-460zM108 40h380v481h-380v-481z" />
    <glyph glyph-name="space" unicode=" " horiz-adv-x="268" 
 />
    <glyph glyph-name="A" unicode="A" horiz-adv-x="710" 
d="M7 0l269 763h158l269 -763h-151l-52 157h-291l-51 -157h-151zM460 283l-79 239q-18 58 -18 97h-16q0 -36 -19 -97l-78 -239h210z" />
    <glyph glyph-name="Aacute" unicode="&#xc1;" horiz-adv-x="710" 
d="M7 0l269 763h158l269 -763h-151l-52 157h-291l-51 -157h-151zM460 283l-79 239q-18 58 -18 97h-16q0 -36 -19 -97l-78 -239h210zM295 817l115 148h139l-150 -148h-104z" />
    <glyph glyph-name="Abreve" unicode="&#x102;" horiz-adv-x="710" 
d="M7 0l269 763h158l269 -763h-151l-52 157h-291l-51 -157h-151zM460 283l-79 239q-18 58 -18 97h-16q0 -36 -19 -97l-78 -239h210zM232 849q-42 41 -46 114h79q5 -38 29.5 -57.5t60.5 -19.5q37 0 60.5 19.5t28.5 57.5h81q-4 -72 -48 -113.5t-122 -41.5q-81 0 -123 41z" />
    <glyph glyph-name="Acircumflex" unicode="&#xc2;" horiz-adv-x="710" 
d="M7 0l269 763h158l269 -763h-151l-52 157h-291l-51 -157h-151zM460 283l-79 239q-18 58 -18 97h-16q0 -36 -19 -97l-78 -239h210zM348 995h14l166 -175h-118l-23 30q-25 34 -25 54h-14q0 -20 -25 -54l-23 -30h-118z" />
    <glyph glyph-name="Adieresis" unicode="&#xc4;" horiz-adv-x="710" 
d="M7 0l269 763h158l269 -763h-151l-52 157h-291l-51 -157h-151zM460 283l-79 239q-18 58 -18 97h-16q0 -36 -19 -97l-78 -239h210zM191.5 826.5q-23.5 20.5 -23.5 53.5t23.5 54t57.5 21t57 -21t23 -54t-23 -53.5t-57 -20.5t-57.5 20.5zM403 826.5q-23 20.5 -23 53.5t23 54
t57 21t57.5 -21t23.5 -54t-23.5 -53.5t-57.5 -20.5t-57 20.5z" />
    <glyph glyph-name="Agrave" unicode="&#xc0;" horiz-adv-x="710" 
d="M7 0l269 763h158l269 -763h-151l-52 157h-291l-51 -157h-151zM460 283l-79 239q-18 58 -18 97h-16q0 -36 -19 -97l-78 -239h210zM415 817h-104l-150 148h139z" />
    <glyph glyph-name="Amacron" unicode="&#x100;" horiz-adv-x="710" 
d="M7 0l269 763h158l269 -763h-151l-52 157h-291l-51 -157h-151zM460 283l-79 239q-18 58 -18 97h-16q0 -36 -19 -97l-78 -239h210zM205 837v64h299v-64h-299z" />
    <glyph glyph-name="Aogonek" unicode="&#x104;" horiz-adv-x="710" 
d="M7 0l269 763h158l269 -763h-151l-52 157h-291l-51 -157h-151zM460 283l-79 239q-18 58 -18 97h-16q0 -36 -19 -97l-78 -239h210zM549.5 -190.5q-29.5 22.5 -29.5 63.5q0 39 23.5 64t79.5 45v18h80q-54 -40 -70.5 -56.5t-16.5 -36.5q0 -18 10.5 -27.5t31.5 -9.5
q20 0 45 11v-83q-33 -11 -69 -11q-55 0 -84.5 22.5z" />
    <glyph glyph-name="Aring" unicode="&#xc5;" horiz-adv-x="710" 
d="M236.5 769.5q-9.5 23.5 -9.5 48.5q0 53 37 90t90 37q35 0 64 -17t46.5 -46t17.5 -64q0 -26 -9.5 -48.5t-26.5 -38.5l257 -731h-151l-52 157h-291l-51 -157h-151l257 731q-18 15 -27.5 38.5zM392.5 780.5q14.5 15.5 14.5 39.5q0 22 -14 36t-38 14q-23 0 -37.5 -14
t-14.5 -36q0 -24 15 -39.5t37 -15.5q23 0 37.5 15.5zM460 283l-79 239q-18 60 -18 98h-16q0 -35 -19 -98l-78 -239h210z" />
    <glyph glyph-name="Atilde" unicode="&#xc3;" horiz-adv-x="710" 
d="M7 0l269 763h158l269 -763h-151l-52 157h-291l-51 -157h-151zM460 283l-79 239q-18 58 -18 97h-16q0 -36 -19 -97l-78 -239h210zM368 820.5q-20 12.5 -45 35.5q-12 13 -21 19.5t-18 6.5q-31 0 -34 -72h-80q3 74 34.5 116.5t84.5 42.5q30 0 51 -13t42 -35q15 -14 23.5 -20
t17.5 -6q12 0 20.5 17.5t10.5 52.5h83q-5 -80 -32 -118.5t-83 -38.5q-34 0 -54 12.5z" />
    <glyph glyph-name="AE" unicode="&#xc6;" horiz-adv-x="1046" 
d="M7 0l269 763h493l46 -129h-334l66 -188h335l44 -128h-334l67 -189h335l45 -129h-489l-50 157h-291l-51 -157h-151zM460 283l-79 239q-18 60 -18 98h-16q0 -35 -19 -98l-78 -239h210z" />
    <glyph glyph-name="B" unicode="B" horiz-adv-x="698" 
d="M68 763h302q140 0 202 -62q47 -48 47 -129q0 -72 -35 -117.5t-90 -45.5v-16q46 0 83 -21t59 -60t22 -90q0 -104 -68 -162q-44 -35 -100.5 -47.5t-106.5 -12.5h-315v763zM445.5 470.5q28.5 24.5 28.5 70.5q0 44 -27 66q-32 27 -109 27h-126v-188h149q56 0 84.5 24.5z
M433.5 135q30.5 6 51.5 24q28 23 28 74q0 59 -36 77.5t-96 18.5h-169v-200h153q38 0 68.5 6z" />
    <glyph glyph-name="C" unicode="C" horiz-adv-x="767" 
d="M204 39.5q-83 53.5 -124 143.5t-41 199t41 198.5t124 143t205 53.5q138 0 223 -69t101 -184h-157q-10 60 -56 92t-115 32q-103 0 -159.5 -72.5t-56.5 -193.5q0 -122 56.5 -194.5t159.5 -72.5q70 0 115 33.5t56 99.5h157q-16 -121 -100.5 -191.5t-223.5 -70.5
q-122 0 -205 53.5z" />
    <glyph glyph-name="Cacute" unicode="&#x106;" horiz-adv-x="767" 
d="M204 39.5q-83 53.5 -124 143.5t-41 199t41 198.5t124 143t205 53.5q138 0 223 -69t101 -184h-157q-10 60 -56 92t-115 32q-103 0 -159.5 -72.5t-56.5 -193.5q0 -122 56.5 -194.5t159.5 -72.5q70 0 115 33.5t56 99.5h157q-16 -121 -100.5 -191.5t-223.5 -70.5
q-122 0 -205 53.5zM323 817l115 148h139l-150 -148h-104z" />
    <glyph glyph-name="Ccaron" unicode="&#x10c;" horiz-adv-x="767" 
d="M204 39.5q-83 53.5 -124 143.5t-41 199t41 198.5t124 143t205 53.5q138 0 223 -69t101 -184h-157q-10 60 -56 92t-115 32q-103 0 -159.5 -72.5t-56.5 -193.5q0 -122 56.5 -194.5t159.5 -72.5q70 0 115 33.5t56 99.5h157q-16 -121 -100.5 -191.5t-223.5 -70.5
q-122 0 -205 53.5zM209 965h118l23 -29q25 -36 25 -54h14q0 18 25 54l23 29h118l-166 -174h-14z" />
    <glyph glyph-name="Ccedilla" unicode="&#xc7;" horiz-adv-x="767" 
d="M520 148.5q45 33.5 56 99.5h157q-16 -121 -100.5 -191.5t-223.5 -70.5h-3q-13 -11 -34 -25l6 -9q20 2 26 2q29 0 49 -10q22 -10 32.5 -26t10.5 -40q0 -44 -36.5 -67.5t-94.5 -23.5q-48 0 -94 14v52q49 -19 87 -19q27 0 42 10.5t15 30.5q0 32 -35 43.5t-99 10.5l54 63
q-98 16 -164.5 72t-99 138.5t-32.5 179.5q0 109 41 198.5t124 143t205 53.5q138 0 223 -69t101 -184h-157q-10 60 -56 92t-115 32q-103 0 -159.5 -72.5t-56.5 -193.5q0 -122 56.5 -194.5t159.5 -72.5q70 0 115 33.5z" />
    <glyph glyph-name="Cdotaccent" unicode="&#x10a;" horiz-adv-x="767" 
d="M204 39.5q-83 53.5 -124 143.5t-41 199t41 198.5t124 143t205 53.5q138 0 223 -69t101 -184h-157q-10 60 -56 92t-115 32q-103 0 -159.5 -72.5t-56.5 -193.5q0 -122 56.5 -194.5t159.5 -72.5q70 0 115 33.5t56 99.5h157q-16 -121 -100.5 -191.5t-223.5 -70.5
q-122 0 -205 53.5zM324.5 826.5q-23.5 20.5 -23.5 53.5t23.5 54t57.5 21t57 -21t23 -54t-23 -53.5t-57 -20.5t-57.5 20.5z" />
    <glyph glyph-name="D" unicode="D" horiz-adv-x="728" 
d="M68 763h222q193 0 296 -99t103 -283q0 -183 -103.5 -282t-295.5 -99h-222v763zM477.5 187.5q67.5 58.5 67.5 193.5q0 128 -68 190.5t-188 62.5h-77v-505h76q122 0 189.5 58.5z" />
    <glyph glyph-name="Eth" unicode="&#xd0;" horiz-adv-x="728" 
d="M586 664q103 -99 103 -283q0 -183 -103.5 -282t-295.5 -99h-222v331h-64v101h64v331h222q193 0 296 -99zM477.5 187.5q67.5 58.5 67.5 193.5q0 128 -68 190.5t-188 62.5h-77v-202h208v-101h-208v-202h76q122 0 189.5 58.5z" />
    <glyph glyph-name="Dcaron" unicode="&#x10e;" horiz-adv-x="728" 
d="M68 763h222q193 0 296 -99t103 -283q0 -183 -103.5 -282t-295.5 -99h-222v763zM477.5 187.5q67.5 58.5 67.5 193.5q0 128 -68 190.5t-188 62.5h-77v-505h76q122 0 189.5 58.5zM178 965h118l23 -29q25 -36 25 -54h14q0 18 25 54l23 29h118l-166 -174h-14z" />
    <glyph glyph-name="Dcroat" unicode="&#x110;" horiz-adv-x="728" 
d="M586 664q103 -99 103 -283q0 -183 -103.5 -282t-295.5 -99h-222v331h-64v101h64v331h222q193 0 296 -99zM477.5 187.5q67.5 58.5 67.5 193.5q0 128 -68 190.5t-188 62.5h-77v-202h208v-101h-208v-202h76q122 0 189.5 58.5z" />
    <glyph glyph-name="E" unicode="E" horiz-adv-x="621" 
d="M68 0v763h509v-129h-365v-188h327v-128h-327v-189h365v-129h-509z" />
    <glyph glyph-name="Eacute" unicode="&#xc9;" horiz-adv-x="621" 
d="M68 0v763h509v-129h-365v-188h327v-128h-327v-189h365v-129h-509zM263 817l115 148h139l-150 -148h-104z" />
    <glyph glyph-name="Ecaron" unicode="&#x11a;" horiz-adv-x="621" 
d="M68 0v763h509v-129h-365v-188h327v-128h-327v-189h365v-129h-509zM150 965h118l23 -29q25 -36 25 -54h14q0 18 25 54l23 29h118l-166 -174h-14z" />
    <glyph glyph-name="Ecircumflex" unicode="&#xca;" horiz-adv-x="621" 
d="M68 0v763h509v-129h-365v-188h327v-128h-327v-189h365v-129h-509zM316 995h14l166 -175h-118l-23 30q-25 34 -25 54h-14q0 -20 -25 -54l-23 -30h-118z" />
    <glyph glyph-name="Edieresis" unicode="&#xcb;" horiz-adv-x="621" 
d="M68 0v763h509v-129h-365v-188h327v-128h-327v-189h365v-129h-509zM159.5 826.5q-23.5 20.5 -23.5 53.5t23.5 54t57.5 21t57 -21t23 -54t-23 -53.5t-57 -20.5t-57.5 20.5zM371 826.5q-23 20.5 -23 53.5t23 54t57 21t57.5 -21t23.5 -54t-23.5 -53.5t-57.5 -20.5t-57 20.5z
" />
    <glyph glyph-name="Edotaccent" unicode="&#x116;" horiz-adv-x="621" 
d="M68 0v763h509v-129h-365v-188h327v-128h-327v-189h365v-129h-509zM265.5 826.5q-23.5 20.5 -23.5 53.5t23.5 54t57.5 21t57 -21t23 -54t-23 -53.5t-57 -20.5t-57.5 20.5z" />
    <glyph glyph-name="Egrave" unicode="&#xc8;" horiz-adv-x="621" 
d="M68 0v763h509v-129h-365v-188h327v-128h-327v-189h365v-129h-509zM383 817h-104l-150 148h139z" />
    <glyph glyph-name="Emacron" unicode="&#x112;" horiz-adv-x="621" 
d="M68 0v763h509v-129h-365v-188h327v-128h-327v-189h365v-129h-509zM173 837v64h299v-64h-299z" />
    <glyph glyph-name="Eogonek" unicode="&#x118;" horiz-adv-x="621" 
d="M68 0v763h509v-129h-365v-188h327v-128h-327v-189h365v-129h-509zM423.5 -190.5q-29.5 22.5 -29.5 63.5q0 39 23.5 64t79.5 45v18h80q-54 -40 -70.5 -56.5t-16.5 -36.5q0 -18 10.5 -27.5t31.5 -9.5q20 0 45 11v-83q-33 -11 -69 -11q-55 0 -84.5 22.5z" />
    <glyph glyph-name="F" unicode="F" horiz-adv-x="604" 
d="M68 0v763h509v-129h-365v-188h327v-128h-327v-318h-144z" />
    <glyph glyph-name="G" unicode="G" horiz-adv-x="819" 
d="M204.5 40q-83.5 54 -124.5 144t-41 198t41 197.5t124.5 143.5t206.5 54q144 0 233 -68t113 -185h-158q-19 60 -66.5 92t-122.5 32q-71 0 -120.5 -34.5t-75 -94.5t-25.5 -136q0 -120 60.5 -194t173.5 -74q69 0 118.5 28.5t68.5 78.5q7 18 11 43q3 27 13 37l-12 12
q-14 -11 -27 -14.5t-39 -3.5h-104v119h312v-415h-131v109h-16q0 -51 -47 -83q-58 -40 -159 -40q-123 0 -206.5 54z" />
    <glyph glyph-name="Gbreve" unicode="&#x11e;" horiz-adv-x="819" 
d="M204.5 40q-83.5 54 -124.5 144t-41 198t41 197.5t124.5 143.5t206.5 54q144 0 233 -68t113 -185h-158q-19 60 -66.5 92t-122.5 32q-71 0 -120.5 -34.5t-75 -94.5t-25.5 -136q0 -120 60.5 -194t173.5 -74q69 0 118.5 28.5t68.5 78.5q7 18 11 43q3 27 13 37l-12 12
q-14 -11 -27 -14.5t-39 -3.5h-104v119h312v-415h-131v109h-16q0 -51 -47 -83q-58 -40 -159 -40q-123 0 -206.5 54zM287 849q-42 41 -46 114h79q5 -38 29.5 -57.5t60.5 -19.5q37 0 60.5 19.5t28.5 57.5h81q-4 -72 -48 -113.5t-122 -41.5q-81 0 -123 41z" />
    <glyph glyph-name="uni0122" unicode="&#x122;" horiz-adv-x="819" 
d="M204.5 40q-83.5 54 -124.5 144t-41 198t41 197.5t124.5 143.5t206.5 54q144 0 233 -68t113 -185h-158q-19 60 -66.5 92t-122.5 32q-71 0 -120.5 -34.5t-75 -94.5t-25.5 -136q0 -120 60.5 -194t173.5 -74q69 0 118.5 28.5t68.5 78.5q7 18 11 43q3 27 13 37l-12 12
q-14 -11 -27 -14.5t-39 -3.5h-104v119h312v-415h-131v109h-16q0 -51 -47 -83q-58 -40 -159 -40q-123 0 -206.5 54zM405.5 -159q18.5 9 21.5 25q2 3 2 13h-9q-6 -16 -30 -16q-19 0 -30.5 11.5t-11.5 32.5q0 23 16.5 37.5t42.5 14.5q34 0 53 -20t19 -52q0 -44 -31 -66.5
t-91 -22.5v34q30 0 48.5 9z" />
    <glyph glyph-name="Gdotaccent" unicode="&#x120;" horiz-adv-x="819" 
d="M204.5 40q-83.5 54 -124.5 144t-41 198t41 197.5t124.5 143.5t206.5 54q144 0 233 -68t113 -185h-158q-19 60 -66.5 92t-122.5 32q-71 0 -120.5 -34.5t-75 -94.5t-25.5 -136q0 -120 60.5 -194t173.5 -74q69 0 118.5 28.5t68.5 78.5q7 18 11 43q3 27 13 37l-12 12
q-14 -11 -27 -14.5t-39 -3.5h-104v119h312v-415h-131v109h-16q0 -51 -47 -83q-58 -40 -159 -40q-123 0 -206.5 54zM352.5 826.5q-23.5 20.5 -23.5 53.5t23.5 54t57.5 21t57 -21t23 -54t-23 -53.5t-57 -20.5t-57.5 20.5z" />
    <glyph glyph-name="H" unicode="H" horiz-adv-x="752" 
d="M68 0v763h144v-316h327v316h144v-763h-144v318h-327v-318h-144z" />
    <glyph glyph-name="I" unicode="I" horiz-adv-x="280" 
d="M68 0v763h144v-763h-144z" />
    <glyph glyph-name="Iacute" unicode="&#xcd;" horiz-adv-x="280" 
d="M68 0v763h144v-763h-144zM80 817l115 148h139l-150 -148h-104z" />
    <glyph glyph-name="Icircumflex" unicode="&#xce;" horiz-adv-x="280" 
d="M68 0v763h144v-763h-144zM133 995h14l166 -175h-118l-23 30q-25 34 -25 54h-14q0 -20 -25 -54l-23 -30h-118z" />
    <glyph glyph-name="Idieresis" unicode="&#xcf;" horiz-adv-x="280" 
d="M68 0v763h144v-763h-144zM-23.5 826.5q-23.5 20.5 -23.5 53.5t23.5 54t57.5 21t57 -21t23 -54t-23 -53.5t-57 -20.5t-57.5 20.5zM188 826.5q-23 20.5 -23 53.5t23 54t57 21t57.5 -21t23.5 -54t-23.5 -53.5t-57.5 -20.5t-57 20.5z" />
    <glyph glyph-name="Idotaccent" unicode="&#x130;" horiz-adv-x="280" 
d="M68 0v763h144v-763h-144zM82.5 826.5q-23.5 20.5 -23.5 53.5t23.5 54t57.5 21t57 -21t23 -54t-23 -53.5t-57 -20.5t-57.5 20.5z" />
    <glyph glyph-name="Igrave" unicode="&#xcc;" horiz-adv-x="280" 
d="M68 0v763h144v-763h-144zM200 817h-104l-150 148h139z" />
    <glyph glyph-name="Imacron" unicode="&#x12a;" horiz-adv-x="280" 
d="M68 0v763h144v-763h-144zM-10 837v64h299v-64h-299z" />
    <glyph glyph-name="Iogonek" unicode="&#x12e;" horiz-adv-x="280" 
d="M68 0v763h144v-763h-144zM58.5 -190.5q-29.5 22.5 -29.5 63.5q0 39 23.5 64t79.5 45v18h80q-54 -40 -70.5 -56.5t-16.5 -36.5q0 -18 10.5 -27.5t31.5 -9.5q20 0 45 11v-83q-33 -11 -69 -11q-55 0 -84.5 22.5z" />
    <glyph glyph-name="J" unicode="J" horiz-adv-x="394" 
d="M11 129h97q39 0 58.5 18.5t19.5 58.5v557h144v-559q0 -76 -21.5 -120t-69.5 -64t-131 -20h-97v129z" />
    <glyph glyph-name="K" unicode="K" horiz-adv-x="670" 
d="M68 763h144v-351h16q0 21 10.5 39.5t25.5 39.5l217 272h176l-304 -368l314 -395h-179l-224 285q-24 33 -57 84l-13 -10q11 -14 14.5 -28.5t3.5 -51.5v-279h-144v763z" />
    <glyph glyph-name="uni0136" unicode="&#x136;" horiz-adv-x="670" 
d="M68 763h144v-351h16q0 21 10.5 39.5t25.5 39.5l217 272h176l-304 -368l314 -395h-179l-224 285q-24 33 -57 84l-13 -10q11 -14 14.5 -28.5t3.5 -51.5v-279h-144v763zM331.5 -159q18.5 9 21.5 25q2 3 2 13h-9q-6 -16 -30 -16q-19 0 -30.5 11.5t-11.5 32.5q0 23 16.5 37.5
t42.5 14.5q34 0 53 -20t19 -52q0 -44 -31 -66.5t-91 -22.5v34q30 0 48.5 9z" />
    <glyph glyph-name="L" unicode="L" horiz-adv-x="546" 
d="M68 0v763h144v-634h323v-129h-467z" />
    <glyph glyph-name="Lacute" unicode="&#x139;" horiz-adv-x="546" 
d="M68 0v763h144v-634h323v-129h-467zM80 817l115 148h139l-150 -148h-104z" />
    <glyph glyph-name="Lcaron" unicode="&#x13d;" horiz-adv-x="546" 
d="M68 0v763h144v-634h323v-129h-467zM449 557.5q29 29.5 25 79.5h-12q-7 -22 -38 -22q-27 0 -47 21t-20 56q0 36 24 59t63 23q50 0 76.5 -36.5t26.5 -96.5q0 -72 -44.5 -126t-138.5 -60v70q56 3 85 32.5z" />
    <glyph glyph-name="uni013B" unicode="&#x13b;" horiz-adv-x="546" 
d="M68 0v763h144v-634h323v-129h-467zM297.5 -159q18.5 9 21.5 25q2 3 2 13h-9q-6 -16 -30 -16q-19 0 -30.5 11.5t-11.5 32.5q0 23 16.5 37.5t42.5 14.5q34 0 53 -20t19 -52q0 -44 -31 -66.5t-91 -22.5v34q30 0 48.5 9z" />
    <glyph glyph-name="Lslash" unicode="&#x141;" horiz-adv-x="584" 
d="M109 0v303l-75 -36v114l75 38v344h144v-270l164 85v-114l-164 -85v-250h323v-129h-467z" />
    <glyph glyph-name="M" unicode="M" horiz-adv-x="929" 
d="M68 763h238l132 -489q18 -59 18 -130h16q0 71 18 130l131 489h240v-763h-144v524q0 58 6 118l-16 2q-9 -60 -26 -120l-146 -524h-141l-148 524q-15 52 -25 120l-16 -2q5 -41 6 -66.5t1 -51.5v-524h-144v763z" />
    <glyph glyph-name="N" unicode="N" horiz-adv-x="755" 
d="M68 763h162l263 -459q12 -20 21 -41t20 -58l16 4q-7 48 -7 94v460h144v-763h-163l-263 462q-13 22 -21.5 41.5t-18.5 54.5l-16 -3q7 -48 7 -95v-460h-144v763z" />
    <glyph glyph-name="Nacute" unicode="&#x143;" horiz-adv-x="755" 
d="M68 763h162l263 -459q12 -20 21 -41t20 -58l16 4q-7 48 -7 94v460h144v-763h-163l-263 462q-13 22 -21.5 41.5t-18.5 54.5l-16 -3q7 -48 7 -95v-460h-144v763zM318 817l115 148h139l-150 -148h-104z" />
    <glyph glyph-name="Ncaron" unicode="&#x147;" horiz-adv-x="755" 
d="M68 763h162l263 -459q12 -20 21 -41t20 -58l16 4q-7 48 -7 94v460h144v-763h-163l-263 462q-13 22 -21.5 41.5t-18.5 54.5l-16 -3q7 -48 7 -95v-460h-144v763zM204 965h118l23 -29q25 -36 25 -54h14q0 18 25 54l23 29h118l-166 -174h-14z" />
    <glyph glyph-name="uni0145" unicode="&#x145;" horiz-adv-x="755" 
d="M68 763h162l263 -459q12 -20 21 -41t20 -58l16 4q-7 48 -7 94v460h144v-763h-163l-263 462q-13 22 -21.5 41.5t-18.5 54.5l-16 -3q7 -48 7 -95v-460h-144v763zM373.5 -159q18.5 9 21.5 25q2 3 2 13h-9q-6 -16 -30 -16q-19 0 -30.5 11.5t-11.5 32.5q0 23 16.5 37.5
t42.5 14.5q34 0 53 -20t19 -52q0 -44 -31 -66.5t-91 -22.5v34q30 0 48.5 9z" />
    <glyph glyph-name="Ntilde" unicode="&#xd1;" horiz-adv-x="755" 
d="M68 763h162l263 -459q12 -20 21 -41t20 -58l16 4q-7 48 -7 94v460h144v-763h-163l-263 462q-13 22 -21.5 41.5t-18.5 54.5l-16 -3q7 -48 7 -95v-460h-144v763zM391 820.5q-20 12.5 -45 35.5q-12 13 -21 19.5t-18 6.5q-31 0 -34 -72h-80q3 74 34.5 116.5t84.5 42.5
q30 0 51 -13t42 -35q15 -14 23.5 -20t17.5 -6q12 0 20.5 17.5t10.5 52.5h83q-5 -80 -32 -118.5t-83 -38.5q-34 0 -54 12.5z" />
    <glyph glyph-name="O" unicode="O" horiz-adv-x="820" 
d="M204.5 39.5q-83.5 53.5 -124.5 143.5t-41 199t41 198.5t124.5 143t204.5 53.5q122 0 205.5 -53.5t124.5 -143t41 -198.5t-41 -199t-124.5 -143.5t-205.5 -53.5q-121 0 -204.5 53.5zM571.5 188q58.5 73 58.5 194t-58.5 193t-162.5 72q-103 0 -161.5 -72.5t-58.5 -192.5
q0 -121 58.5 -194t161.5 -73q104 0 162.5 73z" />
    <glyph glyph-name="Oacute" unicode="&#xd3;" horiz-adv-x="820" 
d="M204.5 39.5q-83.5 53.5 -124.5 143.5t-41 199t41 198.5t124.5 143t204.5 53.5q122 0 205.5 -53.5t124.5 -143t41 -198.5t-41 -199t-124.5 -143.5t-205.5 -53.5q-121 0 -204.5 53.5zM571.5 188q58.5 73 58.5 194t-58.5 193t-162.5 72q-103 0 -161.5 -72.5t-58.5 -192.5
q0 -121 58.5 -194t161.5 -73q104 0 162.5 73zM350 817l115 148h139l-150 -148h-104z" />
    <glyph glyph-name="Ocircumflex" unicode="&#xd4;" horiz-adv-x="820" 
d="M204.5 39.5q-83.5 53.5 -124.5 143.5t-41 199t41 198.5t124.5 143t204.5 53.5q122 0 205.5 -53.5t124.5 -143t41 -198.5t-41 -199t-124.5 -143.5t-205.5 -53.5q-121 0 -204.5 53.5zM571.5 188q58.5 73 58.5 194t-58.5 193t-162.5 72q-103 0 -161.5 -72.5t-58.5 -192.5
q0 -121 58.5 -194t161.5 -73q104 0 162.5 73zM402 995h14l166 -175h-118l-23 30q-25 34 -25 54h-14q0 -20 -25 -54l-23 -30h-118z" />
    <glyph glyph-name="Odieresis" unicode="&#xd6;" horiz-adv-x="820" 
d="M204.5 39.5q-83.5 53.5 -124.5 143.5t-41 199t41 198.5t124.5 143t204.5 53.5q122 0 205.5 -53.5t124.5 -143t41 -198.5t-41 -199t-124.5 -143.5t-205.5 -53.5q-121 0 -204.5 53.5zM571.5 188q58.5 73 58.5 194t-58.5 193t-162.5 72q-103 0 -161.5 -72.5t-58.5 -192.5
q0 -121 58.5 -194t161.5 -73q104 0 162.5 73zM245.5 826.5q-23.5 20.5 -23.5 53.5t23.5 54t57.5 21t57 -21t23 -54t-23 -53.5t-57 -20.5t-57.5 20.5zM457 826.5q-23 20.5 -23 53.5t23 54t57 21t57.5 -21t23.5 -54t-23.5 -53.5t-57.5 -20.5t-57 20.5z" />
    <glyph glyph-name="Ograve" unicode="&#xd2;" horiz-adv-x="820" 
d="M204.5 39.5q-83.5 53.5 -124.5 143.5t-41 199t41 198.5t124.5 143t204.5 53.5q122 0 205.5 -53.5t124.5 -143t41 -198.5t-41 -199t-124.5 -143.5t-205.5 -53.5q-121 0 -204.5 53.5zM571.5 188q58.5 73 58.5 194t-58.5 193t-162.5 72q-103 0 -161.5 -72.5t-58.5 -192.5
q0 -121 58.5 -194t161.5 -73q104 0 162.5 73zM469 817h-104l-150 148h139z" />
    <glyph glyph-name="Ohungarumlaut" unicode="&#x150;" horiz-adv-x="820" 
d="M204.5 39.5q-83.5 53.5 -124.5 143.5t-41 199t41 198.5t124.5 143t204.5 53.5q122 0 205.5 -53.5t124.5 -143t41 -198.5t-41 -199t-124.5 -143.5t-205.5 -53.5q-121 0 -204.5 53.5zM571.5 188q58.5 73 58.5 194t-58.5 193t-162.5 72q-103 0 -161.5 -72.5t-58.5 -192.5
q0 -121 58.5 -194t161.5 -73q104 0 162.5 73zM258 817l116 148h127l-139 -148h-104zM457 817l117 148h136l-149 -148h-104z" />
    <glyph glyph-name="Omacron" unicode="&#x14c;" horiz-adv-x="820" 
d="M204.5 39.5q-83.5 53.5 -124.5 143.5t-41 199t41 198.5t124.5 143t204.5 53.5q122 0 205.5 -53.5t124.5 -143t41 -198.5t-41 -199t-124.5 -143.5t-205.5 -53.5q-121 0 -204.5 53.5zM571.5 188q58.5 73 58.5 194t-58.5 193t-162.5 72q-103 0 -161.5 -72.5t-58.5 -192.5
q0 -121 58.5 -194t161.5 -73q104 0 162.5 73zM260 837v64h299v-64h-299z" />
    <glyph glyph-name="Oslash" unicode="&#xd8;" horiz-adv-x="820" 
d="M763 514q17 -63 17 -132q0 -109 -41 -199t-124.5 -143.5t-205.5 -53.5q-155 0 -249 88l-55 -55l-60 58l60 60q-66 103 -66 245q0 109 41 198.5t124.5 143t204.5 53.5q153 0 250 -87l55 55l59 -58l-60 -60q33 -50 50 -113zM214 245l344 344q-58 58 -149 58
q-103 0 -161.5 -72.5t-58.5 -192.5q0 -76 25 -137zM571.5 188q58.5 73 58.5 194q0 76 -25 137l-345 -345q57 -59 149 -59q104 0 162.5 73z" />
    <glyph glyph-name="Oslashacute" unicode="&#x1fe;" horiz-adv-x="820" 
d="M763 514q17 -63 17 -132q0 -109 -41 -199t-124.5 -143.5t-205.5 -53.5q-155 0 -249 88l-55 -55l-60 58l60 60q-66 103 -66 245q0 109 41 198.5t124.5 143t204.5 53.5q153 0 250 -87l55 55l59 -58l-60 -60q33 -50 50 -113zM214 245l344 344q-58 58 -149 58
q-103 0 -161.5 -72.5t-58.5 -192.5q0 -76 25 -137zM571.5 188q58.5 73 58.5 194q0 76 -25 137l-345 -345q57 -59 149 -59q104 0 162.5 73zM350 817l115 148h139l-150 -148h-104z" />
    <glyph glyph-name="Otilde" unicode="&#xd5;" horiz-adv-x="820" 
d="M204.5 39.5q-83.5 53.5 -124.5 143.5t-41 199t41 198.5t124.5 143t204.5 53.5q122 0 205.5 -53.5t124.5 -143t41 -198.5t-41 -199t-124.5 -143.5t-205.5 -53.5q-121 0 -204.5 53.5zM571.5 188q58.5 73 58.5 194t-58.5 193t-162.5 72q-103 0 -161.5 -72.5t-58.5 -192.5
q0 -121 58.5 -194t161.5 -73q104 0 162.5 73zM423 820.5q-20 12.5 -45 35.5q-12 13 -21 19.5t-18 6.5q-31 0 -34 -72h-80q3 74 34.5 116.5t84.5 42.5q30 0 51 -13t42 -35q15 -14 23.5 -20t17.5 -6q12 0 20.5 17.5t10.5 52.5h83q-5 -80 -32 -118.5t-83 -38.5q-34 0 -54 12.5z
" />
    <glyph glyph-name="OE" unicode="&#x152;" horiz-adv-x="1185" 
d="M201.5 39.5q-81.5 53.5 -122 143.5t-40.5 199t40.5 198.5t122 143t197.5 53.5q75 0 135.5 -28t95.5 -76l12 5q-6 19 -8 31t-2 27v27h509v-129h-365v-188h327v-128h-327v-189h365v-129h-509v26q0 30 10 59l-11 6q-36 -51 -96 -78t-136 -27q-116 0 -197.5 53.5zM571.5 188
q58.5 73 58.5 194t-58.5 193t-162.5 72q-103 0 -161.5 -72.5t-58.5 -192.5q0 -121 58.5 -194t161.5 -73q104 0 162.5 73z" />
    <glyph glyph-name="P" unicode="P" horiz-adv-x="666" 
d="M68 763h329q112 0 177 -55.5t65 -169.5q0 -72 -30.5 -124.5t-85 -80.5t-126.5 -28h-185v-305h-144v763zM465.5 457q30.5 26 30.5 76q0 49 -31 75t-88 26h-165v-203h165q58 0 88.5 26z" />
    <glyph glyph-name="Thorn" unicode="&#xde;" horiz-adv-x="660" 
d="M68 763h143v-103h185q112 0 177 -55t65 -166q0 -70 -30.5 -121.5t-85 -79t-126.5 -27.5h-185v-211h-143v763zM465.5 361.5q29.5 24.5 29.5 73.5q0 46 -30 70.5t-85 24.5h-169v-193h169q56 0 85.5 24.5z" />
    <glyph glyph-name="Q" unicode="Q" horiz-adv-x="822" 
d="M564.5 -14q-4.5 14 -4.5 41l-13 5q-21 -23 -59 -35q-33 -11 -79 -11q-121 0 -204.5 53.5t-124.5 143.5t-41 199t41 198.5t124.5 143t204.5 53.5q122 0 205.5 -53.5t124.5 -143t41 -198.5q0 -92 -29.5 -171t-86.5 -133l104 -165h-161l-28 43q-10 16 -14.5 30zM572 186
q58 71 58 196q0 124 -58 195t-163 71q-104 0 -162 -71t-58 -195t58 -195.5t162 -71.5q105 0 163 71z" />
    <glyph glyph-name="R" unicode="R" horiz-adv-x="689" 
d="M68 763h329q112 0 177 -55.5t65 -169.5q0 -44 -12 -82.5t-34 -65.5q-37 -45 -86 -43l-5 -13q16 -13 24 -26.5t19 -41.5l111 -266h-152l-121 306h-171v-306h-144v763zM465.5 457q30.5 26 30.5 76q0 49 -31 75t-88 26h-165v-203h165q58 0 88.5 26z" />
    <glyph glyph-name="Racute" unicode="&#x154;" horiz-adv-x="689" 
d="M68 763h329q112 0 177 -55.5t65 -169.5q0 -44 -12 -82.5t-34 -65.5q-37 -45 -86 -43l-5 -13q16 -13 24 -26.5t19 -41.5l111 -266h-152l-121 306h-171v-306h-144v763zM465.5 457q30.5 26 30.5 76q0 49 -31 75t-88 26h-165v-203h165q58 0 88.5 26zM274 817l115 148h139
l-150 -148h-104z" />
    <glyph glyph-name="Rcaron" unicode="&#x158;" horiz-adv-x="689" 
d="M68 763h329q112 0 177 -55.5t65 -169.5q0 -44 -12 -82.5t-34 -65.5q-37 -45 -86 -43l-5 -13q16 -13 24 -26.5t19 -41.5l111 -266h-152l-121 306h-171v-306h-144v763zM465.5 457q30.5 26 30.5 76q0 49 -31 75t-88 26h-165v-203h165q58 0 88.5 26zM161 965h118l23 -29
q25 -36 25 -54h14q0 18 25 54l23 29h118l-166 -174h-14z" />
    <glyph glyph-name="uni0156" unicode="&#x156;" horiz-adv-x="689" 
d="M68 763h329q112 0 177 -55.5t65 -169.5q0 -44 -12 -82.5t-34 -65.5q-37 -45 -86 -43l-5 -13q16 -13 24 -26.5t19 -41.5l111 -266h-152l-121 306h-171v-306h-144v763zM465.5 457q30.5 26 30.5 76q0 49 -31 75t-88 26h-165v-203h165q58 0 88.5 26zM353.5 -159
q18.5 9 21.5 25q2 3 2 13h-9q-6 -16 -30 -16q-19 0 -30.5 11.5t-11.5 32.5q0 23 16.5 37.5t42.5 14.5q34 0 53 -20t19 -52q0 -44 -31 -66.5t-91 -22.5v34q30 0 48.5 9z" />
    <glyph glyph-name="S" unicode="S" horiz-adv-x="696" 
d="M218 12q-73 26 -123.5 84.5t-59.5 151.5h149q17 -75 68 -107t120 -32q63 0 101 26.5t38 78.5q0 37 -24 59.5t-60.5 34t-99.5 25.5q-86 19 -138.5 39t-90.5 63t-38 118q0 72 35 122.5t96 76t139 25.5q76 0 141 -26.5t109 -81t56 -133.5h-147q-14 59 -57.5 88.5
t-104.5 29.5q-56 0 -90 -23.5t-34 -65.5q0 -33 23 -53t57 -31t95 -25q87 -19 142.5 -40t95.5 -68t40 -127q0 -109 -75.5 -172t-209.5 -63q-80 0 -153 26z" />
    <glyph glyph-name="Sacute" unicode="&#x15a;" horiz-adv-x="696" 
d="M218 12q-73 26 -123.5 84.5t-59.5 151.5h149q17 -75 68 -107t120 -32q63 0 101 26.5t38 78.5q0 37 -24 59.5t-60.5 34t-99.5 25.5q-86 19 -138.5 39t-90.5 63t-38 118q0 72 35 122.5t96 76t139 25.5q76 0 141 -26.5t109 -81t56 -133.5h-147q-14 59 -57.5 88.5
t-104.5 29.5q-56 0 -90 -23.5t-34 -65.5q0 -33 23 -53t57 -31t95 -25q87 -19 142.5 -40t95.5 -68t40 -127q0 -109 -75.5 -172t-209.5 -63q-80 0 -153 26zM288 817l115 148h139l-150 -148h-104z" />
    <glyph glyph-name="Scaron" unicode="&#x160;" horiz-adv-x="696" 
d="M218 12q-73 26 -123.5 84.5t-59.5 151.5h149q17 -75 68 -107t120 -32q63 0 101 26.5t38 78.5q0 37 -24 59.5t-60.5 34t-99.5 25.5q-86 19 -138.5 39t-90.5 63t-38 118q0 72 35 122.5t96 76t139 25.5q76 0 141 -26.5t109 -81t56 -133.5h-147q-14 59 -57.5 88.5
t-104.5 29.5q-56 0 -90 -23.5t-34 -65.5q0 -33 23 -53t57 -31t95 -25q87 -19 142.5 -40t95.5 -68t40 -127q0 -109 -75.5 -172t-209.5 -63q-80 0 -153 26zM175 965h118l23 -29q25 -36 25 -54h14q0 18 25 54l23 29h118l-166 -174h-14z" />
    <glyph glyph-name="Scedilla" unicode="&#x15e;" horiz-adv-x="696" 
d="M580.5 49q-75.5 -63 -209.5 -63q-15 -14 -33 -25l6 -9q20 2 26 2q29 0 49 -10q22 -10 32.5 -26t10.5 -40q0 -44 -36.5 -67.5t-94.5 -23.5q-48 0 -94 14v52q49 -19 87 -19q27 0 42 10.5t15 30.5q0 32 -35 43.5t-99 10.5l53 62q-106 16 -180 78.5t-85 178.5h149
q17 -75 68 -107t120 -32q63 0 101 26.5t38 78.5q0 37 -24 59.5t-60.5 34t-99.5 25.5q-86 19 -138.5 39t-90.5 63t-38 118q0 72 35 122.5t96 76t139 25.5q76 0 141 -26.5t109 -81t56 -133.5h-147q-14 59 -57.5 88.5t-104.5 29.5q-56 0 -90 -23.5t-34 -65.5q0 -33 23 -53
t57 -31t95 -25q87 -19 142.5 -40t95.5 -68t40 -127q0 -109 -75.5 -172z" />
    <glyph glyph-name="uni0218" unicode="&#x218;" horiz-adv-x="696" 
d="M218 12q-73 26 -123.5 84.5t-59.5 151.5h149q17 -75 68 -107t120 -32q63 0 101 26.5t38 78.5q0 37 -24 59.5t-60.5 34t-99.5 25.5q-86 19 -138.5 39t-90.5 63t-38 118q0 72 35 122.5t96 76t139 25.5q76 0 141 -26.5t109 -81t56 -133.5h-147q-14 59 -57.5 88.5
t-104.5 29.5q-56 0 -90 -23.5t-34 -65.5q0 -33 23 -53t57 -31t95 -25q87 -19 142.5 -40t95.5 -68t40 -127q0 -109 -75.5 -172t-209.5 -63q-80 0 -153 26zM343.5 -159q18.5 9 21.5 25q2 3 2 13h-9q-6 -16 -30 -16q-19 0 -30.5 11.5t-11.5 32.5q0 23 16.5 37.5t42.5 14.5
q34 0 53 -20t19 -52q0 -44 -31 -66.5t-91 -22.5v34q30 0 48.5 9z" />
    <glyph glyph-name="uni1E9E" unicode="&#x1e9e;" horiz-adv-x="698" 
d="M86.5 615.5q18.5 57.5 57.5 93.5q70 68 206 68q74 0 132.5 -25t108.5 -70v-121l-73 -71q-26 -26 -59 -46l4 -14q6 1 17 1q33 0 64 -13q52 -20 83 -71.5t31 -118.5q0 -135 -89 -181.5t-186 -46.5h-95v129h96q51 0 90 23.5t39 79.5q0 58 -35.5 79.5t-90.5 21.5h-58v131
l98 95q17 17 32 24.5t34 7.5v16q-14 0 -24.5 4.5t-19.5 10t-14 7.5q-34 18 -85 18q-68 0 -100 -36q-19 -19 -28.5 -51t-9.5 -87v-473h-144v473q0 85 18.5 142.5z" />
    <glyph glyph-name="T" unicode="T" horiz-adv-x="630" 
d="M243 0v634h-233v129h609v-129h-232v-634h-144z" />
    <glyph glyph-name="Tcaron" unicode="&#x164;" horiz-adv-x="630" 
d="M243 0v634h-233v129h609v-129h-232v-634h-144zM142 965h118l23 -29q25 -36 25 -54h14q0 18 25 54l23 29h118l-166 -174h-14z" />
    <glyph glyph-name="uni0162" unicode="&#x162;" horiz-adv-x="630" 
d="M354 0q-27 -24 -49 -39l6 -9q20 2 26 2q29 0 49 -10q22 -10 32.5 -26t10.5 -40q0 -44 -36.5 -67.5t-94.5 -23.5q-48 0 -94 14v52q49 -19 87 -19q27 0 42 10.5t15 30.5q0 32 -35 43.5t-99 10.5l61 71h-32v634h-233v129h609v-129h-232v-634h-33z" />
    <glyph glyph-name="uni021A" unicode="&#x21a;" horiz-adv-x="630" 
d="M243 0v634h-233v129h609v-129h-232v-634h-144zM311.5 -159q18.5 9 21.5 25q2 3 2 13h-9q-6 -16 -30 -16q-19 0 -30.5 11.5t-11.5 32.5q0 23 16.5 37.5t42.5 14.5q34 0 53 -20t19 -52q0 -44 -31 -66.5t-91 -22.5v34q30 0 48.5 9z" />
    <glyph glyph-name="U" unicode="U" horiz-adv-x="737" 
d="M135 63.5q-75 77.5 -75 213.5v486h145v-486q0 -77 38 -119.5t125 -42.5t125 42.5t38 119.5v486h145v-486q0 -136 -75.5 -213.5t-232.5 -77.5q-158 0 -233 77.5z" />
    <glyph glyph-name="Uacute" unicode="&#xda;" horiz-adv-x="737" 
d="M135 63.5q-75 77.5 -75 213.5v486h145v-486q0 -77 38 -119.5t125 -42.5t125 42.5t38 119.5v486h145v-486q0 -136 -75.5 -213.5t-232.5 -77.5q-158 0 -233 77.5zM309 817l115 148h139l-150 -148h-104z" />
    <glyph glyph-name="Ucircumflex" unicode="&#xdb;" horiz-adv-x="737" 
d="M135 63.5q-75 77.5 -75 213.5v486h145v-486q0 -77 38 -119.5t125 -42.5t125 42.5t38 119.5v486h145v-486q0 -136 -75.5 -213.5t-232.5 -77.5q-158 0 -233 77.5zM361 995h14l166 -175h-118l-23 30q-25 34 -25 54h-14q0 -20 -25 -54l-23 -30h-118z" />
    <glyph glyph-name="Udieresis" unicode="&#xdc;" horiz-adv-x="737" 
d="M135 63.5q-75 77.5 -75 213.5v486h145v-486q0 -77 38 -119.5t125 -42.5t125 42.5t38 119.5v486h145v-486q0 -136 -75.5 -213.5t-232.5 -77.5q-158 0 -233 77.5zM204.5 826.5q-23.5 20.5 -23.5 53.5t23.5 54t57.5 21t57 -21t23 -54t-23 -53.5t-57 -20.5t-57.5 20.5z
M416 826.5q-23 20.5 -23 53.5t23 54t57 21t57.5 -21t23.5 -54t-23.5 -53.5t-57.5 -20.5t-57 20.5z" />
    <glyph glyph-name="Ugrave" unicode="&#xd9;" horiz-adv-x="737" 
d="M135 63.5q-75 77.5 -75 213.5v486h145v-486q0 -77 38 -119.5t125 -42.5t125 42.5t38 119.5v486h145v-486q0 -136 -75.5 -213.5t-232.5 -77.5q-158 0 -233 77.5zM428 817h-104l-150 148h139z" />
    <glyph glyph-name="Uhungarumlaut" unicode="&#x170;" horiz-adv-x="737" 
d="M135 63.5q-75 77.5 -75 213.5v486h145v-486q0 -77 38 -119.5t125 -42.5t125 42.5t38 119.5v486h145v-486q0 -136 -75.5 -213.5t-232.5 -77.5q-158 0 -233 77.5zM217 817l116 148h127l-139 -148h-104zM416 817l117 148h136l-149 -148h-104z" />
    <glyph glyph-name="Umacron" unicode="&#x16a;" horiz-adv-x="737" 
d="M135 63.5q-75 77.5 -75 213.5v486h145v-486q0 -77 38 -119.5t125 -42.5t125 42.5t38 119.5v486h145v-486q0 -136 -75.5 -213.5t-232.5 -77.5q-158 0 -233 77.5zM219 837v64h299v-64h-299z" />
    <glyph glyph-name="Uogonek" unicode="&#x172;" horiz-adv-x="737" 
d="M676 763v-486q0 -113 -52 -186t-160 -96q-49 -36 -64.5 -52t-15.5 -36q0 -18 10.5 -27.5t31.5 -9.5q20 0 45 11v-83q-33 -11 -69 -11q-55 0 -84.5 22.5t-29.5 63.5q0 39 23.5 64t79.5 45v4h-23q-158 0 -233 77.5t-75 213.5v486h145v-486q0 -77 38 -119.5t125 -42.5
t125 42.5t38 119.5v486h145z" />
    <glyph glyph-name="Uring" unicode="&#x16e;" horiz-adv-x="737" 
d="M135 63.5q-75 77.5 -75 213.5v486h145v-486q0 -77 38 -119.5t125 -42.5t125 42.5t38 119.5v486h145v-486q0 -136 -75.5 -213.5t-232.5 -77.5q-158 0 -233 77.5zM304 791.5q-29 17.5 -46 47t-17 63.5q0 53 37 90t90 37q34 0 63.5 -17t47 -46t17.5 -64t-17 -64t-46.5 -46.5
t-64.5 -17.5t-64 17.5zM405.5 864.5q14.5 15.5 14.5 39.5q0 22 -14 36t-38 14t-38 -14t-14 -36q0 -24 15 -39.5t37 -15.5q23 0 37.5 15.5z" />
    <glyph glyph-name="V" unicode="V" horiz-adv-x="702" 
d="M3 763h151l171 -521q18 -58 18 -97h16q0 36 19 97l170 521h151l-269 -763h-158z" />
    <glyph glyph-name="W" unicode="W" horiz-adv-x="1112" 
d="M15 763h151l134 -539q8 -31 11 -48.5t3 -41.5h16q0 24 3 41.5t11 48.5l121 539h183l121 -539q1 -5 5 -23.5t6 -34.5t2 -32h16q0 24 3.5 42t11.5 48l134 539h151l-200 -763h-203l-123 542q-8 34 -8 78h-16q0 -41 -7 -78l-123 -542h-204z" />
    <glyph glyph-name="Wacute" unicode="&#x1e82;" horiz-adv-x="1112" 
d="M15 763h151l134 -539q8 -31 11 -48.5t3 -41.5h16q0 24 3 41.5t11 48.5l121 539h183l121 -539q1 -5 5 -23.5t6 -34.5t2 -32h16q0 24 3.5 42t11.5 48l134 539h151l-200 -763h-203l-123 542q-8 34 -8 78h-16q0 -41 -7 -78l-123 -542h-204zM496 817l115 148h139l-150 -148
h-104z" />
    <glyph glyph-name="Wcircumflex" unicode="&#x174;" horiz-adv-x="1112" 
d="M15 763h151l134 -539q8 -31 11 -48.5t3 -41.5h16q0 24 3 41.5t11 48.5l121 539h183l121 -539q1 -5 5 -23.5t6 -34.5t2 -32h16q0 24 3.5 42t11.5 48l134 539h151l-200 -763h-203l-123 542q-8 34 -8 78h-16q0 -41 -7 -78l-123 -542h-204zM549 995h14l166 -175h-118l-23 30
q-25 34 -25 54h-14q0 -20 -25 -54l-23 -30h-118z" />
    <glyph glyph-name="Wdieresis" unicode="&#x1e84;" horiz-adv-x="1112" 
d="M15 763h151l134 -539q8 -31 11 -48.5t3 -41.5h16q0 24 3 41.5t11 48.5l121 539h183l121 -539q1 -5 5 -23.5t6 -34.5t2 -32h16q0 24 3.5 42t11.5 48l134 539h151l-200 -763h-203l-123 542q-8 34 -8 78h-16q0 -41 -7 -78l-123 -542h-204zM392.5 826.5
q-23.5 20.5 -23.5 53.5t23.5 54t57.5 21t57 -21t23 -54t-23 -53.5t-57 -20.5t-57.5 20.5zM604 826.5q-23 20.5 -23 53.5t23 54t57 21t57.5 -21t23.5 -54t-23.5 -53.5t-57.5 -20.5t-57 20.5z" />
    <glyph glyph-name="Wgrave" unicode="&#x1e80;" horiz-adv-x="1112" 
d="M15 763h151l134 -539q8 -31 11 -48.5t3 -41.5h16q0 24 3 41.5t11 48.5l121 539h183l121 -539q1 -5 5 -23.5t6 -34.5t2 -32h16q0 24 3.5 42t11.5 48l134 539h151l-200 -763h-203l-123 542q-8 34 -8 78h-16q0 -41 -7 -78l-123 -542h-204zM616 817h-104l-150 148h139z" />
    <glyph glyph-name="X" unicode="X" horiz-adv-x="723" 
d="M263 381l-254 382h172l143 -224q18 -29 24 -44.5t6 -33.5h15q0 18 6 33.5t24 44.5l143 224h172l-254 -382l254 -381h-171l-142 213q-19 29 -25.5 46.5t-6.5 36.5h-15q0 -19 -6.5 -36.5t-25.5 -46.5l-142 -213h-171z" />
    <glyph glyph-name="Y" unicode="Y" horiz-adv-x="700" 
d="M275 299l-278 464h168l150 -262q16 -28 21.5 -43.5t5.5 -38.5h16q0 23 5.5 38.5t22.5 43.5l150 262h167l-277 -464v-299h-151v299z" />
    <glyph glyph-name="Yacute" unicode="&#xdd;" horiz-adv-x="700" 
d="M275 299l-278 464h168l150 -262q16 -28 21.5 -43.5t5.5 -38.5h16q0 23 5.5 38.5t22.5 43.5l150 262h167l-277 -464v-299h-151v299zM289 817l115 148h139l-150 -148h-104z" />
    <glyph glyph-name="Ycircumflex" unicode="&#x176;" horiz-adv-x="700" 
d="M275 299l-278 464h168l150 -262q16 -28 21.5 -43.5t5.5 -38.5h16q0 23 5.5 38.5t22.5 43.5l150 262h167l-277 -464v-299h-151v299zM342 995h14l166 -175h-118l-23 30q-25 34 -25 54h-14q0 -20 -25 -54l-23 -30h-118z" />
    <glyph glyph-name="Ydieresis" unicode="&#x178;" horiz-adv-x="700" 
d="M275 299l-278 464h168l150 -262q16 -28 21.5 -43.5t5.5 -38.5h16q0 23 5.5 38.5t22.5 43.5l150 262h167l-277 -464v-299h-151v299zM185.5 826.5q-23.5 20.5 -23.5 53.5t23.5 54t57.5 21t57 -21t23 -54t-23 -53.5t-57 -20.5t-57.5 20.5zM397 826.5q-23 20.5 -23 53.5
t23 54t57 21t57.5 -21t23.5 -54t-23.5 -53.5t-57.5 -20.5t-57 20.5z" />
    <glyph glyph-name="Ygrave" unicode="&#x1ef2;" horiz-adv-x="700" 
d="M275 299l-278 464h168l150 -262q16 -28 21.5 -43.5t5.5 -38.5h16q0 23 5.5 38.5t22.5 43.5l150 262h167l-277 -464v-299h-151v299zM409 817h-104l-150 148h139z" />
    <glyph glyph-name="Z" unicode="Z" horiz-adv-x="628" 
d="M27 99l342 472q26 38 52 61l-6 13q-18 -7 -34.5 -9t-48.5 -2h-283v129h546v-104l-336 -467q-27 -37 -53 -62l8 -13q17 7 33.5 9.5t44.5 2.5h304v-129h-569v99z" />
    <glyph glyph-name="Zacute" unicode="&#x179;" horiz-adv-x="628" 
d="M27 99l342 472q26 38 52 61l-6 13q-18 -7 -34.5 -9t-48.5 -2h-283v129h546v-104l-336 -467q-27 -37 -53 -62l8 -13q17 7 33.5 9.5t44.5 2.5h304v-129h-569v99zM256 817l115 148h139l-150 -148h-104z" />
    <glyph glyph-name="Zcaron" unicode="&#x17d;" horiz-adv-x="628" 
d="M27 99l342 472q26 38 52 61l-6 13q-18 -7 -34.5 -9t-48.5 -2h-283v129h546v-104l-336 -467q-27 -37 -53 -62l8 -13q17 7 33.5 9.5t44.5 2.5h304v-129h-569v99zM143 965h118l23 -29q25 -36 25 -54h14q0 18 25 54l23 29h118l-166 -174h-14z" />
    <glyph glyph-name="Zdotaccent" unicode="&#x17b;" horiz-adv-x="628" 
d="M27 99l342 472q26 38 52 61l-6 13q-18 -7 -34.5 -9t-48.5 -2h-283v129h546v-104l-336 -467q-27 -37 -53 -62l8 -13q17 7 33.5 9.5t44.5 2.5h304v-129h-569v99zM258.5 826.5q-23.5 20.5 -23.5 53.5t23.5 54t57.5 21t57 -21t23 -54t-23 -53.5t-57 -20.5t-57.5 20.5z" />
    <glyph glyph-name="a" unicode="a" horiz-adv-x="591" 
d="M90 32.5q-51 43.5 -51 121.5q0 84 64 128q46 32 131 48l167 31q0 50 -27 79q-25 27 -75 27q-39 0 -68.5 -23t-36.5 -62h-134q14 93 82 142t158 49q51 0 95 -14.5t75 -42.5q31 -27 45 -63t17.5 -72t3.5 -89v-292h-135v16q0 26 13 53l-15 8q-18 -37 -50 -58
q-45 -30 -126 -30q-82 0 -133 43.5zM328 111q32 15 51 44q9 15 14 29.5t11 40.5q2 12 6.5 17.5t13.5 6.5l-3 16q-80 -16 -103 -21l-48 -9q-54 -10 -78 -32q-18 -18 -18 -44q0 -31 22.5 -47.5t59.5 -16.5t72 16z" />
    <glyph glyph-name="aacute" unicode="&#xe1;" horiz-adv-x="591" 
d="M90 32.5q-51 43.5 -51 121.5q0 84 64 128q46 32 131 48l167 31q0 50 -27 79q-25 27 -75 27q-39 0 -68.5 -23t-36.5 -62h-134q14 93 82 142t158 49q51 0 95 -14.5t75 -42.5q31 -27 45 -63t17.5 -72t3.5 -89v-292h-135v16q0 26 13 53l-15 8q-18 -37 -50 -58
q-45 -30 -126 -30q-82 0 -133 43.5zM328 111q32 15 51 44q9 15 14 29.5t11 40.5q2 12 6.5 17.5t13.5 6.5l-3 16q-80 -16 -103 -21l-48 -9q-54 -10 -78 -32q-18 -18 -18 -44q0 -31 22.5 -47.5t59.5 -16.5t72 16zM243 615l115 148h139l-150 -148h-104z" />
    <glyph glyph-name="abreve" unicode="&#x103;" horiz-adv-x="591" 
d="M90 32.5q-51 43.5 -51 121.5q0 84 64 128q46 32 131 48l167 31q0 50 -27 79q-25 27 -75 27q-39 0 -68.5 -23t-36.5 -62h-134q14 93 82 142t158 49q51 0 95 -14.5t75 -42.5q31 -27 45 -63t17.5 -72t3.5 -89v-292h-135v16q0 26 13 53l-15 8q-18 -37 -50 -58
q-45 -30 -126 -30q-82 0 -133 43.5zM328 111q32 15 51 44q9 15 14 29.5t11 40.5q2 12 6.5 17.5t13.5 6.5l-3 16q-80 -16 -103 -21l-48 -9q-54 -10 -78 -32q-18 -18 -18 -44q0 -31 22.5 -47.5t59.5 -16.5t72 16zM179 647q-42 41 -46 114h79q5 -38 29.5 -57.5t60.5 -19.5
q37 0 60.5 19.5t28.5 57.5h81q-4 -72 -48 -113.5t-122 -41.5q-81 0 -123 41z" />
    <glyph glyph-name="acircumflex" unicode="&#xe2;" horiz-adv-x="591" 
d="M90 32.5q-51 43.5 -51 121.5q0 84 64 128q46 32 131 48l167 31q0 50 -27 79q-25 27 -75 27q-39 0 -68.5 -23t-36.5 -62h-134q14 93 82 142t158 49q51 0 95 -14.5t75 -42.5q31 -27 45 -63t17.5 -72t3.5 -89v-292h-135v16q0 26 13 53l-15 8q-18 -37 -50 -58
q-45 -30 -126 -30q-82 0 -133 43.5zM328 111q32 15 51 44q9 15 14 29.5t11 40.5q2 12 6.5 17.5t13.5 6.5l-3 16q-80 -16 -103 -21l-48 -9q-54 -10 -78 -32q-18 -18 -18 -44q0 -31 22.5 -47.5t59.5 -16.5t72 16zM295 793h14l166 -175h-118l-23 30q-25 34 -25 54h-14
q0 -20 -25 -54l-23 -30h-118z" />
    <glyph glyph-name="adieresis" unicode="&#xe4;" horiz-adv-x="591" 
d="M90 32.5q-51 43.5 -51 121.5q0 84 64 128q46 32 131 48l167 31q0 50 -27 79q-25 27 -75 27q-39 0 -68.5 -23t-36.5 -62h-134q14 93 82 142t158 49q51 0 95 -14.5t75 -42.5q31 -27 45 -63t17.5 -72t3.5 -89v-292h-135v16q0 26 13 53l-15 8q-18 -37 -50 -58
q-45 -30 -126 -30q-82 0 -133 43.5zM328 111q32 15 51 44q9 15 14 29.5t11 40.5q2 12 6.5 17.5t13.5 6.5l-3 16q-80 -16 -103 -21l-48 -9q-54 -10 -78 -32q-18 -18 -18 -44q0 -31 22.5 -47.5t59.5 -16.5t72 16zM137 644q-24 21 -24 56q0 33 24 55t59 22q34 0 58.5 -22
t24.5 -55q0 -34 -24 -55.5t-59 -21.5t-59 21zM348 644.5q-24 21.5 -24 55.5q0 33 24.5 55t58.5 22q35 0 59 -22t24 -55q0 -35 -24 -56t-59 -21t-59 21.5z" />
    <glyph glyph-name="agrave" unicode="&#xe0;" horiz-adv-x="591" 
d="M90 32.5q-51 43.5 -51 121.5q0 84 64 128q46 32 131 48l167 31q0 50 -27 79q-25 27 -75 27q-39 0 -68.5 -23t-36.5 -62h-134q14 93 82 142t158 49q51 0 95 -14.5t75 -42.5q31 -27 45 -63t17.5 -72t3.5 -89v-292h-135v16q0 26 13 53l-15 8q-18 -37 -50 -58
q-45 -30 -126 -30q-82 0 -133 43.5zM328 111q32 15 51 44q9 15 14 29.5t11 40.5q2 12 6.5 17.5t13.5 6.5l-3 16q-80 -16 -103 -21l-48 -9q-54 -10 -78 -32q-18 -18 -18 -44q0 -31 22.5 -47.5t59.5 -16.5t72 16zM362 615h-104l-150 148h139z" />
    <glyph glyph-name="amacron" unicode="&#x101;" horiz-adv-x="591" 
d="M90 32.5q-51 43.5 -51 121.5q0 84 64 128q46 32 131 48l167 31q0 50 -27 79q-25 27 -75 27q-39 0 -68.5 -23t-36.5 -62h-134q14 93 82 142t158 49q51 0 95 -14.5t75 -42.5q31 -27 45 -63t17.5 -72t3.5 -89v-292h-135v16q0 26 13 53l-15 8q-18 -37 -50 -58
q-45 -30 -126 -30q-82 0 -133 43.5zM328 111q32 15 51 44q9 15 14 29.5t11 40.5q2 12 6.5 17.5t13.5 6.5l-3 16q-80 -16 -103 -21l-48 -9q-54 -10 -78 -32q-18 -18 -18 -44q0 -31 22.5 -47.5t59.5 -16.5t72 16zM153 635v64h299v-64h-299z" />
    <glyph glyph-name="aogonek" unicode="&#x105;" horiz-adv-x="591" 
d="M515 453q14 -36 17.5 -72t3.5 -89v-292h-1q-54 -40 -70.5 -56.5t-16.5 -36.5q0 -18 10.5 -27.5t31.5 -9.5q20 0 45 11v-83q-33 -11 -69 -11q-55 0 -84.5 22.5t-29.5 63.5q0 39 23.5 64t79.5 45v18h-54v16q0 26 13 53l-15 8q-18 -37 -50 -58q-45 -30 -126 -30
q-82 0 -133 43.5t-51 121.5q0 84 64 128q46 32 131 48l167 31q0 50 -27 79q-25 27 -75 27q-39 0 -68.5 -23t-36.5 -62h-134q14 93 82 142t158 49q51 0 95 -14.5t75 -42.5q31 -27 45 -63zM410.5 242.5q4.5 5.5 13.5 6.5l-3 16q-80 -16 -103 -21l-48 -9q-54 -10 -78 -32
q-18 -18 -18 -44q0 -31 22.5 -47.5t59.5 -16.5t72 16q32 15 51 44q9 15 14 29.5t11 40.5q2 12 6.5 17.5z" />
    <glyph glyph-name="aring" unicode="&#xe5;" horiz-adv-x="591" 
d="M90 32.5q-51 43.5 -51 121.5q0 84 64 128q46 32 131 48l167 31q0 50 -27 79q-25 27 -75 27q-39 0 -68.5 -23t-36.5 -62h-134q14 93 82 142t158 49q51 0 95 -14.5t75 -42.5q31 -27 45 -63t17.5 -72t3.5 -89v-292h-135v16q0 26 13 53l-15 8q-18 -37 -50 -58
q-45 -30 -126 -30q-82 0 -133 43.5zM328 111q32 15 51 44q9 15 14 29.5t11 40.5q2 12 6.5 17.5t13.5 6.5l-3 16q-80 -16 -103 -21l-48 -9q-54 -10 -78 -32q-18 -18 -18 -44q0 -31 22.5 -47.5t59.5 -16.5t72 16zM238 590.5q-29 17.5 -46 47t-17 63.5q0 53 37 90t90 37
q34 0 63.5 -17t47 -46t17.5 -64t-17 -64t-46.5 -46.5t-64.5 -17.5t-64 17.5zM339.5 663.5q14.5 15.5 14.5 39.5q0 22 -14 36t-38 14t-38 -14t-14 -36q0 -24 15 -39.5t37 -15.5q23 0 37.5 15.5z" />
    <glyph glyph-name="atilde" unicode="&#xe3;" horiz-adv-x="591" 
d="M90 32.5q-51 43.5 -51 121.5q0 84 64 128q46 32 131 48l167 31q0 50 -27 79q-25 27 -75 27q-39 0 -68.5 -23t-36.5 -62h-134q14 93 82 142t158 49q51 0 95 -14.5t75 -42.5q31 -27 45 -63t17.5 -72t3.5 -89v-292h-135v16q0 26 13 53l-15 8q-18 -37 -50 -58
q-45 -30 -126 -30q-82 0 -133 43.5zM328 111q32 15 51 44q9 15 14 29.5t11 40.5q2 12 6.5 17.5t13.5 6.5l-3 16q-80 -16 -103 -21l-48 -9q-54 -10 -78 -32q-18 -18 -18 -44q0 -31 22.5 -47.5t59.5 -16.5t72 16zM316 618.5q-20 12.5 -45 35.5q-12 13 -21 19.5t-18 6.5
q-31 0 -34 -72h-80q3 74 34.5 116.5t84.5 42.5q30 0 51 -13t42 -35q15 -14 23.5 -20t17.5 -6q12 0 20.5 17.5t10.5 52.5h83q-5 -80 -32 -118.5t-83 -38.5q-34 0 -54 12.5z" />
    <glyph glyph-name="ae" unicode="&#xe6;" horiz-adv-x="1231" 
d="M90 32.5q-51 43.5 -51 121.5q0 84 64 128q46 32 131 48l167 31q0 50 -27 79q-25 27 -75 27q-39 0 -68.5 -23t-36.5 -62h-134q14 93 82 142t158 49q51 0 95 -14.5t75 -42.5q31 -27 45 -63t17.5 -72t3.5 -89v-292h-135v16q0 26 13 53l-15 8q-18 -37 -50 -58
q-45 -30 -126 -30q-82 0 -133 43.5zM328 111q32 15 51 44q9 15 14 29.5t11 40.5q2 12 6.5 17.5t13.5 6.5l-3 16q-80 -16 -103 -21l-48 -9q-54 -10 -78 -32q-18 -18 -18 -44q0 -31 22.5 -47.5t59.5 -16.5t72 16zM765 26q-65 37 -100.5 102.5t-35.5 148.5q0 77 31.5 144.5
t95 109.5t155.5 42q76 0 140 -31.5t103 -97t39 -162.5v-29h-356h-33t-43 3l-4 -15q8 -2 12.5 -8t7.5 -17q8 -21 13 -29q20 -39 53.5 -60.5t76.5 -21.5q46 0 79 23.5t47 60.5h138q-27 -89 -95 -144.5t-174 -55.5q-85 0 -150 37zM800 351q12 3 27 3h174q16 0 28.5 -3t28.5 -12
l8 14q-7 4 -10 7.5t-4.5 7.5t-1.5 5q-4 17 -16 33q-19 29 -50 44.5t-69 15.5t-68.5 -15t-49.5 -45q-13 -16 -17 -33q0 -1 -2 -5.5t-5 -8t-9 -6.5l9 -14q15 9 27 12z" />
    <glyph glyph-name="b" unicode="b" horiz-adv-x="643" 
d="M265 8q-37 19 -69 66l-14 -9q8 -11 11.5 -21.5t3.5 -25.5v-18h-135v763h135v-220q0 -15 -3.5 -25t-11.5 -21l14 -10q32 47 69 66.5t91 19.5q73 0 129 -37t87 -103.5t31 -151.5t-31 -151.5t-87 -103.5t-129 -37q-54 0 -91 19zM428 154.5q39 49.5 39 126.5t-39 126.5
t-103 49.5t-104.5 -49t-40.5 -127t40.5 -127t104.5 -49t103 49.5z" />
    <glyph glyph-name="c" unicode="c" horiz-adv-x="621" 
d="M174.5 26q-64.5 37 -100.5 104t-36 154q0 84 36 150t100.5 102.5t148.5 36.5q101 0 171.5 -51.5t91.5 -139.5h-147q-13 39 -43 60t-73 21q-66 0 -106.5 -49t-40.5 -130q0 -84 40.5 -134.5t106.5 -50.5q48 0 78 23.5t41 66.5h146q-19 -93 -91 -146.5t-174 -53.5
q-84 0 -148.5 37z" />
    <glyph glyph-name="cacute" unicode="&#x107;" horiz-adv-x="621" 
d="M174.5 26q-64.5 37 -100.5 104t-36 154q0 84 36 150t100.5 102.5t148.5 36.5q101 0 171.5 -51.5t91.5 -139.5h-147q-13 39 -43 60t-73 21q-66 0 -106.5 -49t-40.5 -130q0 -84 40.5 -134.5t106.5 -50.5q48 0 78 23.5t41 66.5h146q-19 -93 -91 -146.5t-174 -53.5
q-84 0 -148.5 37zM251 615l115 148h139l-150 -148h-104z" />
    <glyph glyph-name="ccaron" unicode="&#x10d;" horiz-adv-x="621" 
d="M174.5 26q-64.5 37 -100.5 104t-36 154q0 84 36 150t100.5 102.5t148.5 36.5q101 0 171.5 -51.5t91.5 -139.5h-147q-13 39 -43 60t-73 21q-66 0 -106.5 -49t-40.5 -130q0 -84 40.5 -134.5t106.5 -50.5q48 0 78 23.5t41 66.5h146q-19 -93 -91 -146.5t-174 -53.5
q-84 0 -148.5 37zM138 763h118l23 -29q25 -36 25 -54h14q0 18 25 54l23 29h118l-166 -174h-14z" />
    <glyph glyph-name="ccedilla" unicode="&#xe7;" horiz-adv-x="621" 
d="M502 46.5q-67 -52.5 -164 -57.5q-18 -16 -37 -28l6 -9q20 2 26 2q29 0 49 -10q22 -10 32.5 -26t10.5 -40q0 -44 -36.5 -67.5t-94.5 -23.5q-48 0 -94 14v52q49 -19 87 -19q27 0 42 10.5t15 30.5q0 32 -35 43.5t-99 10.5l55 65q-103 18 -165 96t-62 194q0 84 36 150
t100.5 102.5t148.5 36.5q101 0 171.5 -51.5t91.5 -139.5h-147q-13 39 -43 60t-73 21q-66 0 -106.5 -49t-40.5 -130q0 -84 40.5 -134.5t106.5 -50.5q48 0 78 23.5t41 66.5h146q-19 -90 -86 -142.5z" />
    <glyph glyph-name="cdotaccent" unicode="&#x10b;" horiz-adv-x="621" 
d="M174.5 26q-64.5 37 -100.5 104t-36 154q0 84 36 150t100.5 102.5t148.5 36.5q101 0 171.5 -51.5t91.5 -139.5h-147q-13 39 -43 60t-73 21q-66 0 -106.5 -49t-40.5 -130q0 -84 40.5 -134.5t106.5 -50.5q48 0 78 23.5t41 66.5h146q-19 -93 -91 -146.5t-174 -53.5
q-84 0 -148.5 37zM252 644q-24 21 -24 56q0 33 24 55t59 22q34 0 58.5 -22t24.5 -55q0 -34 -24 -55.5t-59 -21.5t-59 21z" />
    <glyph glyph-name="d" unicode="d" horiz-adv-x="643" 
d="M158 26q-56 37 -87 103.5t-31 151.5t31 151.5t87 103.5t129 37q54 0 91 -19.5t69 -66.5l14 10q-8 11 -11.5 21t-3.5 25v220h135v-763h-135v18q0 15 3.5 25.5t11.5 21.5l-14 9q-32 -47 -69 -66t-91 -19q-73 0 -129 37zM422.5 154q40.5 49 40.5 127t-40.5 127t-104.5 49
t-103 -49.5t-39 -126.5t39 -126.5t103 -49.5t104.5 49z" />
    <glyph glyph-name="eth" unicode="&#xf0;" horiz-adv-x="614" 
d="M148 20q-60 34 -93.5 95.5t-33.5 139.5q0 76 31 132t86.5 86t127.5 30q49 0 95 -19t80 -59q1 58 -16 106.5t-50 81.5l-117 -68l-32 55l85 48q-26 11 -61 11q-47 0 -84 -17l-59 107q68 27 149 27q107 0 180 -55l73 42l32 -55l-56 -33q87 -110 87 -308q0 -183 -74.5 -282
t-213.5 -99q-76 0 -136 34zM387 151q40 42 40 104q0 38 -18.5 69.5t-50 50t-70.5 18.5q-59 0 -98 -39.5t-39 -98.5q0 -40 17.5 -73.5t48.5 -53t69 -19.5q61 0 101 42z" />
    <glyph glyph-name="dcaron" unicode="&#x10f;" horiz-adv-x="643" 
d="M158 26q-56 37 -87 103.5t-31 151.5t31 151.5t87 103.5t129 37q54 0 91 -19.5t69 -66.5l14 10q-8 11 -11.5 21t-3.5 25v220h135v-763h-135v18q0 15 3.5 25.5t11.5 21.5l-14 9q-32 -47 -69 -66t-91 -19q-73 0 -129 37zM422.5 154q40.5 49 40.5 127t-40.5 127t-104.5 49
t-103 -49.5t-39 -126.5t39 -126.5t103 -49.5t104.5 49zM759 557.5q29 29.5 25 79.5h-12q-7 -22 -38 -22q-27 0 -47 21t-20 56q0 36 24 59t63 23q50 0 76.5 -36.5t26.5 -96.5q0 -72 -44.5 -126t-138.5 -60v70q56 3 85 32.5z" />
    <glyph glyph-name="e" unicode="e" horiz-adv-x="640" 
d="M174 26q-65 37 -100.5 102.5t-35.5 148.5q0 77 31.5 144.5t95 109.5t155.5 42q76 0 140 -31.5t103 -97t39 -162.5v-29h-356h-33t-43 3l-4 -15q8 -2 12.5 -8t7.5 -17q8 -21 13 -29q20 -39 53.5 -60.5t76.5 -21.5q46 0 79 23.5t47 60.5h138q-27 -89 -95 -144.5t-174 -55.5
q-85 0 -150 37zM209 351q12 3 27 3h174q16 0 28.5 -3t28.5 -12l8 14q-7 4 -10 7.5t-4.5 7.5t-1.5 5q-4 17 -16 33q-19 29 -50 44.5t-69 15.5t-68.5 -15t-49.5 -45q-13 -16 -17 -33q0 -1 -2 -5.5t-5 -8t-9 -6.5l9 -14q15 9 27 12z" />
    <glyph glyph-name="eacute" unicode="&#xe9;" horiz-adv-x="640" 
d="M174 26q-65 37 -100.5 102.5t-35.5 148.5q0 77 31.5 144.5t95 109.5t155.5 42q76 0 140 -31.5t103 -97t39 -162.5v-29h-356h-33t-43 3l-4 -15q8 -2 12.5 -8t7.5 -17q8 -21 13 -29q20 -39 53.5 -60.5t76.5 -21.5q46 0 79 23.5t47 60.5h138q-27 -89 -95 -144.5t-174 -55.5
q-85 0 -150 37zM209 351q12 3 27 3h174q16 0 28.5 -3t28.5 -12l8 14q-7 4 -10 7.5t-4.5 7.5t-1.5 5q-4 17 -16 33q-19 29 -50 44.5t-69 15.5t-68.5 -15t-49.5 -45q-13 -16 -17 -33q0 -1 -2 -5.5t-5 -8t-9 -6.5l9 -14q15 9 27 12zM261 615l115 148h139l-150 -148h-104z" />
    <glyph glyph-name="ecaron" unicode="&#x11b;" horiz-adv-x="640" 
d="M174 26q-65 37 -100.5 102.5t-35.5 148.5q0 77 31.5 144.5t95 109.5t155.5 42q76 0 140 -31.5t103 -97t39 -162.5v-29h-356h-33t-43 3l-4 -15q8 -2 12.5 -8t7.5 -17q8 -21 13 -29q20 -39 53.5 -60.5t76.5 -21.5q46 0 79 23.5t47 60.5h138q-27 -89 -95 -144.5t-174 -55.5
q-85 0 -150 37zM209 351q12 3 27 3h174q16 0 28.5 -3t28.5 -12l8 14q-7 4 -10 7.5t-4.5 7.5t-1.5 5q-4 17 -16 33q-19 29 -50 44.5t-69 15.5t-68.5 -15t-49.5 -45q-13 -16 -17 -33q0 -1 -2 -5.5t-5 -8t-9 -6.5l9 -14q15 9 27 12zM148 763h118l23 -29q25 -36 25 -54h14
q0 18 25 54l23 29h118l-166 -174h-14z" />
    <glyph glyph-name="ecircumflex" unicode="&#xea;" horiz-adv-x="640" 
d="M174 26q-65 37 -100.5 102.5t-35.5 148.5q0 77 31.5 144.5t95 109.5t155.5 42q76 0 140 -31.5t103 -97t39 -162.5v-29h-356h-33t-43 3l-4 -15q8 -2 12.5 -8t7.5 -17q8 -21 13 -29q20 -39 53.5 -60.5t76.5 -21.5q46 0 79 23.5t47 60.5h138q-27 -89 -95 -144.5t-174 -55.5
q-85 0 -150 37zM209 351q12 3 27 3h174q16 0 28.5 -3t28.5 -12l8 14q-7 4 -10 7.5t-4.5 7.5t-1.5 5q-4 17 -16 33q-19 29 -50 44.5t-69 15.5t-68.5 -15t-49.5 -45q-13 -16 -17 -33q0 -1 -2 -5.5t-5 -8t-9 -6.5l9 -14q15 9 27 12zM314 793h14l166 -175h-118l-23 30
q-25 34 -25 54h-14q0 -20 -25 -54l-23 -30h-118z" />
    <glyph glyph-name="edieresis" unicode="&#xeb;" horiz-adv-x="640" 
d="M174 26q-65 37 -100.5 102.5t-35.5 148.5q0 77 31.5 144.5t95 109.5t155.5 42q76 0 140 -31.5t103 -97t39 -162.5v-29h-356h-33t-43 3l-4 -15q8 -2 12.5 -8t7.5 -17q8 -21 13 -29q20 -39 53.5 -60.5t76.5 -21.5q46 0 79 23.5t47 60.5h138q-27 -89 -95 -144.5t-174 -55.5
q-85 0 -150 37zM209 351q12 3 27 3h174q16 0 28.5 -3t28.5 -12l8 14q-7 4 -10 7.5t-4.5 7.5t-1.5 5q-4 17 -16 33q-19 29 -50 44.5t-69 15.5t-68.5 -15t-49.5 -45q-13 -16 -17 -33q0 -1 -2 -5.5t-5 -8t-9 -6.5l9 -14q15 9 27 12zM156 644q-24 21 -24 56q0 33 24 55t59 22
q34 0 58.5 -22t24.5 -55q0 -34 -24 -55.5t-59 -21.5t-59 21zM367 644.5q-24 21.5 -24 55.5q0 33 24.5 55t58.5 22q35 0 59 -22t24 -55q0 -35 -24 -56t-59 -21t-59 21.5z" />
    <glyph glyph-name="edotaccent" unicode="&#x117;" horiz-adv-x="640" 
d="M174 26q-65 37 -100.5 102.5t-35.5 148.5q0 77 31.5 144.5t95 109.5t155.5 42q76 0 140 -31.5t103 -97t39 -162.5v-29h-356h-33t-43 3l-4 -15q8 -2 12.5 -8t7.5 -17q8 -21 13 -29q20 -39 53.5 -60.5t76.5 -21.5q46 0 79 23.5t47 60.5h138q-27 -89 -95 -144.5t-174 -55.5
q-85 0 -150 37zM209 351q12 3 27 3h174q16 0 28.5 -3t28.5 -12l8 14q-7 4 -10 7.5t-4.5 7.5t-1.5 5q-4 17 -16 33q-19 29 -50 44.5t-69 15.5t-68.5 -15t-49.5 -45q-13 -16 -17 -33q0 -1 -2 -5.5t-5 -8t-9 -6.5l9 -14q15 9 27 12zM262 644q-24 21 -24 56q0 33 24 55t59 22
q34 0 58.5 -22t24.5 -55q0 -34 -24 -55.5t-59 -21.5t-59 21z" />
    <glyph glyph-name="egrave" unicode="&#xe8;" horiz-adv-x="640" 
d="M174 26q-65 37 -100.5 102.5t-35.5 148.5q0 77 31.5 144.5t95 109.5t155.5 42q76 0 140 -31.5t103 -97t39 -162.5v-29h-356h-33t-43 3l-4 -15q8 -2 12.5 -8t7.5 -17q8 -21 13 -29q20 -39 53.5 -60.5t76.5 -21.5q46 0 79 23.5t47 60.5h138q-27 -89 -95 -144.5t-174 -55.5
q-85 0 -150 37zM209 351q12 3 27 3h174q16 0 28.5 -3t28.5 -12l8 14q-7 4 -10 7.5t-4.5 7.5t-1.5 5q-4 17 -16 33q-19 29 -50 44.5t-69 15.5t-68.5 -15t-49.5 -45q-13 -16 -17 -33q0 -1 -2 -5.5t-5 -8t-9 -6.5l9 -14q15 9 27 12zM381 615h-104l-150 148h139z" />
    <glyph glyph-name="emacron" unicode="&#x113;" horiz-adv-x="640" 
d="M174 26q-65 37 -100.5 102.5t-35.5 148.5q0 77 31.5 144.5t95 109.5t155.5 42q76 0 140 -31.5t103 -97t39 -162.5v-29h-356h-33t-43 3l-4 -15q8 -2 12.5 -8t7.5 -17q8 -21 13 -29q20 -39 53.5 -60.5t76.5 -21.5q46 0 79 23.5t47 60.5h138q-27 -89 -95 -144.5t-174 -55.5
q-85 0 -150 37zM209 351q12 3 27 3h174q16 0 28.5 -3t28.5 -12l8 14q-7 4 -10 7.5t-4.5 7.5t-1.5 5q-4 17 -16 33q-19 29 -50 44.5t-69 15.5t-68.5 -15t-49.5 -45q-13 -16 -17 -33q0 -1 -2 -5.5t-5 -8t-9 -6.5l9 -14q15 9 27 12zM171 635v64h299v-64h-299z" />
    <glyph glyph-name="eogonek" unicode="&#x119;" horiz-adv-x="640" 
d="M213 253q-27 0 -43 3l-4 -15q8 -2 12.5 -8t7.5 -17q8 -21 13 -29q20 -39 53.5 -60.5t76.5 -21.5q46 0 79 23.5t47 60.5h138q-32 -102 -108 -154q-45 -33 -60 -49t-15 -35q0 -18 10.5 -27.5t31.5 -9.5q20 0 45 11v-83q-33 -11 -69 -11q-55 0 -84.5 22.5t-29.5 63.5
q0 46 33 73q-8 -1 -23 -1q-85 0 -150 37t-100.5 102.5t-35.5 148.5q0 77 31.5 144.5t95 109.5t155.5 42q76 0 140 -31.5t103 -97t39 -162.5v-29h-356h-33zM189 373q0 -1 -2 -5.5t-5 -8t-9 -6.5l9 -14q15 9 27 12t27 3h174q16 0 28.5 -3t28.5 -12l8 14q-7 4 -10 7.5t-4.5 7.5
t-1.5 5q-4 17 -16 33q-19 29 -50 44.5t-69 15.5t-68.5 -15t-49.5 -45q-13 -16 -17 -33z" />
    <glyph glyph-name="f" unicode="f" horiz-adv-x="368" 
d="M108 453h-85v108h85v57q0 70 40 107.5t115 37.5h84v-107h-52q-51 0 -51 -61q0 -18 -10 -34l10 -10q15 10 43 10h60v-108h-103v-453h-136v453z" />
    <glyph glyph-name="g" unicode="g" horiz-adv-x="644" 
d="M147.5 -171.5q-71.5 41.5 -88.5 141.5h136q13 -41 43 -59.5t80 -18.5q66 0 98 30t32 82v26q0 17 3 26.5t12 20.5l-14 9q-33 -47 -70 -66t-91 -19q-72 0 -128 36.5t-87 101.5t-31 146q0 83 31 148.5t87 102.5t128 37q54 0 91.5 -19.5t69.5 -66.5l14 10q-9 10 -12 20t-3 26
v18h135v-525q0 -135 -70.5 -192t-193.5 -57q-100 0 -171.5 41.5zM395 139q33 22 51.5 61t18.5 87t-18.5 87t-51.5 61t-75 22q-64 0 -103 -48.5t-39 -121.5t39 -121.5t103 -48.5q42 0 75 22z" />
    <glyph glyph-name="gbreve" unicode="&#x11f;" horiz-adv-x="644" 
d="M147.5 -171.5q-71.5 41.5 -88.5 141.5h136q13 -41 43 -59.5t80 -18.5q66 0 98 30t32 82v26q0 17 3 26.5t12 20.5l-14 9q-33 -47 -70 -66t-91 -19q-72 0 -128 36.5t-87 101.5t-31 146q0 83 31 148.5t87 102.5t128 37q54 0 91.5 -19.5t69.5 -66.5l14 10q-9 10 -12 20t-3 26
v18h135v-525q0 -135 -70.5 -192t-193.5 -57q-100 0 -171.5 41.5zM395 139q33 22 51.5 61t18.5 87t-18.5 87t-51.5 61t-75 22q-64 0 -103 -48.5t-39 -121.5t39 -121.5t103 -48.5q42 0 75 22zM199 647q-42 41 -46 114h79q5 -38 29.5 -57.5t60.5 -19.5q37 0 60.5 19.5
t28.5 57.5h81q-4 -72 -48 -113.5t-122 -41.5q-81 0 -123 41z" />
    <glyph glyph-name="uni0123" unicode="&#x123;" horiz-adv-x="644" 
d="M147.5 -171.5q-71.5 41.5 -88.5 141.5h136q13 -41 43 -59.5t80 -18.5q66 0 98 30t32 82v26q0 17 3 26.5t12 20.5l-14 9q-33 -47 -70 -66t-91 -19q-72 0 -128 36.5t-87 101.5t-31 146q0 83 31 148.5t87 102.5t128 37q54 0 91.5 -19.5t69.5 -66.5l14 10q-9 10 -12 20t-3 26
v18h135v-525q0 -135 -70.5 -192t-193.5 -57q-100 0 -171.5 41.5zM395 139q33 22 51.5 61t18.5 87t-18.5 87t-51.5 61t-75 22q-64 0 -103 -48.5t-39 -121.5t39 -121.5t103 -48.5q42 0 75 22zM280.5 620q-21.5 26 -21.5 69q0 53 35.5 91.5t111.5 42.5v-50q-45 -2 -68.5 -23
t-19.5 -58h9q6 16 30 16q22 0 38 -15t16 -40q0 -26 -19 -42.5t-51 -16.5q-39 0 -60.5 26z" />
    <glyph glyph-name="gdotaccent" unicode="&#x121;" horiz-adv-x="644" 
d="M147.5 -171.5q-71.5 41.5 -88.5 141.5h136q13 -41 43 -59.5t80 -18.5q66 0 98 30t32 82v26q0 17 3 26.5t12 20.5l-14 9q-33 -47 -70 -66t-91 -19q-72 0 -128 36.5t-87 101.5t-31 146q0 83 31 148.5t87 102.5t128 37q54 0 91.5 -19.5t69.5 -66.5l14 10q-9 10 -12 20t-3 26
v18h135v-525q0 -135 -70.5 -192t-193.5 -57q-100 0 -171.5 41.5zM395 139q33 22 51.5 61t18.5 87t-18.5 87t-51.5 61t-75 22q-64 0 -103 -48.5t-39 -121.5t39 -121.5t103 -48.5q42 0 75 22zM263 644q-24 21 -24 56q0 33 24 55t59 22q34 0 58.5 -22t24.5 -55q0 -34 -24 -55.5
t-59 -21.5t-59 21z" />
    <glyph glyph-name="h" unicode="h" horiz-adv-x="605" 
d="M62 763h135v-220q0 -15 -3.5 -25t-11.5 -21l14 -10q31 47 67.5 66.5t85.5 19.5q132 0 175 -94q16 -33 20 -67t4 -89v-323h-135v325q0 43 -6.5 69.5t-20.5 42.5q-24 25 -71 25q-57 0 -86 -34q-17 -20 -24.5 -53t-7.5 -89v-286h-135v763z" />
    <glyph glyph-name="i" unicode="i" horiz-adv-x="258" 
d="M61 0v561h135v-561h-135zM70 644q-24 21 -24 56q0 33 24 55t59 22q34 0 58.5 -22t24.5 -55q0 -34 -24 -55.5t-59 -21.5t-59 21z" />
    <glyph glyph-name="dotlessi" unicode="&#x131;" horiz-adv-x="258" 
d="M61 0v561h135v-561h-135z" />
    <glyph glyph-name="iacute" unicode="&#xed;" horiz-adv-x="258" 
d="M61 0v561h135v-561h-135zM69 615l115 148h139l-150 -148h-104z" />
    <glyph glyph-name="icircumflex" unicode="&#xee;" horiz-adv-x="258" 
d="M61 0v561h135v-561h-135zM122 793h14l166 -175h-118l-23 30q-25 34 -25 54h-14q0 -20 -25 -54l-23 -30h-118z" />
    <glyph glyph-name="idieresis" unicode="&#xef;" horiz-adv-x="258" 
d="M61 0v561h135v-561h-135zM-36 644q-24 21 -24 56q0 33 24 55t59 22q34 0 58.5 -22t24.5 -55q0 -34 -24 -55.5t-59 -21.5t-59 21zM175 644.5q-24 21.5 -24 55.5q0 33 24.5 55t58.5 22q35 0 59 -22t24 -55q0 -35 -24 -56t-59 -21t-59 21.5z" />
    <glyph glyph-name="i.loclTRK" horiz-adv-x="258" 
d="M61 0v561h135v-561h-135zM70 644q-24 21 -24 56q0 33 24 55t59 22q34 0 58.5 -22t24.5 -55q0 -34 -24 -55.5t-59 -21.5t-59 21z" />
    <glyph glyph-name="igrave" unicode="&#xec;" horiz-adv-x="258" 
d="M61 0v561h135v-561h-135zM189 615h-104l-150 148h139z" />
    <glyph glyph-name="imacron" unicode="&#x12b;" horiz-adv-x="258" 
d="M61 0v561h135v-561h-135zM-21 635v64h299v-64h-299z" />
    <glyph glyph-name="iogonek" unicode="&#x12f;" horiz-adv-x="258" 
d="M61 0v561h135v-561h-135zM70 644q-24 21 -24 56q0 33 24 55t59 22q34 0 58.5 -22t24.5 -55q0 -34 -24 -55.5t-59 -21.5t-59 21zM42.5 -190.5q-29.5 22.5 -29.5 63.5q0 39 23.5 64t79.5 45v18h80q-54 -40 -70.5 -56.5t-16.5 -36.5q0 -18 10.5 -27.5t31.5 -9.5q20 0 45 11
v-83q-33 -11 -69 -11q-55 0 -84.5 22.5z" />
    <glyph glyph-name="j" unicode="j" horiz-adv-x="258" 
d="M-43 -88h52q24 0 38.5 11.5t14.5 42.5v595h135v-634q0 -62 -35 -95.5t-101 -33.5h-104v114zM70 644q-24 21 -24 56q0 33 24 55t59 22q34 0 58.5 -22t24.5 -55q0 -34 -24 -55.5t-59 -21.5t-59 21z" />
    <glyph glyph-name="uni0237" unicode="&#x237;" horiz-adv-x="258" 
d="M-43 -88h52q24 0 38.5 11.5t14.5 42.5v595h135v-634q0 -62 -35 -95.5t-101 -33.5h-104v114z" />
    <glyph glyph-name="k" unicode="k" horiz-adv-x="596" 
d="M62 763h135v-318q0 -24 -1.5 -43t-8.5 -46l12 -5q17 22 50 57l153 153h171l-210 -205q-19 -19 -46 -31v-14q27 -14 46 -39l228 -272h-166l-176 213q-43 56 -50 66l-12 -4q7 -28 8.5 -48t1.5 -45v-182h-135v763z" />
    <glyph glyph-name="uni0137" unicode="&#x137;" horiz-adv-x="596" 
d="M62 763h135v-318q0 -24 -1.5 -43t-8.5 -46l12 -5q17 22 50 57l153 153h171l-210 -205q-19 -19 -46 -31v-14q27 -14 46 -39l228 -272h-166l-176 213q-43 56 -50 66l-12 -4q7 -28 8.5 -48t1.5 -45v-182h-135v763zM289.5 -159q18.5 9 21.5 25q2 3 2 13h-9q-6 -16 -30 -16
q-19 0 -30.5 11.5t-11.5 32.5q0 23 16.5 37.5t42.5 14.5q34 0 53 -20t19 -52q0 -44 -31 -66.5t-91 -22.5v34q30 0 48.5 9z" />
    <glyph glyph-name="kgreenlandic" unicode="&#x138;" horiz-adv-x="596" 
d="M62 561h135v-116q0 -24 -1.5 -43t-8.5 -46l12 -5q17 22 50 57l153 153h172l-249 -243l266 -318h-166l-176 213q-43 56 -50 66l-12 -4q7 -28 8.5 -48t1.5 -45v-182h-135v561z" />
    <glyph glyph-name="l" unicode="l" horiz-adv-x="302" 
d="M92 29.5q-33 29.5 -33 93.5v640h135v-600q0 -28 10.5 -39.5t35.5 -11.5h36v-112h-87q-64 0 -97 29.5z" />
    <glyph glyph-name="lacute" unicode="&#x13a;" horiz-adv-x="302" 
d="M92 29.5q-33 29.5 -33 93.5v640h135v-600q0 -28 10.5 -39.5t35.5 -11.5h36v-112h-87q-64 0 -97 29.5zM67 817l115 148h139l-150 -148h-104z" />
    <glyph glyph-name="lcaron" unicode="&#x13e;" horiz-adv-x="302" 
d="M92 29.5q-33 29.5 -33 93.5v640h135v-600q0 -28 10.5 -39.5t35.5 -11.5h36v-112h-87q-64 0 -97 29.5zM357 557.5q29 29.5 25 79.5h-12q-7 -22 -38 -22q-27 0 -47 21t-20 56q0 36 24 59t63 23q50 0 76.5 -36.5t26.5 -96.5q0 -72 -44.5 -126t-138.5 -60v70q56 3 85 32.5z
" />
    <glyph glyph-name="uni013C" unicode="&#x13c;" horiz-adv-x="302" 
d="M92 29.5q-33 29.5 -33 93.5v640h135v-600q0 -28 10.5 -39.5t35.5 -11.5h36v-112h-87q-64 0 -97 29.5zM138.5 -159q18.5 9 21.5 25q2 3 2 13h-9q-6 -16 -30 -16q-19 0 -30.5 11.5t-11.5 32.5q0 23 16.5 37.5t42.5 14.5q34 0 53 -20t19 -52q0 -44 -31 -66.5t-91 -22.5v34
q30 0 48.5 9z" />
    <glyph glyph-name="lslash" unicode="&#x142;" horiz-adv-x="302" 
d="M276 112v-112h-87q-64 0 -97 29.5t-33 93.5v263l-42 -22v91l42 22v286h135v-216l60 31v-91l-60 -31v-293q0 -28 10.5 -39.5t35.5 -11.5h36z" />
    <glyph glyph-name="m" unicode="m" horiz-adv-x="903" 
d="M61 561h135v-18q0 -16 -3 -26t-12 -20l14 -10q32 47 68.5 66.5t85.5 19.5q50 0 91 -22.5t51 -67.5h13q18 50 61.5 70t95.5 20q92 0 138 -54t46 -151v-368h-135v351q0 111 -88 111q-42 0 -67 -27q-19 -21 -26.5 -54t-7.5 -84v-297h-135v351q0 56 -23 83.5t-66 27.5
q-42 0 -68 -29q-17 -19 -25 -51t-8 -85v-297h-135v561z" />
    <glyph glyph-name="n" unicode="n" horiz-adv-x="605" 
d="M61 561h135v-18q0 -16 -3 -26t-12 -20l14 -10q32 47 68.5 66.5t85.5 19.5q130 0 175 -94q15 -33 19 -67t4 -89v-323h-134v325q0 81 -28 112q-24 25 -71 25q-56 0 -85 -34q-17 -20 -25 -53.5t-8 -88.5v-286h-135v561z" />
    <glyph glyph-name="nacute" unicode="&#x144;" horiz-adv-x="605" 
d="M61 561h135v-18q0 -16 -3 -26t-12 -20l14 -10q32 47 68.5 66.5t85.5 19.5q130 0 175 -94q15 -33 19 -67t4 -89v-323h-134v325q0 81 -28 112q-24 25 -71 25q-56 0 -85 -34q-17 -20 -25 -53.5t-8 -88.5v-286h-135v561zM243 615l115 148h139l-150 -148h-104z" />
    <glyph glyph-name="ncaron" unicode="&#x148;" horiz-adv-x="605" 
d="M61 561h135v-18q0 -16 -3 -26t-12 -20l14 -10q32 47 68.5 66.5t85.5 19.5q130 0 175 -94q15 -33 19 -67t4 -89v-323h-134v325q0 81 -28 112q-24 25 -71 25q-56 0 -85 -34q-17 -20 -25 -53.5t-8 -88.5v-286h-135v561zM130 763h118l23 -29q25 -36 25 -54h14q0 18 25 54
l23 29h118l-166 -174h-14z" />
    <glyph glyph-name="uni0146" unicode="&#x146;" horiz-adv-x="605" 
d="M61 561h135v-18q0 -16 -3 -26t-12 -20l14 -10q32 47 68.5 66.5t85.5 19.5q130 0 175 -94q15 -33 19 -67t4 -89v-323h-134v325q0 81 -28 112q-24 25 -71 25q-56 0 -85 -34q-17 -20 -25 -53.5t-8 -88.5v-286h-135v561zM298.5 -159q18.5 9 21.5 25q2 3 2 13h-9
q-6 -16 -30 -16q-19 0 -30.5 11.5t-11.5 32.5q0 23 16.5 37.5t42.5 14.5q34 0 53 -20t19 -52q0 -44 -31 -66.5t-91 -22.5v34q30 0 48.5 9z" />
    <glyph glyph-name="ntilde" unicode="&#xf1;" horiz-adv-x="605" 
d="M61 561h135v-18q0 -16 -3 -26t-12 -20l14 -10q32 47 68.5 66.5t85.5 19.5q130 0 175 -94q15 -33 19 -67t4 -89v-323h-134v325q0 81 -28 112q-24 25 -71 25q-56 0 -85 -34q-17 -20 -25 -53.5t-8 -88.5v-286h-135v561zM316 618.5q-20 12.5 -45 35.5q-12 13 -21 19.5
t-18 6.5q-31 0 -34 -72h-80q3 74 34.5 116.5t84.5 42.5q30 0 51 -13t42 -35q15 -14 23.5 -20t17.5 -6q12 0 20.5 17.5t10.5 52.5h83q-5 -80 -32 -118.5t-83 -38.5q-34 0 -54 12.5z" />
    <glyph glyph-name="o" unicode="o" horiz-adv-x="652" 
d="M176 26q-65 37 -101.5 104t-36.5 154q0 84 36.5 150t101.5 102.5t149 36.5t149.5 -37t102 -102.5t36.5 -149.5q0 -87 -36 -154t-101.5 -104t-150.5 -37q-84 0 -149 37zM432 155q41 50 41 129q0 76 -41 124.5t-107 48.5q-43 0 -77 -22t-53 -61.5t-19 -89.5
q0 -80 41.5 -129.5t107.5 -49.5t107 50z" />
    <glyph glyph-name="oacute" unicode="&#xf3;" horiz-adv-x="652" 
d="M176 26q-65 37 -101.5 104t-36.5 154q0 84 36.5 150t101.5 102.5t149 36.5t149.5 -37t102 -102.5t36.5 -149.5q0 -87 -36 -154t-101.5 -104t-150.5 -37q-84 0 -149 37zM432 155q41 50 41 129q0 76 -41 124.5t-107 48.5q-43 0 -77 -22t-53 -61.5t-19 -89.5
q0 -80 41.5 -129.5t107.5 -49.5t107 50zM266 615l115 148h139l-150 -148h-104z" />
    <glyph glyph-name="ocircumflex" unicode="&#xf4;" horiz-adv-x="652" 
d="M176 26q-65 37 -101.5 104t-36.5 154q0 84 36.5 150t101.5 102.5t149 36.5t149.5 -37t102 -102.5t36.5 -149.5q0 -87 -36 -154t-101.5 -104t-150.5 -37q-84 0 -149 37zM432 155q41 50 41 129q0 76 -41 124.5t-107 48.5q-43 0 -77 -22t-53 -61.5t-19 -89.5
q0 -80 41.5 -129.5t107.5 -49.5t107 50zM319 793h14l166 -175h-118l-23 30q-25 34 -25 54h-14q0 -20 -25 -54l-23 -30h-118z" />
    <glyph glyph-name="odieresis" unicode="&#xf6;" horiz-adv-x="652" 
d="M176 26q-65 37 -101.5 104t-36.5 154q0 84 36.5 150t101.5 102.5t149 36.5t149.5 -37t102 -102.5t36.5 -149.5q0 -87 -36 -154t-101.5 -104t-150.5 -37q-84 0 -149 37zM432 155q41 50 41 129q0 76 -41 124.5t-107 48.5q-43 0 -77 -22t-53 -61.5t-19 -89.5
q0 -80 41.5 -129.5t107.5 -49.5t107 50zM161 644q-24 21 -24 56q0 33 24 55t59 22q34 0 58.5 -22t24.5 -55q0 -34 -24 -55.5t-59 -21.5t-59 21zM372 644.5q-24 21.5 -24 55.5q0 33 24.5 55t58.5 22q35 0 59 -22t24 -55q0 -35 -24 -56t-59 -21t-59 21.5z" />
    <glyph glyph-name="ograve" unicode="&#xf2;" horiz-adv-x="652" 
d="M176 26q-65 37 -101.5 104t-36.5 154q0 84 36.5 150t101.5 102.5t149 36.5t149.5 -37t102 -102.5t36.5 -149.5q0 -87 -36 -154t-101.5 -104t-150.5 -37q-84 0 -149 37zM432 155q41 50 41 129q0 76 -41 124.5t-107 48.5q-43 0 -77 -22t-53 -61.5t-19 -89.5
q0 -80 41.5 -129.5t107.5 -49.5t107 50zM386 615h-104l-150 148h139z" />
    <glyph glyph-name="ohungarumlaut" unicode="&#x151;" horiz-adv-x="652" 
d="M176 26q-65 37 -101.5 104t-36.5 154q0 84 36.5 150t101.5 102.5t149 36.5t149.5 -37t102 -102.5t36.5 -149.5q0 -87 -36 -154t-101.5 -104t-150.5 -37q-84 0 -149 37zM432 155q41 50 41 129q0 76 -41 124.5t-107 48.5q-43 0 -77 -22t-53 -61.5t-19 -89.5
q0 -80 41.5 -129.5t107.5 -49.5t107 50zM174 615l116 148h127l-139 -148h-104zM373 615l117 148h136l-149 -148h-104z" />
    <glyph glyph-name="omacron" unicode="&#x14d;" horiz-adv-x="652" 
d="M176 26q-65 37 -101.5 104t-36.5 154q0 84 36.5 150t101.5 102.5t149 36.5t149.5 -37t102 -102.5t36.5 -149.5q0 -87 -36 -154t-101.5 -104t-150.5 -37q-84 0 -149 37zM432 155q41 50 41 129q0 76 -41 124.5t-107 48.5q-43 0 -77 -22t-53 -61.5t-19 -89.5
q0 -80 41.5 -129.5t107.5 -49.5t107 50zM176 635v64h299v-64h-299z" />
    <glyph glyph-name="oslash" unicode="&#xf8;" horiz-adv-x="652" 
d="M561 457q52 -74 52 -173q0 -87 -36 -154t-101.5 -104t-150.5 -37q-102 0 -177 55l-52 -52l-60 58l54 54q-52 76 -52 180q0 84 36.5 150t101.5 102.5t149 36.5q105 0 178 -56l52 52l60 -58zM190 204l223 223q-38 30 -88 30q-43 0 -77 -22t-53 -61.5t-19 -89.5
q0 -44 14 -80zM461 357l-223 -223q37 -29 87 -29q66 0 107 50t41 129q0 40 -12 73z" />
    <glyph glyph-name="oslashacute" unicode="&#x1ff;" horiz-adv-x="652" 
d="M561 457q52 -74 52 -173q0 -87 -36 -154t-101.5 -104t-150.5 -37q-102 0 -177 55l-52 -52l-60 58l54 54q-52 76 -52 180q0 84 36.5 150t101.5 102.5t149 36.5q105 0 178 -56l52 52l60 -58zM190 204l223 223q-38 30 -88 30q-43 0 -77 -22t-53 -61.5t-19 -89.5
q0 -44 14 -80zM461 357l-223 -223q37 -29 87 -29q66 0 107 50t41 129q0 40 -12 73zM266 615l115 148h139l-150 -148h-104z" />
    <glyph glyph-name="otilde" unicode="&#xf5;" horiz-adv-x="652" 
d="M176 26q-65 37 -101.5 104t-36.5 154q0 84 36.5 150t101.5 102.5t149 36.5t149.5 -37t102 -102.5t36.5 -149.5q0 -87 -36 -154t-101.5 -104t-150.5 -37q-84 0 -149 37zM432 155q41 50 41 129q0 76 -41 124.5t-107 48.5q-43 0 -77 -22t-53 -61.5t-19 -89.5
q0 -80 41.5 -129.5t107.5 -49.5t107 50zM339 618.5q-20 12.5 -45 35.5q-12 13 -21 19.5t-18 6.5q-31 0 -34 -72h-80q3 74 34.5 116.5t84.5 42.5q30 0 51 -13t42 -35q15 -14 23.5 -20t17.5 -6q12 0 20.5 17.5t10.5 52.5h83q-5 -80 -32 -118.5t-83 -38.5q-34 0 -54 12.5z" />
    <glyph glyph-name="oe" unicode="&#x153;" horiz-adv-x="1292" 
d="M176 26q-65 37 -101.5 104t-36.5 154q0 84 36.5 150t101.5 102.5t149 36.5t149.5 -37t102 -102.5t36.5 -149.5q0 -87 -36 -154t-101.5 -104t-150.5 -37q-84 0 -149 37zM432 155q41 50 41 129q0 76 -41 124.5t-107 48.5q-43 0 -77 -22t-53 -61.5t-19 -89.5
q0 -80 41.5 -129.5t107.5 -49.5t107 50zM826 26q-65 37 -100.5 102.5t-35.5 148.5q0 77 31.5 144.5t95 109.5t155.5 42q76 0 140 -31.5t103 -97t39 -162.5v-29h-356h-33t-43 3l-4 -15q8 -2 12.5 -8t7.5 -17q8 -21 13 -29q20 -39 53.5 -60.5t76.5 -21.5q46 0 79 23.5t47 60.5
h138q-27 -89 -95 -144.5t-174 -55.5q-85 0 -150 37zM861 351q12 3 27 3h174q16 0 28.5 -3t28.5 -12l8 14q-7 4 -10 7.5t-4.5 7.5t-1.5 5q-4 17 -16 33q-19 29 -50 44.5t-69 15.5t-68.5 -15t-49.5 -45q-13 -16 -17 -33q0 -1 -2 -5.5t-5 -8t-9 -6.5l9 -14q15 9 27 12z" />
    <glyph glyph-name="p" unicode="p" horiz-adv-x="643" 
d="M485 535q56 -37 87 -103.5t31 -151.5t-31 -151.5t-87 -103.5t-129 -37q-54 0 -91 19.5t-69 66.5l-14 -10q8 -11 11.5 -21t3.5 -25v-220h-135v763h135v-18q0 -15 -3.5 -25.5t-11.5 -21.5l14 -9q32 47 69 66t91 19q73 0 129 -37zM220.5 407q-40.5 -49 -40.5 -127t40.5 -127
t104.5 -49t103 49.5t39 126.5t-39 126.5t-103 49.5t-104.5 -49z" />
    <glyph glyph-name="thorn" unicode="&#xfe;" horiz-adv-x="643" 
d="M62 763h135v-220q0 -15 -3.5 -25t-11.5 -21l14 -10q32 47 69 66.5t91 19.5q73 0 129 -37t87 -103.5t31 -151.5t-31 -151.5t-87 -103.5t-129 -37q-54 0 -91 19t-69 66l-14 -9q8 -11 11.5 -21.5t3.5 -25.5v-220h-135v965zM428 154.5q39 49.5 39 126.5t-39 126.5t-103 49.5
t-104.5 -49t-40.5 -127t40.5 -127t104.5 -49t103 49.5z" />
    <glyph glyph-name="q" unicode="q" horiz-adv-x="650" 
d="M446 -81v99q0 17 3 26t12 21l-14 9q-32 -47 -69 -66t-91 -19q-73 0 -129 37t-87 103.5t-31 151.5t31 151.5t87 103.5t129 37q54 0 91 -19.5t69 -66.5l14 10q-8 11 -11.5 21t-3.5 25v18h135v-610q0 -39 43 -39h45v-114h-88q-135 0 -135 121zM422.5 154q40.5 49 40.5 127
t-40.5 127t-104.5 49t-103 -49.5t-39 -126.5t39 -126.5t103 -49.5t104.5 49z" />
    <glyph glyph-name="r" unicode="r" horiz-adv-x="391" 
d="M61 561h135v-18q0 -16 -3 -26t-12 -20l14 -10q31 46 69 66t92 20h16v-130h-31q-64 0 -100 -34q-23 -23 -34 -58.5t-11 -90.5v-260h-135v561z" />
    <glyph glyph-name="racute" unicode="&#x155;" horiz-adv-x="391" 
d="M61 561h135v-18q0 -16 -3 -26t-12 -20l14 -10q31 46 69 66t92 20h16v-130h-31q-64 0 -100 -34q-23 -23 -34 -58.5t-11 -90.5v-260h-135v561zM120 615l115 148h139l-150 -148h-104z" />
    <glyph glyph-name="rcaron" unicode="&#x159;" horiz-adv-x="391" 
d="M61 561h135v-18q0 -16 -3 -26t-12 -20l14 -10q31 46 69 66t92 20h16v-130h-31q-64 0 -100 -34q-23 -23 -34 -58.5t-11 -90.5v-260h-135v561zM6 763h118l23 -29q25 -36 25 -54h14q0 18 25 54l23 29h118l-166 -174h-14z" />
    <glyph glyph-name="uni0157" unicode="&#x157;" horiz-adv-x="391" 
d="M61 561h135v-18q0 -16 -3 -26t-12 -20l14 -10q31 46 69 66t92 20h16v-130h-31q-64 0 -100 -34q-23 -23 -34 -58.5t-11 -90.5v-260h-135v561zM124.5 -159q18.5 9 21.5 25q2 3 2 13h-9q-6 -16 -30 -16q-19 0 -30.5 11.5t-11.5 32.5q0 23 16.5 37.5t42.5 14.5q34 0 53 -20
t19 -52q0 -44 -31 -66.5t-91 -22.5v34q30 0 48.5 9z" />
    <glyph glyph-name="s" unicode="s" horiz-adv-x="576" 
d="M124 39q-76 50 -89 150h133q13 -45 48 -69.5t87 -24.5q44 0 71.5 17t27.5 48q0 34 -32.5 49t-100.5 28q-65 13 -108 28t-73 48.5t-30 91.5q0 83 61.5 125.5t155.5 42.5q99 0 164.5 -50t80.5 -141h-127q-11 44 -43 64.5t-76 20.5q-40 0 -63.5 -15.5t-23.5 -41.5
q0 -31 31 -44t98 -26q69 -13 112.5 -27.5t75 -48.5t31.5 -94q0 -83 -61.5 -132t-169.5 -49q-104 0 -180 50z" />
    <glyph glyph-name="sacute" unicode="&#x15b;" horiz-adv-x="576" 
d="M124 39q-76 50 -89 150h133q13 -45 48 -69.5t87 -24.5q44 0 71.5 17t27.5 48q0 34 -32.5 49t-100.5 28q-65 13 -108 28t-73 48.5t-30 91.5q0 83 61.5 125.5t155.5 42.5q99 0 164.5 -50t80.5 -141h-127q-11 44 -43 64.5t-76 20.5q-40 0 -63.5 -15.5t-23.5 -41.5
q0 -31 31 -44t98 -26q69 -13 112.5 -27.5t75 -48.5t31.5 -94q0 -83 -61.5 -132t-169.5 -49q-104 0 -180 50zM228 615l115 148h139l-150 -148h-104z" />
    <glyph glyph-name="scaron" unicode="&#x161;" horiz-adv-x="576" 
d="M124 39q-76 50 -89 150h133q13 -45 48 -69.5t87 -24.5q44 0 71.5 17t27.5 48q0 34 -32.5 49t-100.5 28q-65 13 -108 28t-73 48.5t-30 91.5q0 83 61.5 125.5t155.5 42.5q99 0 164.5 -50t80.5 -141h-127q-11 44 -43 64.5t-76 20.5q-40 0 -63.5 -15.5t-23.5 -41.5
q0 -31 31 -44t98 -26q69 -13 112.5 -27.5t75 -48.5t31.5 -94q0 -83 -61.5 -132t-169.5 -49q-104 0 -180 50zM114 763h118l23 -29q25 -36 25 -54h14q0 18 25 54l23 29h118l-166 -174h-14z" />
    <glyph glyph-name="scedilla" unicode="&#x15f;" horiz-adv-x="576" 
d="M476 40.5q-59 -49.5 -162 -51.5q-28 -22 -37 -28l6 -9q20 2 26 2q29 0 49 -10q22 -10 32.5 -26t10.5 -40q0 -44 -36.5 -67.5t-94.5 -23.5q-48 0 -94 14v52q49 -19 87 -19q27 0 42 10.5t15 30.5q0 32 -35 43.5t-99 10.5l56 65q-83 14 -139.5 62.5t-67.5 132.5h133
q13 -45 48 -69.5t87 -24.5q44 0 71.5 17t27.5 48q0 34 -32.5 49t-100.5 28q-65 13 -108 28t-73 48.5t-30 91.5q0 83 61.5 125.5t155.5 42.5q99 0 164.5 -50t80.5 -141h-127q-11 44 -43 64.5t-76 20.5q-40 0 -63.5 -15.5t-23.5 -41.5q0 -31 31 -44t98 -26q69 -13 112.5 -27.5
t75 -48.5t31.5 -94q0 -80 -59 -129.5z" />
    <glyph glyph-name="uni0219" unicode="&#x219;" horiz-adv-x="576" 
d="M124 39q-76 50 -89 150h133q13 -45 48 -69.5t87 -24.5q44 0 71.5 17t27.5 48q0 34 -32.5 49t-100.5 28q-65 13 -108 28t-73 48.5t-30 91.5q0 83 61.5 125.5t155.5 42.5q99 0 164.5 -50t80.5 -141h-127q-11 44 -43 64.5t-76 20.5q-40 0 -63.5 -15.5t-23.5 -41.5
q0 -31 31 -44t98 -26q69 -13 112.5 -27.5t75 -48.5t31.5 -94q0 -83 -61.5 -132t-169.5 -49q-104 0 -180 50zM283.5 -159q18.5 9 21.5 25q2 3 2 13h-9q-6 -16 -30 -16q-19 0 -30.5 11.5t-11.5 32.5q0 23 16.5 37.5t42.5 14.5q34 0 53 -20t19 -52q0 -44 -31 -66.5t-91 -22.5
v34q30 0 48.5 9z" />
    <glyph glyph-name="germandbls" unicode="&#xdf;" horiz-adv-x="688" 
d="M146.5 699q73.5 75 211.5 75q84 0 143.5 -28t89.5 -73t30 -96q0 -73 -36 -115q-25 -30 -72 -43v-11q45 -9 79 -31q67 -49 67 -156q0 -133 -89 -177t-184 -44h-75v120h65q71 0 109.5 28.5t38.5 82.5t-35 80.5t-99 26.5h-79v111h53q58 0 90 26.5t32 75.5q0 47 -34 75
t-93 28q-70 0 -110.5 -43t-40.5 -125v-486h-135v480q0 144 73.5 219z" />
    <glyph glyph-name="t" unicode="t" horiz-adv-x="383" 
d="M106 123v330h-83v108h83v202h135v-202h108v-108h-108v-289q0 -26 8.5 -39t37.5 -13h61v-112h-111q-131 0 -131 123z" />
    <glyph glyph-name="tcaron" unicode="&#x165;" horiz-adv-x="383" 
d="M106 123v330h-83v108h83v202h135v-202h108v-108h-108v-289q0 -26 8.5 -39t37.5 -13h61v-112h-111q-131 0 -131 123zM391 725.5q29 29.5 25 79.5h-12q-7 -22 -38 -22q-27 0 -47 21t-20 56q0 36 24 59t63 23q50 0 76.5 -36.5t26.5 -96.5q0 -72 -44.5 -126t-138.5 -60v70
q56 3 85 32.5z" />
    <glyph glyph-name="uni0163" unicode="&#x163;" horiz-adv-x="383" 
d="M241 453v-289q0 -26 8.5 -39t37.5 -13h61v-112h-91q-27 -24 -49 -39l6 -9q20 2 26 2q29 0 49 -10q22 -10 32.5 -26t10.5 -40q0 -44 -36.5 -67.5t-94.5 -23.5q-48 0 -94 14v52q49 -19 87 -19q27 0 42 10.5t15 30.5q0 32 -35 43.5t-99 10.5l66 77q-77 22 -77 117v330h-83
v108h83v202h135v-202h108v-108h-108z" />
    <glyph glyph-name="uni021B" unicode="&#x21b;" horiz-adv-x="383" 
d="M106 123v330h-83v108h83v202h135v-202h108v-108h-108v-289q0 -26 8.5 -39t37.5 -13h61v-112h-111q-131 0 -131 123zM214.5 -159q18.5 9 21.5 25q2 3 2 13h-9q-6 -16 -30 -16q-19 0 -30.5 11.5t-11.5 32.5q0 23 16.5 37.5t42.5 14.5q34 0 53 -20t19 -52q0 -44 -31 -66.5
t-91 -22.5v34q30 0 48.5 9z" />
    <glyph glyph-name="u" unicode="u" horiz-adv-x="606" 
d="M82 82q-16 33 -20 67.5t-4 88.5v323h135v-324q0 -43 6.5 -69.5t20.5 -42.5q22 -25 71 -25q57 0 86 34q17 19 24.5 52.5t7.5 89.5v285h135v-561h-135v18q0 15 3.5 25.5t11.5 21.5l-14 9q-32 -46 -68 -65.5t-85 -19.5q-131 0 -175 93z" />
    <glyph glyph-name="uacute" unicode="&#xfa;" horiz-adv-x="606" 
d="M82 82q-16 33 -20 67.5t-4 88.5v323h135v-324q0 -43 6.5 -69.5t20.5 -42.5q22 -25 71 -25q57 0 86 34q17 19 24.5 52.5t7.5 89.5v285h135v-561h-135v18q0 15 3.5 25.5t11.5 21.5l-14 9q-32 -46 -68 -65.5t-85 -19.5q-131 0 -175 93zM243 615l115 148h139l-150 -148h-104z
" />
    <glyph glyph-name="ucircumflex" unicode="&#xfb;" horiz-adv-x="606" 
d="M82 82q-16 33 -20 67.5t-4 88.5v323h135v-324q0 -43 6.5 -69.5t20.5 -42.5q22 -25 71 -25q57 0 86 34q17 19 24.5 52.5t7.5 89.5v285h135v-561h-135v18q0 15 3.5 25.5t11.5 21.5l-14 9q-32 -46 -68 -65.5t-85 -19.5q-131 0 -175 93zM296 793h14l166 -175h-118l-23 30
q-25 34 -25 54h-14q0 -20 -25 -54l-23 -30h-118z" />
    <glyph glyph-name="udieresis" unicode="&#xfc;" horiz-adv-x="606" 
d="M82 82q-16 33 -20 67.5t-4 88.5v323h135v-324q0 -43 6.5 -69.5t20.5 -42.5q22 -25 71 -25q57 0 86 34q17 19 24.5 52.5t7.5 89.5v285h135v-561h-135v18q0 15 3.5 25.5t11.5 21.5l-14 9q-32 -46 -68 -65.5t-85 -19.5q-131 0 -175 93zM138 644q-24 21 -24 56q0 33 24 55
t59 22q34 0 58.5 -22t24.5 -55q0 -34 -24 -55.5t-59 -21.5t-59 21zM349 644.5q-24 21.5 -24 55.5q0 33 24.5 55t58.5 22q35 0 59 -22t24 -55q0 -35 -24 -56t-59 -21t-59 21.5z" />
    <glyph glyph-name="ugrave" unicode="&#xf9;" horiz-adv-x="606" 
d="M82 82q-16 33 -20 67.5t-4 88.5v323h135v-324q0 -43 6.5 -69.5t20.5 -42.5q22 -25 71 -25q57 0 86 34q17 19 24.5 52.5t7.5 89.5v285h135v-561h-135v18q0 15 3.5 25.5t11.5 21.5l-14 9q-32 -46 -68 -65.5t-85 -19.5q-131 0 -175 93zM363 615h-104l-150 148h139z" />
    <glyph glyph-name="uhungarumlaut" unicode="&#x171;" horiz-adv-x="606" 
d="M82 82q-16 33 -20 67.5t-4 88.5v323h135v-324q0 -43 6.5 -69.5t20.5 -42.5q22 -25 71 -25q57 0 86 34q17 19 24.5 52.5t7.5 89.5v285h135v-561h-135v18q0 15 3.5 25.5t11.5 21.5l-14 9q-32 -46 -68 -65.5t-85 -19.5q-131 0 -175 93zM151 615l116 148h127l-139 -148h-104z
M350 615l117 148h136l-149 -148h-104z" />
    <glyph glyph-name="umacron" unicode="&#x16b;" horiz-adv-x="606" 
d="M82 82q-16 33 -20 67.5t-4 88.5v323h135v-324q0 -43 6.5 -69.5t20.5 -42.5q22 -25 71 -25q57 0 86 34q17 19 24.5 52.5t7.5 89.5v285h135v-561h-135v18q0 15 3.5 25.5t11.5 21.5l-14 9q-32 -46 -68 -65.5t-85 -19.5q-131 0 -175 93zM153 635v64h299v-64h-299z" />
    <glyph glyph-name="uogonek" unicode="&#x173;" horiz-adv-x="606" 
d="M473.5 -56.5q-16.5 -16.5 -16.5 -36.5q0 -18 10.5 -27.5t31.5 -9.5q20 0 45 11v-83q-33 -11 -69 -11q-55 0 -84.5 22.5t-29.5 63.5q0 39 23.5 64t79.5 45v18h-55v18q0 15 3.5 25.5t11.5 21.5l-14 9q-32 -46 -68 -65.5t-85 -19.5q-131 0 -175 93q-16 33 -20 67.5t-4 88.5
v323h135v-324q0 -43 6.5 -69.5t20.5 -42.5q22 -25 71 -25q57 0 86 34q17 19 24.5 52.5t7.5 89.5v285h135v-561q-54 -40 -70.5 -56.5z" />
    <glyph glyph-name="uring" unicode="&#x16f;" horiz-adv-x="606" 
d="M82 82q-16 33 -20 67.5t-4 88.5v323h135v-324q0 -43 6.5 -69.5t20.5 -42.5q22 -25 71 -25q57 0 86 34q17 19 24.5 52.5t7.5 89.5v285h135v-561h-135v18q0 15 3.5 25.5t11.5 21.5l-14 9q-32 -46 -68 -65.5t-85 -19.5q-131 0 -175 93zM239 590.5q-29 17.5 -46 47t-17 63.5
q0 53 37 90t90 37q34 0 63.5 -17t47 -46t17.5 -64t-17 -64t-46.5 -46.5t-64.5 -17.5t-64 17.5zM340.5 663.5q14.5 15.5 14.5 39.5q0 22 -14 36t-38 14t-38 -14t-14 -36q0 -24 15 -39.5t37 -15.5q23 0 37.5 15.5z" />
    <glyph glyph-name="v" unicode="v" horiz-adv-x="546" 
d="M12 561h144l92 -281q9 -29 12.5 -52t5.5 -53h12q0 6 2 26.5t6 40t10 38.5l94 281h144l-208 -561h-107z" />
    <glyph glyph-name="w" unicode="w" horiz-adv-x="844" 
d="M15 561h144l81 -304q9 -33 9 -80h13q1 28 3 45t7 35l90 304h117l90 -304q9 -31 11 -80h12q2 48 10 80l83 304h143l-174 -561h-127l-86 305q-11 46 -14 86h-12q-2 -26 -4.5 -43t-8.5 -43l-88 -305h-128z" />
    <glyph glyph-name="wacute" unicode="&#x1e83;" horiz-adv-x="844" 
d="M15 561h144l81 -304q9 -33 9 -80h13q1 28 3 45t7 35l90 304h117l90 -304q9 -31 11 -80h12q2 48 10 80l83 304h143l-174 -561h-127l-86 305q-11 46 -14 86h-12q-2 -26 -4.5 -43t-8.5 -43l-88 -305h-128zM362 615l115 148h139l-150 -148h-104z" />
    <glyph glyph-name="wcircumflex" unicode="&#x175;" horiz-adv-x="844" 
d="M15 561h144l81 -304q9 -33 9 -80h13q1 28 3 45t7 35l90 304h117l90 -304q9 -31 11 -80h12q2 48 10 80l83 304h143l-174 -561h-127l-86 305q-11 46 -14 86h-12q-2 -26 -4.5 -43t-8.5 -43l-88 -305h-128zM414 793h14l166 -175h-118l-23 30q-25 34 -25 54h-14q0 -20 -25 -54
l-23 -30h-118z" />
    <glyph glyph-name="wdieresis" unicode="&#x1e85;" horiz-adv-x="844" 
d="M15 561h144l81 -304q9 -33 9 -80h13q1 28 3 45t7 35l90 304h117l90 -304q9 -31 11 -80h12q2 48 10 80l83 304h143l-174 -561h-127l-86 305q-11 46 -14 86h-12q-2 -26 -4.5 -43t-8.5 -43l-88 -305h-128zM257 644q-24 21 -24 56q0 33 24 55t59 22q34 0 58.5 -22t24.5 -55
q0 -34 -24 -55.5t-59 -21.5t-59 21zM468 644.5q-24 21.5 -24 55.5q0 33 24.5 55t58.5 22q35 0 59 -22t24 -55q0 -35 -24 -56t-59 -21t-59 21.5z" />
    <glyph glyph-name="wgrave" unicode="&#x1e81;" horiz-adv-x="844" 
d="M15 561h144l81 -304q9 -33 9 -80h13q1 28 3 45t7 35l90 304h117l90 -304q9 -31 11 -80h12q2 48 10 80l83 304h143l-174 -561h-127l-86 305q-11 46 -14 86h-12q-2 -26 -4.5 -43t-8.5 -43l-88 -305h-128zM481 615h-104l-150 148h139z" />
    <glyph glyph-name="x" unicode="x" horiz-adv-x="582" 
d="M205 283l-193 278h155l89 -136q21 -32 27 -61h14q6 31 26 61l91 136h157l-197 -278l196 -283h-156l-91 140q-19 27 -26 61h-14q-7 -34 -26 -61l-90 -140h-154z" />
    <glyph glyph-name="y" unicode="y" horiz-adv-x="565" 
d="M70 -88h61q30 0 45.5 8.5t26.5 37.5l15 40l-207 563h146l109 -341q13 -38 14 -70h13q1 26 12 70l101 341h145l-218 -627q-26 -75 -63.5 -105.5t-106.5 -30.5h-93v114z" />
    <glyph glyph-name="yacute" unicode="&#xfd;" horiz-adv-x="565" 
d="M70 -88h61q30 0 45.5 8.5t26.5 37.5l15 40l-207 563h146l109 -341q13 -38 14 -70h13q1 26 12 70l101 341h145l-218 -627q-26 -75 -63.5 -105.5t-106.5 -30.5h-93v114zM219 615l115 148h139l-150 -148h-104z" />
    <glyph glyph-name="ycircumflex" unicode="&#x177;" horiz-adv-x="565" 
d="M70 -88h61q30 0 45.5 8.5t26.5 37.5l15 40l-207 563h146l109 -341q13 -38 14 -70h13q1 26 12 70l101 341h145l-218 -627q-26 -75 -63.5 -105.5t-106.5 -30.5h-93v114zM272 793h14l166 -175h-118l-23 30q-25 34 -25 54h-14q0 -20 -25 -54l-23 -30h-118z" />
    <glyph glyph-name="ydieresis" unicode="&#xff;" horiz-adv-x="565" 
d="M70 -88h61q30 0 45.5 8.5t26.5 37.5l15 40l-207 563h146l109 -341q13 -38 14 -70h13q1 26 12 70l101 341h145l-218 -627q-26 -75 -63.5 -105.5t-106.5 -30.5h-93v114zM114 644q-24 21 -24 56q0 33 24 55t59 22q34 0 58.5 -22t24.5 -55q0 -34 -24 -55.5t-59 -21.5t-59 21z
M325 644.5q-24 21.5 -24 55.5q0 33 24.5 55t58.5 22q35 0 59 -22t24 -55q0 -35 -24 -56t-59 -21t-59 21.5z" />
    <glyph glyph-name="ygrave" unicode="&#x1ef3;" horiz-adv-x="565" 
d="M70 -88h61q30 0 45.5 8.5t26.5 37.5l15 40l-207 563h146l109 -341q13 -38 14 -70h13q1 26 12 70l101 341h145l-218 -627q-26 -75 -63.5 -105.5t-106.5 -30.5h-93v114zM339 615h-104l-150 148h139z" />
    <glyph glyph-name="z" unicode="z" horiz-adv-x="555" 
d="M31 89l253 289q19 22 34.5 38t41.5 37l-6 12q-22 -8 -37 -10.5t-33 -2.5h-236v109h472v-97l-243 -280q-19 -22 -34.5 -38t-41.5 -37l6 -12q22 8 37 10t33 2h242v-109h-488v89z" />
    <glyph glyph-name="zacute" unicode="&#x17a;" horiz-adv-x="555" 
d="M31 89l253 289q19 22 34.5 38t41.5 37l-6 12q-22 -8 -37 -10.5t-33 -2.5h-236v109h472v-97l-243 -280q-19 -22 -34.5 -38t-41.5 -37l6 -12q22 8 37 10t33 2h242v-109h-488v89zM220 615l115 148h139l-150 -148h-104z" />
    <glyph glyph-name="zcaron" unicode="&#x17e;" horiz-adv-x="555" 
d="M31 89l253 289q19 22 34.5 38t41.5 37l-6 12q-22 -8 -37 -10.5t-33 -2.5h-236v109h472v-97l-243 -280q-19 -22 -34.5 -38t-41.5 -37l6 -12q22 8 37 10t33 2h242v-109h-488v89zM106 763h118l23 -29q25 -36 25 -54h14q0 18 25 54l23 29h118l-166 -174h-14z" />
    <glyph glyph-name="zdotaccent" unicode="&#x17c;" horiz-adv-x="555" 
d="M31 89l253 289q19 22 34.5 38t41.5 37l-6 12q-22 -8 -37 -10.5t-33 -2.5h-236v109h472v-97l-243 -280q-19 -22 -34.5 -38t-41.5 -37l6 -12q22 8 37 10t33 2h242v-109h-488v89zM221 644q-24 21 -24 56q0 33 24 55t59 22q34 0 58.5 -22t24.5 -55q0 -34 -24 -55.5t-59 -21.5
t-59 21z" />
    <glyph glyph-name="ordfeminine" unicode="&#xaa;" horiz-adv-x="442" 
d="M74.5 396.5q-35.5 30.5 -35.5 85.5q0 57 45 89q31 22 92 33l117 22q-2 37 -20 55q-18 20 -52 20q-27 0 -47.5 -16.5t-25.5 -43.5h-94q10 65 57.5 99t110.5 34q35 0 66 -9.5t53 -29.5q30 -27 38 -64t8 -93v-204h-95v11q0 16 9 37l-10 6q-11 -24 -35 -41q-32 -21 -89 -21
t-92.5 30.5zM241 451q24 12 36 31q9 13 12.5 29.5t4.5 19.5q3 8 6 12t9 5l-3 11q-23 -5 -26 -5q-36 -8 -46 -9l-34 -7q-37 -7 -54 -22q-13 -13 -13 -31q0 -22 16 -33.5t42 -11.5t50 11z" />
    <glyph glyph-name="ordmasculine" unicode="&#xba;" horiz-adv-x="480" 
d="M135 392q-46 26 -71.5 72.5t-25.5 107.5q0 59 25.5 105t71 71.5t104.5 25.5t105 -25.5t71.5 -71.5t25.5 -105q0 -60 -25.5 -107t-71 -73t-105.5 -26q-58 0 -104 26zM314 482q29 35 29 90q0 53 -29 87t-75 34t-75 -34t-29 -87q0 -56 29 -90.5t75 -34.5t75 35z" />
    <glyph glyph-name="uni0394" unicode="&#x394;" horiz-adv-x="710" 
d="M7 0l269 763h158l269 -763h-696zM266 127h178q35 0 66 -11l9 11q-14 25 -21 44t-8 23l-109 328q-18 60 -18 98h-16q0 -20 -4.5 -42t-14.5 -56l-109 -328q-12 -38 -28 -67l8 -11q32 11 67 11z" />
    <glyph glyph-name="pi" unicode="&#x3c0;" horiz-adv-x="620" 
d="M92 444h-66v117h556v-117h-90v-281q0 -33 9 -43.5t36 -10.5h45v-109h-75q-72 0 -108.5 32.5t-36.5 102.5v309h-139v-444h-131v444z" />
    <glyph glyph-name="zero" unicode="0" horiz-adv-x="670" 
d="M57 384q0 203 71.5 298t204.5 95q280 0 280 -398q0 -393 -276 -393q-280 0 -280 398zM434 175q35 60 35 206t-36 206t-101 60t-98 -59.5t-33 -205.5q0 -147 34 -207t99 -60t100 60z" />
    <glyph glyph-name="one" unicode="1" horiz-adv-x="451" 
d="M252 593l-12 5q-19 -31 -49 -57q-34 -30 -76.5 -49.5t-80.5 -24.5v133q73 14 128.5 58.5t83.5 104.5h140v-763h-144v514q0 43 10 79z" />
    <glyph glyph-name="two" unicode="2" horiz-adv-x="648" 
d="M55 109l240 210q71 62 105 113.5t34 103.5q0 54 -28.5 85.5t-86.5 31.5q-127 0 -136 -158h-133q5 136 74.5 208.5t195.5 72.5q72 0 128 -27.5t87.5 -79t31.5 -120.5q0 -89 -51.5 -167t-129.5 -147l-79 -71q-23 -22 -58 -42l7 -12q25 11 40 15t38 4h267v-129h-546v109z
" />
    <glyph glyph-name="three" unicode="3" horiz-adv-x="662" 
d="M187.5 17q-64.5 31 -101.5 88.5t-41 135.5h144q16 -132 149 -132q61 0 95 32t34 88q0 57 -39.5 85t-112.5 28h-46v117h41q50 0 83 26.5t33 73.5q0 44 -27 69t-76 25t-80 -27.5t-38 -84.5h-132q4 70 37 123.5t88.5 82.5t125.5 29q71 0 126 -27t85 -74t30 -106
q0 -60 -33 -102.5t-89 -43.5v-16q81 -3 124.5 -53.5t43.5 -126.5q0 -70 -34.5 -125t-97 -85.5t-143.5 -30.5q-84 0 -148.5 31z" />
    <glyph glyph-name="four" unicode="4" horiz-adv-x="647" 
d="M368 0v172h-330v138l333 453h141v-462h97v-129h-97v-172h-144zM205.5 298.5q16.5 2.5 37.5 2.5h125v195q0 25 1.5 41t8.5 41l-12 4q-17 -30 -40 -62l-112 -160q-22 -32 -56 -60l6 -12q25 8 41.5 10.5z" />
    <glyph glyph-name="five" unicode="5" horiz-adv-x="656" 
d="M486.5 492q55.5 -33 86 -92.5t30.5 -136.5q0 -81 -34.5 -144t-97.5 -98t-145 -35q-74 0 -133.5 29.5t-96 83t-44.5 124.5h145q11 -53 45.5 -80.5t87.5 -27.5q59 0 94 40.5t35 106.5q0 63 -36 102.5t-94 39.5q-85 0 -126 -79h-140l81 438h424v-129h-318l-18 -92
q-8 -40 -20 -68l11 -7q52 58 137 58q71 0 126.5 -33z" />
    <glyph glyph-name="six" unicode="6" horiz-adv-x="662" 
d="M129.5 83.5q-74.5 97.5 -74.5 277.5q0 196 75.5 306t216.5 110q110 0 177.5 -60.5t81.5 -166.5h-129q-12 51 -45 77t-85 26q-66 0 -102 -39.5t-49 -113.5q-1 -3 -5 -27t-15 -51l12 -6q35 51 79 70t94 19q72 0 127.5 -30.5t86.5 -87t31 -132.5q0 -78 -33.5 -139.5
t-93.5 -95.5t-136 -34q-139 0 -213.5 97.5zM430 149.5q32 40.5 32 103.5t-32 101t-89 38q-60 0 -96.5 -38.5t-36.5 -100.5q0 -64 36.5 -104t96.5 -40q57 0 89 40.5z" />
    <glyph glyph-name="seven" unicode="7" horiz-adv-x="592" 
d="M400.5 608.5q12.5 17.5 39.5 42.5l-8 12q-29 -18 -51 -23.5t-49 -5.5h-301v129h526v-126l-309 -637h-158l287 569q11 22 23.5 39.5z" />
    <glyph glyph-name="eight" unicode="8" horiz-adv-x="668" 
d="M186.5 16.5q-63.5 30.5 -98.5 85t-35 124.5q0 65 34 115.5t105 70.5v13q-53 15 -79.5 55.5t-26.5 89.5q0 60 31.5 107t87.5 73.5t129 26.5q72 0 128.5 -26.5t88 -73.5t31.5 -107q0 -49 -26.5 -89.5t-79.5 -55.5v-13q70 -20 104.5 -70.5t34.5 -115.5q0 -70 -35 -124.5
t-99 -85t-147 -30.5q-84 0 -147.5 30.5zM414.5 489q28.5 28 28.5 72t-29 71t-80 27t-80 -27t-29 -71t28.5 -72t80.5 -28t80.5 28zM433 144q38 35 38 92q0 56 -37 92t-100 36t-100 -36t-37 -92q0 -57 37.5 -92t99.5 -35q61 0 99 35z" />
    <glyph glyph-name="nine" unicode="9" horiz-adv-x="662" 
d="M532.5 678.5q74.5 -97.5 74.5 -277.5q0 -196 -75.5 -306t-216.5 -110q-110 0 -177.5 60.5t-81.5 166.5h129q12 -51 45 -77t85 -26q66 0 102 39.5t49 113.5q1 3 5 27t15 51l-12 6q-35 -51 -79 -70t-94 -19q-72 0 -127.5 30.5t-86.5 87t-31 132.5q0 78 33.5 139.5
t93.5 95.5t136 34q139 0 213.5 -97.5zM232 612.5q-32 -40.5 -32 -103.5t32 -101t89 -38q60 0 96.5 38.5t36.5 100.5q0 64 -36.5 104t-96.5 40q-57 0 -89 -40.5z" />
    <glyph glyph-name="fraction" unicode="&#x2044;" horiz-adv-x="168" 
d="M-177 0l447 763h75l-447 -763h-75z" />
    <glyph glyph-name="period" unicode="." horiz-adv-x="244" 
d="M66 12.5q-24 23.5 -24 57.5q0 32 24.5 55.5t57.5 23.5q31 0 54.5 -23.5t23.5 -55.5q0 -34 -23 -57.5t-55 -23.5q-34 0 -58 23.5z" />
    <glyph glyph-name="comma" unicode="," horiz-adv-x="274" 
d="M134 -67.5q29 29.5 24 79.5h-12q-7 -23 -37 -23q-27 0 -47 21.5t-20 55.5q0 37 24 60t63 23q49 0 76 -36.5t27 -96.5q0 -73 -45 -126.5t-139 -59.5v69q57 4 86 33.5z" />
    <glyph glyph-name="colon" unicode=":" horiz-adv-x="240" 
d="M63.5 390q-23.5 24 -23.5 57q0 32 24 56t57 24q32 0 55.5 -24t23.5 -56t-23.5 -56.5t-55.5 -24.5q-34 0 -57.5 24zM63.5 12.5q-23.5 23.5 -23.5 57.5q0 32 23.5 55.5t57.5 23.5q32 0 55.5 -23.5t23.5 -55.5q0 -34 -23.5 -57.5t-55.5 -23.5q-34 0 -57.5 23.5z" />
    <glyph glyph-name="semicolon" unicode=";" horiz-adv-x="274" 
d="M66 390q-24 24 -24 57q0 32 23.5 56t56.5 24q32 0 56 -23.5t24 -56.5t-24 -57t-56 -24t-56 24zM134 -67.5q29 29.5 24 79.5h-12q-7 -23 -37 -23q-27 0 -47 21.5t-20 55.5q0 37 24 60t63 23q49 0 76 -36.5t27 -96.5q0 -73 -45 -126.5t-139 -59.5v69q57 4 86 33.5z" />
    <glyph glyph-name="ellipsis" unicode="&#x2026;" horiz-adv-x="689" 
d="M66.5 12.5q-24.5 23.5 -24.5 56.5t24 56.5t58 23.5q31 0 54.5 -24t23.5 -56q0 -33 -23.5 -56.5t-54.5 -23.5q-33 0 -57.5 23.5zM288.5 12.5q-23.5 23.5 -23.5 56.5q0 32 23.5 56t56.5 24t56.5 -24t23.5 -56q0 -33 -23.5 -56.5t-56.5 -23.5t-56.5 23.5zM510.5 12
q-23.5 23 -23.5 57q0 33 24 56.5t57 23.5q32 0 55.5 -24t23.5 -56q0 -33 -23 -56.5t-56 -23.5q-34 0 -57.5 23z" />
    <glyph glyph-name="exclam" unicode="!" horiz-adv-x="276" 
d="M77 292q-1 15 -4 73.5t-3 117.5v280h135v-280q0 -60 -7 -202l-3 -50h-114q-2 42 -4 61zM80.5 12.5q-23.5 23.5 -23.5 57.5q0 32 24 55.5t57 23.5q32 0 55.5 -23.5t23.5 -55.5q0 -34 -23 -57.5t-56 -23.5q-34 0 -57.5 23.5z" />
    <glyph glyph-name="exclamdown" unicode="&#xa1;" horiz-adv-x="356" 
d="M244.5 549q23.5 -24 23.5 -57t-23.5 -56t-57.5 -23q-32 0 -55.5 23t-23.5 56t23.5 57t55.5 24q34 0 57.5 -24zM248 282q7 -145 7 -204v-280h-134v280q0 99 10 253h114z" />
    <glyph glyph-name="question" unicode="?" horiz-adv-x="555" 
d="M226 362.5q15 36.5 36 57.5t54 44q38 26 55.5 48t17.5 60q0 47 -30.5 71t-79.5 24q-56 0 -89 -34t-37 -97h-122q3 75 36 129.5t88 82.5t125 28q66 0 119.5 -23.5t85 -71t31.5 -116.5q0 -44 -12.5 -74.5t-31 -49.5t-48.5 -41q-27 -21 -42.5 -36t-28 -38t-15.5 -56l-6 -41
h-121v42q0 55 15 91.5zM214.5 12.5q-23.5 23.5 -23.5 56.5q0 32 23.5 56t56.5 24q32 0 56 -23.5t24 -55.5q0 -34 -23.5 -57.5t-56.5 -23.5t-56.5 23.5z" />
    <glyph glyph-name="questiondown" unicode="&#xbf;" horiz-adv-x="517" 
d="M315.5 549q23.5 -24 23.5 -57q0 -32 -23.5 -55.5t-56.5 -23.5t-56.5 23t-23.5 56q0 34 23.5 57.5t56.5 23.5t56.5 -24zM303 199q-15 -36 -36 -57t-54 -44q-37 -26 -54.5 -48t-17.5 -60q0 -48 30 -72t80 -24q55 0 88.5 34t37.5 97h122q-4 -75 -36.5 -129t-87.5 -82.5
t-125 -28.5q-103 0 -169.5 54t-66.5 158q0 44 12.5 74.5t30.5 48.5t48 42q40 30 60.5 56t25.5 73l6 42h121v-43q0 -55 -15 -91z" />
    <glyph glyph-name="periodcentered" unicode="&#xb7;" horiz-adv-x="318" 
d="M102 342q-23 23 -23 56q0 34 23 57.5t56 23.5t57 -23.5t24 -57.5q0 -32 -24 -55.5t-57 -23.5t-56 23z" />
    <glyph glyph-name="bullet" unicode="&#x2022;" horiz-adv-x="396" 
d="M107.5 169.5q-37.5 37.5 -37.5 90.5t37.5 90.5t90.5 37.5t90.5 -37.5t37.5 -90.5t-37.5 -90.5t-90.5 -37.5t-90.5 37.5z" />
    <glyph glyph-name="asterisk" unicode="*" horiz-adv-x="425" 
d="M114.5 531.5q23.5 20.5 64.5 46.5l-4 13q-15 -1 -40 -1q-42 0 -71 4t-34 5l34 94q5 -3 27 -13t44.5 -25t45.5 -34l11 9q-15 41 -21 69t-11 64h105q-5 -35 -11 -63t-21 -70l11 -8q34 27 59 41t59 30l32 -94q-54 -8 -97 -8q-29 0 -47 1l-4 -13q40 -25 61.5 -44.5
t50.5 -50.5l-86 -57q-13 28 -27 61.5t-26 71.5h-14q-19 -61 -54 -133l-84 57q24 27 47.5 47.5z" />
    <glyph glyph-name="numbersign" unicode="#" horiz-adv-x="747" 
d="M121 0l48 223h-125v92h145l29 144h-130v96h151l48 208h102l-47 -213h137l45 213h103l-49 -213h126v-91h-145l-33 -144h134v-92h-152l-48 -223h-101l47 223h-138l-45 -223h-102zM291 315h137l29 144h-137z" />
    <glyph glyph-name="slash" unicode="/" horiz-adv-x="473" 
d="M104 -111h-121l351 874h120z" />
    <glyph glyph-name="backslash" unicode="\" horiz-adv-x="473" 
d="M370 -111l-351 874h120l352 -874h-121z" />
    <glyph glyph-name="uni2023" unicode="&#x2023;" horiz-adv-x="445" 
d="M103 90v383l329 -191z" />
    <glyph glyph-name="parenleft" unicode="(" horiz-adv-x="299" 
d="M53 381q0 290 111 491h120q-62 -108 -91.5 -226.5t-29.5 -264.5q0 -145 29 -264.5t91 -226.5h-119q-111 202 -111 491z" />
    <glyph glyph-name="parenright" unicode=")" horiz-adv-x="299" 
d="M107 116.5q29 119.5 29 264.5q0 146 -29.5 264.5t-91.5 226.5h120q111 -201 111 -491q0 -289 -111 -491h-119q62 107 91 226.5z" />
    <glyph glyph-name="braceleft" unicode="{" horiz-adv-x="327" 
d="M126.5 -69.5q-31.5 40.5 -31.5 113.5v192q0 44 -18.5 63.5t-52.5 30.5v102q34 11 52.5 30.5t18.5 63.5v192q0 73 31.5 113.5t91.5 40.5h86v-89h-40q-53 0 -53 -68v-192q0 -61 -26 -93t-82 -40v-18q56 -8 82 -40t26 -93v-192q0 -68 53 -68h40v-89h-86q-60 0 -91.5 40.5z
" />
    <glyph glyph-name="braceright" unicode="}" horiz-adv-x="327" 
d="M24 -110v89h39q53 0 53 68v192q0 61 26 93t82 40v18q-56 8 -82 40t-26 93v192q0 68 -53 68h-39v89h85q60 0 91.5 -40.5t31.5 -113.5v-192q0 -43 18.5 -63t52.5 -31v-102q-34 -11 -52.5 -31t-18.5 -63v-192q0 -73 -31.5 -113.5t-91.5 -40.5h-85z" />
    <glyph glyph-name="bracketleft" unicode="[" horiz-adv-x="342" 
d="M89 -110v982h237v-93h-126v-796h126v-93h-237z" />
    <glyph glyph-name="bracketright" unicode="]" horiz-adv-x="342" 
d="M253 -110h-237v93h126v796h-126v93h237v-982z" />
    <glyph glyph-name="hyphen" unicode="-" horiz-adv-x="365" 
d="M25 267v115h315v-115h-315z" />
    <glyph glyph-name="uni00AD" unicode="&#xad;" horiz-adv-x="392" 
d="M0 276v97h392v-97h-392z" />
    <glyph glyph-name="endash" unicode="&#x2013;" horiz-adv-x="546" 
d="M23 276v97h501v-97h-501z" />
    <glyph glyph-name="emdash" unicode="&#x2014;" horiz-adv-x="1106" 
d="M0 276v97h1106v-97h-1106z" />
    <glyph glyph-name="uni2015" unicode="&#x2015;" horiz-adv-x="802" 
d="M66 288v82h670v-82h-670z" />
    <glyph glyph-name="underscore" unicode="_" horiz-adv-x="430" 
d="M-14 -98v98h458v-98h-458z" />
    <glyph glyph-name="quotesinglbase" unicode="&#x201a;" horiz-adv-x="274" 
d="M134 -67.5q29 29.5 24 79.5h-12q-7 -23 -37 -23q-27 0 -47 21.5t-20 55.5q0 37 24 60t63 23q49 0 76 -36.5t27 -96.5q0 -73 -45 -126.5t-139 -59.5v69q57 4 86 33.5z" />
    <glyph glyph-name="quotedblbase" unicode="&#x201e;" horiz-adv-x="499" 
d="M147 -68.5q29 29.5 25 79.5h-12q-7 -22 -38 -22q-27 0 -47 21t-20 56q0 36 24 59t63 23q50 0 76.5 -36.5t26.5 -96.5q0 -72 -44.5 -126t-138.5 -60v70q56 3 85 32.5zM373 -68.5q29 29.5 25 79.5h-12q-7 -22 -38 -22q-27 0 -47 21t-20 56q0 36 24 59t63 23
q50 0 76.5 -36.5t26.5 -96.5q0 -72 -44.5 -126t-138.5 -60v70q56 3 85 32.5z" />
    <glyph glyph-name="quotedblleft" unicode="&#x201c;" horiz-adv-x="537" 
d="M152 672.5q-29 -29.5 -24 -79.5h12q7 22 37 22q27 0 47 -21t20 -55q0 -37 -24 -60t-63 -23q-49 0 -76 36.5t-27 96.5q0 73 44.5 126.5t138.5 59.5v-69q-56 -4 -85 -33.5zM378 672.5q-29 -29.5 -25 -79.5h12q7 22 38 22q27 0 47 -21t20 -55q0 -37 -24 -60t-63 -23
q-50 0 -76.5 36.5t-26.5 96.5q0 73 44.5 126.5t138.5 59.5v-69q-56 -4 -85 -33.5z" />
    <glyph glyph-name="quotedblright" unicode="&#x201d;" horiz-adv-x="536" 
d="M158 557.5q29 29.5 25 79.5h-12q-7 -22 -38 -22q-27 0 -47 21t-20 56q0 36 24 59t63 23q50 0 76.5 -36.5t26.5 -96.5q0 -72 -44.5 -126t-138.5 -60v70q56 3 85 32.5zM384 557.5q29 29.5 25 79.5h-12q-7 -22 -38 -22q-27 0 -47 21t-20 56q0 36 24 59t63 23
q50 0 76.5 -36.5t26.5 -96.5q0 -72 -44.5 -126t-138.5 -60v70q56 3 85 32.5z" />
    <glyph glyph-name="quoteleft" unicode="&#x2018;" horiz-adv-x="311" 
d="M81 492.5q-27 36.5 -27 96.5q0 72 44.5 126t138.5 60v-70q-56 -3 -85 -32.5t-24 -79.5h12q7 22 37 22q27 0 47 -21t20 -56q0 -36 -24 -59t-63 -23q-49 0 -76 36.5z" />
    <glyph glyph-name="quoteright" unicode="&#x2019;" horiz-adv-x="311" 
d="M158 557.5q29 29.5 25 79.5h-12q-7 -22 -38 -22q-27 0 -47 21t-20 56q0 36 24 59t63 23q50 0 76.5 -36.5t26.5 -96.5q0 -72 -44.5 -126t-138.5 -60v70q56 3 85 32.5z" />
    <glyph glyph-name="guillemotleft" unicode="&#xab;" horiz-adv-x="574" 
d="M4 275l230 193v-114l-50 -42q-18 -13 -29.5 -20t-27.5 -10v-14q16 -3 28.5 -9.5t28.5 -19.5l50 -40v-115zM271 275l230 193v-114l-50 -42q-18 -13 -29.5 -20t-27.5 -10v-14q16 -3 28.5 -9.5t28.5 -19.5l50 -40v-115z" />
    <glyph glyph-name="guillemotright" unicode="&#xbb;" horiz-adv-x="574" 
d="M73 199l50 40q16 13 28.5 19.5t28.5 9.5v14q-16 3 -27.5 10t-29.5 20l-50 42v114l230 -193l-230 -191v115zM340 199l50 40q16 13 28.5 19.5t28.5 9.5v14q-16 3 -27.5 10t-29.5 20l-50 42v114l230 -193l-230 -191v115z" />
    <glyph glyph-name="guilsinglleft" unicode="&#x2039;" horiz-adv-x="307" 
d="M4 275l230 193v-114l-50 -42q-18 -13 -29.5 -20t-27.5 -10v-14q16 -3 28.5 -9.5t28.5 -19.5l50 -40v-115z" />
    <glyph glyph-name="guilsinglright" unicode="&#x203a;" horiz-adv-x="307" 
d="M73 199l50 40q16 13 28.5 19.5t29.5 9.5v14q-16 3 -28 10t-30 20l-50 42v114l231 -193l-231 -191v115z" />
    <glyph glyph-name="quotedbl" unicode="&#x22;" horiz-adv-x="366" 
d="M41 485v278h100v-278h-100zM224 485v278h100v-278h-100z" />
    <glyph glyph-name="quotesingle" unicode="'" horiz-adv-x="181" 
d="M41 485v278h100v-278h-100z" />
    <glyph glyph-name="uni00A0" unicode="&#xa0;" horiz-adv-x="240" 
 />
    <glyph glyph-name="cent" unicode="&#xa2;" horiz-adv-x="622" 
d="M157 40q-57 39 -88 102t-31 142t31 141.5t88 101t132 45.5v90h60v-89q91 -11 154 -62t83 -129h-146q-13 32 -36 50q-6 5 -20 15t-23 24l-12 -5v-371l12 -5q12 17 31 31q4 4 10.5 9.5t9.5 9.5q21 19 30 49h147q-19 -86 -83 -138.5t-157 -60.5v-91h-60v92q-75 10 -132 49z
M289 98v367l-11 5q-9 -16 -33 -35q-9 -6 -16 -13q-51 -49 -51 -138q0 -45 13.5 -81t38.5 -59l16 -15q3 -3 14.5 -13t17.5 -23z" />
    <glyph glyph-name="currency" unicode="&#xa4;" horiz-adv-x="723" 
d="M80 133l67 67q-43 65 -43 141q0 78 43 140l-64 67l70 74l69 -69q60 44 141 44q76 0 139 -42l67 66l74 -72l-67 -67q43 -65 43 -141q0 -79 -43 -142l66 -66l-73 -73l-67 66q-63 -42 -140 -42q-76 0 -141 42l-68 -67zM420 197q28 12 50 34q22 23 34 51.5t12 57.5
q0 30 -11.5 58.5t-34.5 49.5q-22 22 -50.5 34t-58.5 12t-58.5 -12t-50.5 -34q-22 -23 -33 -51t-11 -58t11.5 -58.5t32.5 -49.5q22 -22 51 -34t59 -12t58 12z" />
    <glyph glyph-name="dollar" unicode="$" horiz-adv-x="696" 
d="M130.5 64.5q-82.5 63.5 -95.5 183.5h148q17 -65 62 -98q8 -7 36 -23q5 -3 19.5 -12t27.5 -21l11 8q-7 29 -8.5 47t-1.5 41v142q-88 19 -145.5 43.5t-90.5 68t-33 111.5q0 70 35 120t96 75.5t138 26.5v119h60v-121q99 -18 164.5 -78.5t78.5 -160.5h-142q-10 42 -38 74
l-21 19q-30 27 -40 37l-12 -8q10 -34 10 -63v-142q87 -18 144.5 -44t90 -71.5t32.5 -116.5q0 -105 -70.5 -167.5t-196.5 -66.5v-129h-60v130q-116 13 -198.5 76.5zM331 499.5q-2 15.5 -2 33.5v70q0 30 10 65l-11 9q-26 -17 -54 -27l-19 -9q-25 -11 -38.5 -30t-13.5 -43
q0 -52 59 -79q20 -8 33 -15t35 -24l11 9q-8 25 -10 40.5zM438 117q21 8 35 18q40 28 40 77q0 26 -11 44.5t-33 34.5q-14 8 -23 12q-34 16 -56 33l-11 -8q7 -26 8.5 -42t1.5 -36v-68q0 -21 -1.5 -38.5t-8.5 -43.5l11 -9q15 11 48 26z" />
    <glyph glyph-name="Euro" unicode="&#x20ac;" horiz-adv-x="596" 
d="M236 58q-88 72 -122 191h-69v88h63l-1 49l1 47h-63v90h72q38 117 124 185.5t227 68.5q36 0 70 -6v-133q-32 9 -70 9q-94 0 -150 -62l-13 -15q-20 -24 -42 -46l8 -11q25 7 39.5 8.5t31.5 1.5h165v-90h-256q-1 -16 -1 -48l1 -48h256v-88h-165q-19 0 -34.5 1.5t-41.5 8.5
l-7 -12q19 -19 42 -49q15 -18 14 -17q59 -68 153 -68q38 0 70 9v-131q-35 -5 -70 -5q-144 0 -232 72z" />
    <glyph glyph-name="florin" unicode="&#x192;" horiz-adv-x="449" 
d="M58 -93h52q25 0 38 13t13 43v487h-103v111h103v62q0 69 37 104.5t110 35.5h87v-108h-55q-25 0 -37 -11.5t-12 -41.5v-41h104v-111h-104v-512q0 -68 -38.5 -104t-111.5 -36h-83v109z" />
    <glyph glyph-name="sterling" unicode="&#xa3;" horiz-adv-x="626" 
d="M156 167.5q36 31.5 36 77.5q0 54 -41 125h-96v86h23q13 0 23 -2t26 -8l9 11q-27 39 -27 95q0 68 31 119t85 78.5t119 27.5q58 0 109 -24t85.5 -71.5t43.5 -116.5h-130q-8 48 -37.5 72t-67.5 24q-54 0 -83.5 -32.5t-29.5 -85.5q0 -45 15 -87h204v-86h-99q-20 0 -35 1.5
t-36 8.5l-8 -12q39 -77 39 -130q0 -33 -15.5 -59.5t-54.5 -56.5l7 -17q28 11 46.5 14t45.5 3h234v-122h-527v130q70 6 106 37.5z" />
    <glyph glyph-name="yen" unicode="&#xa5;" horiz-adv-x="702" 
d="M279 138h-164v101h164v46h-164v100h44q22 0 35 -1.5t36 -8.5l7 12q-19 16 -27.5 26.5t-15.5 22.5l-197 327h169l149 -262q17 -29 23 -43.5t6 -38.5h16q0 25 6 40.5t21 41.5l151 262h167l-196 -327q-7 -12 -15.5 -22.5t-27.5 -26.5l7 -12q23 7 36 8.5t35 1.5h44v-100h-162
v-46h162v-101h-162v-138h-147v138z" />
    <glyph glyph-name="plus" unicode="+" horiz-adv-x="628" 
d="M262 58v229h-229v101h229v229h102v-229h230v-101h-230v-229h-102z" />
    <glyph glyph-name="minus" unicode="&#x2212;" horiz-adv-x="661" 
d="M105 289v101h452v-101h-452z" />
    <glyph glyph-name="multiply" unicode="&#xd7;" horiz-adv-x="567" 
d="M122 103l-73 73l162 163l-161 161l71 72l162 -162l162 162l73 -73l-162 -162l162 -162l-71 -72l-163 163z" />
    <glyph glyph-name="divide" unicode="&#xf7;" horiz-adv-x="514" 
d="M183 449v144h147v-144h-147zM25 289v101h464v-101h-464zM183 77v144h147v-144h-147z" />
    <glyph glyph-name="equal" unicode="=" horiz-adv-x="522" 
d="M36 414v114h449v-114h-449zM36 171v114h449v-114h-449z" />
    <glyph glyph-name="greater" unicode="&#x3e;" horiz-adv-x="562" 
d="M46 230l269 93q24 8 39.5 11t39.5 6v13q-24 3 -39.5 6t-39.5 11l-269 93v125l477 -172v-138l-477 -173v125z" />
    <glyph glyph-name="less" unicode="&#x3c;" horiz-adv-x="562" 
d="M39 278v138l477 172v-125l-269 -93q-24 -8 -39.5 -11t-39.5 -6v-13q24 -3 39.5 -6t39.5 -11l269 -93v-125z" />
    <glyph glyph-name="plusminus" unicode="&#xb1;" horiz-adv-x="695" 
d="M296 162v149h-228v101h228v149h103v-149h229v-101h-229v-149h-103zM68 0v101h560v-101h-560z" />
    <glyph glyph-name="asciitilde" unicode="~" horiz-adv-x="527" 
d="M242 218.5q-20 12.5 -45 35.5q-12 13 -21 19.5t-18 6.5q-31 0 -34 -72h-80q3 74 34.5 116.5t84.5 42.5q30 0 51 -13t42 -35q15 -14 23.5 -20t17.5 -6q12 0 20.5 17.5t10.5 52.5h83q-5 -80 -32 -118.5t-83 -38.5q-34 0 -54 12.5z" />
    <glyph glyph-name="asciicircum" unicode="^" horiz-adv-x="556" 
d="M209 763h139l171 -478h-125l-81 237q-20 59 -29 112h-12q-9 -53 -29 -112l-81 -237h-125z" />
    <glyph glyph-name="percent" unicode="%" horiz-adv-x="778" 
d="M121.5 442.5q-37.5 22.5 -58.5 63t-21 93.5q0 52 21 92.5t57.5 63t81.5 22.5t82 -24t58 -65t21 -90t-20.5 -90t-57 -64.5t-80.5 -23.5q-46 0 -83.5 22.5zM97 0l470 763h110l-470 -763h-110zM246 544q16 22 16 54q0 35 -17 56.5t-43 21.5t-42.5 -20t-16.5 -57t17.5 -57
t44.5 -20q25 0 41 22zM495.5 8.5q-37.5 22.5 -58.5 63t-21 92.5t20.5 92.5t57 62.5t82.5 22q45 0 81.5 -23.5t57.5 -64.5t21 -91q0 -49 -20.5 -89t-56.5 -63.5t-80 -23.5q-46 0 -83.5 22.5zM619.5 108q16.5 22 16.5 54q0 36 -17 57t-43 21q-27 0 -43 -19.5t-16 -56.5
q0 -38 16.5 -58t45.5 -20q24 0 40.5 22z" />
    <glyph glyph-name="perthousand" unicode="&#x2030;" horiz-adv-x="1139" 
d="M121.5 442.5q-37.5 22.5 -58.5 63t-21 93.5q0 52 21 92.5t57.5 63t81.5 22.5t82 -24t58 -65t21 -90t-20.5 -90t-57 -64.5t-80.5 -23.5q-46 0 -83.5 22.5zM97 0l470 763h110l-470 -763h-110zM246 544q16 22 16 54q0 35 -17 56.5t-43 21.5t-42.5 -20t-16.5 -57t17.5 -57
t44.5 -20q25 0 41 22zM495.5 8.5q-37.5 22.5 -58.5 63t-21 92.5t20.5 92.5t57 62.5t82.5 22q45 0 81.5 -23.5t57.5 -64.5t21 -91q0 -49 -20.5 -89t-56.5 -63.5t-80 -23.5q-46 0 -83.5 22.5zM856 8.5q-37 22.5 -58 63t-21 92.5t20.5 92.5t57 62.5t81.5 22t82 -23.5t58 -64.5
t21 -91q0 -49 -20.5 -89t-57 -63.5t-80.5 -23.5q-46 0 -83 22.5zM619.5 108q16.5 22 16.5 54q0 36 -17 57t-43 21q-27 0 -43 -19.5t-16 -56.5q0 -38 16.5 -58t45.5 -20q24 0 40.5 22zM980.5 108q16.5 22 16.5 54q0 36 -17.5 57t-43.5 21t-42 -19.5t-16 -56.5q0 -38 16.5 -58
t44.5 -20q25 0 41.5 22z" />
    <glyph glyph-name="lozenge" unicode="&#x25ca;" horiz-adv-x="670" 
d="M234 0l-208 382l207 381h202l208 -382l-207 -381h-202zM334 69l157 313l-156 312l-156 -312z" />
    <glyph glyph-name="uniF8FF" unicode="&#xf8ff;" horiz-adv-x="899" 
d="M68 10v743q0 10 9 10h744q10 0 10 -10v-743q0 -10 -10 -10h-744q-9 0 -9 10zM244 94q11 11 17 22.5t14 31.5q13 36 33 69t67 82l25 26q4 4 8 4q5 0 9 -3q7 -4 17 -6q10 -3 10 -13v-36q0 -43 -5.5 -67t-15.5 -47q-10 -20 -10 -37q0 -14 11 -25t25 -11q15 0 26 11t11 25
q0 17 -10 37q-10 23 -15.5 47t-5.5 67v36q0 10 10 13q13 4 15 6q5 3 8 3q5 0 9 -4l26 -26q48 -48 68 -81.5t33 -69.5q6 -19 12 -30.5t18 -23.5q17 -15 40 -15q26 0 41 15q17 17 17 42t-16 40q-12 12 -23.5 18t-30.5 12q-37 13 -70 32.5t-81 67.5l-26 26q-4 4 -4 9q0 3 3 7
q6 12 7 18q3 11 12 11h36q44 0 68.5 -6t46.5 -16q2 -1 13 -5.5t24 -4.5q14 0 25 11t11 26q0 14 -11 25.5t-25 11.5q-13 0 -24 -4.5t-13 -5.5q-22 -10 -46.5 -16t-68.5 -6h-36q-9 0 -12 11q-4 10 -7 15t-3 8q0 4 4 8l26 26q48 48 82 68.5t69 31.5q4 2 16 6.5t21 10t16 13.5
q17 19 17 41q0 24 -17 41q-16 16 -41 16t-40 -15q-11 -11 -17 -22.5t-14 -32.5q-13 -37 -32.5 -70t-67.5 -81l-25 -24q-3 -4 -9 -4q-4 0 -7 2q-5 3 -17 7q-10 3 -10 13v36q0 43 5.5 67t15.5 47q10 20 10 37q0 14 -11 25t-25 11q-15 0 -26 -11t-11 -25q0 -17 10 -37
q10 -23 15.5 -47t5.5 -67v-36q0 -10 -10 -13q-2 -1 -7.5 -2.5t-9.5 -4.5q-3 -2 -7 -2q-6 0 -10 4l-25 24q-49 49 -69.5 83t-31.5 69q-7 19 -13 31t-17 23q-16 16 -40 16q-22 0 -40 -16q-17 -17 -17 -42t16 -41q11 -11 22.5 -17t30.5 -13q36 -13 69 -33t82 -67l26 -25
q4 -4 4 -8q0 -3 -3 -8q-2 -3 -7 -16q-3 -11 -12 -11h-36q-44 0 -68.5 6t-46.5 16q-2 1 -13 5.5t-24 4.5q-14 0 -25 -11.5t-11 -25.5q0 -15 11 -26t25 -11q13 0 24 4.5t13 5.5q22 10 46.5 16t68.5 6h36q9 0 12 -11q5 -12 8 -17q2 -6 2 -7q0 -5 -4 -9l-26 -27
q-48 -49 -81.5 -68.5t-69.5 -31.5q-20 -7 -31.5 -13t-22.5 -17q-16 -15 -16 -40q0 -24 16 -41q16 -16 42 -16q25 0 40 15zM411 343.5q-16 16.5 -16 38.5t16 38t38 16t38 -16t16 -38q0 -23 -16 -39t-38 -16t-38 16.5zM481 354l-6 6q-10 -13 -26 -13q-14 0 -24 10.5t-10 24.5
t10.5 24t23.5 10q16 0 27 -13l5 6q-11 15 -32 15q-17 0 -30 -12.5t-13 -29.5t13 -30t30 -13q21 0 32 15z" />
    <glyph glyph-name="at" unicode="@" horiz-adv-x="1030" 
d="M266 -128.5q-107 59.5 -167 166.5t-60 243q0 138 61 250.5t171 177t249 64.5q134 0 241 -61t167.5 -169t60.5 -244q0 -97 -31 -174t-88 -121.5t-132 -44.5q-66 0 -97 38t-30 117l-11 3q-61 -97 -166 -97q-51 0 -92 25t-64.5 73.5t-23.5 116.5q0 86 36.5 164.5t100.5 127
t143 48.5q44 0 75 -19.5t55 -65.5l13 1q-5 28 -5 37q0 10 3 20h89l-12 -55q-32 -151 -47.5 -234.5t-16.5 -129.5q0 -85 62 -85q43 0 77 33t53 91t19 129q0 114 -48 201.5t-133.5 136t-195.5 48.5q-115 0 -205 -52.5t-139.5 -144t-49.5 -205.5q0 -112 48 -197.5t134.5 -133
t199.5 -47.5q38 0 68.5 4.5t62.5 16.5v-94q-61 -18 -132 -18q-136 0 -243 59.5zM539 147q44 38 68.5 98t24.5 122q0 119 -95 119q-55 0 -99.5 -36t-69.5 -94.5t-25 -121.5q0 -65 26 -95t71 -30q55 0 99 38z" />
    <glyph glyph-name="ampersand" unicode="&#x26;" horiz-adv-x="747" 
d="M173 8.5q-58 22.5 -93 67.5t-35 108q0 55 28 101.5t73 78.5q24 17 45.5 26.5t48.5 12.5l2 14q-48 19 -77 61q-34 49 -34 106q0 62 29 105.5t77.5 65.5t107.5 22q88 0 146 -45.5t58 -129.5q0 -53 -27 -99t-70 -77q-19 -13 -31 -18.5t-31 -6.5l-3 -14q19 -6 28.5 -13.5
t24.5 -27.5l40 -49q13 -17 19.5 -29t11.5 -32l14 -3q19 35 28 69.5t14 78.5h126q-14 -146 -86 -243l111 -138h-166q-14 18 -21 31.5t-4 37.5l-13 4q-17 -33 -75 -61q-57 -26 -139 -26q-69 0 -127 22.5zM395.5 533q24.5 28 24.5 64q0 28 -20.5 49t-54.5 21t-57.5 -21.5
t-23.5 -56.5q0 -33 16 -60t46 -53q45 29 69.5 57zM376 113q36 12 63 32l-146 182q-57 -35 -86 -65t-29 -71q0 -42 35.5 -66t89.5 -24q37 0 73 12z" />
    <glyph glyph-name="paragraph" unicode="&#xb6;" horiz-adv-x="641" 
d="M155 365.5q-56 26.5 -90 74t-34 110.5q0 65 34 113.5t90.5 74t120.5 25.5h102v-873h-102v445q-65 4 -121 30.5zM471 -110v873h102v-873h-102z" />
    <glyph glyph-name="section" unicode="&#xa7;" horiz-adv-x="721" 
d="M230 -213.5q-69 23.5 -117 76t-57 135.5h148q14 -58 60 -86.5t106 -28.5q61 0 99 24t38 68q0 37 -24.5 59.5t-60.5 34.5t-98 26q-15 2 -37 8q-95 23 -152 64.5t-57 127.5q0 94 83 129v21q-43 12 -63 45.5t-20 79.5q0 64 36.5 111t98 71.5t137.5 24.5q110 0 188.5 -57
t95.5 -161h-139q-15 47 -53.5 71.5t-92.5 24.5t-87 -21.5t-33 -58.5q0 -32 25 -51.5t58 -29t99 -23.5q72 -16 124 -37t87 -64t35 -113q0 -100 -78 -131v-20q78 -24 78 -124q0 -66 -33.5 -115.5t-97 -76.5t-150.5 -27q-77 0 -146 23.5zM507 250q0 33 -19 53.5t-47.5 31.5
t-75.5 23l-47 13q-36 -2 -62.5 -21t-26.5 -49q0 -28 16 -45t45.5 -27.5t84.5 -23.5q61 -14 90 -22q42 23 42 67z" />
    <glyph glyph-name="copyright" unicode="&#xa9;" horiz-adv-x="875" 
d="M242 45q-89 52 -141 141t-52 195q0 107 52 196.5t141 141.5t195 52q107 0 196 -52t141 -141.5t52 -196.5q0 -106 -52 -195t-141.5 -141t-195.5 -52t-195 52zM588 122q69 40 109 108.5t40 150.5q0 83 -40 152t-108.5 109t-151.5 40q-82 0 -150.5 -40t-108.5 -109t-40 -152
q0 -82 40 -150.5t108.5 -108.5t150.5 -40t151 40zM329 193q-49 29 -78 79t-29 109t29 108.5t78 78.5t108 29q46 0 89.5 -20t74.5 -55l-70 -57q-19 21 -44 32t-53 11q-53 0 -90 -37t-37 -90q0 -54 37 -90.5t90 -36.5q28 0 53 11t44 32l70 -58q-30 -35 -74 -55t-90 -20
q-59 0 -108 29z" />
    <glyph glyph-name="registered" unicode="&#xae;" horiz-adv-x="485" 
d="M139.5 398q-46.5 27 -73.5 73.5t-27 102.5t27 102.5t73.5 73.5t102.5 27t102.5 -27t73.5 -73.5t27 -102.5t-27 -102.5t-73.5 -73.5t-102.5 -27t-102.5 27zM327 427.5q39 22.5 61.5 61.5t22.5 85t-22.5 84.5t-61.5 61t-85 22.5t-84.5 -22.5t-61 -61t-22.5 -84.5t22.5 -85
t61 -61.5t84.5 -22.5t85 22.5zM158 691h106q34 0 54.5 -17t20.5 -53q0 -29 -15 -47q-3 -4 -10.5 -8t-14.5 -4l-1 -4q6 -5 9 -10t5 -12l33 -81h-52l-36 94h-50v-94h-49v236zM281.5 598.5q8.5 7.5 8.5 20.5q0 14 -8.5 21.5t-24.5 7.5h-50v-57h50q16 0 24.5 7.5z" />
    <glyph glyph-name="trademark" unicode="&#x2122;" horiz-adv-x="657" 
d="M85 458v235h-82v70h244v-70h-83v-235h-79zM294 763h128l32 -165q7 -28 7 -56h6q0 20 6 56l32 165h129v-305h-80v183q0 28 4 54h-7q-4 -31 -10 -54l-39 -183h-76l-39 183l-4 24l-6 30h-7q4 -26 4 -54v-183h-80v305z" />
    <glyph glyph-name="degree" unicode="&#xb0;" horiz-adv-x="459" 
d="M150.5 482.5q-36.5 21.5 -58 57.5t-21.5 79t21.5 79.5t58 57.5t78.5 21q43 0 79 -21.5t57.5 -57.5t21.5 -79t-21.5 -79t-57.5 -57.5t-79 -21.5q-42 0 -78.5 21.5zM281.5 566.5q21.5 21.5 21.5 52.5t-21.5 52t-52.5 21t-52.5 -21.5t-21.5 -51.5q0 -31 21.5 -52.5
t52.5 -21.5t52.5 21.5z" />
    <glyph glyph-name="bar" unicode="|" horiz-adv-x="336" 
d="M112 -110v982h111v-982h-111z" />
    <glyph glyph-name="brokenbar" unicode="&#xa6;" horiz-adv-x="336" 
d="M112 443v429h111v-429h-111zM112 -110v428h111v-428h-111z" />
    <glyph glyph-name="dagger" unicode="&#x2020;" horiz-adv-x="604" 
d="M250 -202v635h-228v101h228v229h103v-229h229v-101h-229v-635h-103z" />
    <glyph glyph-name="uni2116" unicode="&#x2116;" horiz-adv-x="1288" 
d="M886 321q-54 31 -84.5 86.5t-30.5 128.5q0 70 30 124.5t84.5 85.5t124.5 31t124.5 -31t85 -85.5t30.5 -124.5q0 -72 -30 -128t-84.5 -87t-125.5 -31q-70 0 -124 31zM68 763h162l263 -459q12 -20 21 -41t20 -58l16 4q-7 48 -7 94v460h144v-763h-163l-263 462
q-13 22 -21.5 41.5t-18.5 54.5l-16 -3q7 -48 7 -95v-460h-144v763zM1099.5 428.5q34.5 41.5 34.5 107.5q0 63 -35 103.5t-89 40.5t-89 -40.5t-35 -103.5q0 -67 34.5 -108t89.5 -41t89.5 41.5zM804 127v99h413v-99h-413z" />
    <glyph glyph-name="uni0308" unicode="&#x308;" 
d="M-360 644q-24 21 -24 56q0 33 24 55t59 22q34 0 58.5 -22t24.5 -55q0 -34 -24 -55.5t-59 -21.5t-59 21zM-149 644.5q-24 21.5 -24 55.5q0 33 24.5 55t58.5 22q35 0 59 -22t24 -55q0 -35 -24 -56t-59 -21t-59 21.5z" />
    <glyph glyph-name="uni0307" unicode="&#x307;" 
d="M-149 644q-24 21 -24 56q0 33 24 55t59 22q34 0 58.5 -22t24.5 -55q0 -34 -24 -55.5t-59 -21.5t-59 21z" />
    <glyph glyph-name="gravecomb" unicode="&#x300;" 
d="M-7 615h-104l-150 148h139z" />
    <glyph glyph-name="acutecomb" unicode="&#x301;" 
d="M-261 615l115 148h139l-150 -148h-104z" />
    <glyph glyph-name="uni030B" unicode="&#x30b;" 
d="M-459 615l116 148h127l-139 -148h-104zM-260 615l117 148h136l-149 -148h-104z" />
    <glyph glyph-name="uni030C.alt" 
d="M-91 557.5q29 29.5 25 79.5h-12q-7 -22 -38 -22q-27 0 -47 21t-20 56q0 36 24 59t63 23q50 0 76.5 -36.5t26.5 -96.5q0 -72 -44.5 -126t-138.5 -60v70q56 3 85 32.5z" />
    <glyph glyph-name="uni0302" unicode="&#x302;" 
d="M-187 793h14l166 -175h-118l-23 30q-25 34 -25 54h-14q0 -20 -25 -54l-23 -30h-118z" />
    <glyph glyph-name="uni030C" unicode="&#x30c;" 
d="M-353 763h118l23 -29q25 -36 25 -54h14q0 18 25 54l23 29h118l-166 -174h-14z" />
    <glyph glyph-name="uni0306" unicode="&#x306;" 
d="M-299 649q-42 41 -46 114h79q5 -38 29.5 -57.5t60.5 -19.5q37 0 60.5 19.5t28.5 57.5h81q-4 -72 -48 -113.5t-122 -41.5q-81 0 -123 41z" />
    <glyph glyph-name="uni030A" unicode="&#x30a;" 
d="M-198 592.5q-29 17.5 -46 47t-17 63.5q0 53 37 90t90 37q34 0 63.5 -17t47 -46t17.5 -64t-17 -64t-46.5 -46.5t-64.5 -17.5t-64 17.5zM-96.5 665.5q14.5 15.5 14.5 39.5q0 22 -14 36t-38 14t-38 -14t-14 -36q0 -24 15 -39.5t37 -15.5q23 0 37.5 15.5z" />
    <glyph glyph-name="tildecomb" unicode="&#x303;" 
d="M-175 618.5q-20 12.5 -45 35.5q-12 13 -21 19.5t-18 6.5q-31 0 -34 -72h-80q3 74 34.5 116.5t84.5 42.5q30 0 51 -13t42 -35q15 -14 23.5 -20t17.5 -6q12 0 20.5 17.5t10.5 52.5h83q-5 -80 -32 -118.5t-83 -38.5q-34 0 -54 12.5z" />
    <glyph glyph-name="uni0304" unicode="&#x304;" 
d="M-306 635v64h299v-64h-299z" />
    <glyph glyph-name="uni030F" unicode="&#x30f;" 
d="M-292 600l-129 143q-5 7 -5 10q0 10 14 10h84q12 0 19 -10l99 -143q4 -5 4 -10q0 -4 -3.5 -6.5t-10.5 -2.5h-52q-13 0 -20 9zM-92 600l-122 143q-5 7 -5 11t3.5 6.5t10.5 2.5h77q12 0 19 -10l99 -143q3 -6 3 -10q0 -9 -13 -9h-52q-14 0 -20 9z" />
    <glyph glyph-name="uni0312" unicode="&#x312;" 
d="M-113.5 620q-21.5 26 -21.5 69q0 53 35.5 91.5t111.5 42.5v-50q-45 -2 -68.5 -23t-19.5 -58h9q6 16 30 16q22 0 38 -15t16 -40q0 -26 -19 -42.5t-51 -16.5q-39 0 -60.5 26z" />
    <glyph glyph-name="uni031B" unicode="&#x31b;" 
d="M-107.5 639.5q18.5 27.5 18.5 68.5v39q0 16 16 16h50q16 0 16 -16v-31q0 -79 -40 -126.5t-122 -47.5v70q43 0 61.5 27.5z" />
    <glyph glyph-name="uni0326" unicode="&#x326;" 
d="M-79.5 -159q18.5 9 21.5 25q2 3 2 13h-9q-6 -16 -30 -16q-19 0 -30.5 11.5t-11.5 32.5q0 23 16.5 37.5t42.5 14.5q34 0 53 -20t19 -52q0 -44 -31 -66.5t-91 -22.5v34q30 0 48.5 9z" />
    <glyph glyph-name="uni0327" unicode="&#x327;" 
d="M-232 -199v52q49 -19 87 -19q27 0 42 10.5t15 30.5q0 32 -35 43.5t-99 10.5l77 90h82q-3 -3 -19.5 -20t-48.5 -38l6 -9q20 2 26 2q29 0 49 -10q22 -10 32.5 -26t10.5 -40q0 -44 -36.5 -67.5t-94.5 -23.5q-48 0 -94 14z" />
    <glyph glyph-name="uni0328" unicode="&#x328;" 
d="M-160.5 -190.5q-29.5 22.5 -29.5 63.5q0 39 23.5 64t79.5 45v18h80q-54 -40 -70.5 -56.5t-16.5 -36.5q0 -18 10.5 -27.5t31.5 -9.5q20 0 45 11v-83q-33 -11 -69 -11q-55 0 -84.5 22.5z" />
    <glyph glyph-name="uni0337" unicode="&#x337;" 
d="M-244 277v91l237 123v-91z" />
    <glyph glyph-name="uni0338" unicode="&#x338;" 
d="M-525 11l-60 58l519 519l60 -58z" />
    <glyph glyph-name="dieresis" unicode="&#xa8;" horiz-adv-x="391" 
d="M31 644q-24 21 -24 56q0 33 24 55t59 22q34 0 58.5 -22t24.5 -55q0 -34 -24 -55.5t-59 -21.5t-59 21zM242 644.5q-24 21.5 -24 55.5q0 33 24.5 55t58.5 22q35 0 59 -22t24 -55q0 -35 -24 -56t-59 -21t-59 21.5z" />
    <glyph glyph-name="dotaccent" unicode="&#x2d9;" horiz-adv-x="180" 
d="M31 644q-24 21 -24 56q0 33 24 55t59 22q34 0 58.5 -22t24.5 -55q0 -34 -24 -55.5t-59 -21.5t-59 21z" />
    <glyph glyph-name="grave" unicode="`" horiz-adv-x="268" 
d="M261 615h-104l-150 148h139z" />
    <glyph glyph-name="acute" unicode="&#xb4;" horiz-adv-x="268" 
d="M7 615l115 148h139l-150 -148h-104z" />
    <glyph glyph-name="hungarumlaut" unicode="&#x2dd;" horiz-adv-x="466" 
d="M7 615l116 148h127l-139 -148h-104zM206 615l117 148h136l-149 -148h-104z" />
    <glyph glyph-name="circumflex" unicode="&#x2c6;" horiz-adv-x="360" 
d="M173 793h14l166 -175h-118l-23 30q-25 34 -25 54h-14q0 -20 -25 -54l-23 -30h-118z" />
    <glyph glyph-name="caron" unicode="&#x2c7;" horiz-adv-x="360" 
d="M7 763h118l23 -29q25 -36 25 -54h14q0 18 25 54l23 29h118l-166 -174h-14z" />
    <glyph glyph-name="breve" unicode="&#x2d8;" horiz-adv-x="352" 
d="M53 649q-42 41 -46 114h79q5 -38 29.5 -57.5t60.5 -19.5q37 0 60.5 19.5t28.5 57.5h81q-4 -72 -48 -113.5t-122 -41.5q-81 0 -123 41z" />
    <glyph glyph-name="ring" unicode="&#x2da;" horiz-adv-x="268" 
d="M70 592.5q-29 17.5 -46 47t-17 63.5q0 53 37 90t90 37q34 0 63.5 -17t47 -46t17.5 -64t-17 -64t-46.5 -46.5t-64.5 -17.5t-64 17.5zM171.5 665.5q14.5 15.5 14.5 39.5q0 22 -14 36t-38 14t-38 -14t-14 -36q0 -24 15 -39.5t37 -15.5q23 0 37.5 15.5z" />
    <glyph glyph-name="tilde" unicode="&#x2dc;" horiz-adv-x="380" 
d="M205 618.5q-20 12.5 -45 35.5q-12 13 -21 19.5t-18 6.5q-31 0 -34 -72h-80q3 74 34.5 116.5t84.5 42.5q30 0 51 -13t42 -35q15 -14 23.5 -20t17.5 -6q12 0 20.5 17.5t10.5 52.5h83q-5 -80 -32 -118.5t-83 -38.5q-34 0 -54 12.5z" />
    <glyph glyph-name="macron" unicode="&#xaf;" horiz-adv-x="313" 
d="M7 635v64h299v-64h-299z" />
    <glyph glyph-name="cedilla" unicode="&#xb8;" horiz-adv-x="239" 
d="M7 -199v52q49 -19 87 -19q27 0 42 10.5t15 30.5q0 32 -35 43.5t-99 10.5l77 90h82q-3 -3 -19.5 -20t-48.5 -38l6 -9q20 2 26 2q29 0 49 -10q22 -10 32.5 -26t10.5 -40q0 -44 -36.5 -67.5t-94.5 -23.5q-48 0 -94 14z" />
    <glyph glyph-name="ogonek" unicode="&#x2db;" horiz-adv-x="197" 
d="M36.5 -190.5q-29.5 22.5 -29.5 63.5q0 39 23.5 64t79.5 45v18h80q-54 -40 -70.5 -56.5t-16.5 -36.5q0 -18 10.5 -27.5t31.5 -9.5q20 0 45 11v-83q-33 -11 -69 -11q-55 0 -84.5 22.5z" />
    <glyph glyph-name="uni0308.case" 
d="M-398.5 826.5q-23.5 20.5 -23.5 53.5t23.5 54t57.5 21t57 -21t23 -54t-23 -53.5t-57 -20.5t-57.5 20.5zM-187 826.5q-23 20.5 -23 53.5t23 54t57 21t57.5 -21t23.5 -54t-23.5 -53.5t-57.5 -20.5t-57 20.5z" />
    <glyph glyph-name="uni0307.case" 
d="M-187.5 826.5q-23.5 20.5 -23.5 53.5t23.5 54t57.5 21t57 -21t23 -54t-23 -53.5t-57 -20.5t-57.5 20.5z" />
    <glyph glyph-name="uni0328.case" 
d="M-160.5 -190.5q-29.5 22.5 -29.5 63.5q0 39 23.5 64t79.5 45v18h80q-54 -40 -70.5 -56.5t-16.5 -36.5q0 -18 10.5 -27.5t31.5 -9.5q20 0 45 11v-83q-33 -11 -69 -11q-55 0 -84.5 22.5z" />
    <glyph glyph-name="uni0335.case" 
d="M-486 289v101h416v-101h-416z" />
    <glyph glyph-name="uni0337.case" 
d="M-403 226v105l384 198v-104z" />
    <glyph glyph-name="uni0338.case" 
d="M-642 11l-60 58l669 668l59 -58z" />
    <glyph glyph-name="base_No" horiz-adv-x="496" 
d="M0 0v120h496v-120h-496z" />
    </font>
</defs>
</svg>
